<svg width="28" height="28" viewBox="0 0 28 28" fill="none" xmlns="http://www.w3.org/2000/svg">
<g clip-path="url(#clip0_0_1007)">
<rect width="28" height="28" rx="14" fill="white"/>
<rect x="-6" width="40" height="28" rx="2" fill="white"/>
<mask id="mask0_0_1007" style="mask-type:luminance" maskUnits="userSpaceOnUse" x="-6" y="0" width="40" height="28">
<rect x="-6" width="40" height="28" rx="2" fill="white"/>
</mask>
<g mask="url(#mask0_0_1007)">
<rect x="-6" width="40" height="28" fill="#043CAE"/>
<path fill-rule="evenodd" clip-rule="evenodd" d="M12.6531 5.98661L14 5.60001L15.3468 5.98661L14.9523 4.66667L15.3468 3.34674L14 3.73334L12.6531 3.34674L13.0476 4.66667L12.6531 5.98661ZM12.6531 24.6533L14 24.2667L15.3468 24.6533L14.9523 23.3333L15.3468 22.0134L14 22.4L12.6531 22.0134L13.0476 23.3333L12.6531 24.6533ZM23.5238 14.9333L22.1769 15.3199L22.5714 14L22.1769 12.6801L23.5238 13.0667L24.8706 12.6801L24.4761 14L24.8706 15.3199L23.5238 14.9333ZM3.12927 15.3199L4.47614 14.9333L5.82301 15.3199L5.42852 14L5.82301 12.6801L4.47614 13.0667L3.12927 12.6801L3.52376 14L3.12927 15.3199ZM22.2478 10.2667L20.9009 10.6533L21.2954 9.33334L20.9009 8.01341L22.2478 8.40001L23.5947 8.01341L23.2002 9.33334L23.5947 10.6533L22.2478 10.2667ZM4.40522 19.9866L5.75209 19.6L7.09896 19.9866L6.70447 18.6667L7.09896 17.3467L5.75209 17.7333L4.40522 17.3467L4.79971 18.6667L4.40522 19.9866ZM18.7619 6.85044L17.415 7.23704L17.8095 5.9171L17.415 4.59717L18.7619 4.98377L20.1087 4.59717L19.7142 5.9171L20.1087 7.23704L18.7619 6.85044ZM7.89118 23.4028L9.23805 23.0162L10.5849 23.4028L10.1904 22.0829L10.5849 20.763L9.23805 21.1496L7.89118 20.763L8.28567 22.0829L7.89118 23.4028ZM22.2478 19.6L20.9009 19.9866L21.2954 18.6667L20.9009 17.3467L22.2478 17.7333L23.5947 17.3467L23.2002 18.6667L23.5947 19.9866L22.2478 19.6ZM4.40522 10.6533L5.75209 10.2667L7.09896 10.6533L6.70447 9.33334L7.09896 8.01341L5.75209 8.40001L4.40522 8.01341L4.79971 9.33334L4.40522 10.6533ZM18.7619 23.0162L17.415 23.4028L17.8095 22.0829L17.415 20.763L18.7619 21.1496L20.1087 20.763L19.7142 22.0829L20.1087 23.4028L18.7619 23.0162ZM7.89118 7.23704L9.23805 6.85044L10.5849 7.23704L10.1904 5.9171L10.5849 4.59717L9.23805 4.98377L7.89118 4.59717L8.28567 5.9171L7.89118 7.23704Z" fill="#FFD429"/>
</g>
</g>
<rect x="0.25" y="0.25" width="27.5" height="27.5" rx="13.75" stroke="#AEB2B9" stroke-width="0.5"/>
<defs>
<clipPath id="clip0_0_1007">
<rect width="28" height="28" rx="14" fill="white"/>
</clipPath>
</defs>
</svg>
