<svg width="28" height="28" viewBox="0 0 28 28" fill="none" xmlns="http://www.w3.org/2000/svg">
<g clip-path="url(#clip0_0_1025)">
<rect width="28" height="28" rx="14" fill="white"/>
<rect x="-5.75" y="0.25" width="39.5" height="27.5" rx="1.75" fill="white" stroke="#F5F5F5" stroke-width="0.5"/>
<mask id="mask0_0_1025" style="mask-type:luminance" maskUnits="userSpaceOnUse" x="-6" y="0" width="40" height="28">
<rect x="-5.75" y="0.25" width="39.5" height="27.5" rx="1.75" fill="white" stroke="white" stroke-width="0.5"/>
</mask>
<g mask="url(#mask0_0_1025)">
<path fill-rule="evenodd" clip-rule="evenodd" d="M-6 9.33333H34V0H-6V9.33333Z" fill="#38BB56"/>
<path fill-rule="evenodd" clip-rule="evenodd" d="M-6 28H34V18.6667H-6V28Z" fill="#DE1B27"/>
<path fill-rule="evenodd" clip-rule="evenodd" d="M-3.76188 7.46667C-3.94598 7.46667 -4.09521 7.61591 -4.09521 7.8V9C-4.09521 9.1841 -3.94598 9.33333 -3.76188 9.33333H-2.52379C-2.33969 9.33333 -2.19045 9.1841 -2.19045 9V7.8C-2.19045 7.61591 -2.33969 7.46667 -2.52379 7.46667H-3.76188ZM0.0476427 7.46667C-0.136452 7.46667 -0.285691 7.61591 -0.285691 7.8V9C-0.285691 9.1841 -0.136452 9.33333 0.0476427 9.33333H1.28574C1.46983 9.33333 1.61907 9.1841 1.61907 9V7.8C1.61907 7.61591 1.46983 7.46667 1.28574 7.46667H0.0476427ZM3.52383 7.8C3.52383 7.61591 3.67307 7.46667 3.85717 7.46667H5.09526C5.27936 7.46667 5.4286 7.61591 5.4286 7.8V9C5.4286 9.1841 5.27936 9.33333 5.09526 9.33333H3.85717C3.67307 9.33333 3.52383 9.1841 3.52383 9V7.8ZM7.66669 7.46667C7.48259 7.46667 7.33336 7.61591 7.33336 7.8V9C7.33336 9.1841 7.48259 9.33333 7.66669 9.33333H8.90478C9.08888 9.33333 9.23812 9.1841 9.23812 9V7.8C9.23812 7.61591 9.08888 7.46667 8.90478 7.46667H7.66669ZM11.1429 7.8C11.1429 7.61591 11.2921 7.46667 11.4762 7.46667H12.7143C12.8984 7.46667 13.0476 7.61591 13.0476 7.8V9C13.0476 9.1841 12.8984 9.33333 12.7143 9.33333H11.4762C11.2921 9.33333 11.1429 9.1841 11.1429 9V7.8ZM15.2857 7.46667C15.1016 7.46667 14.9524 7.61591 14.9524 7.8V9C14.9524 9.1841 15.1016 9.33333 15.2857 9.33333H16.5238C16.7079 9.33333 16.8572 9.1841 16.8572 9V7.8C16.8572 7.61591 16.7079 7.46667 16.5238 7.46667H15.2857ZM18.7619 7.8C18.7619 7.61591 18.9112 7.46667 19.0953 7.46667H20.3334C20.5175 7.46667 20.6667 7.61591 20.6667 7.8V9C20.6667 9.1841 20.5175 9.33333 20.3334 9.33333H19.0953C18.9112 9.33333 18.7619 9.1841 18.7619 9V7.8ZM22.9048 7.46667C22.7207 7.46667 22.5715 7.61591 22.5715 7.8V9C22.5715 9.1841 22.7207 9.33333 22.9048 9.33333H24.1429C24.327 9.33333 24.4762 9.1841 24.4762 9V7.8C24.4762 7.61591 24.327 7.46667 24.1429 7.46667H22.9048ZM26.381 7.8C26.381 7.61591 26.5302 7.46667 26.7143 7.46667H27.9524C28.1365 7.46667 28.2857 7.61591 28.2857 7.8V9C28.2857 9.1841 28.1365 9.33333 27.9524 9.33333H26.7143C26.5302 9.33333 26.381 9.1841 26.381 9V7.8ZM30.5238 7.46667C30.3397 7.46667 30.1905 7.61591 30.1905 7.8V9C30.1905 9.1841 30.3397 9.33333 30.5238 9.33333H31.7619C31.946 9.33333 32.0953 9.1841 32.0953 9V7.8C32.0953 7.61591 31.946 7.46667 31.7619 7.46667H30.5238ZM-4.09521 19C-4.09521 18.8159 -3.94598 18.6667 -3.76188 18.6667H-2.52379C-2.33969 18.6667 -2.19045 18.8159 -2.19045 19V20.2C-2.19045 20.3841 -2.33969 20.5333 -2.52379 20.5333H-3.76188C-3.94598 20.5333 -4.09521 20.3841 -4.09521 20.2V19ZM0.0476427 18.6667C-0.136452 18.6667 -0.285691 18.8159 -0.285691 19V20.2C-0.285691 20.3841 -0.136452 20.5333 0.0476427 20.5333H1.28574C1.46983 20.5333 1.61907 20.3841 1.61907 20.2V19C1.61907 18.8159 1.46983 18.6667 1.28574 18.6667H0.0476427ZM3.52383 19C3.52383 18.8159 3.67307 18.6667 3.85717 18.6667H5.09526C5.27936 18.6667 5.4286 18.8159 5.4286 19V20.2C5.4286 20.3841 5.27936 20.5333 5.09526 20.5333H3.85717C3.67307 20.5333 3.52383 20.3841 3.52383 20.2V19ZM7.66669 18.6667C7.48259 18.6667 7.33336 18.8159 7.33336 19V20.2C7.33336 20.3841 7.48259 20.5333 7.66669 20.5333H8.90478C9.08888 20.5333 9.23812 20.3841 9.23812 20.2V19C9.23812 18.8159 9.08888 18.6667 8.90478 18.6667H7.66669ZM11.1429 19C11.1429 18.8159 11.2921 18.6667 11.4762 18.6667H12.7143C12.8984 18.6667 13.0476 18.8159 13.0476 19V20.2C13.0476 20.3841 12.8984 20.5333 12.7143 20.5333H11.4762C11.2921 20.5333 11.1429 20.3841 11.1429 20.2V19ZM15.2857 18.6667C15.1016 18.6667 14.9524 18.8159 14.9524 19V20.2C14.9524 20.3841 15.1016 20.5333 15.2857 20.5333H16.5238C16.7079 20.5333 16.8572 20.3841 16.8572 20.2V19C16.8572 18.8159 16.7079 18.6667 16.5238 18.6667H15.2857ZM18.7619 19C18.7619 18.8159 18.9112 18.6667 19.0953 18.6667H20.3334C20.5175 18.6667 20.6667 18.8159 20.6667 19V20.2C20.6667 20.3841 20.5175 20.5333 20.3334 20.5333H19.0953C18.9112 20.5333 18.7619 20.3841 18.7619 20.2V19ZM22.9048 18.6667C22.7207 18.6667 22.5715 18.8159 22.5715 19V20.2C22.5715 20.3841 22.7207 20.5333 22.9048 20.5333H24.1429C24.327 20.5333 24.4762 20.3841 24.4762 20.2V19C24.4762 18.8159 24.327 18.6667 24.1429 18.6667H22.9048ZM26.381 19C26.381 18.8159 26.5302 18.6667 26.7143 18.6667H27.9524C28.1365 18.6667 28.2857 18.8159 28.2857 19V20.2C28.2857 20.3841 28.1365 20.5333 27.9524 20.5333H26.7143C26.5302 20.5333 26.381 20.3841 26.381 20.2V19ZM30.5238 18.6667C30.3397 18.6667 30.1905 18.8159 30.1905 19V20.2C30.1905 20.3841 30.3397 20.5333 30.5238 20.5333H31.7619C31.946 20.5333 32.0953 20.3841 32.0953 20.2V19C32.0953 18.8159 31.946 18.6667 31.7619 18.6667H30.5238Z" fill="white" fill-opacity="0.5"/>
<mask id="path-8-inside-1_0_1025" fill="white">
<path fill-rule="evenodd" clip-rule="evenodd" d="M12.0764 11.9296C11.5028 12.4417 11.1428 13.1797 11.1428 14C11.1428 15.5464 12.422 16.8 14 16.8V16.8C15.5779 16.8 16.8571 15.5464 16.8571 14C16.8571 13.1951 16.5106 12.4696 15.9558 11.9588"/>
</mask>
<path d="M11.6324 11.4323C10.925 12.0639 10.4762 12.9795 10.4762 14H11.8095C11.8095 13.3798 12.0806 12.8195 12.5204 12.4269L11.6324 11.4323ZM10.4762 14C10.4762 15.9272 12.0666 17.4667 14 17.4667V16.1333C12.7774 16.1333 11.8095 15.1656 11.8095 14H10.4762ZM14 17.4667C15.9334 17.4667 17.5238 15.9272 17.5238 14H16.1904C16.1904 15.1656 15.2225 16.1333 14 16.1333V17.4667ZM17.5238 14C17.5238 12.9988 17.0918 12.0985 16.4073 11.4684L15.5042 12.4493C15.9294 12.8407 16.1904 13.3914 16.1904 14H17.5238Z" fill="#D80915" mask="url(#path-8-inside-1_0_1025)"/>
<rect x="13.0476" y="13.0667" width="1.90476" height="3.73333" rx="0.666667" fill="#D80915"/>
</g>
</g>
<rect x="0.25" y="0.25" width="27.5" height="27.5" rx="13.75" stroke="#AEB2B9" stroke-width="0.5"/>
<defs>
<clipPath id="clip0_0_1025">
<rect width="28" height="28" rx="14" fill="white"/>
</clipPath>
</defs>
</svg>
