<svg width="28" height="28" viewBox="0 0 28 28" fill="none" xmlns="http://www.w3.org/2000/svg">
<g clip-path="url(#clip0_0_1034)">
<rect width="28" height="28" rx="14" fill="white"/>
<rect x="-5.75" y="0.25" width="39.5" height="27.5" rx="1.75" fill="white" stroke="#F5F5F5" stroke-width="0.5"/>
<mask id="mask0_0_1034" style="mask-type:luminance" maskUnits="userSpaceOnUse" x="-6" y="0" width="40" height="28">
<rect x="-5.75" y="0.25" width="39.5" height="27.5" rx="1.75" fill="white" stroke="white" stroke-width="0.5"/>
</mask>
<g mask="url(#mask0_0_1034)">
<path fill-rule="evenodd" clip-rule="evenodd" d="M14 20.5333C17.6819 20.5333 20.6667 17.6083 20.6667 14C20.6667 10.3917 17.6819 7.46666 14 7.46666C10.3181 7.46666 7.33337 10.3917 7.33337 14C7.33337 17.6083 10.3181 20.5333 14 20.5333Z" fill="#E01B41"/>
<mask id="mask1_0_1034" style="mask-type:luminance" maskUnits="userSpaceOnUse" x="7" y="7" width="14" height="14">
<path fill-rule="evenodd" clip-rule="evenodd" d="M14 20.5333C17.6819 20.5333 20.6667 17.6083 20.6667 14C20.6667 10.3917 17.6819 7.46666 14 7.46666C10.3181 7.46666 7.33337 10.3917 7.33337 14C7.33337 17.6083 10.3181 20.5333 14 20.5333Z" fill="white"/>
</mask>
<g mask="url(#mask1_0_1034)">
<path fill-rule="evenodd" clip-rule="evenodd" d="M7.33338 14.9333C9.23814 16.6833 12.0953 17.7333 14 14.9333C15.9048 12.1333 19.7143 12.1333 20.6667 14.9333C21.6191 17.7333 20.6667 20.5333 20.6667 20.5333H7.33338C7.33338 20.5333 5.42862 13.1833 7.33338 14.9333Z" fill="#0E4B9C"/>
</g>
<path opacity="0.75" fill-rule="evenodd" clip-rule="evenodd" d="M23.5837 5.34431C23.4235 5.43497 23.3693 5.63704 23.4628 5.79566L25.9815 10.071C26.075 10.2296 26.2806 10.2847 26.4409 10.1941L27.5102 9.58902C27.6704 9.49836 27.7246 9.29628 27.6311 9.13767L25.1124 4.86232C25.0189 4.70371 24.8133 4.64862 24.6531 4.73927L23.5837 5.34431ZM21.1094 6.74431C20.9491 6.83497 20.895 7.03704 20.9884 7.19566L23.5072 11.471C23.6006 11.6296 23.8063 11.6847 23.9665 11.5941L25.0358 10.989C25.1961 10.8984 25.2502 10.6963 25.1568 10.5377L22.638 6.26232C22.5446 6.10371 22.3389 6.04862 22.1787 6.13927L21.1094 6.74431ZM0.368787 18.8623C0.275342 18.7037 0.329478 18.5016 0.489704 18.411L1.55905 17.8059C1.71927 17.7153 1.92491 17.7704 2.01836 17.929L4.53711 22.2043C4.63055 22.363 4.57642 22.565 4.41619 22.6557L3.34685 23.2607C3.18662 23.3514 2.98098 23.2963 2.88753 23.1377L0.368787 18.8623ZM2.96406 17.011C2.80384 17.1016 2.7497 17.3037 2.84315 17.4623L5.36189 21.7377C5.45534 21.8963 5.66098 21.9514 5.82121 21.8607L6.89055 21.2557C7.05077 21.165 7.10491 20.963 7.01146 20.8043L4.49272 16.529C4.39927 16.3704 4.19363 16.3153 4.0334 16.4059L2.96406 17.011ZM23.5072 16.529C23.6006 16.3704 23.8063 16.3153 23.9665 16.4059L25.0358 17.011C25.1961 17.1016 25.2502 17.3037 25.1568 17.4623L22.638 21.7377C22.5446 21.8963 22.3389 21.9514 22.1787 21.8607L21.1094 21.2557C20.9491 21.165 20.895 20.963 20.9884 20.8043L23.5072 16.529ZM26.4409 17.8059C26.2806 17.7153 26.075 17.7704 25.9815 17.929L23.4628 22.2043C23.3694 22.363 23.4235 22.565 23.5837 22.6557L24.6531 23.2607C24.8133 23.3514 25.0189 23.2963 25.1124 23.1377L27.6311 18.8623C27.7246 18.7037 27.6704 18.5016 27.5102 18.411L26.4409 17.8059ZM2.88753 4.86233C2.98098 4.70371 3.18662 4.64862 3.34685 4.73927L4.41619 5.34431C4.57642 5.43497 4.63055 5.63704 4.53711 5.79566L2.01836 10.071C1.92491 10.2296 1.71927 10.2847 1.55905 10.1941L0.489704 9.58902C0.329478 9.49836 0.275342 9.29629 0.368787 9.13767L2.88753 4.86233ZM5.8212 6.13927C5.66098 6.04862 5.45534 6.10371 5.36189 6.26233L2.84315 10.5377C2.7497 10.6963 2.80384 10.8984 2.96406 10.989L4.0334 11.5941C4.19363 11.6847 4.39927 11.6296 4.49272 11.471L7.01146 7.19566C7.10491 7.03704 7.05077 6.83497 6.89055 6.74431L5.8212 6.13927Z" fill="#262626"/>
</g>
</g>
<rect x="0.25" y="0.25" width="27.5" height="27.5" rx="13.75" stroke="#AEB2B9" stroke-width="0.5"/>
<defs>
<clipPath id="clip0_0_1034">
<rect width="28" height="28" rx="14" fill="white"/>
</clipPath>
</defs>
</svg>
