<svg width="28" height="28" viewBox="0 0 28 28" fill="none" xmlns="http://www.w3.org/2000/svg">
<g clip-path="url(#clip0_0_1067)">
<rect x="-6" width="40" height="28" rx="2" fill="white"/>
<mask id="mask0_0_1067" style="mask-type:luminance" maskUnits="userSpaceOnUse" x="-6" y="0" width="40" height="28">
<rect x="-6" width="40" height="28" rx="2" fill="white"/>
</mask>
<g mask="url(#mask0_0_1067)">
<path fill-rule="evenodd" clip-rule="evenodd" d="M-6 28H34V0H-6V28Z" fill="#30C375"/>
<rect x="-0.285767" width="5.71429" height="28" fill="#DE414F"/>
<path fill-rule="evenodd" clip-rule="evenodd" d="M2.57138 5.6C4.14933 5.6 5.42852 4.76427 5.42852 3.73334C5.42852 2.7024 4.14933 1.86667 2.57138 1.86667C0.99342 1.86667 -0.285767 2.7024 -0.285767 3.73334C-0.285767 4.76427 0.99342 5.6 2.57138 5.6Z" fill="white"/>
<mask id="mask1_0_1067" style="mask-type:luminance" maskUnits="userSpaceOnUse" x="-1" y="1" width="7" height="5">
<path fill-rule="evenodd" clip-rule="evenodd" d="M2.57138 5.6C4.14933 5.6 5.42852 4.76427 5.42852 3.73334C5.42852 2.7024 4.14933 1.86667 2.57138 1.86667C0.99342 1.86667 -0.285767 2.7024 -0.285767 3.73334C-0.285767 4.76427 0.99342 5.6 2.57138 5.6Z" fill="white"/>
</mask>
<g mask="url(#mask1_0_1067)">
<path fill-rule="evenodd" clip-rule="evenodd" d="M2.5714 4.66665C3.09738 4.66665 3.52378 4.24879 3.52378 3.73332C3.52378 3.21786 3.09738 2.79999 2.5714 2.79999C2.04541 2.79999 1.61902 3.21786 1.61902 3.73332C1.61902 4.24879 2.04541 4.66665 2.5714 4.66665Z" fill="#DD404F"/>
<rect x="-0.285767" y="1.86667" width="2.85714" height="1.86667" fill="#FBAF29"/>
<rect x="2.57141" y="3.73334" width="2.85714" height="1.86667" fill="#FBAF29"/>
</g>
<path fill-rule="evenodd" clip-rule="evenodd" d="M2.57138 26.1333C4.14933 26.1333 5.42852 25.2976 5.42852 24.2667C5.42852 23.2357 4.14933 22.4 2.57138 22.4C0.99342 22.4 -0.285767 23.2357 -0.285767 24.2667C-0.285767 25.2976 0.99342 26.1333 2.57138 26.1333Z" fill="white"/>
<mask id="mask2_0_1067" style="mask-type:luminance" maskUnits="userSpaceOnUse" x="-1" y="22" width="7" height="5">
<path fill-rule="evenodd" clip-rule="evenodd" d="M2.57138 26.1333C4.14933 26.1333 5.42852 25.2976 5.42852 24.2667C5.42852 23.2357 4.14933 22.4 2.57138 22.4C0.99342 22.4 -0.285767 23.2357 -0.285767 24.2667C-0.285767 25.2976 0.99342 26.1333 2.57138 26.1333Z" fill="white"/>
</mask>
<g mask="url(#mask2_0_1067)">
<path fill-rule="evenodd" clip-rule="evenodd" d="M2.5714 25.2C3.09738 25.2 3.52378 24.7821 3.52378 24.2666C3.52378 23.7512 3.09738 23.3333 2.5714 23.3333C2.04541 23.3333 1.61902 23.7512 1.61902 24.2666C1.61902 24.7821 2.04541 25.2 2.5714 25.2Z" fill="#DD404F"/>
<rect x="-0.285767" y="22.4" width="2.85714" height="1.86667" fill="#FBAF29"/>
<rect x="2.57141" y="24.2667" width="2.85714" height="1.86667" fill="#FBAF29"/>
</g>
<path fill-rule="evenodd" clip-rule="evenodd" d="M2.57138 16.8C4.14933 16.8 5.42852 15.9643 5.42852 14.9333C5.42852 13.9024 4.14933 13.0667 2.57138 13.0667C0.99342 13.0667 -0.285767 13.9024 -0.285767 14.9333C-0.285767 15.9643 0.99342 16.8 2.57138 16.8Z" fill="#28AE67"/>
<mask id="mask3_0_1067" style="mask-type:luminance" maskUnits="userSpaceOnUse" x="-1" y="13" width="7" height="4">
<path fill-rule="evenodd" clip-rule="evenodd" d="M2.57138 16.8C4.14933 16.8 5.42852 15.9643 5.42852 14.9333C5.42852 13.9024 4.14933 13.0667 2.57138 13.0667C0.99342 13.0667 -0.285767 13.9024 -0.285767 14.9333C-0.285767 15.9643 0.99342 16.8 2.57138 16.8Z" fill="white"/>
</mask>
<g mask="url(#mask3_0_1067)">
<path fill-rule="evenodd" clip-rule="evenodd" d="M2.57139 15.8667C3.62336 15.8667 4.47615 15.4488 4.47615 14.9333C4.47615 14.4179 3.62336 14 2.57139 14C1.51942 14 0.666626 14.4179 0.666626 14.9333C0.666626 15.4488 1.51942 15.8667 2.57139 15.8667Z" fill="#DD404F"/>
</g>
<path fill-rule="evenodd" clip-rule="evenodd" d="M2.57138 20.5333C4.14933 20.5333 5.42852 20.1155 5.42852 19.6C5.42852 19.0845 4.14933 18.6667 2.57138 18.6667C0.99342 18.6667 -0.285767 19.0845 -0.285767 19.6C-0.285767 20.1155 0.99342 20.5333 2.57138 20.5333Z" fill="#28AE67"/>
<mask id="mask4_0_1067" style="mask-type:luminance" maskUnits="userSpaceOnUse" x="-1" y="18" width="7" height="3">
<path fill-rule="evenodd" clip-rule="evenodd" d="M2.57138 20.5333C4.14933 20.5333 5.42852 20.1155 5.42852 19.6C5.42852 19.0845 4.14933 18.6667 2.57138 18.6667C0.99342 18.6667 -0.285767 19.0845 -0.285767 19.6C-0.285767 20.1155 0.99342 20.5333 2.57138 20.5333Z" fill="white"/>
</mask>
<g mask="url(#mask4_0_1067)">
</g>
<path fill-rule="evenodd" clip-rule="evenodd" d="M2.57138 11.2C4.14933 11.2 5.42852 10.3643 5.42852 9.33334C5.42852 8.30241 4.14933 7.46667 2.57138 7.46667C0.99342 7.46667 -0.285767 8.30241 -0.285767 9.33334C-0.285767 10.3643 0.99342 11.2 2.57138 11.2Z" fill="#FBAF29"/>
<mask id="mask5_0_1067" style="mask-type:luminance" maskUnits="userSpaceOnUse" x="-1" y="7" width="7" height="5">
<path fill-rule="evenodd" clip-rule="evenodd" d="M2.57138 11.2C4.14933 11.2 5.42852 10.3643 5.42852 9.33334C5.42852 8.30241 4.14933 7.46667 2.57138 7.46667C0.99342 7.46667 -0.285767 8.30241 -0.285767 9.33334C-0.285767 10.3643 0.99342 11.2 2.57138 11.2Z" fill="white"/>
</mask>
<g mask="url(#mask5_0_1067)">
<path fill-rule="evenodd" clip-rule="evenodd" d="M2.5714 10.2667C3.09738 10.2667 3.52378 9.84879 3.52378 9.33333C3.52378 8.81786 3.09738 8.39999 2.5714 8.39999C2.04541 8.39999 1.61902 8.81786 1.61902 9.33333C1.61902 9.84879 2.04541 10.2667 2.5714 10.2667Z" fill="#DD404F"/>
<rect x="-0.285767" y="7.46667" width="1.90476" height="3.73333" fill="#28AE67"/>
<rect x="3.5238" y="7.46667" width="1.90476" height="3.73333" fill="#28AE67"/>
</g>
<path fill-rule="evenodd" clip-rule="evenodd" d="M15.1752 5.93342C14.8371 6.32829 14.8896 6.917 15.2925 7.24833C15.6955 7.57967 16.2962 7.52816 16.6343 7.13329C16.9724 6.73842 16.9198 6.14972 16.5169 5.81838C16.114 5.48705 15.5133 5.53855 15.1752 5.93342ZM12.7074 9.55172C12.3045 9.22038 11.7037 9.27189 11.3656 9.66676C11.0275 10.0616 11.0801 10.6503 11.483 10.9817C11.886 11.313 12.4867 11.2615 12.8248 10.8666C13.1629 10.4718 13.1103 9.88305 12.7074 9.55172V9.55172ZM10.8026 7.68505C10.3997 7.35372 9.79897 7.40522 9.46087 7.80009C9.12278 8.19496 9.17533 8.78367 9.57826 9.115C9.98119 9.44634 10.5819 9.39483 10.92 8.99996C11.2581 8.60509 11.2055 8.01639 10.8026 7.68505V7.68505ZM14.6121 3.95172C14.2092 3.62038 13.6085 3.67189 13.2704 4.06676C12.9323 4.46163 12.9849 5.05033 13.3878 5.38167C13.7907 5.713 14.3914 5.6615 14.7295 5.26663C15.0676 4.87176 15.0151 4.28305 14.6121 3.95172V3.95172ZM13.6598 6.75172C13.2568 6.42038 12.6561 6.47189 12.318 6.86676C11.9799 7.26163 12.0325 7.85033 12.4354 8.18167C12.8383 8.513 13.4391 8.4615 13.7771 8.06663C14.1152 7.67176 14.0627 7.08305 13.6598 6.75172V6.75172Z" fill="white"/>
<path fill-rule="evenodd" clip-rule="evenodd" d="M18.9658 13.2307C16.6972 15.454 13.019 15.454 10.7504 13.2307C10.5305 13.0153 10.332 12.7869 10.1548 12.548C12.4264 14.1668 15.6248 13.9722 17.6737 11.9644C19.7225 9.95653 19.921 6.82206 18.2692 4.59589C18.513 4.76957 18.746 4.96412 18.9658 5.17955C21.2345 7.40282 21.2345 11.0074 18.9658 13.2307Z" fill="white"/>
</g>
</g>
<rect x="0.25" y="0.25" width="27.5" height="27.5" rx="13.75" stroke="#AEB2B9" stroke-width="0.5"/>
<defs>
<clipPath id="clip0_0_1067">
<rect width="28" height="28" rx="14" fill="white"/>
</clipPath>
</defs>
</svg>
