<svg width="28" height="28" viewBox="0 0 28 28" fill="none" xmlns="http://www.w3.org/2000/svg">
<g clip-path="url(#clip0_0_1082)">
<rect width="40" height="28" rx="2" fill="white"/>
<mask id="mask0_0_1082" style="mask-type:luminance" maskUnits="userSpaceOnUse" x="0" y="0" width="40" height="28">
<rect width="40" height="28" rx="2" fill="white"/>
</mask>
<g mask="url(#mask0_0_1082)">
<path fill-rule="evenodd" clip-rule="evenodd" d="M40 0H0V1.86667H40V0ZM40 3.73333H0V5.6H40V3.73333ZM0 7.46667H40V9.33333H0V7.46667ZM40 11.2H0V13.0667H40V11.2ZM0 14.9333H40V16.8H0V14.9333ZM40 18.6667H0V20.5333H40V18.6667ZM0 22.4H40V24.2667H0V22.4ZM40 26.1333H0V28H40V26.1333Z" fill="#D02F44"/>
<rect width="17.1429" height="13.0667" fill="#46467F"/>
<g filter="url(#filter0_d_0_1082)">
<path fill-rule="evenodd" clip-rule="evenodd" d="M3.80955 2.8C3.80955 3.31547 3.38315 3.73334 2.85717 3.73334C2.33118 3.73334 1.90479 3.31547 1.90479 2.8C1.90479 2.28454 2.33118 1.86667 2.85717 1.86667C3.38315 1.86667 3.80955 2.28454 3.80955 2.8ZM7.61907 2.8C7.61907 3.31547 7.19268 3.73334 6.66669 3.73334C6.1407 3.73334 5.71431 3.31547 5.71431 2.8C5.71431 2.28454 6.1407 1.86667 6.66669 1.86667C7.19268 1.86667 7.61907 2.28454 7.61907 2.8ZM10.4762 3.73334C11.0022 3.73334 11.4286 3.31547 11.4286 2.8C11.4286 2.28454 11.0022 1.86667 10.4762 1.86667C9.95023 1.86667 9.52383 2.28454 9.52383 2.8C9.52383 3.31547 9.95023 3.73334 10.4762 3.73334ZM15.2381 2.8C15.2381 3.31547 14.8117 3.73334 14.2857 3.73334C13.7598 3.73334 13.3334 3.31547 13.3334 2.8C13.3334 2.28454 13.7598 1.86667 14.2857 1.86667C14.8117 1.86667 15.2381 2.28454 15.2381 2.8ZM4.76193 5.6C5.28791 5.6 5.71431 5.18213 5.71431 4.66667C5.71431 4.1512 5.28791 3.73334 4.76193 3.73334C4.23594 3.73334 3.80955 4.1512 3.80955 4.66667C3.80955 5.18213 4.23594 5.6 4.76193 5.6ZM9.52383 4.66667C9.52383 5.18213 9.09744 5.6 8.57145 5.6C8.04547 5.6 7.61907 5.18213 7.61907 4.66667C7.61907 4.1512 8.04547 3.73334 8.57145 3.73334C9.09744 3.73334 9.52383 4.1512 9.52383 4.66667ZM12.381 5.6C12.907 5.6 13.3334 5.18213 13.3334 4.66667C13.3334 4.1512 12.907 3.73334 12.381 3.73334C11.855 3.73334 11.4286 4.1512 11.4286 4.66667C11.4286 5.18213 11.855 5.6 12.381 5.6ZM15.2381 6.53334C15.2381 7.0488 14.8117 7.46667 14.2857 7.46667C13.7598 7.46667 13.3334 7.0488 13.3334 6.53334C13.3334 6.01787 13.7598 5.6 14.2857 5.6C14.8117 5.6 15.2381 6.01787 15.2381 6.53334ZM10.4762 7.46667C11.0022 7.46667 11.4286 7.0488 11.4286 6.53334C11.4286 6.01787 11.0022 5.6 10.4762 5.6C9.95023 5.6 9.52383 6.01787 9.52383 6.53334C9.52383 7.0488 9.95023 7.46667 10.4762 7.46667ZM7.61907 6.53334C7.61907 7.0488 7.19268 7.46667 6.66669 7.46667C6.1407 7.46667 5.71431 7.0488 5.71431 6.53334C5.71431 6.01787 6.1407 5.6 6.66669 5.6C7.19268 5.6 7.61907 6.01787 7.61907 6.53334ZM2.85717 7.46667C3.38315 7.46667 3.80955 7.0488 3.80955 6.53334C3.80955 6.01787 3.38315 5.6 2.85717 5.6C2.33118 5.6 1.90479 6.01787 1.90479 6.53334C1.90479 7.0488 2.33118 7.46667 2.85717 7.46667ZM5.71431 8.4C5.71431 8.91547 5.28791 9.33333 4.76193 9.33333C4.23594 9.33333 3.80955 8.91547 3.80955 8.4C3.80955 7.88454 4.23594 7.46667 4.76193 7.46667C5.28791 7.46667 5.71431 7.88454 5.71431 8.4ZM8.57145 9.33333C9.09744 9.33333 9.52383 8.91547 9.52383 8.4C9.52383 7.88454 9.09744 7.46667 8.57145 7.46667C8.04547 7.46667 7.61907 7.88454 7.61907 8.4C7.61907 8.91547 8.04547 9.33333 8.57145 9.33333ZM13.3334 8.4C13.3334 8.91547 12.907 9.33333 12.381 9.33333C11.855 9.33333 11.4286 8.91547 11.4286 8.4C11.4286 7.88454 11.855 7.46667 12.381 7.46667C12.907 7.46667 13.3334 7.88454 13.3334 8.4ZM14.2857 11.2C14.8117 11.2 15.2381 10.7821 15.2381 10.2667C15.2381 9.7512 14.8117 9.33334 14.2857 9.33334C13.7598 9.33334 13.3334 9.7512 13.3334 10.2667C13.3334 10.7821 13.7598 11.2 14.2857 11.2ZM11.4286 10.2667C11.4286 10.7821 11.0022 11.2 10.4762 11.2C9.95023 11.2 9.52383 10.7821 9.52383 10.2667C9.52383 9.7512 9.95023 9.33334 10.4762 9.33334C11.0022 9.33334 11.4286 9.7512 11.4286 10.2667ZM6.66669 11.2C7.19268 11.2 7.61907 10.7821 7.61907 10.2667C7.61907 9.7512 7.19268 9.33334 6.66669 9.33334C6.1407 9.33334 5.71431 9.7512 5.71431 10.2667C5.71431 10.7821 6.1407 11.2 6.66669 11.2ZM3.80955 10.2667C3.80955 10.7821 3.38315 11.2 2.85717 11.2C2.33118 11.2 1.90479 10.7821 1.90479 10.2667C1.90479 9.7512 2.33118 9.33334 2.85717 9.33334C3.38315 9.33334 3.80955 9.7512 3.80955 10.2667Z" fill="url(#paint0_linear_0_1082)"/>
</g>
</g>
</g>
<rect x="0.25" y="0.25" width="27.5" height="27.5" rx="13.75" stroke="#AEB2B9" stroke-width="0.5"/>
<defs>
<filter id="filter0_d_0_1082" x="1.90479" y="1.86667" width="13.3334" height="10.3333" filterUnits="userSpaceOnUse" color-interpolation-filters="sRGB">
<feFlood flood-opacity="0" result="BackgroundImageFix"/>
<feColorMatrix in="SourceAlpha" type="matrix" values="0 0 0 0 0 0 0 0 0 0 0 0 0 0 0 0 0 0 127 0" result="hardAlpha"/>
<feOffset dy="1"/>
<feColorMatrix type="matrix" values="0 0 0 0 0 0 0 0 0 0 0 0 0 0 0 0 0 0 0.06 0"/>
<feBlend mode="normal" in2="BackgroundImageFix" result="effect1_dropShadow_0_1082"/>
<feBlend mode="normal" in="SourceGraphic" in2="effect1_dropShadow_0_1082" result="shape"/>
</filter>
<linearGradient id="paint0_linear_0_1082" x1="1.90479" y1="1.86667" x2="1.90479" y2="11.2" gradientUnits="userSpaceOnUse">
<stop stop-color="white"/>
<stop offset="1" stop-color="#F0F0F0"/>
</linearGradient>
<clipPath id="clip0_0_1082">
<rect width="28" height="28" rx="14" fill="white"/>
</clipPath>
</defs>
</svg>
