<svg width="330" height="107" viewBox="0 0 330 107" fill="none" xmlns="http://www.w3.org/2000/svg">
<g clip-path="url(#clip0)">
<path d="M97.205 25.61H88.73V19.11H97.205V25.61ZM97.205 66.985H88.73V33.585H97.205V66.985Z" fill="#090807"/>
<path d="M109.74 33.585L110.105 38.245C110.936 36.7014 112.113 35.3716 113.545 34.36C114.88 33.4384 116.468 32.9529 118.09 32.97C119.384 32.9242 120.668 33.2036 121.825 33.7828C122.983 34.362 123.976 35.2223 124.715 36.285C126.315 38.5017 127.115 41.975 127.115 46.705V67H118.64V46.81C118.64 44.31 118.347 42.5433 117.76 41.51C117.508 41.0241 117.122 40.6202 116.648 40.3456C116.174 40.0711 115.632 39.9373 115.085 39.96C114.206 39.9522 113.341 40.1857 112.585 40.635C111.813 41.1129 111.164 41.7654 110.69 42.54V67H101.69V33.585H109.74Z" fill="#090807"/>
<path d="M141.57 25.61V34.11H146.07V40.11H141.57V57C141.57 58.41 141.77 59.41 142.17 60C142.346 60.2784 142.591 60.5067 142.881 60.6626C143.171 60.8185 143.496 60.8969 143.825 60.89C144.16 60.8974 144.495 60.8706 144.825 60.81C145.152 60.7429 145.474 60.6561 145.79 60.55L146.45 66.94C145.702 67.2114 144.933 67.4204 144.15 67.565C143.325 67.7095 142.488 67.7781 141.65 67.77C138.887 67.77 136.768 66.9083 135.295 65.185C133.822 63.4617 133.085 60.75 133.085 57.05V40.05H128.585V34.05H133.085V25.55L141.57 25.61Z" fill="#090807"/>
<path d="M161.87 67.83C157.487 67.83 154.088 66.315 151.675 63.285C149.262 60.255 148.053 56.355 148.05 51.585V50.325C148.05 45.325 149.217 41.24 151.55 38.07C153.883 34.9 157.153 33.3233 161.36 33.34C165.27 33.34 168.27 34.6733 170.36 37.34C172.45 40.0066 173.497 43.66 173.5 48.3V53.025H156.71C156.853 55.485 157.412 57.4416 158.385 58.895C159.358 60.3483 160.858 61.075 162.885 61.075C164.346 61.1129 165.804 60.9102 167.2 60.475C168.514 59.9956 169.766 59.3611 170.93 58.585L173.165 64C171.755 65.2134 170.123 66.1422 168.36 66.735C166.278 67.4788 164.081 67.8494 161.87 67.83ZM161.345 39.86C160.677 39.8335 160.016 40.0007 159.441 40.3413C158.866 40.682 158.402 41.1816 158.105 41.78C157.303 43.4246 156.848 45.2169 156.77 47.045H165V46.28C165 44.25 164.718 42.6733 164.155 41.55C163.911 41.0185 163.512 40.573 163.011 40.2715C162.509 39.97 161.929 39.8266 161.345 39.86Z" fill="#090807"/>
<path d="M191.665 41.12L188.77 41.025C187.914 40.997 187.076 41.2694 186.4 41.795C185.726 42.3708 185.221 43.1192 184.94 43.96V67H176.465V33.585H184.395L184.73 38.31C185.219 36.8335 186.038 35.4878 187.125 34.375C187.565 33.9273 188.091 33.5723 188.67 33.3309C189.25 33.0896 189.872 32.9669 190.5 32.97C190.854 32.9675 191.208 33.0027 191.555 33.075C191.875 33.15 192.205 33.235 192.555 33.34L191.665 41.12Z" fill="#090807"/>
<path d="M207.445 53.025H205.875V67H197.4V19.13H205.875V46.545H207.275L213.23 34.085H223.33L214.39 48.925L224.67 67H214.73L207.445 53.025Z" fill="#008D3C"/>
<path d="M242.06 67C241.723 66.2294 241.452 65.4315 241.25 64.615C241.035 63.7496 240.876 62.8711 240.775 61.985C240.117 63.5333 239.133 64.9215 237.89 66.055C236.679 67.1175 235.111 67.6836 233.5 67.64C230.5 67.64 228.183 66.76 226.55 65C224.917 63.24 224.107 60.82 224.12 57.74C224.12 54.52 225.185 52.02 227.315 50.24C229.445 48.46 232.628 47.5683 236.865 47.565H240.77V44.625C240.77 42.875 240.47 41.53 239.87 40.59C239.591 40.137 239.196 39.7671 238.725 39.5191C238.255 39.271 237.726 39.1539 237.195 39.18C236.736 39.1541 236.277 39.2446 235.862 39.443C235.447 39.6414 235.088 39.9413 234.82 40.315C234.217 41.2838 233.931 42.4161 234 43.555L225.825 43.525L225.765 43.33C225.684 41.8903 225.925 40.4508 226.471 39.1161C227.017 37.7815 227.853 36.5854 228.92 35.615C231.143 33.495 234.078 32.435 237.725 32.435C241.148 32.435 243.923 33.495 246.05 35.615C248.177 37.735 249.238 40.76 249.235 44.69V58.425C249.228 59.8999 249.34 61.373 249.57 62.83C249.801 64.2415 250.149 65.6313 250.61 66.985L242.06 67ZM238.91 59.91C239.535 59.3196 240.003 58.5822 240.27 57.765V52.53H236.5C235.043 52.53 233.983 53 233.32 53.94C232.622 54.9943 232.272 56.2413 232.32 57.505C232.277 58.5024 232.568 59.4856 233.145 60.3C233.938 61.33 235.117 61.6183 236.68 61.165C237.515 60.9279 238.28 60.4922 238.91 59.895V59.91Z" fill="#008D3C"/>
<path d="M267.665 58.255C267.67 57.7732 267.57 57.2961 267.372 56.8568C267.174 56.4174 266.884 56.0261 266.52 55.71C265.757 55.01 264.278 54.1517 262.085 53.135C258.675 51.855 256.112 50.4183 254.395 48.825C253.551 48.047 252.884 47.0965 252.44 46.0379C251.995 44.9793 251.784 43.8375 251.82 42.69C251.812 41.3532 252.101 40.0314 252.668 38.8206C253.234 37.6097 254.064 36.5403 255.095 35.69C257.275 33.77 260.163 32.81 263.76 32.81C267.52 32.81 270.52 33.81 272.76 35.81C273.849 36.7326 274.709 37.8959 275.271 39.208C275.834 40.5201 276.083 41.9449 276 43.37L275.94 43.555H267.5C267.558 42.3534 267.232 41.1645 266.57 40.16C266.244 39.7283 265.815 39.3847 265.323 39.1604C264.83 38.936 264.29 38.8379 263.75 38.875C263.278 38.864 262.809 38.9467 262.37 39.1184C261.93 39.29 261.529 39.5472 261.19 39.875C260.857 40.1831 260.592 40.5577 260.413 40.9745C260.234 41.3914 260.144 41.8413 260.15 42.295C260.131 42.7445 260.211 43.1927 260.384 43.6082C260.557 44.0237 260.818 44.3963 261.15 44.7C261.817 45.31 263.305 46.1517 265.615 47.225C269.152 48.4383 271.78 49.8633 273.5 51.5C274.359 52.3247 275.034 53.3217 275.48 54.4255C275.926 55.5294 276.134 56.7151 276.09 57.905C276.113 59.2594 275.814 60.5998 275.219 61.8165C274.623 63.0333 273.748 64.0916 272.665 64.905C270.378 66.725 267.365 67.635 263.625 67.635C259.722 67.635 256.632 66.5183 254.355 64.285C252.078 62.0517 250.993 59.52 251.1 56.69L251.19 56.5H259.13C259.17 58.32 259.603 59.6283 260.43 60.425C261.365 61.2601 262.593 61.69 263.845 61.62C264.873 61.6914 265.888 61.3636 266.68 60.705C267.008 60.3896 267.266 60.0081 267.436 59.5858C267.606 59.1634 267.684 58.7098 267.665 58.255Z" fill="#008D3C"/>
<path d="M293.83 58.255C293.834 57.7729 293.733 57.2957 293.534 56.8563C293.336 56.417 293.044 56.0259 292.68 55.71C291.917 55.01 290.438 54.1517 288.245 53.135C284.835 51.855 282.272 50.4183 280.555 48.825C279.714 48.0452 279.051 47.0939 278.61 46.0354C278.17 44.9769 277.961 43.836 278 42.69C277.991 41.3536 278.28 40.0321 278.846 38.8213C279.411 37.6105 280.24 36.5408 281.27 35.69C283.45 33.77 286.338 32.81 289.935 32.81C293.698 32.81 296.698 33.81 298.935 35.81C300.016 36.736 300.868 37.8993 301.424 39.209C301.981 40.5186 302.228 41.9393 302.145 43.36L302.08 43.545H293.64C293.698 42.3434 293.372 41.1545 292.71 40.15C292.384 39.7183 291.955 39.3747 291.463 39.1504C290.97 38.926 290.43 38.8279 289.89 38.865C289.418 38.8543 288.949 38.9371 288.51 39.1088C288.071 39.2804 287.67 39.5374 287.33 39.865C286.998 40.1733 286.734 40.5481 286.555 40.965C286.377 41.3819 286.288 41.8316 286.295 42.285C286.276 42.7346 286.356 43.1829 286.528 43.5984C286.701 44.0139 286.963 44.3865 287.295 44.69C287.978 45.3 289.467 46.1417 291.76 47.215C295.297 48.435 297.928 49.8667 299.655 51.51C300.513 52.3349 301.187 53.3321 301.633 54.436C302.078 55.5398 302.285 56.7255 302.24 57.915C302.264 59.2696 301.966 60.6104 301.37 61.8274C300.775 63.0443 299.899 64.1025 298.815 64.915C296.532 66.735 293.518 67.645 289.775 67.645C285.868 67.645 282.778 66.5283 280.505 64.295C278.232 62.0617 277.147 59.53 277.25 56.7L277.345 56.51H285.3C285.34 58.33 285.775 59.6383 286.605 60.435C287.067 60.8488 287.606 61.1674 288.191 61.3725C288.776 61.5776 289.396 61.6651 290.015 61.63C291.043 61.7014 292.058 61.3736 292.85 60.715C293.178 60.3979 293.436 60.0145 293.605 59.5904C293.774 59.1663 293.85 58.7111 293.83 58.255Z" fill="#008D3C"/>
<path d="M321.32 67C320.979 66.2249 320.704 65.4219 320.5 64.6C320.285 63.7346 320.126 62.8561 320.025 61.97C319.367 63.5183 318.383 64.9065 317.14 66.04C315.929 67.1025 314.361 67.6686 312.75 67.625C309.75 67.625 307.433 66.745 305.8 64.985C304.167 63.225 303.357 60.805 303.37 57.725C303.37 54.505 304.433 52.005 306.56 50.225C308.687 48.445 311.872 47.5533 316.115 47.55H320.02V44.625C320.02 42.875 319.72 41.53 319.12 40.59C318.841 40.137 318.446 39.7671 317.975 39.5191C317.505 39.271 316.976 39.1539 316.445 39.18C315.986 39.1541 315.527 39.2446 315.112 39.443C314.697 39.6414 314.338 39.9413 314.07 40.315C313.471 41.2849 313.188 42.4171 313.26 43.555L305.085 43.525L305.025 43.33C304.944 41.8903 305.185 40.4508 305.731 39.1161C306.277 37.7815 307.113 36.5854 308.18 35.615C310.407 33.495 313.342 32.435 316.985 32.435C320.412 32.435 323.187 33.495 325.31 35.615C327.433 37.735 328.497 40.76 328.5 44.69V58.425C328.494 59.8999 328.606 61.373 328.835 62.83C329.066 64.2415 329.414 65.6313 329.875 66.985L321.32 67ZM318.67 59.91C319.295 59.3196 319.763 58.5822 320.03 57.765V52.53H316.255C314.798 52.53 313.738 53 313.075 53.94C312.377 54.9943 312.027 56.2413 312.075 57.505C312.034 58.503 312.326 59.4863 312.905 60.3C313.698 61.33 314.877 61.6183 316.44 61.165C317.275 60.9279 318.04 60.4922 318.67 59.895V59.91Z" fill="#008D3C"/>
<path d="M97.205 83.465C97.2139 84.2183 97.1162 84.969 96.915 85.695C96.7428 86.3209 96.4526 86.9081 96.06 87.425C95.6948 87.9025 95.2242 88.2892 94.685 88.555C94.1087 88.8334 93.475 88.9721 92.835 88.96C92.105 88.9774 91.3799 88.8358 90.71 88.545C90.1259 88.2884 89.6116 87.8958 89.21 87.4V92.9H88.21V77.95H89.12L89.185 79.48C89.5751 78.9417 90.0898 78.5059 90.685 78.21C91.3446 77.8889 92.0717 77.7311 92.805 77.75C93.4497 77.7381 94.0888 77.8714 94.675 78.14C95.2181 78.3951 95.6927 78.7756 96.06 79.25C96.4536 79.7682 96.7439 80.3572 96.915 80.985C97.1177 81.7243 97.2154 82.4885 97.205 83.255V83.465ZM95.705 83.235C95.71 82.6275 95.6429 82.0216 95.505 81.43C95.3891 80.9136 95.1844 80.4213 94.9 79.975C94.639 79.5742 94.2858 79.2416 93.87 79.005C93.4209 78.7613 92.9159 78.639 92.405 78.65C92.0048 78.6438 91.6063 78.7029 91.225 78.825C90.9026 78.9321 90.5989 79.089 90.325 79.29C90.0722 79.4807 89.8511 79.7102 89.67 79.97C89.492 80.2208 89.3427 80.4908 89.225 80.775V86.095C89.3584 86.3749 89.5263 86.637 89.725 86.875C89.9219 87.1158 90.1546 87.3249 90.415 87.495C90.6909 87.6761 90.9927 87.8143 91.31 87.905C91.6774 88.0095 92.0581 88.06 92.44 88.055C92.9479 88.067 93.4498 87.9446 93.895 87.7C94.304 87.452 94.6471 87.109 94.895 86.7C95.1795 86.2519 95.3842 85.7579 95.5 85.24C95.6381 84.645 95.7053 84.0358 95.7 83.425L95.705 83.235Z" fill="#99989C"/>
<path d="M106.025 88.92C105.955 88.555 105.905 88.325 105.87 88.06C105.83 87.7866 105.805 87.5112 105.795 87.235C105.605 87.4751 105.391 87.6946 105.155 87.89C104.902 88.1041 104.623 88.2855 104.325 88.43C104.007 88.5914 103.671 88.7155 103.325 88.8C102.936 88.8971 102.536 88.9442 102.135 88.94C101.649 88.947 101.165 88.8692 100.705 88.71C100.298 88.573 99.9233 88.3534 99.605 88.065C99.3057 87.7936 99.0657 87.4634 98.9 87.095C98.7209 86.6743 98.6361 86.2195 98.6517 85.7625C98.6672 85.3055 98.7827 84.8575 98.99 84.45C99.2318 84.0163 99.5749 83.6475 99.99 83.375C100.462 83.0551 100.989 82.8247 101.545 82.695C102.223 82.569 102.907 82.4838 103.595 82.44H105.71V81.23C105.77 80.899 105.746 80.5583 105.639 80.2393C105.532 79.9203 105.347 79.6333 105.1 79.405C104.514 78.9273 103.769 78.6913 103.015 78.745C102.624 78.7408 102.234 78.7964 101.86 78.91C101.527 79.0186 101.216 79.1882 100.945 79.41C100.698 79.5949 100.494 79.8301 100.345 80.1C100.199 80.3665 100.125 80.6663 100.13 80.97H98.93C98.9271 80.5463 99.0302 80.1286 99.23 79.755C99.4403 79.3674 99.7279 79.027 100.075 78.755C100.466 78.4417 100.91 78.1997 101.385 78.04C101.929 77.8542 102.5 77.7629 103.075 77.77C103.611 77.7656 104.145 77.8398 104.66 77.99C105.116 78.121 105.54 78.3458 105.905 78.65C106.256 78.9466 106.532 79.3217 106.71 79.745C106.813 80.2532 106.813 80.7768 106.71 81.285V86.5C106.854 86.6697 106.961 86.8671 107.025 87.08C107.025 87.28 107.06 87.47 107.09 87.655C107.12 87.84 107.155 88.02 107.195 88.19C107.235 88.36 107.285 88.51 107.195 88.635V88.935L106.025 88.92ZM102.165 87.92C102.573 87.9233 102.978 87.8677 103.37 87.755C103.723 87.6516 104.06 87.4984 104.37 87.3C104.944 86.9385 105.399 86.4171 105.68 85.8V83.425H103.63C103.079 83.4187 102.529 83.474 101.99 83.59C101.557 83.6882 101.143 83.8571 100.765 84.09C100.452 84.275 100.189 84.5343 100 84.845C99.8223 85.148 99.7307 85.4937 99.735 85.845C99.7344 86.1287 99.7922 86.4096 99.905 86.67C100.023 86.926 100.193 87.1544 100.405 87.34C100.629 87.538 100.888 87.6908 101.17 87.79C101.49 87.8974 101.827 87.9481 102.165 87.94V87.92Z" fill="#99989C"/>
<path d="M112.745 87.04L115.9 77.95H117.19L112.615 90.5C112.525 90.75 112.405 91.025 112.26 91.33C112.116 91.6424 111.927 91.9321 111.7 92.19C111.458 92.4652 111.169 92.694 110.845 92.865C110.456 93.059 110.025 93.1534 109.59 93.14H109.36L109.1 93.105L108.855 93.06L108.67 93.015V92.015C108.75 92.015 108.86 92.015 108.995 92.055C109.093 92.0601 109.192 92.0601 109.29 92.055C109.578 92.0603 109.865 92.0181 110.14 91.93C110.378 91.8529 110.598 91.7268 110.785 91.56C110.987 91.3862 111.156 91.178 111.285 90.945C111.437 90.6754 111.564 90.3926 111.665 90.1L112.165 88.67L108.09 77.95H109.4L112.745 87.04Z" fill="#99989C"/>
<path d="M120.27 77.95L120.31 79.735C120.487 79.443 120.693 79.1699 120.925 78.92C121.158 78.6762 121.422 78.4643 121.71 78.29C122.007 78.1166 122.324 77.9822 122.655 77.89C123.015 77.7936 123.387 77.7465 123.76 77.75C124.46 77.7315 125.151 77.9043 125.76 78.25C126.344 78.6256 126.768 79.2046 126.95 79.875C127.121 79.5683 127.327 79.2829 127.565 79.025C127.807 78.7642 128.083 78.5371 128.385 78.35C129.047 77.9447 129.809 77.7349 130.585 77.745C131.094 77.7345 131.601 77.8106 132.085 77.97C132.504 78.1147 132.881 78.3622 133.18 78.69C133.499 79.0518 133.733 79.4806 133.865 79.945C134.037 80.5376 134.118 81.153 134.105 81.77V88.915H133.105V81.865C133.118 81.3841 133.052 80.9044 132.91 80.445C132.803 80.1035 132.612 79.7942 132.355 79.545C132.112 79.3194 131.816 79.1594 131.495 79.08C131.135 78.991 130.766 78.9474 130.395 78.95C129.923 78.9462 129.455 79.0399 129.02 79.225C128.649 79.3867 128.311 79.6136 128.02 79.895C127.756 80.1551 127.542 80.462 127.39 80.8C127.243 81.1029 127.151 81.4297 127.12 81.765V88.92H126.12V81.775C126.131 81.3185 126.063 80.8636 125.92 80.43C125.814 80.1057 125.629 79.8131 125.381 79.579C125.133 79.3449 124.83 79.1768 124.5 79.09C124.137 78.992 123.761 78.9449 123.385 78.95C122.962 78.9412 122.541 79.0142 122.145 79.165C121.801 79.3006 121.483 79.4951 121.205 79.74C120.944 79.9759 120.722 80.2528 120.55 80.56C120.381 80.8606 120.242 81.1771 120.135 81.505V88.92H119.135V77.95H120.27Z" fill="#99989C"/>
<path d="M141 88.94C140.331 88.9484 139.668 88.8138 139.055 88.545C138.472 88.2925 137.949 87.9193 137.52 87.45C137.082 86.9616 136.742 86.3928 136.52 85.775C136.321 85.0774 136.177 84.3652 136.09 83.645V83.235C136.08 82.4654 136.207 81.7002 136.465 80.975C136.684 80.3394 137.024 79.752 137.465 79.245C137.884 78.7778 138.395 78.4017 138.965 78.14C139.521 77.8808 140.127 77.7476 140.74 77.75C141.375 77.7395 142.004 77.8657 142.585 78.12C143.108 78.3575 143.571 78.7095 143.94 79.15C144.318 79.6134 144.6 80.147 144.77 80.72C144.963 81.3689 145.058 82.0431 145.05 82.72V83.45H137.085V83.66C137.292 84.2089 137.47 84.7679 137.62 85.335C137.785 85.8338 138.043 86.2969 138.38 86.7C138.702 87.0816 139.098 87.3931 139.545 87.615C140.014 87.8375 140.527 87.9503 141.045 87.945C141.629 87.9568 142.208 87.839 142.74 87.6C143.264 87.3345 143.719 86.9511 144.07 86.48L144.82 87.05C144.636 87.3161 144.427 87.5639 144.195 87.79C143.951 88.0281 143.675 88.2316 143.375 88.395C143.041 88.5764 142.685 88.7142 142.315 88.805C141.884 88.9039 141.442 88.9492 141 88.94ZM140.97 78.79C140.541 78.7866 140.116 78.874 139.723 79.0463C139.33 79.2187 138.978 79.4721 138.69 79.79C138.382 80.1298 138.135 80.5206 137.96 80.945C137.761 81.4242 137.632 81.9293 137.575 82.445H144.075V82.315C144.06 81.8688 143.986 81.4266 143.855 81C143.728 80.5933 143.53 80.2124 143.27 79.875C143.011 79.5484 142.686 79.2808 142.315 79.09C141.907 78.8868 141.456 78.7839 141 78.79H140.97Z" fill="#99989C"/>
<path d="M148.17 77.95L148.21 79.825C148.387 79.5185 148.598 79.2333 148.84 78.975C149.074 78.7206 149.342 78.4986 149.635 78.315C150.243 77.9387 150.945 77.7428 151.66 77.75C152.141 77.7436 152.619 77.8179 153.075 77.97C153.483 78.1136 153.847 78.3579 154.135 78.68C154.445 79.045 154.672 79.4733 154.8 79.935C154.966 80.5372 155.044 81.1605 155.03 81.785V88.92H154.03V81.875C154.042 81.4028 153.978 80.9319 153.84 80.48C153.74 80.1423 153.56 79.8337 153.315 79.58C153.084 79.3451 152.796 79.173 152.48 79.08C152.125 78.9803 151.758 78.9314 151.39 78.935C150.98 78.9282 150.572 79.0013 150.19 79.15C149.842 79.2867 149.519 79.4811 149.235 79.725C148.961 79.9652 148.722 80.243 148.525 80.55C148.324 80.8472 148.156 81.1658 148.025 81.5V88.905H147.025V77.95H148.17Z" fill="#99989C"/>
<path d="M160 74.96V77.96H162V78.96H160V86.125C159.988 86.4339 160.025 86.7428 160.11 87.04C160.171 87.241 160.277 87.4256 160.42 87.58C160.544 87.7048 160.7 87.7945 160.87 87.84C161.045 87.8805 161.225 87.9006 161.405 87.9C161.572 87.9003 161.739 87.8886 161.905 87.865L162.355 87.805L162.405 88.78C162.219 88.843 162.026 88.8849 161.83 88.905C161.596 88.9349 161.361 88.9499 161.125 88.95C160.805 88.9528 160.486 88.9073 160.18 88.815C159.896 88.7284 159.641 88.5679 159.44 88.35C159.209 88.1021 159.038 87.8045 158.94 87.48C158.883 87.0293 158.893 86.5727 158.97 86.125V78.95H156.97V77.95H158.97V74.95L160 74.96Z" fill="#99989C"/>
<path d="M177.96 83.465C177.968 84.217 177.877 84.9666 177.69 85.695C177.53 86.3152 177.259 86.9013 176.89 87.425C176.551 87.8948 176.11 88.2813 175.6 88.555C175.064 88.8323 174.468 88.9715 173.865 88.96C173.175 88.9768 172.491 88.8348 171.865 88.545C171.326 88.2764 170.858 87.8841 170.5 87.4V92.9H169.5V77.95H170.42L170.48 79.48C170.833 78.9533 171.306 78.518 171.86 78.21C172.477 77.8888 173.165 77.7305 173.86 77.75C174.468 77.7393 175.069 77.873 175.615 78.14C176.13 78.4016 176.576 78.7821 176.915 79.25C177.285 79.775 177.556 80.3629 177.715 80.985C177.903 81.7268 177.994 82.4898 177.985 83.255L177.96 83.465ZM176.96 83.235C176.962 82.6277 176.895 82.0221 176.76 81.43C176.644 80.9137 176.439 80.4213 176.155 79.975C175.894 79.5742 175.541 79.2416 175.125 79.005C174.676 78.761 174.171 78.6386 173.66 78.65C173.26 78.6439 172.861 78.703 172.48 78.825C172.156 78.9289 171.852 79.0861 171.58 79.29C171.327 79.4807 171.106 79.7102 170.925 79.97C170.747 80.2208 170.598 80.4909 170.48 80.775V86.095C170.613 86.375 170.781 86.637 170.98 86.875C171.177 87.1158 171.41 87.3249 171.67 87.495C171.946 87.6761 172.248 87.8144 172.565 87.905C172.932 88.0095 173.313 88.0601 173.695 88.055C174.203 88.0671 174.705 87.9446 175.15 87.7C175.559 87.4521 175.902 87.109 176.15 86.7C176.434 86.252 176.639 85.758 176.755 85.24C176.891 84.6446 176.958 84.0357 176.955 83.425L176.96 83.235Z" fill="#99989C"/>
<path d="M185.38 78.95C185.112 78.9048 184.841 78.883 184.57 78.885C184.196 78.8796 183.823 78.9406 183.47 79.065C183.161 79.1939 182.871 79.3619 182.605 79.565C182.158 79.9298 181.769 80.3596 181.45 80.84V88.92H180.45V77.95H181.45V79.65C181.8 79.1072 182.245 78.6327 182.765 78.25C183.318 77.8972 183.965 77.7227 184.62 77.75C184.771 77.7513 184.921 77.7647 185.07 77.79C185.187 77.8056 185.301 77.8358 185.41 77.88L185.38 78.95Z" fill="#99989C"/>
<path d="M186.435 83.18C186.428 82.4543 186.543 81.7327 186.775 81.045C186.982 80.4239 187.306 79.8485 187.73 79.35C188.144 78.8764 188.656 78.4978 189.23 78.24C189.839 77.9658 190.502 77.8292 191.17 77.84C191.846 77.8283 192.517 77.9649 193.135 78.24C193.709 78.4971 194.221 78.8758 194.635 79.35C195.061 79.847 195.386 80.4229 195.59 81.045C195.816 81.7339 195.927 82.4551 195.92 83.18V83.5C195.927 84.2249 195.816 84.9461 195.59 85.635C195.386 86.2571 195.061 86.833 194.635 87.33C194.221 87.8032 193.709 88.1803 193.135 88.435C192.519 88.6988 191.855 88.8348 191.185 88.8348C190.515 88.8348 189.851 88.6988 189.235 88.435C188.662 88.1771 188.151 87.8005 187.735 87.33C187.307 86.8334 186.981 86.2575 186.775 85.635C186.543 84.9473 186.428 84.2256 186.435 83.5V83.18ZM187.435 83.51C187.432 84.1008 187.517 84.6887 187.685 85.255C187.835 85.7779 188.079 86.2692 188.405 86.705C188.718 87.1194 189.117 87.4607 189.575 87.705C190.072 87.9572 190.623 88.0843 191.18 88.075C191.736 88.0853 192.285 87.9582 192.78 87.705C193.238 87.4607 193.637 87.1194 193.95 86.705C194.276 86.2692 194.52 85.7779 194.67 85.255C194.834 84.6879 194.917 84.1003 194.915 83.51V83.175C194.916 82.5913 194.833 82.0104 194.67 81.45C194.518 80.9262 194.274 80.4335 193.95 79.995C193.635 79.5784 193.232 79.2369 192.77 78.995C192.273 78.7383 191.719 78.6094 191.16 78.62C190.607 78.61 190.06 78.7389 189.57 78.995C189.114 79.24 188.716 79.5812 188.405 79.995C188.081 80.4335 187.837 80.9262 187.685 81.45C187.518 82.0097 187.433 82.5909 187.435 83.175V83.51Z" fill="#99989C"/>
<path d="M202 87.93C202.371 87.9305 202.74 87.8766 203.095 87.77C203.434 87.6601 203.75 87.4908 204.03 87.27C204.305 87.0539 204.534 86.7854 204.705 86.48C204.882 86.1512 204.986 85.7878 205.01 85.415H206.155C206.13 85.9018 206 86.3776 205.775 86.81C205.546 87.2382 205.237 87.6185 204.865 87.93C204.476 88.2484 204.035 88.4956 203.56 88.66C202.398 89.0592 201.129 89.0056 200.005 88.51C199.443 88.2445 198.949 87.8547 198.56 87.37C198.16 86.8604 197.863 86.2779 197.685 85.655C197.475 84.9672 197.385 84.2483 197.42 83.53V83.115C197.385 82.3967 197.475 81.6778 197.685 80.99C197.862 80.3691 198.157 79.7885 198.555 79.28C198.945 78.7968 199.439 78.4073 200 78.14C200.626 77.8484 201.31 77.7047 202 77.72C202.55 77.7148 203.097 77.8062 203.615 77.99C204.094 78.1594 204.536 78.421 204.915 78.76C205.29 79.098 205.591 79.51 205.8 79.97C206.008 80.429 206.132 80.9219 206.165 81.425H205C204.96 81.0656 204.864 80.7146 204.715 80.385C204.557 80.0495 204.336 79.7474 204.065 79.495C203.791 79.2489 203.472 79.0587 203.125 78.935C202.684 78.7821 202.217 78.718 201.751 78.7463C201.285 78.7746 200.829 78.8948 200.41 79.1C199.986 79.3319 199.624 79.663 199.355 80.065C199.073 80.4915 198.871 80.966 198.76 81.465C198.64 81.965 198.575 82.54 198.41 83.115V83.53C198.575 84.11 198.64 84.665 198.76 85.195C198.871 85.6933 199.071 86.1675 199.35 86.595C199.62 86.9976 199.984 87.3287 200.41 87.56C200.9 87.8172 201.447 87.9446 202 87.93Z" fill="#99989C"/>
<path d="M212.465 88.94C211.794 88.9479 211.13 88.8133 210.515 88.545C209.939 88.2901 209.423 87.917 209 87.45C208.562 86.9616 208.222 86.3927 208 85.775C207.855 85.0748 207.818 84.3564 207.89 83.645V83.235C207.881 82.4671 208.001 81.7031 208.245 80.975C208.457 80.3438 208.784 79.7572 209.21 79.245C209.598 78.7849 210.076 78.4089 210.615 78.14C211.137 77.8817 211.712 77.7482 212.295 77.75C212.896 77.7401 213.491 77.8666 214.035 78.12C214.535 78.3605 214.973 78.713 215.315 79.15C215.674 79.6185 215.941 80.1514 216.1 80.72C216.283 81.3707 216.372 82.0441 216.365 82.72V83.45H208.865V83.66C208.813 84.2273 208.887 84.7991 209.08 85.335C209.245 85.8326 209.501 86.2954 209.835 86.7C210.158 87.0758 210.555 87.382 211 87.6C211.469 87.8225 211.982 87.9353 212.5 87.93C213.082 87.9422 213.659 87.8244 214.19 87.585C214.716 87.3198 215.173 86.9364 215.525 86.465L216.275 87.035C216.089 87.2999 215.88 87.5476 215.65 87.775C215.405 88.0143 215.127 88.2179 214.825 88.38C214.491 88.563 214.135 88.7009 213.765 88.79C213.34 88.8934 212.903 88.9438 212.465 88.94ZM212.26 78.79C211.831 78.7837 211.405 78.8698 211.011 79.0423C210.618 79.2148 210.266 79.4698 209.98 79.79C209.67 80.1285 209.423 80.5196 209.25 80.945C209.051 81.4242 208.922 81.9293 208.865 82.445H215.365V82.315C215.355 81.8688 215.282 81.4263 215.15 81C215.023 80.5933 214.825 80.2124 214.565 79.875C214.305 79.5499 213.979 79.2825 213.61 79.09C213.191 78.8818 212.728 78.7789 212.26 78.79Z" fill="#99989C"/>
<path d="M225.07 86.22C225.069 85.9849 225.028 85.7516 224.95 85.53C224.856 85.2782 224.701 85.0533 224.5 84.875C224.227 84.6341 223.916 84.4398 223.58 84.3C223.087 84.0894 222.572 83.9335 222.045 83.835C221.475 83.7168 220.914 83.5615 220.365 83.37C219.921 83.2235 219.501 83.0111 219.12 82.74C218.797 82.5094 218.534 82.2063 218.35 81.855C218.167 81.4801 218.076 81.067 218.085 80.65C218.084 80.2353 218.18 79.8262 218.365 79.455C218.553 79.0673 218.825 78.7259 219.16 78.455C219.535 78.1602 219.96 77.935 220.415 77.79C220.951 77.6193 221.512 77.5365 222.075 77.545C222.673 77.5361 223.269 77.6222 223.84 77.8C224.321 77.9529 224.769 78.1955 225.16 78.515C225.519 78.8083 225.806 79.1793 226 79.6C226.188 80.0233 226.283 80.4819 226.28 80.945H225C225 80.6474 224.933 80.3536 224.805 80.085C224.671 79.8013 224.478 79.5492 224.24 79.345C223.964 79.1269 223.653 78.9578 223.32 78.845C222.916 78.7093 222.491 78.6434 222.065 78.65C221.642 78.6418 221.22 78.7009 220.815 78.825C220.505 78.9251 220.216 79.0829 219.965 79.29C219.75 79.4566 219.578 79.6727 219.465 79.92C219.368 80.1424 219.317 80.3823 219.315 80.625C219.31 80.8601 219.349 81.0941 219.43 81.315C219.524 81.5431 219.678 81.7417 219.875 81.89C220.154 82.1024 220.465 82.271 220.795 82.39C221.299 82.5728 221.816 82.7215 222.34 82.835C222.941 82.9729 223.533 83.1516 224.11 83.37C224.553 83.5371 224.968 83.7715 225.34 84.065C225.648 84.3151 225.896 84.6312 226.065 84.99C226.227 85.3688 226.308 85.7779 226.3 86.19C226.305 86.6321 226.205 87.0692 226.008 87.4649C225.81 87.8605 225.521 88.2034 225.165 88.465C224.769 88.7574 224.323 88.9759 223.85 89.11C223.287 89.2701 222.705 89.3476 222.12 89.34C221.474 89.3494 220.831 89.2566 220.215 89.065C219.707 88.9043 219.234 88.6499 218.82 88.315C218.469 88.0073 218.189 87.6268 218 87.2C217.813 86.8026 217.716 86.3691 217.715 85.93H218.97C218.985 86.3256 219.104 86.7102 219.315 87.045C219.513 87.3331 219.77 87.5753 220.07 87.755C220.38 87.937 220.718 88.067 221.07 88.14C221.427 88.2132 221.79 88.25 222.155 88.25C222.579 88.257 223.002 88.2014 223.41 88.085C223.741 87.9913 224.053 87.8389 224.33 87.635C224.562 87.4625 224.754 87.2405 224.89 86.985C225.01 86.7481 225.072 86.4857 225.07 86.22Z" fill="#99989C"/>
<path d="M235.06 86.22C235.059 85.9849 235.018 85.7516 234.94 85.53C234.846 85.2782 234.691 85.0533 234.49 84.875C234.217 84.6341 233.906 84.4398 233.57 84.3C233.077 84.0894 232.562 83.9335 232.035 83.835C231.465 83.7168 230.904 83.5615 230.355 83.37C229.91 83.2224 229.488 83.0101 229.105 82.74C228.785 82.5077 228.523 82.2049 228.34 81.855C228.157 81.4801 228.066 81.067 228.075 80.65C228.074 80.2353 228.17 79.8262 228.355 79.455C228.543 79.0673 228.815 78.7259 229.15 78.455C229.525 78.1602 229.95 77.935 230.405 77.79C230.941 77.6193 231.502 77.5365 232.065 77.545C232.663 77.5361 233.259 77.6222 233.83 77.8C234.311 77.9529 234.759 78.1955 235.15 78.515C235.512 78.8072 235.803 79.1783 236 79.6C236.188 80.0233 236.283 80.4819 236.28 80.945H235C235 80.6474 234.933 80.3536 234.805 80.085C234.671 79.8013 234.478 79.5492 234.24 79.345C233.963 79.1259 233.65 78.9567 233.315 78.845C232.913 78.7088 232.49 78.6429 232.065 78.65C231.642 78.6418 231.22 78.7009 230.815 78.825C230.505 78.9251 230.216 79.0829 229.965 79.29C229.75 79.4566 229.578 79.6727 229.465 79.92C229.368 80.1424 229.317 80.3823 229.315 80.625C229.31 80.8601 229.349 81.0941 229.43 81.315C229.524 81.5431 229.678 81.7417 229.875 81.89C230.154 82.1024 230.465 82.271 230.795 82.39C231.299 82.5728 231.816 82.7215 232.34 82.835C232.941 82.9729 233.533 83.1516 234.11 83.37C234.553 83.5371 234.968 83.7715 235.34 84.065C235.648 84.3139 235.894 84.6304 236.06 84.99C236.337 85.5871 236.399 86.2617 236.236 86.8996C236.073 87.5374 235.695 88.0992 235.165 88.49C234.768 88.7834 234.32 89.002 233.845 89.135C233.284 89.2951 232.703 89.3726 232.12 89.365C231.474 89.3744 230.831 89.2816 230.215 89.09C229.707 88.9293 229.234 88.6749 228.82 88.34C228.466 88.0251 228.186 87.6358 228 87.2C227.813 86.8026 227.716 86.3691 227.715 85.93H228.97C228.985 86.3256 229.104 86.7102 229.315 87.045C229.513 87.3331 229.77 87.5753 230.07 87.755C230.38 87.937 230.718 88.067 231.07 88.14C231.427 88.2132 231.79 88.25 232.155 88.25C232.579 88.257 233.002 88.2014 233.41 88.085C233.74 87.9924 234.05 87.8398 234.325 87.635C234.56 87.4639 234.753 87.2417 234.89 86.985C235.007 86.7472 235.065 86.4849 235.06 86.22Z" fill="#99989C"/>
<path d="M238.305 74.81C238.3 74.5968 238.379 74.3902 238.525 74.235C238.602 74.1551 238.696 74.0927 238.8 74.0522C238.903 74.0116 239.014 73.9938 239.125 74C239.237 73.9938 239.349 74.0115 239.453 74.052C239.557 74.0926 239.652 74.155 239.73 74.235C239.804 74.3108 239.862 74.4008 239.901 74.4996C239.94 74.5984 239.958 74.704 239.955 74.81C239.958 74.9145 239.939 75.0185 239.901 75.1157C239.862 75.2128 239.804 75.301 239.73 75.375C239.651 75.4534 239.556 75.5143 239.452 75.5539C239.348 75.5935 239.236 75.6109 239.125 75.605C239.018 75.6121 238.91 75.5965 238.809 75.5594C238.708 75.5223 238.616 75.4644 238.539 75.3895C238.461 75.3146 238.401 75.2243 238.36 75.1245C238.32 75.0247 238.301 74.9175 238.305 74.81ZM239.775 88.92H238.775V77.95H239.775V88.92Z" fill="#99989C"/>
<path d="M243.88 77.95L243.92 79.825C244.097 79.5185 244.308 79.2333 244.55 78.975C244.784 78.7206 245.052 78.4986 245.345 78.315C245.953 77.9387 246.655 77.7428 247.37 77.75C247.851 77.7436 248.329 77.8179 248.785 77.97C249.193 78.1125 249.558 78.3569 249.845 78.68C250.157 79.0438 250.384 79.4725 250.51 79.935C250.676 80.5372 250.754 81.1605 250.74 81.785V88.92H249.74V81.875C249.752 81.4028 249.688 80.9319 249.55 80.48C249.45 80.1423 249.27 79.8337 249.025 79.58C248.794 79.3451 248.506 79.173 248.19 79.08C247.835 78.9803 247.468 78.9314 247.1 78.935C246.69 78.9282 246.282 79.0013 245.9 79.15C245.552 79.2867 245.229 79.4811 244.945 79.725C244.67 79.9664 244.43 80.2439 244.23 80.55C244.028 80.8471 243.861 81.1657 243.73 81.5V88.905H242.73V77.95H243.88Z" fill="#99989C"/>
<path d="M253.235 83.255C253.221 82.4948 253.31 81.7362 253.5 81C253.665 80.3756 253.945 79.7873 254.325 79.265C254.666 78.797 255.113 78.4165 255.63 78.155C256.174 77.8885 256.774 77.7549 257.38 77.765C258.076 77.7419 258.766 77.9023 259.38 78.23C259.934 78.5431 260.403 78.9879 260.745 79.525L260.805 77.965H261.71V88.565C261.743 89.2057 261.648 89.8466 261.43 90.45C261.24 90.9774 260.942 91.4593 260.555 91.865C260.17 92.2563 259.704 92.5584 259.19 92.75C258.62 92.9655 258.014 93.0707 257.405 93.06C256.318 93.0607 255.262 92.6982 254.405 92.03C254.11 91.7974 253.851 91.5228 253.635 91.215L254.305 90.495C254.682 90.9837 255.157 91.3875 255.7 91.68C256.203 91.9319 256.758 92.0604 257.32 92.055C257.784 92.0624 258.245 91.9827 258.68 91.82C259.061 91.6722 259.403 91.4396 259.68 91.14C259.963 90.8286 260.176 90.4604 260.305 90.06C260.45 89.635 260.705 88.615 260.705 88.615V87.375C260.351 87.8709 259.883 88.274 259.34 88.55C258.726 88.8461 258.051 88.9918 257.37 88.975C256.767 88.9846 256.171 88.8455 255.635 88.57C255.121 88.298 254.676 87.9113 254.335 87.44C253.956 86.919 253.676 86.3325 253.51 85.71C253.315 84.983 253.221 84.2327 253.23 83.48L253.235 83.255ZM254.235 83.45C254.231 84.0605 254.296 84.6694 254.43 85.265C254.543 85.7808 254.744 86.2731 255.025 86.72C255.276 87.1188 255.619 87.4515 256.025 87.69C256.471 87.9331 256.973 88.0538 257.48 88.04C257.869 88.0435 258.256 87.9913 258.63 87.885C258.949 87.7883 259.253 87.6451 259.53 87.46C259.786 87.2793 260.013 87.062 260.205 86.815C260.404 86.5646 260.572 86.291 260.705 86V80.83C260.588 80.5378 260.438 80.2595 260.26 80C259.881 79.4473 259.334 79.0316 258.7 78.815C258.315 78.6885 257.911 78.6276 257.505 78.635C256.992 78.6217 256.485 78.7442 256.035 78.99C255.627 79.2389 255.284 79.5817 255.035 79.99C254.753 80.4382 254.552 80.9324 254.44 81.45C254.306 82.0439 254.241 82.6512 254.245 83.26L254.235 83.45Z" fill="#99989C"/>
<path d="M276.05 86.22C276.049 85.9848 276.009 85.7516 275.93 85.5299C275.836 85.2781 275.681 85.0532 275.48 84.8749C275.206 84.6351 274.896 84.441 274.56 84.3C274.066 84.0908 273.552 83.9349 273.025 83.8349C272.455 83.7168 271.894 83.5615 271.345 83.37C270.9 83.2224 270.479 83.0101 270.095 82.7399C269.773 82.5093 269.509 82.2062 269.325 81.855C269.144 81.4796 269.055 81.0666 269.065 80.65C269.063 80.2357 269.157 79.8266 269.34 79.455C269.528 79.0673 269.8 78.7259 270.135 78.455C270.512 78.1597 270.939 77.9344 271.395 77.79C271.931 77.6189 272.492 77.5361 273.055 77.5449C273.653 77.5364 274.249 77.6225 274.82 77.8C275.301 77.9528 275.749 78.1954 276.14 78.515C276.491 78.8048 276.771 79.1707 276.96 79.585C277.152 80.0071 277.249 80.4662 277.245 80.93H276C275.999 80.633 275.934 80.3398 275.81 80.07C275.676 79.7863 275.483 79.5341 275.245 79.33C274.967 79.1118 274.655 78.9427 274.32 78.83C273.918 78.6943 273.495 78.6283 273.07 78.635C272.647 78.6262 272.225 78.6852 271.82 78.8099C271.509 78.909 271.221 79.0668 270.97 79.275C270.755 79.4415 270.583 79.6577 270.47 79.905C270.369 80.1262 270.316 80.3666 270.315 80.61C270.313 80.8449 270.351 81.0785 270.43 81.3C270.526 81.5271 270.679 81.7253 270.875 81.875C271.156 82.0872 271.468 82.2558 271.8 82.375C272.304 82.5591 272.82 82.7078 273.345 82.82C273.945 82.9585 274.534 83.1372 275.11 83.355C275.555 83.521 275.972 83.7555 276.345 84.05C276.653 84.2988 276.899 84.6154 277.065 84.9749C277.342 85.5721 277.405 86.2467 277.242 86.8845C277.078 87.5223 276.7 88.0842 276.17 88.4749C275.772 88.7674 275.325 88.9859 274.85 89.12C274.288 89.2805 273.705 89.358 273.12 89.3499C272.475 89.3586 271.832 89.2658 271.215 89.0749C270.709 88.9142 270.237 88.6598 269.825 88.3249C269.468 88.0176 269.186 87.6328 269 87.1999C268.812 86.803 268.713 86.3694 268.71 85.9299H269.97C269.98 86.3263 270.099 86.7122 270.315 87.0449C270.511 87.3342 270.769 87.5766 271.07 87.7549C271.38 87.9377 271.718 88.0678 272.07 88.1399C272.425 88.2131 272.787 88.25 273.15 88.2499C273.576 88.2569 274 88.2013 274.41 88.0849C274.74 87.9923 275.05 87.8398 275.325 87.635C275.559 87.4638 275.75 87.2415 275.885 86.985C276 86.7467 276.057 86.4844 276.05 86.22Z" fill="#99989C"/>
<path d="M282.73 87.04L285.885 77.95H287.175L282.6 90.5C282.51 90.75 282.39 91.025 282.245 91.33C282.101 91.6424 281.913 91.9321 281.685 92.19C281.443 92.4645 281.153 92.6932 280.83 92.865C280.441 93.059 280.01 93.1534 279.575 93.14H279.345L279.085 93.105L278.84 93.06L278.655 93.015V92.015C278.735 92.015 278.845 92.015 278.98 92.055C279.078 92.0601 279.177 92.0601 279.275 92.055C279.563 92.0607 279.851 92.0185 280.125 91.93C280.363 91.8529 280.583 91.7268 280.77 91.56C280.972 91.3862 281.141 91.178 281.27 90.945C281.422 90.6754 281.549 90.3926 281.65 90.1L282.15 88.67L278.075 77.95H279.385L282.73 87.04Z" fill="#99989C"/>
<path d="M295.125 86.2199C295.124 85.9848 295.083 85.7516 295.005 85.5299C294.909 85.279 294.755 85.0545 294.555 84.8749C294.28 84.6341 293.968 84.4399 293.63 84.3C293.137 84.0894 292.622 83.9335 292.095 83.8349C291.526 83.7155 290.965 83.5602 290.415 83.37C289.972 83.2213 289.552 83.0091 289.17 82.7399C288.847 82.5093 288.584 82.2062 288.4 81.855C288.219 81.4796 288.13 81.0666 288.14 80.65C288.138 80.2357 288.232 79.8266 288.415 79.455C288.603 79.0673 288.875 78.7259 289.21 78.455C289.586 78.159 290.013 77.9337 290.47 77.79C291.006 77.6189 291.567 77.5361 292.13 77.5449C292.728 77.5364 293.324 77.6225 293.895 77.8C294.375 77.9511 294.822 78.1939 295.21 78.515C295.561 78.8056 295.843 79.1712 296.035 79.585C296.227 80.0071 296.324 80.4662 296.32 80.93H295.06C295.06 80.6323 294.993 80.3385 294.865 80.07C294.734 79.7842 294.541 79.5314 294.3 79.33C294.025 79.1106 293.713 78.9414 293.38 78.83C292.977 78.6943 292.555 78.6283 292.13 78.635C291.705 78.6262 291.281 78.6853 290.875 78.8099C290.566 78.9101 290.28 79.0679 290.03 79.275C289.817 79.4434 289.646 79.6591 289.53 79.9049C289.433 80.1273 289.382 80.3672 289.38 80.61C289.377 80.8449 289.416 81.0785 289.495 81.3C289.589 81.5281 289.743 81.7267 289.94 81.875C290.219 82.0874 290.53 82.256 290.86 82.375C291.364 82.5577 291.88 82.7064 292.405 82.82C293.006 82.9578 293.598 83.1366 294.175 83.355C294.619 83.5209 295.034 83.7555 295.405 84.05C295.713 84.3 295.961 84.6161 296.13 84.9749C296.292 85.3537 296.373 85.7628 296.365 86.175C296.372 86.6192 296.271 87.0585 296.07 87.455C295.874 87.8494 295.588 88.192 295.235 88.455C294.836 88.7464 294.39 88.9648 293.915 89.0999C293.353 89.2605 292.77 89.338 292.185 89.3299C291.539 89.3393 290.896 89.2465 290.28 89.0549C289.774 88.8942 289.302 88.6398 288.89 88.3049C288.527 88.0123 288.235 87.6414 288.035 87.2199C287.843 86.824 287.744 86.3898 287.745 85.9499H289C289.01 86.3463 289.129 86.7322 289.345 87.065C289.54 87.3553 289.798 87.598 290.1 87.775C290.41 87.9577 290.748 88.0878 291.1 88.16C291.455 88.2331 291.817 88.27 292.18 88.2699C292.606 88.2766 293.03 88.221 293.44 88.105C293.769 88.0103 294.079 87.8579 294.355 87.6549C294.589 87.4838 294.78 87.2615 294.915 87.0049C295.049 86.7646 295.121 86.4949 295.125 86.2199Z" fill="#99989C"/>
<path d="M300.59 74.96V77.96H302.59V78.96H300.59V86.125C300.575 86.434 300.612 86.7433 300.7 87.04C300.759 87.2419 300.866 87.4269 301.01 87.58C301.132 87.7054 301.286 87.7952 301.455 87.84C301.63 87.8805 301.81 87.9006 301.99 87.9C302.157 87.9003 302.324 87.8886 302.49 87.865L302.94 87.805L302.99 88.78C302.804 88.843 302.611 88.8849 302.415 88.905C302.181 88.9349 301.946 88.9499 301.71 88.95C301.392 88.9525 301.075 88.907 300.77 88.815C300.485 88.7285 300.228 88.5681 300.025 88.35C299.796 88.1008 299.625 87.8036 299.525 87.48C299.471 87.0292 299.481 86.5729 299.555 86.125V78.95H297.555V77.95H299.555V74.95L300.59 74.96Z" fill="#99989C"/>
<path d="M308.81 88.94C308.139 88.9488 307.474 88.8142 306.86 88.545C306.277 88.2914 305.754 87.9184 305.325 87.45C304.886 86.9618 304.546 86.3929 304.325 85.775C304.157 85.0776 304.075 84.3623 304.08 83.645V83.235C304.07 82.4654 304.197 81.7002 304.455 80.975C304.684 80.3385 305.031 79.7513 305.48 79.245C305.9 78.7785 306.41 78.4025 306.98 78.14C307.536 77.8808 308.142 77.7476 308.755 77.75C309.389 77.739 310.019 77.8652 310.6 78.12C311.124 78.3562 311.587 78.7084 311.955 79.15C312.332 79.6134 312.615 80.147 312.785 80.72C312.978 81.3689 313.072 82.0431 313.065 82.72V83.45H305.065V83.66C305.125 84.2283 305.24 84.7893 305.41 85.335C305.577 85.8329 305.835 86.2957 306.17 86.7C306.492 87.0829 306.891 87.3945 307.34 87.615C307.808 87.8375 308.321 87.9503 308.84 87.945C309.422 87.9567 309.999 87.8389 310.53 87.6C311.055 87.3348 311.512 86.9514 311.865 86.48L312.615 87.05C312.429 87.3149 312.22 87.5626 311.99 87.79C311.745 88.0293 311.467 88.2329 311.165 88.395C310.831 88.5772 310.475 88.7151 310.105 88.805C309.68 88.9029 309.245 88.9483 308.81 88.94ZM308.47 78.79C308.036 78.7871 307.607 78.8757 307.21 79.05C306.832 79.2292 306.492 79.4806 306.21 79.79C305.901 80.1298 305.654 80.5206 305.48 80.945C305.285 81.4252 305.157 81.9299 305.1 82.445H311.6V82.315C311.59 81.8684 311.516 81.4255 311.38 81C311.255 80.5925 311.057 80.2112 310.795 79.875C310.537 79.5472 310.211 79.2793 309.84 79.09C309.415 78.8772 308.944 78.7741 308.47 78.79Z" fill="#99989C"/>
<path d="M316.18 77.95L316.22 79.735C316.393 79.4407 316.6 79.1672 316.835 78.92C317.066 78.6763 317.328 78.4644 317.615 78.29C317.911 78.1166 318.229 77.9822 318.56 77.89C318.92 77.7936 319.292 77.7465 319.665 77.75C320.365 77.7315 321.056 77.9043 321.665 78.25C322.251 78.6251 322.676 79.2041 322.86 79.875C323.031 79.5683 323.237 79.2829 323.475 79.025C323.715 78.7642 323.989 78.5372 324.29 78.35C324.603 78.1605 324.939 78.011 325.29 77.905C325.679 77.7963 326.081 77.7425 326.485 77.745C326.994 77.7345 327.501 77.8106 327.985 77.97C328.405 78.1158 328.783 78.3632 329.085 78.69C329.403 79.053 329.636 79.4815 329.77 79.945C329.938 80.5384 330.017 81.1534 330.005 81.77V88.915H329.005V81.865C329.017 81.3839 328.949 80.9041 328.805 80.445C328.698 80.1035 328.507 79.7942 328.25 79.545C328.007 79.3194 327.712 79.1594 327.39 79.08C327.03 78.991 326.661 78.9474 326.29 78.95C325.819 78.9462 325.353 79.0398 324.92 79.225C324.549 79.3854 324.21 79.6125 323.92 79.895C323.653 80.1538 323.438 80.4609 323.285 80.8C323.142 81.1046 323.051 81.4306 323.015 81.765V88.92H322.015V81.775C322.029 81.3183 321.961 80.8629 321.815 80.43C321.713 80.1039 321.528 79.8095 321.28 79.5749C321.031 79.3403 320.726 79.1734 320.395 79.09C320.032 78.992 319.656 78.9449 319.28 78.95C318.857 78.9415 318.436 79.0145 318.04 79.165C317.697 79.2994 317.38 79.4941 317.105 79.74C316.841 79.9744 316.618 80.2516 316.445 80.56C316.276 80.8606 316.137 81.1771 316.03 81.505V88.92H315.03V77.95H316.18Z" fill="#99989C"/>
<path d="M73.775 36.891C73.7751 28.4566 70.8858 20.2767 65.5882 13.7136C60.2906 7.15056 52.9045 2.6004 44.66 0.820952C21.615 -4.11905 0 13.936 0 37.501V73.121C5.64731 76.2933 11.6828 78.7186 17.955 80.336L18.235 80.406V80.321C18.235 68.751 26.585 59.371 36.89 59.371C47.195 59.371 55.54 68.751 55.54 80.321V80.406L55.825 80.336C62.0959 78.7197 68.1299 76.2943 73.775 73.121V36.891ZM36.705 57.281C33.9774 57.28 31.3113 56.4701 29.044 54.9538C26.7767 53.4375 25.01 51.2828 23.9673 48.7624C22.9246 46.2419 22.6529 43.4689 23.1863 40.7939C23.7198 38.119 25.0345 35.6623 26.9643 33.7346C28.8941 31.807 31.3522 30.4949 34.0277 29.9643C36.7032 29.4338 39.476 29.7086 41.9953 30.754C44.5146 31.7994 46.6673 33.5685 48.1812 35.8374C49.695 38.1064 50.502 40.7733 50.5 43.501C50.4993 45.3116 50.142 47.1045 49.4483 48.777C48.7546 50.4496 47.7382 51.9691 46.4572 53.2487C45.1761 54.5284 43.6555 55.5431 41.9822 56.235C40.3089 56.9268 38.5157 57.2823 36.705 57.281Z" fill="#008D3C"/>
<path d="M51.285 88.31C41.8037 90.4293 31.9713 90.4293 22.49 88.31C20.88 87.95 19.215 87.525 17.49 87.03C11.3961 85.2582 5.52718 82.7885 0 79.67L0 89.94C1.945 92.15 15.12 106.095 36.89 106.095C58.66 106.095 71.83 92.15 73.775 89.94V79.67C68.2451 82.7902 62.3727 85.2599 56.275 87.03C54.56 87.525 52.895 87.95 51.285 88.31Z" fill="#76B437"/>
</g>
<defs>
<clipPath id="clip0">
<rect width="330" height="106.095" fill="white"/>
</clipPath>
</defs>
</svg>
