<svg width="138" height="24" viewBox="0 0 138 24" fill="none" xmlns="http://www.w3.org/2000/svg">
<path d="M11.9577 24C18.5618 24 23.9155 18.6274 23.9155 12C23.9155 5.37258 18.5618 0 11.9577 0C5.35366 0 0 5.37258 0 12C0 18.6274 5.35366 24 11.9577 24Z" fill="#EB001B"/>
<path d="M26.4187 24C33.0228 24 38.3764 18.6274 38.3764 12C38.3764 5.37258 33.0228 0 26.4187 0C19.8146 0 14.4609 5.37258 14.4609 12C14.4609 18.6274 19.8146 24 26.4187 24Z" fill="#F79E1B"/>
<path d="M19.1884 2.44189C22.0388 4.60468 23.9159 8.09305 23.9159 12C23.9159 15.907 22.0388 19.3256 19.1884 21.5582C16.338 19.3954 14.4609 15.907 14.4609 12C14.4609 8.09305 16.338 4.60468 19.1884 2.44189Z" fill="#FF5F00"/>
<path d="M37.6128 19.9536V20.0234H37.4042V20.6513H37.2652V20.0931H37.0566V19.9536H37.6128ZM38.4471 19.9536V20.6513H38.308V20.0931L38.0995 20.5815H37.9604L37.7519 20.0931V20.6513H37.6128V19.9536H37.7519L37.9604 20.442L38.169 19.9536H38.4471Z" fill="#F79E1B"/>
<path d="M137.166 12.4184V12.4882H136.957V13.0463H136.818V12.4882H136.609V12.4184H137.166ZM138 12.4184V13.1161H137.861V12.5579L137.652 13.0463H137.513L137.305 12.5579V13.1161H137.166V12.4184H137.305L137.513 12.9068L137.722 12.4184H138ZM55.5469 4.81373C57.3545 4.81373 58.6754 6.06954 58.6754 7.8835V12.6974H57.0069V8.44164C57.0069 7.11605 56.3117 6.41838 55.1993 6.41838C54.087 6.41838 53.1832 7.11605 53.1832 8.44164V12.6974H51.5147V8.44164C51.5147 7.11605 50.8195 6.41838 49.7071 6.41838C48.5948 6.41838 47.691 7.11605 47.691 8.44164V12.6974H46.0225V5.02303H47.691V5.99977C48.3167 5.0928 49.29 4.8835 50.0547 4.8835C51.2366 4.8835 52.2099 5.37187 52.6966 6.27885C53.3918 5.0928 54.5736 4.81373 55.5469 4.81373ZM68.478 5.02303V12.6974H66.8095V11.7905C66.2533 12.4882 65.4886 12.9068 64.3762 12.9068C62.221 12.9068 60.5525 11.2323 60.5525 8.86024C60.5525 6.48815 62.221 4.81373 64.3762 4.81373C65.4886 4.81373 66.2533 5.23233 66.8095 5.93001V5.02303H68.478ZM64.5848 6.41838C63.1248 6.41838 62.2906 7.53466 62.2906 8.86024C62.2906 10.1858 63.1943 11.3021 64.5848 11.3021C65.9752 11.3021 66.879 10.2556 66.879 8.86024C66.879 7.46489 65.9752 6.41838 64.5848 6.41838ZM76.8901 5.65094L76.1949 6.97652C75.7083 6.69745 74.8045 6.34861 73.8312 6.34861C72.9274 6.34861 72.3712 6.69745 72.3712 7.25559C72.3712 7.81373 72.9274 7.95326 73.6226 8.02303L74.3873 8.16256C76.0559 8.37187 77.0292 9.13931 77.0292 10.4649C77.0292 11.93 75.7778 12.9765 73.5531 12.9765C72.7884 12.9765 71.3979 12.837 70.2856 11.9998L71.0503 10.744C71.6065 11.1626 72.3017 11.5114 73.5531 11.5114C74.6654 11.5114 75.2911 11.1626 75.2911 10.6044C75.2911 10.1858 74.874 9.90675 73.9702 9.76722L73.136 9.69745C71.4674 9.48815 70.5637 8.65094 70.5637 7.46489C70.5637 5.93001 71.815 5.02303 73.7616 5.02303C74.9435 4.81373 76.0559 5.16256 76.8901 5.65094ZM84.1204 5.02303V6.55791H81.2005V9.90675C81.2005 10.9533 81.7567 11.3719 82.4519 11.3719C82.9385 11.3719 83.5642 11.1626 83.9814 10.8835L84.6766 12.2091C84.0509 12.6277 83.2861 12.9765 82.3128 12.9765C80.5748 12.9765 79.532 12.0695 79.532 9.97652V6.55791H78.0025V5.02303H79.532V2.7207H81.2005V5.02303H84.1204ZM89.265 4.81373C91.4202 4.81373 92.8801 6.48815 92.8801 8.86024C92.8801 9.06954 92.8801 9.27885 92.8801 9.48815H87.1794C87.3879 10.8835 88.3612 11.4416 89.4736 11.4416C90.2383 11.4416 91.0726 11.1626 91.6983 10.6044L92.5325 11.7905C91.6287 12.6277 90.5164 12.9068 89.404 12.9068C87.1098 12.9068 85.4413 11.3021 85.4413 8.86024C85.4413 6.48815 87.0403 4.81373 89.265 4.81373ZM89.265 6.34861C88.0831 6.34861 87.3879 7.11605 87.2489 8.23233H91.2116C91.0031 7.04629 90.3078 6.34861 89.265 6.34861ZM98.72 4.81373C99.2066 4.81373 99.6238 4.88349 100.041 5.02303L99.6238 6.69745C99.2761 6.48815 98.7895 6.41838 98.3724 6.41838C97.3295 6.41838 96.5648 7.18582 96.5648 8.5114V12.7672H94.8963V5.0928H96.5648V5.93001C97.0514 5.16257 97.8162 4.81373 98.72 4.81373ZM105.672 4.81373C107.827 4.81373 109.496 6.48815 109.496 8.86024C109.496 11.2323 107.827 12.9068 105.672 12.9068C104.56 12.9068 103.795 12.4882 103.239 11.7905V15.9068H101.57V5.02303H103.239V5.93001C103.795 5.3021 104.56 4.81373 105.672 4.81373ZM105.464 6.41838C104.073 6.41838 103.169 7.46489 103.169 8.86024C103.169 10.2556 104.073 11.3021 105.464 11.3021C106.924 11.3021 107.758 10.1858 107.758 8.86024C107.758 7.53466 106.924 6.41838 105.464 6.41838ZM118.812 5.02303V12.6974H117.143V11.7905C116.587 12.4882 115.822 12.9068 114.71 12.9068C112.555 12.9068 110.886 11.2323 110.886 8.86024C110.886 6.48815 112.555 4.81373 114.71 4.81373C115.822 4.81373 116.587 5.23233 117.143 5.93001V5.02303H118.812ZM114.919 6.41838C113.459 6.41838 112.624 7.53466 112.624 8.86024C112.624 10.1858 113.528 11.3021 114.919 11.3021C116.309 11.3021 117.213 10.2556 117.213 8.86024C117.213 7.46489 116.309 6.41838 114.919 6.41838ZM127.224 5.65094L126.529 6.97652C126.042 6.69745 125.138 6.34861 124.165 6.34861C123.261 6.34861 122.705 6.69745 122.705 7.25559C122.705 7.81373 123.261 7.95326 123.956 8.02303L124.721 8.16256C126.39 8.37187 127.363 9.13931 127.363 10.4649C127.363 11.93 126.112 12.9765 123.887 12.9765C123.122 12.9765 121.732 12.837 120.619 11.9998L121.384 10.744C121.94 11.1626 122.635 11.5114 123.887 11.5114C124.999 11.5114 125.625 11.1626 125.625 10.6044C125.625 10.1858 125.208 9.90675 124.304 9.76722L123.47 9.69745C121.801 9.48815 120.897 8.65094 120.897 7.46489C120.897 5.93001 122.149 5.02303 124.095 5.02303C125.347 4.81373 126.459 5.16256 127.224 5.65094ZM135.219 5.65094L134.524 6.97652C134.037 6.69745 133.133 6.34861 132.16 6.34861C131.256 6.34861 130.7 6.69745 130.7 7.25559C130.7 7.81373 131.256 7.95326 131.951 8.02303L132.716 8.16256C134.385 8.37187 135.358 9.13931 135.358 10.4649C135.358 11.93 134.107 12.9765 131.882 12.9765C131.117 12.9765 129.727 12.837 128.614 11.9998L129.379 10.744C129.935 11.1626 130.63 11.5114 131.882 11.5114C132.994 11.5114 133.62 11.1626 133.62 10.6044C133.62 10.1858 133.203 9.90675 132.299 9.76722L131.465 9.69745C129.796 9.48815 128.892 8.65094 128.892 7.46489C128.892 5.93001 130.144 5.02303 132.09 5.02303C133.272 4.81373 134.454 5.16256 135.219 5.65094ZM48.1081 16.8835C49.1509 16.8835 49.9157 17.6509 49.9157 18.7672C49.9157 19.8835 49.1509 20.6509 48.1081 20.6509C47.6215 20.6509 47.2043 20.4416 46.9958 20.0928V20.5114H46.231V15.0695H46.9958V17.3021C47.2043 17.0928 47.5519 16.8835 48.1081 16.8835ZM47.9691 17.6509C47.3434 17.6509 46.8567 18.1393 46.8567 18.837C46.8567 19.5347 47.2739 20.023 47.9691 20.023C48.6643 20.023 49.0814 19.4649 49.0814 18.837C49.0814 18.2091 48.6643 17.6509 47.9691 17.6509ZM54.087 17.023L51.2366 22.1858H50.3328L51.6537 19.8835L50.0547 17.023H50.9585L52.1404 19.1161L53.2527 17.023H54.087V17.023ZM60.8306 16.8835C61.6649 16.8835 62.2906 17.4416 62.2906 18.3486V20.6509H61.5258V18.6277C61.5258 17.9998 61.1782 17.6509 60.6916 17.6509C60.2049 17.6509 59.7878 17.9998 59.7878 18.6277V20.6509H59.023V18.6277C59.023 17.9998 58.7449 17.6509 58.1888 17.6509C57.7021 17.6509 57.285 17.9998 57.285 18.6277V20.6509H56.5202V17.023H57.285V17.4416C57.5631 17.023 58.0497 16.8835 58.3973 16.8835C58.9535 16.8835 59.3706 17.1626 59.6487 17.5114C59.7878 17.023 60.3439 16.8835 60.8306 16.8835ZM66.8095 17.023V20.6509H66.0447V20.2323C65.7666 20.5812 65.419 20.7905 64.9324 20.7905C63.8896 20.7905 63.1248 20.023 63.1248 18.9068C63.1248 17.7905 63.8896 17.023 64.9324 17.023C65.419 17.023 65.8362 17.2323 66.0447 17.5812V17.1626H66.8095V17.023ZM64.9324 17.6509C64.2372 17.6509 63.82 18.2091 63.82 18.837C63.82 19.4649 64.2372 20.023 64.9324 20.023C65.5581 20.023 66.0447 19.5347 66.0447 18.837C66.0447 18.1393 65.6276 17.6509 64.9324 17.6509ZM70.7027 17.3021L70.3551 17.93C70.1465 17.7905 69.6599 17.6509 69.2427 17.6509C68.8256 17.6509 68.5475 17.7905 68.5475 18.0695C68.5475 18.3486 68.8256 18.4184 69.1732 18.4184L69.5208 18.4882C70.2856 18.6277 70.7722 18.9068 70.7722 19.5347C70.7722 20.2323 70.1465 20.7207 69.1037 20.7207C68.7561 20.7207 68.0609 20.6509 67.5742 20.2323L67.9218 19.6742C68.1999 19.8835 68.5475 20.023 69.1037 20.023C69.6599 20.023 69.9379 19.8835 69.9379 19.6044C69.9379 19.3951 69.7294 19.2556 69.3123 19.1858L68.9646 19.1161C68.1999 18.9765 67.7133 18.6277 67.7133 18.0695C67.7133 17.3719 68.2694 16.8835 69.1732 16.8835C69.7989 16.8835 70.2856 17.023 70.7027 17.3021ZM73.9702 17.023V17.7207H72.5798V19.2556C72.5798 19.744 72.8579 19.9533 73.136 19.9533C73.414 19.9533 73.6226 19.8137 73.8312 19.6742L74.1093 20.3021C73.8312 20.5114 73.4836 20.6509 72.9969 20.6509C72.1627 20.6509 71.676 20.2323 71.676 19.2556V17.6509H70.9808V16.9533H71.676V15.837H72.4407V16.9533H73.9702V17.023ZM76.334 16.8835C77.3768 16.8835 78.0025 17.6509 78.072 18.7672C78.072 18.837 78.072 18.9765 78.072 19.0463H75.4302C75.5692 19.6742 75.9863 19.9533 76.473 19.9533C76.8206 19.9533 77.2377 19.8137 77.5158 19.6044L77.933 20.1626C77.5158 20.5114 76.9597 20.6509 76.473 20.6509C75.3607 20.6509 74.5959 19.8835 74.5959 18.7672C74.5264 17.6509 75.2911 16.8835 76.334 16.8835ZM76.334 17.5812C75.7778 17.5812 75.4302 17.93 75.3606 18.4882H77.2377C77.1682 17.93 76.8206 17.5812 76.334 17.5812ZM80.7138 16.8835C80.9224 16.8835 81.131 16.8835 81.3395 16.9533L81.131 17.7207C80.9919 17.6509 80.7138 17.5812 80.5053 17.5812C80.0186 17.5812 79.671 17.93 79.671 18.5579V20.5812H78.9063V16.9533H79.671V17.3719C79.8796 17.0928 80.2967 16.8835 80.7138 16.8835ZM83.4947 16.8835C84.0509 16.8835 84.5375 17.0928 84.8156 17.4416L84.329 17.9998C84.0509 17.7905 83.8423 17.6509 83.4252 17.6509C82.7995 17.6509 82.3824 18.1393 82.3824 18.837C82.3824 19.5347 82.869 20.023 83.4252 20.023C83.7728 20.023 84.0509 19.8835 84.329 19.6742L84.8156 20.2323C84.468 20.5812 83.9813 20.7905 83.4947 20.7905C82.3128 20.7905 81.6176 19.9533 81.6176 18.9068C81.5481 17.7207 82.3128 16.8835 83.4947 16.8835ZM88.9174 17.023V20.6509H88.1527V20.2323C87.8746 20.5812 87.527 20.7905 87.0403 20.7905C85.9975 20.7905 85.2327 20.023 85.2327 18.9068C85.2327 17.7905 85.9975 17.023 87.0403 17.023C87.527 17.023 87.9441 17.2323 88.1527 17.5812V17.1626H88.9174V17.023ZM87.1098 17.6509C86.4146 17.6509 85.9975 18.2091 85.9975 18.837C85.9975 19.4649 86.4146 20.023 87.1098 20.023C87.7355 20.023 88.2222 19.5347 88.2222 18.837C88.2222 18.1393 87.8051 17.6509 87.1098 17.6509ZM91.8373 16.8835C92.0459 16.8835 92.2544 16.8835 92.463 16.9533L92.2544 17.7207C92.1154 17.6509 91.8373 17.5812 91.6288 17.5812C91.1421 17.5812 90.7945 17.93 90.7945 18.5579V20.5812H90.0297V16.9533H90.7945V17.3719C91.0726 17.0928 91.4202 16.8835 91.8373 16.8835ZM94.6877 16.8835C95.1744 16.8835 95.5915 17.0928 95.8001 17.4416V15.2091H96.5648V20.6509H95.8001V20.2323C95.522 20.5812 95.1744 20.7905 94.6877 20.7905C93.6449 20.7905 92.8801 20.023 92.8801 18.9068C92.8801 17.7905 93.6449 16.8835 94.6877 16.8835ZM94.7572 17.6509C94.062 17.6509 93.6449 18.2091 93.6449 18.837C93.6449 19.4649 94.062 20.023 94.7572 20.023C95.3829 20.023 95.8696 19.5347 95.8696 18.837C95.8696 18.1393 95.4524 17.6509 94.7572 17.6509Z" fill="black"/>
</svg>
