<svg width="52" height="40" viewBox="0 0 52 40" fill="none" xmlns="http://www.w3.org/2000/svg">
<path d="M9.42519 39.8666V37.1955C9.42519 36.1938 8.81502 35.526 7.73027 35.526C7.1879 35.526 6.57773 35.7263 6.23874 36.2606C5.89976 35.7931 5.49298 35.526 4.81501 35.526C4.34043 35.526 3.93365 35.6596 3.59466 36.127V35.6596H2.64551V39.8666H3.59466V37.5294C3.59466 36.7948 4.00145 36.3941 4.61162 36.3941C5.22179 36.3941 5.56077 36.7948 5.56077 37.5294V39.8666H6.50993V37.5294C6.50993 36.7948 6.98451 36.3941 7.52688 36.3941C8.13705 36.3941 8.47603 36.7948 8.47603 37.5294V39.8666H9.42519ZM23.3235 35.6596H21.832V34.324H20.8829V35.6596H20.0015V36.5277H20.8829V38.4642C20.8829 39.4659 21.2896 40.0001 22.3744 40.0001C22.7812 40.0001 23.2557 39.8666 23.5269 39.6662L23.2557 38.8649C22.9846 39.0652 22.6456 39.0652 22.4422 39.0652C21.9676 39.0652 21.832 38.7981 21.832 38.3307V36.4609H23.3235V35.6596ZM31.2558 35.526C30.7134 35.526 30.3744 35.7931 30.1032 36.127V35.5928H29.1541V39.7998H30.1032V37.3958C30.1032 36.6612 30.4422 36.2606 30.9846 36.2606C31.188 36.2606 31.3914 36.3273 31.5948 36.3273L31.8659 35.4592C31.7303 35.526 31.4592 35.526 31.2558 35.526ZM19.2557 35.9935C18.7812 35.6596 18.171 35.526 17.493 35.526C16.4083 35.526 15.7303 36.0602 15.7303 36.8616C15.7303 37.5961 16.2727 37.9968 17.2218 38.0636L17.6964 38.1303C18.171 38.1971 18.4422 38.3307 18.4422 38.5978C18.4422 38.9317 18.1032 39.132 17.4252 39.132C16.815 39.132 16.2727 38.9317 16.0015 38.6646L15.5269 39.3991C16.0015 39.733 16.6795 39.9334 17.3574 39.9334C18.5778 39.9334 19.3235 39.3324 19.3235 38.5978C19.3235 37.8632 18.7134 37.4626 17.832 37.329L17.3574 37.2622C16.9506 37.1955 16.6117 37.1287 16.6117 36.8616C16.6117 36.5277 16.9506 36.3941 17.4252 36.3941C17.9676 36.3941 18.51 36.5945 18.7812 36.728L19.2557 35.9935ZM44.205 35.526C43.6626 35.526 43.3236 35.7931 43.0524 36.127V35.5928H42.1033V39.7998H43.0524V37.3958C43.0524 36.6612 43.3914 36.2606 43.9338 36.2606C44.1372 36.2606 44.3406 36.3273 44.5439 36.3273L44.8151 35.4592C44.6795 35.526 44.4084 35.526 44.205 35.526ZM32.2049 37.7297C32.2049 38.9985 33.0863 39.9334 34.51 39.9334C35.1202 39.9334 35.5948 39.7998 36.0016 39.4659L35.527 38.7314C35.188 38.9985 34.7812 39.132 34.3744 39.132C33.6287 39.132 33.0863 38.5978 33.0863 37.7965C33.0863 36.9951 33.6287 36.4609 34.3744 36.4609C34.7812 36.4609 35.1202 36.5945 35.527 36.8616L36.0016 36.127C35.527 35.7931 35.1202 35.6596 34.51 35.6596C33.0863 35.526 32.2049 36.4609 32.2049 37.7297ZM40.8829 37.7297V35.6596H39.9338V36.1938C39.5948 35.7931 39.188 35.5928 38.5778 35.5928C37.3575 35.5928 36.4083 36.5277 36.4083 37.7965C36.4083 39.0652 37.3575 40.0001 38.5778 40.0001C39.188 40.0001 39.6626 39.7998 39.9338 39.3991V39.9334H40.8829V37.7297ZM37.4253 37.7297C37.4253 36.9951 37.8999 36.3941 38.7134 36.3941C39.4592 36.3941 40.0016 36.9951 40.0016 37.7297C40.0016 38.4642 39.4592 39.0652 38.7134 39.0652C37.9677 39.0652 37.4253 38.4642 37.4253 37.7297ZM26.2388 35.526C25.0185 35.526 24.0693 36.3941 24.0693 37.7297C24.0693 39.0652 24.9507 39.9334 26.2388 39.9334C26.849 39.9334 27.4591 39.733 28.0015 39.3324L27.5269 38.6646C27.188 38.9317 26.7134 39.132 26.3066 39.132C25.6964 39.132 25.1541 38.8649 25.0185 38.1303H28.2049C28.2049 37.9968 28.2049 37.93 28.2049 37.7965C28.2727 36.3941 27.4591 35.526 26.2388 35.526ZM26.2388 36.3273C26.849 36.3273 27.2558 36.6612 27.3236 37.329H25.0863C25.1541 36.7948 25.5608 36.3273 26.2388 36.3273ZM49.4931 37.7297V33.9233H48.544V36.127C48.205 35.7263 47.7982 35.526 47.188 35.526C45.9677 35.526 45.0185 36.4609 45.0185 37.7297C45.0185 38.9985 45.9677 39.9334 47.188 39.9334C47.7982 39.9334 48.2728 39.733 48.544 39.3324V39.8666H49.4931V37.7297ZM46.1033 37.7297C46.1033 36.9951 46.5779 36.3941 47.3914 36.3941C48.1372 36.3941 48.6796 36.9951 48.6796 37.7297C48.6796 38.4642 48.1372 39.0652 47.3914 39.0652C46.5779 39.0652 46.1033 38.4642 46.1033 37.7297ZM14.7133 37.7297V35.6596H13.7642V36.1938C13.4252 35.7931 13.0184 35.5928 12.4083 35.5928C11.1879 35.5928 10.2388 36.5277 10.2388 37.7965C10.2388 39.0652 11.1879 40.0001 12.4083 40.0001C13.0184 40.0001 13.493 39.7998 13.7642 39.3991V39.9334H14.7133V37.7297ZM11.1879 37.7297C11.1879 36.9951 11.6625 36.3941 12.476 36.3941C13.2218 36.3941 13.7642 36.9951 13.7642 37.7297C13.7642 38.4642 13.2218 39.0652 12.476 39.0652C11.7303 39.0652 11.1879 38.4642 11.1879 37.7297Z" fill="black"/>
<path d="M33.0168 3.53931H18.915V28.4475H33.0168V3.53931Z" fill="#FF5A00"/>
<path d="M19.8645 15.9598C19.8645 10.8847 22.3052 6.41056 25.9662 3.47233C23.2543 1.33543 19.7967 0.0666504 16.0679 0.0666504C7.18647 0.0666504 0 7.14511 0 15.893C0 24.6409 7.18647 31.7194 16.0679 31.7194C19.7967 31.7194 23.2543 30.4506 25.9662 28.3137C22.3052 25.5758 19.8645 21.0349 19.8645 15.9598Z" fill="#EB001B"/>
<path d="M52.0004 15.9599C52.0004 24.7078 44.8139 31.7863 35.9325 31.7863C32.2037 31.7863 28.7461 30.5175 26.0342 28.3806C29.763 25.4424 32.1359 20.9683 32.1359 15.8932C32.1359 10.818 29.6952 6.34391 26.0342 3.40568C28.7461 1.26878 32.2037 0 35.9325 0C44.8139 0.133556 52.0004 7.2788 52.0004 15.9599Z" fill="#F79E1B"/>
</svg>
