<svg width="124" height="24" viewBox="0 0 124 24" fill="none" xmlns="http://www.w3.org/2000/svg">
<path d="M72.1107 0.382983L65.8789 16.0851L63.3354 2.80851C63.081 1.2766 61.9364 0.51064 60.5374 0.51064H50.4902V1.14894C52.5251 1.65958 54.9415 2.29787 56.3405 3.06383C57.2307 3.57447 57.4851 3.95745 57.7395 5.10638L62.4451 23.4894H68.6769L78.3425 0.51064H72.1107V0.382983ZM80.8861 0.382983L75.9261 23.3617H81.9036L86.8636 0.382983H80.8861ZM114.97 6.6383L116.751 15.3191H111.791L114.97 6.6383ZM114.08 0.382983C112.935 0.382983 111.918 1.02128 111.536 2.04256L102.634 23.4894H108.866L110.137 20.0426H117.768L118.531 23.4894H124L119.167 0.51064H114.08V0.382983ZM98.5641 0C92.7138 0 88.5169 3.19149 88.5169 7.65957C88.5169 10.9787 91.442 12.766 93.7313 13.9149C96.0205 15.0638 96.7836 15.8298 96.7836 16.7234C96.7836 18.2553 94.8759 18.8936 93.2225 19.0213C90.2974 19.0213 88.5169 18.2553 87.1179 17.617L86.1005 22.7234C87.4995 23.3617 90.043 23.8723 92.7138 24C98.9456 24 103.015 20.9362 103.015 16.0851C103.015 9.95745 94.6215 9.70213 94.7487 6.89362C94.7487 6.12766 95.5118 5.23404 97.2923 4.97872C98.1825 4.85107 100.472 4.7234 103.143 6L104.16 1.14894C102.634 0.51064 100.853 0 98.5641 0Z" fill="#1334CB"/>
<path d="M35.4831 10.9788L26.9621 0.893669C26.7077 0.63835 26.4533 0.383034 26.0718 0.383034C25.5631 0.383034 25.0544 0.893671 25.0544 1.40431C25.0544 1.65963 25.1815 1.91495 25.4359 2.17026L33.1939 11.6171L25.5631 20.9362H22.2564L29.5056 12.383C29.76 12.1277 29.76 11.8724 29.76 11.6171C29.76 11.3618 29.6328 11.1064 29.5056 10.8511L20.8574 0.766011C20.6031 0.510692 20.3487 0.255371 19.9672 0.255371C19.84 0.255371 13.8626 0.255371 13.8626 0.255371C13.3538 0.255371 12.8451 0.766008 12.8451 1.27665C12.8451 1.40431 12.8451 1.65963 12.9723 1.78729L20.9846 11.6171L14.1169 19.9149C14.1169 19.9149 13.481 20.8086 12.4636 20.8086H4.06974C2.92513 20.8086 2.03487 19.9149 2.03487 18.766V4.46814C2.03487 3.44686 2.92513 2.42558 4.06974 2.42558H9.2841C9.92 2.42558 10.3015 2.04261 10.3015 1.40431C10.3015 0.766011 9.92 0.383034 9.2841 0.383034H4.06974C1.65333 0.383034 0 2.42558 0 4.46814V18.8937C0 21.0639 1.90769 22.9788 4.06974 22.9788H12.3364C12.718 22.9788 13.0995 22.9788 13.481 22.8511H13.6082C14.7528 22.4681 15.3887 21.7022 15.5159 21.5745L23.2739 12.5107C23.6554 12.1277 23.6554 11.4894 23.2739 10.9788L15.8974 2.42558H19.3313L26.9621 11.6171L18.9497 21.3192C18.8226 21.4469 18.8226 21.5745 18.8226 21.8298C18.8226 22.3405 19.3313 22.8511 19.84 22.8511C19.84 22.8511 25.8174 22.8511 25.9446 22.8511C26.3262 22.8511 26.7077 22.5958 26.8349 22.3405L35.4831 12.383C35.8646 12.0001 35.8646 11.3618 35.4831 10.9788Z" fill="#151A59"/>
<path d="M43.1144 0.383057H42.4785V23.6171H43.1144V0.383057Z" fill="#151A59"/>
</svg>
