<svg width="88" height="32" viewBox="0 0 88 32" fill="none" xmlns="http://www.w3.org/2000/svg">
<path d="M31.123 27.4399L34.9641 4.62084H41.1039L37.2632 27.4399H31.123Z" fill="#1334CB"/>
<path d="M59.5327 5.18047C58.3187 4.72249 56.4094 4.22272 54.031 4.22272C47.9607 4.22272 43.6877 7.31973 43.6522 11.7539C43.6136 15.0336 46.7014 16.8632 49.0293 17.9533C51.4218 19.0708 52.2256 19.7859 52.2161 20.7851C52.1996 22.3134 50.3065 23.0137 48.5411 23.0137C46.083 23.0137 44.777 22.669 42.7578 21.817L41.968 21.4537L41.1094 26.5616C42.5411 27.1972 45.1952 27.7489 47.9498 27.7778C54.4011 27.7778 58.593 24.7186 58.6421 19.9834C58.6643 17.3825 57.0282 15.4107 53.4849 13.783C51.3393 12.7252 50.0224 12.0242 50.0375 10.9532C50.0389 10.0046 51.15 8.98955 53.5548 8.98955C55.5631 8.95855 57.0169 9.40238 58.1498 9.86608L58.7011 10.1273L59.5327 5.18047Z" fill="#1334CB"/>
<path d="M67.7096 19.3489C68.2184 18.0373 70.1555 12.9709 70.1555 12.9709C70.1197 13.0309 70.6615 11.6488 70.9716 10.7935L71.386 12.7616C71.386 12.7616 72.5642 18.2081 72.8068 19.3489C71.8509 19.3489 68.9085 19.3489 67.7096 19.3489ZM75.2843 4.64333H70.5393C69.0676 4.64333 67.966 5.04705 67.3212 6.53489L58.2031 27.4473H64.652C64.652 27.4473 65.7041 24.634 65.9429 24.0166C66.6463 24.0166 72.9125 24.0284 73.8069 24.0284C73.9909 24.8248 74.5546 27.4473 74.5546 27.4473H80.2533L75.2843 4.64333" fill="#1334CB"/>
<path d="M25.971 4.63991L19.9615 20.1971L19.3178 17.0347C18.1979 13.3911 14.7119 9.44178 10.8125 7.46294L16.3104 27.4199L22.8084 27.4162L32.4775 4.63991H25.971Z" fill="#1334CB"/>
<path d="M14.3834 4.6244H4.48221L4.40039 5.09721C12.105 6.98743 17.2026 11.55 19.3184 17.0347L17.1668 6.54967C16.7956 5.10361 15.7168 4.67495 14.3834 4.6244Z" fill="#1334CB"/>
<path d="M81.9998 25.948H82.2905C82.496 25.948 82.5381 25.8327 82.5381 25.74C82.5381 25.5806 82.4303 25.5436 82.2632 25.5436H81.9998V25.948ZM81.7487 25.3663H82.3481C82.4879 25.3663 82.7945 25.4017 82.7945 25.74C82.7945 25.8297 82.7667 25.9561 82.5662 26.0383V26.0454C82.7393 26.0737 82.7485 26.2307 82.7587 26.3571C82.7713 26.5586 82.7587 26.5947 82.8134 26.6658H82.5532C82.5037 26.6179 82.5149 26.5805 82.5037 26.3692C82.5037 26.2492 82.4879 26.1269 82.2063 26.1269H81.9998V26.6658H81.7487V25.3663V25.3663ZM82.2438 27.1302C82.8598 27.1302 83.3437 26.6395 83.3437 26.0265C83.3437 25.4128 82.8598 24.9225 82.2438 24.9225C81.6282 24.9225 81.1447 25.4128 81.1447 26.0265C81.1447 26.6395 81.6282 27.1302 82.2438 27.1302V27.1302ZM82.2438 24.725C83.0034 24.725 83.6001 25.3084 83.6001 26.0265C83.6001 26.7443 83.0034 27.3276 82.2438 27.3276C81.4846 27.3276 80.8887 26.7443 80.8887 26.0265C80.8887 25.3084 81.4846 24.725 82.2438 24.725" fill="#1334CB"/>
</svg>
