<svg width="64" height="64" viewBox="0 0 64 64" fill="none" xmlns="http://www.w3.org/2000/svg">
<path fill-rule="evenodd" clip-rule="evenodd" d="M14 8C9.58172 8 6 11.5817 6 16V34C6 38.4183 9.58172 42 14 42H46C50.4183 42 54 38.4183 54 34V16C54 11.5817 50.4183 8 46 8H14ZM21.2149 18.5204L14 15.5556V17.6466L18.7935 19.4255L14 21.1888V23.2799L21.2149 20.315V18.5204ZM22.505 25.6206V27.5556H30V25.6206H22.505Z" fill="url(#paint0_linear_4901_30646)"/>
<g filter="url(#filter0_b_4901_30646)">
<path d="M25.0124 56C22.3569 56 19.8102 54.9828 17.9326 53.1721C16.0549 51.3614 15 48.9055 15 46.3448C15 43.7841 16.0549 41.3283 17.9326 39.5176C19.8102 37.7069 22.3569 36.6897 25.0124 36.6897C25.6395 33.8729 27.4742 31.3975 30.1129 29.8081C31.4194 29.0211 32.884 28.4754 34.4229 28.2019C35.9619 27.9285 37.5452 27.9328 39.0824 28.2146C40.6195 28.4963 42.0805 29.05 43.3818 29.8441C44.6831 30.6381 45.7993 31.657 46.6666 32.8425C47.534 34.0279 48.1355 35.3568 48.4369 36.7532C48.7382 38.1495 48.7335 39.5861 48.4229 40.9808H50.5512C52.5267 40.9808 54.4214 41.772 55.8183 43.1803C57.2152 44.5887 58 46.4988 58 48.4904C58 50.4821 57.2152 52.3922 55.8183 53.8005C54.4214 55.2088 52.5267 56 50.5512 56H25.0124Z" fill="#72DC60" fill-opacity="0.35"/>
<path d="M25.0124 36.9397C25.1295 36.9397 25.2309 36.8583 25.2564 36.744C25.8676 33.9988 27.6574 31.579 30.2419 30.0223C31.5215 29.2515 32.9571 28.7163 34.4667 28.4481C35.9763 28.1799 37.5295 28.1841 39.0373 28.4605C40.5451 28.7368 41.9771 29.2798 43.2516 30.0575C44.526 30.8352 45.6176 31.832 46.4649 32.9901C47.3121 34.1481 47.8988 35.4448 48.1925 36.8059C48.4862 38.167 48.4816 39.567 48.1789 40.9265C48.1624 41.0005 48.1805 41.0781 48.2279 41.1372C48.2754 41.1964 48.3471 41.2308 48.4229 41.2308H50.5512C52.4598 41.2308 54.2906 41.9952 55.6408 43.3564C56.9911 44.7177 57.75 46.5644 57.75 48.4904C57.75 50.4164 56.9911 52.2632 55.6408 53.6244C54.2906 54.9857 52.4598 55.75 50.5512 55.75H25.0124C22.4204 55.75 19.9363 54.757 18.1061 52.9921C16.2762 51.2275 15.25 48.8362 15.25 46.3448C15.25 43.8534 16.2762 41.4621 18.1061 39.6975C19.9363 37.9327 22.4204 36.9397 25.0124 36.9397Z" stroke="url(#paint1_linear_4901_30646)" stroke-width="0.5" stroke-linecap="round" stroke-linejoin="round"/>
</g>
<defs>
<filter id="filter0_b_4901_30646" x="11" y="24" width="51" height="36" filterUnits="userSpaceOnUse" color-interpolation-filters="sRGB">
<feFlood flood-opacity="0" result="BackgroundImageFix"/>
<feGaussianBlur in="BackgroundImage" stdDeviation="2"/>
<feComposite in2="SourceAlpha" operator="in" result="effect1_backgroundBlur_4901_30646"/>
<feBlend mode="normal" in="SourceGraphic" in2="effect1_backgroundBlur_4901_30646" result="shape"/>
</filter>
<linearGradient id="paint0_linear_4901_30646" x1="54" y1="8" x2="32.4934" y2="43.5101" gradientUnits="userSpaceOnUse">
<stop stop-color="#6EE396"/>
<stop offset="1" stop-color="#2CA656"/>
</linearGradient>
<linearGradient id="paint1_linear_4901_30646" x1="21.8449" y1="31.262" x2="36.8967" y2="59.8909" gradientUnits="userSpaceOnUse">
<stop stop-color="white" stop-opacity="0.25"/>
<stop offset="1" stop-color="white" stop-opacity="0"/>
</linearGradient>
</defs>
</svg>
