<svg width="40" height="40" viewBox="0 0 40 40" fill="none" xmlns="http://www.w3.org/2000/svg">
<path d="M24 22.5C24 21.6025 24.7275 20.875 25.625 20.875H31.25C34.5637 20.875 37.25 23.5613 37.25 26.875C37.25 30.1887 34.5637 32.875 31.25 32.875H25.625C24.7275 32.875 24 32.1475 24 31.25C24 30.3525 24.7275 29.625 25.625 29.625H31.25C32.7688 29.625 34 28.3938 34 26.875C34 25.3562 32.7688 24.125 31.25 24.125H25.625C24.7275 24.125 24 23.3975 24 22.5Z" fill="#72DC60" fill-opacity="0.35" stroke="url(#paint0_linear_4467_29909)" stroke-width="0.5" stroke-linecap="round" stroke-linejoin="round"/>
<path d="M6.25 20.625C6.25 19.5895 7.08947 18.75 8.125 18.75H28.125C29.1605 18.75 30 19.5895 30 20.625V25.625C30 32.1834 24.6834 37.5 18.125 37.5C11.5666 37.5 6.25 32.1834 6.25 25.625V20.625Z" fill="url(#paint1_linear_4467_29909)"/>
<g filter="url(#filter0_b_4467_29909)">
<mask id="path-3-inside-1_4467_29909" fill="white">
<path fill-rule="evenodd" clip-rule="evenodd" d="M18.125 26.25C24.6834 26.25 30 20.9334 30 14.375C30 7.81662 24.6834 2.5 18.125 2.5C11.5666 2.5 6.25 7.81662 6.25 14.375C6.25 20.9334 11.5666 26.25 18.125 26.25ZM18.1248 6.21094C18.5757 6.21094 18.9412 6.57646 18.9412 7.02734V8.66019H19.7576C19.7694 8.66019 19.7811 8.66045 19.7928 8.66095C20.444 8.68907 21.072 8.91143 21.5957 9.29942C22.1195 9.68741 22.5152 10.2233 22.7319 10.838C22.8818 11.2633 22.6585 11.7295 22.2333 11.8794C21.808 12.0293 21.3418 11.806 21.1919 11.3808C21.0836 11.0734 20.8857 10.8055 20.6238 10.6115C20.3662 10.4206 20.0582 10.3099 19.7382 10.293H16.492C16.0589 10.293 15.6436 10.465 15.3374 10.7712C15.0312 11.0775 14.8592 11.4928 14.8592 11.9258C14.8592 12.3589 15.0312 12.7742 15.3374 13.0804C15.6436 13.3866 16.0589 13.5586 16.492 13.5586H19.7576C20.6237 13.5586 21.4543 13.9027 22.0668 14.5151C22.6792 15.1275 23.0232 15.9582 23.0232 16.8243C23.0232 17.6904 22.6792 18.521 22.0668 19.1334C21.4543 19.7458 20.6237 20.0899 19.7576 20.0899H18.9412V21.7227C18.9412 22.1735 18.5757 22.5391 18.1248 22.5391C17.6739 22.5391 17.3084 22.1735 17.3084 21.7227V20.0899H16.492C16.4802 20.0899 16.4685 20.0896 16.4568 20.0891C15.8055 20.061 15.1776 19.8386 14.6538 19.4507C14.1301 19.0627 13.7344 18.5268 13.5177 17.912C13.3678 17.4868 13.5911 17.0206 14.0163 16.8707C14.4416 16.7208 14.9078 16.944 15.0577 17.3693C15.166 17.6767 15.3638 17.9446 15.6257 18.1386C15.8834 18.3294 16.1914 18.4401 16.5114 18.4571H18.117L18.1248 18.457L18.1326 18.4571H19.7576C20.1907 18.4571 20.606 18.285 20.9122 17.9788C21.2184 17.6726 21.3904 17.2573 21.3904 16.8243C21.3904 16.3912 21.2184 15.9759 20.9122 15.6697C20.606 15.3635 20.1907 15.1914 19.7576 15.1914H16.492C15.6259 15.1914 14.7953 14.8474 14.1828 14.235C13.5704 13.6225 13.2264 12.7919 13.2264 11.9258C13.2264 11.0597 13.5704 10.2291 14.1828 9.61667C14.7953 9.00425 15.6259 8.66019 16.492 8.66019H17.3084V7.02734C17.3084 6.57646 17.6739 6.21094 18.1248 6.21094Z"/>
</mask>
<path fill-rule="evenodd" clip-rule="evenodd" d="M18.125 26.25C24.6834 26.25 30 20.9334 30 14.375C30 7.81662 24.6834 2.5 18.125 2.5C11.5666 2.5 6.25 7.81662 6.25 14.375C6.25 20.9334 11.5666 26.25 18.125 26.25ZM18.1248 6.21094C18.5757 6.21094 18.9412 6.57646 18.9412 7.02734V8.66019H19.7576C19.7694 8.66019 19.7811 8.66045 19.7928 8.66095C20.444 8.68907 21.072 8.91143 21.5957 9.29942C22.1195 9.68741 22.5152 10.2233 22.7319 10.838C22.8818 11.2633 22.6585 11.7295 22.2333 11.8794C21.808 12.0293 21.3418 11.806 21.1919 11.3808C21.0836 11.0734 20.8857 10.8055 20.6238 10.6115C20.3662 10.4206 20.0582 10.3099 19.7382 10.293H16.492C16.0589 10.293 15.6436 10.465 15.3374 10.7712C15.0312 11.0775 14.8592 11.4928 14.8592 11.9258C14.8592 12.3589 15.0312 12.7742 15.3374 13.0804C15.6436 13.3866 16.0589 13.5586 16.492 13.5586H19.7576C20.6237 13.5586 21.4543 13.9027 22.0668 14.5151C22.6792 15.1275 23.0232 15.9582 23.0232 16.8243C23.0232 17.6904 22.6792 18.521 22.0668 19.1334C21.4543 19.7458 20.6237 20.0899 19.7576 20.0899H18.9412V21.7227C18.9412 22.1735 18.5757 22.5391 18.1248 22.5391C17.6739 22.5391 17.3084 22.1735 17.3084 21.7227V20.0899H16.492C16.4802 20.0899 16.4685 20.0896 16.4568 20.0891C15.8055 20.061 15.1776 19.8386 14.6538 19.4507C14.1301 19.0627 13.7344 18.5268 13.5177 17.912C13.3678 17.4868 13.5911 17.0206 14.0163 16.8707C14.4416 16.7208 14.9078 16.944 15.0577 17.3693C15.166 17.6767 15.3638 17.9446 15.6257 18.1386C15.8834 18.3294 16.1914 18.4401 16.5114 18.4571H18.117L18.1248 18.457L18.1326 18.4571H19.7576C20.1907 18.4571 20.606 18.285 20.9122 17.9788C21.2184 17.6726 21.3904 17.2573 21.3904 16.8243C21.3904 16.3912 21.2184 15.9759 20.9122 15.6697C20.606 15.3635 20.1907 15.1914 19.7576 15.1914H16.492C15.6259 15.1914 14.7953 14.8474 14.1828 14.235C13.5704 13.6225 13.2264 12.7919 13.2264 11.9258C13.2264 11.0597 13.5704 10.2291 14.1828 9.61667C14.7953 9.00425 15.6259 8.66019 16.492 8.66019H17.3084V7.02734C17.3084 6.57646 17.6739 6.21094 18.1248 6.21094Z" fill="#72DC60" fill-opacity="0.35"/>
<path d="M18.9412 8.66019H18.4412C18.4412 8.93634 18.6651 9.16019 18.9412 9.16019V8.66019ZM19.7928 8.66095L19.8144 8.16142L19.8144 8.16142L19.7928 8.66095ZM21.5957 9.29942L21.8934 8.89764H21.8934L21.5957 9.29942ZM22.7319 10.838L22.2603 11.0042V11.0042L22.7319 10.838ZM21.1919 11.3808L21.6635 11.2146V11.2146L21.1919 11.3808ZM20.6238 10.6115L20.3262 11.0133L20.6238 10.6115ZM19.7382 10.293L19.7646 9.7937C19.7558 9.79324 19.747 9.793 19.7382 9.793V10.293ZM15.3374 10.7712L15.691 11.1248L15.691 11.1248L15.3374 10.7712ZM15.3374 13.0804L14.9839 13.4339V13.4339L15.3374 13.0804ZM18.9412 20.0899V19.5899C18.6651 19.5899 18.4412 19.8137 18.4412 20.0899H18.9412ZM17.3084 20.0899H17.8084C17.8084 19.8137 17.5845 19.5899 17.3084 19.5899V20.0899ZM16.4568 20.0891L16.4784 19.5896L16.4783 19.5896L16.4568 20.0891ZM14.6538 19.4507L14.3562 19.8524L14.6538 19.4507ZM13.5177 17.912L13.0461 18.0782L13.0461 18.0782L13.5177 17.912ZM15.0577 17.3693L14.5861 17.5355L15.0577 17.3693ZM15.6257 18.1386L15.3281 18.5404H15.3281L15.6257 18.1386ZM16.5114 18.4571L16.485 18.9564C16.4938 18.9568 16.5026 18.9571 16.5114 18.9571V18.4571ZM18.117 18.4571V18.9571L18.1194 18.9571L18.117 18.4571ZM18.1248 18.457L18.1271 17.957L18.1225 17.957L18.1248 18.457ZM18.1326 18.4571L18.1302 18.9571H18.1326V18.4571ZM17.3084 8.66019V9.16019C17.5845 9.16019 17.8084 8.93634 17.8084 8.66019H17.3084ZM29.5 14.375C29.5 20.6572 24.4072 25.75 18.125 25.75V26.75C24.9595 26.75 30.5 21.2095 30.5 14.375H29.5ZM18.125 3C24.4072 3 29.5 8.09276 29.5 14.375H30.5C30.5 7.54048 24.9595 2 18.125 2V3ZM6.75 14.375C6.75 8.09276 11.8428 3 18.125 3V2C11.2905 2 5.75 7.54048 5.75 14.375H6.75ZM18.125 25.75C11.8428 25.75 6.75 20.6572 6.75 14.375H5.75C5.75 21.2095 11.2905 26.75 18.125 26.75V25.75ZM19.4412 7.02734C19.4412 6.30031 18.8518 5.71094 18.1248 5.71094V6.71094C18.2995 6.71094 18.4412 6.8526 18.4412 7.02734H19.4412ZM19.4412 8.66019V7.02734H18.4412V8.66019H19.4412ZM19.7576 8.16019H18.9412V9.16019H19.7576V8.16019ZM19.8144 8.16142C19.7955 8.1606 19.7766 8.16019 19.7576 8.16019V9.16019C19.7621 9.16019 19.7667 9.16029 19.7713 9.16049L19.8144 8.16142ZM21.8934 8.89764C21.2894 8.45025 20.5653 8.19384 19.8144 8.16142L19.7713 9.16049C20.3228 9.1843 20.8545 9.37262 21.2981 9.7012L21.8934 8.89764ZM23.2035 10.6718C22.9536 9.96294 22.4973 9.34504 21.8934 8.89764L21.2981 9.7012C21.7417 10.0298 22.0768 10.4836 22.2603 11.0042L23.2035 10.6718ZM22.3995 12.351C23.0852 12.1093 23.4451 11.3575 23.2035 10.6718L22.2603 11.0042C22.3184 11.169 22.2319 11.3497 22.0671 11.4078L22.3995 12.351ZM20.7204 11.547C20.962 12.2327 21.7138 12.5926 22.3995 12.351L22.0671 11.4078C21.9023 11.4659 21.7216 11.3794 21.6635 11.2146L20.7204 11.547ZM20.3262 11.0133C20.5079 11.1478 20.6452 11.3337 20.7204 11.547L21.6635 11.2146C21.522 10.8131 21.2635 10.4631 20.9215 10.2097L20.3262 11.0133ZM19.7118 10.7923C19.9338 10.804 20.1475 10.8808 20.3262 11.0133L20.9215 10.2097C20.5849 9.96041 20.1826 9.81581 19.7646 9.7937L19.7118 10.7923ZM16.492 10.793H19.7382V9.793H16.492V10.793ZM15.691 11.1248C15.9034 10.9124 16.1915 10.793 16.492 10.793V9.793C15.9263 9.793 15.3838 10.0177 14.9839 10.4177L15.691 11.1248ZM15.3592 11.9258C15.3592 11.6254 15.4785 11.3372 15.691 11.1248L14.9839 10.4177C14.5839 10.8177 14.3592 11.3602 14.3592 11.9258H15.3592ZM15.691 12.7268C15.4785 12.5144 15.3592 12.2263 15.3592 11.9258H14.3592C14.3592 12.4915 14.5839 13.034 14.9839 13.4339L15.691 12.7268ZM16.492 13.0586C16.1915 13.0586 15.9034 12.9393 15.691 12.7268L14.9839 13.4339C15.3838 13.8339 15.9263 14.0586 16.492 14.0586V13.0586ZM19.7576 13.0586H16.492V14.0586H19.7576V13.0586ZM22.4203 14.1616C21.7141 13.4554 20.7563 13.0586 19.7576 13.0586V14.0586C20.4911 14.0586 21.1945 14.35 21.7132 14.8687L22.4203 14.1616ZM23.5232 16.8243C23.5232 15.8256 23.1265 14.8677 22.4203 14.1616L21.7132 14.8687C22.2319 15.3873 22.5232 16.0908 22.5232 16.8243H23.5232ZM22.4203 19.487C23.1265 18.7808 23.5232 17.823 23.5232 16.8243H22.5232C22.5232 17.5577 22.2319 18.2612 21.7132 18.7798L22.4203 19.487ZM19.7576 20.5899C20.7563 20.5899 21.7141 20.1931 22.4203 19.487L21.7132 18.7798C21.1945 19.2985 20.4911 19.5899 19.7576 19.5899V20.5899ZM18.9412 20.5899H19.7576V19.5899H18.9412V20.5899ZM19.4412 21.7227V20.0899H18.4412V21.7227H19.4412ZM18.1248 23.0391C18.8518 23.0391 19.4412 22.4497 19.4412 21.7227H18.4412C18.4412 21.8974 18.2995 22.0391 18.1248 22.0391V23.0391ZM16.8084 21.7227C16.8084 22.4497 17.3978 23.0391 18.1248 23.0391V22.0391C17.95 22.0391 17.8084 21.8974 17.8084 21.7227H16.8084ZM16.8084 20.0899V21.7227H17.8084V20.0899H16.8084ZM16.492 20.5899H17.3084V19.5899H16.492V20.5899ZM16.4352 20.5887C16.4541 20.5895 16.473 20.5899 16.492 20.5899V19.5899C16.4874 19.5899 16.4829 19.5898 16.4784 19.5896L16.4352 20.5887ZM14.3562 19.8524C14.9602 20.2998 15.6843 20.5562 16.4352 20.5887L16.4783 19.5896C15.9268 19.5658 15.395 19.3775 14.9515 19.0489L14.3562 19.8524ZM13.0461 18.0782C13.296 18.7871 13.7523 19.405 14.3562 19.8524L14.9515 19.0489C14.5079 18.7203 14.1728 18.2665 13.9893 17.7458L13.0461 18.0782ZM13.8501 16.3991C13.1644 16.6408 12.8045 17.3925 13.0461 18.0782L13.9893 17.7458C13.9312 17.581 14.0177 17.4003 14.1825 17.3422L13.8501 16.3991ZM15.5292 17.2031C15.2876 16.5174 14.5358 16.1574 13.8501 16.3991L14.1825 17.3422C14.3473 17.2842 14.528 17.3707 14.5861 17.5355L15.5292 17.2031ZM15.9234 17.7368C15.7417 17.6022 15.6044 17.4163 15.5292 17.2031L14.5861 17.5355C14.7276 17.937 14.986 18.287 15.3281 18.5404L15.9234 17.7368ZM16.5378 17.9578C16.3158 17.946 16.1021 17.8692 15.9234 17.7368L15.3281 18.5404C15.6647 18.7897 16.067 18.9343 16.485 18.9564L16.5378 17.9578ZM18.117 17.9571H16.5114V18.9571H18.117V17.9571ZM18.1225 17.957L18.1147 17.9571L18.1194 18.9571L18.1271 18.957L18.1225 17.957ZM18.1349 17.9571L18.1271 17.957L18.1225 18.957L18.1302 18.9571L18.1349 17.9571ZM19.7576 17.9571H18.1326V18.9571H19.7576V17.9571ZM20.5586 17.6253C20.3462 17.8377 20.058 17.9571 19.7576 17.9571V18.9571C20.3233 18.9571 20.8658 18.7324 21.2657 18.3324L20.5586 17.6253ZM20.8904 16.8243C20.8904 17.1247 20.7711 17.4128 20.5586 17.6253L21.2657 18.3324C21.6657 17.9324 21.8904 17.3899 21.8904 16.8243H20.8904ZM20.5586 16.0232C20.7711 16.2357 20.8904 16.5238 20.8904 16.8243H21.8904C21.8904 16.2586 21.6657 15.7161 21.2657 15.3161L20.5586 16.0232ZM19.7576 15.6914C20.058 15.6914 20.3462 15.8108 20.5586 16.0232L21.2657 15.3161C20.8658 14.9161 20.3233 14.6914 19.7576 14.6914V15.6914ZM16.492 15.6914H19.7576V14.6914H16.492V15.6914ZM13.8293 14.5885C14.5355 15.2947 15.4933 15.6914 16.492 15.6914V14.6914C15.7585 14.6914 15.055 14.4001 14.5364 13.8814L13.8293 14.5885ZM12.7264 11.9258C12.7264 12.9245 13.1231 13.8823 13.8293 14.5885L14.5364 13.8814C14.0177 13.3628 13.7264 12.6593 13.7264 11.9258H12.7264ZM13.8293 9.26312C13.1231 9.96931 12.7264 10.9271 12.7264 11.9258H13.7264C13.7264 11.1923 14.0177 10.4889 14.5364 9.97023L13.8293 9.26312ZM16.492 8.16019C15.4933 8.16019 14.5355 8.55693 13.8293 9.26312L14.5364 9.97023C15.055 9.45157 15.7585 9.16019 16.492 9.16019V8.16019ZM17.3084 8.16019H16.492V9.16019H17.3084V8.16019ZM16.8084 7.02734V8.66019H17.8084V7.02734H16.8084ZM18.1248 5.71094C17.3978 5.71094 16.8084 6.30031 16.8084 7.02734H17.8084C17.8084 6.8526 17.95 6.71094 18.1248 6.71094V5.71094Z" fill="url(#paint2_linear_4467_29909)" mask="url(#path-3-inside-1_4467_29909)"/>
</g>
<defs>
<filter id="filter0_b_4467_29909" x="2.25" y="-1.5" width="31.75" height="31.75" filterUnits="userSpaceOnUse" color-interpolation-filters="sRGB">
<feFlood flood-opacity="0" result="BackgroundImageFix"/>
<feGaussianBlur in="BackgroundImage" stdDeviation="2"/>
<feComposite in2="SourceAlpha" operator="in" result="effect1_backgroundBlur_4467_29909"/>
<feBlend mode="normal" in="SourceGraphic" in2="effect1_backgroundBlur_4467_29909" result="shape"/>
</filter>
<linearGradient id="paint0_linear_4467_29909" x1="25.9388" y1="22.0813" x2="33.7206" y2="32.683" gradientUnits="userSpaceOnUse">
<stop stop-color="white" stop-opacity="0.25"/>
<stop offset="1" stop-color="white" stop-opacity="0"/>
</linearGradient>
<linearGradient id="paint1_linear_4467_29909" x1="30" y1="18.75" x2="17.588" y2="37.1375" gradientUnits="userSpaceOnUse">
<stop stop-color="#6EE396"/>
<stop offset="1" stop-color="#2CA656"/>
</linearGradient>
<linearGradient id="paint2_linear_4467_29909" x1="10.0306" y1="5.26691" x2="25.1806" y2="24.0305" gradientUnits="userSpaceOnUse">
<stop stop-color="white" stop-opacity="0.25"/>
<stop offset="1" stop-color="white" stop-opacity="0"/>
</linearGradient>
</defs>
</svg>
