<svg width="28" height="28" viewBox="0 0 28 28" fill="none" xmlns="http://www.w3.org/2000/svg">
<g clip-path="url(#clip0_0_992)">
<rect width="28" height="28" rx="14" fill="white"/>
<rect x="-5.75" y="0.25" width="39.5" height="27.5" rx="1.75" fill="white" stroke="#F5F5F5" stroke-width="0.5"/>
<mask id="mask0_0_992" style="mask-type:luminance" maskUnits="userSpaceOnUse" x="-6" y="0" width="40" height="28">
<rect x="-5.75" y="0.25" width="39.5" height="27.5" rx="1.75" fill="white" stroke="white" stroke-width="0.5"/>
</mask>
<g mask="url(#mask0_0_992)">
<rect x="22.5714" width="11.4286" height="28" fill="#FF3131"/>
<path fill-rule="evenodd" clip-rule="evenodd" d="M-6 28H5.42857V0H-6V28Z" fill="#FF3131"/>
<path fill-rule="evenodd" clip-rule="evenodd" d="M16.6824 13.2379C16.4476 13.468 16.0568 13.2553 16.1225 12.9332L16.8572 9.33334L14.9524 10.2667L14 7.46667L13.0477 10.2667L11.1429 9.33334L11.8776 12.9332C11.9433 13.2553 11.5524 13.468 11.3177 13.2379L10.4238 12.362C10.2942 12.235 10.0868 12.235 9.95721 12.362L9.23814 13.0667L7.33337 12.1333L8.28576 14L7.5763 14.6953C7.44294 14.826 7.44294 15.0407 7.5763 15.1714L10.1905 17.7333H13.0477L13.5239 20.5333H14.4762L14.9524 17.7333H17.8096L20.4238 15.1714C20.5571 15.0407 20.5571 14.826 20.4238 14.6953L19.7143 14L20.6667 12.1333L18.7619 13.0667L18.0429 12.362C17.9133 12.235 17.7059 12.235 17.5763 12.362L16.6824 13.2379Z" fill="#FF3131"/>
</g>
</g>
<rect x="0.25" y="0.25" width="27.5" height="27.5" rx="13.75" stroke="#AEB2B9" stroke-width="0.5"/>
<defs>
<clipPath id="clip0_0_992">
<rect width="28" height="28" rx="14" fill="white"/>
</clipPath>
</defs>
</svg>
