<svg width="28" height="28" viewBox="0 0 28 28" fill="none" xmlns="http://www.w3.org/2000/svg">
<g clip-path="url(#clip0_0_977)">
<rect width="28" height="28" rx="14" fill="white"/>
<rect width="40" height="28" rx="2" fill="white"/>
<mask id="mask0_0_977" style="mask-type:luminance" maskUnits="userSpaceOnUse" x="0" y="0" width="40" height="28">
<rect width="40" height="28" rx="2" fill="white"/>
</mask>
<g mask="url(#mask0_0_977)">
<rect width="40" height="28" fill="#0A17A7"/>
<path d="M0 -0.333333H-0.915074L-0.214397 0.255235L6.33333 5.75533V7.29312L-0.191154 11.8603L-0.333333 11.9598V12.1333V13.0667V13.6617L0.174104 13.3509L7.71302 8.73333H9.41874L15.919 13.2835C16.0273 13.3593 16.1563 13.4 16.2886 13.4C16.8901 13.4 17.1637 12.6489 16.7031 12.262L10.8095 7.31134V5.77355L17.1918 1.30594C17.3701 1.18118 17.4762 0.977324 17.4762 0.759782V0V-0.595057L16.9688 -0.284251L9.42984 4.33333H7.72412L1.14354 -0.273077L1.05746 -0.333333H0.952381H0Z" fill="#FF2E3B" stroke="white" stroke-width="0.666667"/>
<path fill-rule="evenodd" clip-rule="evenodd" d="M0 4.66667V8.4H6.66667V13.3333C6.66667 13.7015 6.96514 14 7.33333 14H9.80952C10.1777 14 10.4762 13.7015 10.4762 13.3333V8.4H17.4286C17.7968 8.4 18.0952 8.10152 18.0952 7.73333V5.33333C18.0952 4.96514 17.7968 4.66667 17.4286 4.66667H10.4762V0H6.66667V4.66667H0Z" fill="url(#paint0_linear_0_977)"/>
<path fill-rule="evenodd" clip-rule="evenodd" d="M0 5.6H7.61905V4.66667V0H9.52381V4.66667V5.6H17.1429V7.46667H9.52381V8.4V13.0667H7.61905V8.4V7.46667H0V5.6Z" fill="url(#paint1_linear_0_977)"/>
<path fill-rule="evenodd" clip-rule="evenodd" d="M8.57138 22.8667L6.89199 23.7319L7.21272 21.8993L5.85407 20.6014L7.73168 20.3341L8.57138 18.6667L9.41107 20.3341L11.2887 20.6014L9.93003 21.8993L10.2508 23.7319L8.57138 22.8667Z" fill="white"/>
<path fill-rule="evenodd" clip-rule="evenodd" d="M28.5714 24.2667L27.2245 24.6533L27.619 23.3333L27.2245 22.0134L28.5714 22.4L29.9183 22.0134L29.5238 23.3333L29.9183 24.6533L28.5714 24.2667Z" fill="white"/>
<path fill-rule="evenodd" clip-rule="evenodd" d="M28.5714 6.53334L27.2245 6.91994L27.619 5.6L27.2245 4.28007L28.5714 4.66667L29.9183 4.28007L29.5238 5.6L29.9183 6.91994L28.5714 6.53334Z" fill="white"/>
<path fill-rule="evenodd" clip-rule="evenodd" d="M22.8572 14L21.5103 14.3866L21.9048 13.0667L21.5103 11.7467L22.8572 12.1333L24.204 11.7467L23.8095 13.0667L24.204 14.3866L22.8572 14Z" fill="white"/>
</g>
</g>
<rect x="0.25" y="0.25" width="27.5" height="27.5" rx="13.75" stroke="#AEB2B9" stroke-width="0.5"/>
<defs>
<linearGradient id="paint0_linear_0_977" x1="0" y1="0" x2="0" y2="14" gradientUnits="userSpaceOnUse">
<stop stop-color="white"/>
<stop offset="1" stop-color="#F0F0F0"/>
</linearGradient>
<linearGradient id="paint1_linear_0_977" x1="0" y1="0" x2="0" y2="13.0667" gradientUnits="userSpaceOnUse">
<stop stop-color="#FF2E3B"/>
<stop offset="1" stop-color="#FC0D1B"/>
</linearGradient>
<clipPath id="clip0_0_977">
<rect width="28" height="28" rx="14" fill="white"/>
</clipPath>
</defs>
</svg>
