<svg width="28" height="28" viewBox="0 0 28 28" fill="none" xmlns="http://www.w3.org/2000/svg">
<g clip-path="url(#clip0_0_1004)">
<rect width="28" height="28" rx="14" fill="white"/>
<rect x="-5.75" y="0.25" width="39.5" height="27.5" rx="1.75" fill="white" stroke="#F5F5F5" stroke-width="0.5"/>
<mask id="mask0_0_1004" style="mask-type:luminance" maskUnits="userSpaceOnUse" x="-6" y="0" width="40" height="28">
<rect x="-5.75" y="0.25" width="39.5" height="27.5" rx="1.75" fill="white" stroke="white" stroke-width="0.5"/>
</mask>
<g mask="url(#mask0_0_1004)">
<path fill-rule="evenodd" clip-rule="evenodd" d="M-6 9.33333H34V0H-6V9.33333Z" fill="#E41D33"/>
<path fill-rule="evenodd" clip-rule="evenodd" d="M-6 28H34V18.6667H-6V28Z" fill="#262626"/>
<path d="M11.7983 13.2182L12.0814 13.773L12.3859 13.2298L12.3859 13.2297L12.3859 13.2297L12.3859 13.2297L12.3863 13.2291L12.3881 13.2259L12.396 13.2121C12.4032 13.1996 12.4141 13.1808 12.4285 13.1566C12.4572 13.1081 12.4996 13.0383 12.5532 12.9541C12.6608 12.7852 12.8118 12.5618 12.9872 12.3401C13.164 12.1164 13.3574 11.9048 13.5484 11.752C13.7475 11.5928 13.8995 11.5333 13.9999 11.5333C14.1309 11.5333 14.2969 11.5997 14.4937 11.754C14.6861 11.9049 14.875 12.1141 15.0448 12.3359C15.2131 12.5559 15.3547 12.7777 15.4546 12.9455C15.5043 13.0291 15.5432 13.0984 15.5694 13.1464C15.5825 13.1703 15.5924 13.1889 15.5989 13.2012L15.606 13.2147L15.6076 13.2178L15.6078 13.2182L15.6078 13.2183L15.6079 13.2183L15.6079 13.2183L15.9047 13.8001L16.2016 13.2182L17.0612 11.5333H18.0952C18.2793 11.5333 18.4285 11.6826 18.4285 11.8667V15.5681C18.4285 15.833 18.1346 15.992 17.9129 15.8472L16.087 14.6543L16.0039 14.6H15.9047H14.9523H14.619V14.9333V16.1333C14.619 16.3174 14.4698 16.4667 14.2857 16.4667H13.7142C13.5301 16.4667 13.3809 16.3174 13.3809 16.1333V14.9333V14.6H13.0476H12.0952H11.9959L11.9129 14.6543L10.087 15.8472C9.86531 15.992 9.57137 15.833 9.57137 15.5681V11.8667C9.57137 11.6826 9.72061 11.5333 9.9047 11.5333H10.9387L11.7983 13.2182Z" fill="#F4B32E" fill-opacity="0.25" stroke="#C6A846" stroke-width="0.666667"/>
</g>
</g>
<rect x="0.25" y="0.25" width="27.5" height="27.5" rx="13.75" stroke="#AEB2B9" stroke-width="0.5"/>
<defs>
<clipPath id="clip0_0_1004">
<rect width="28" height="28" rx="14" fill="white"/>
</clipPath>
</defs>
</svg>
