<svg width="28" height="28" viewBox="0 0 28 28" fill="none" xmlns="http://www.w3.org/2000/svg">
<g clip-path="url(#clip0_0_1031)">
<rect width="28" height="28" rx="14" fill="white"/>
<rect x="-6" width="40" height="28" rx="2" fill="white"/>
<mask id="mask0_0_1031" style="mask-type:luminance" maskUnits="userSpaceOnUse" x="-6" y="0" width="40" height="28">
<rect x="-6" width="40" height="28" rx="2" fill="white"/>
</mask>
<g mask="url(#mask0_0_1031)">
<path fill-rule="evenodd" clip-rule="evenodd" d="M-6 7.46667H34V0H-6V7.46667Z" fill="#262626"/>
<path fill-rule="evenodd" clip-rule="evenodd" d="M-6 28H34V20.5333H-6V28Z" fill="#018301"/>
<path fill-rule="evenodd" clip-rule="evenodd" d="M-6 20.5333H34V7.46666H-6V20.5333Z" fill="white"/>
<path fill-rule="evenodd" clip-rule="evenodd" d="M-6 18.6667H34V9.33333H-6V18.6667Z" fill="#DC0808"/>
<path fill-rule="evenodd" clip-rule="evenodd" d="M13.9999 23.3333C15.9047 23.3333 18.7618 19.6701 18.7618 14C18.7618 8.32988 15.9047 4.66667 13.9999 4.66667C12.0952 4.66667 9.23804 8.32988 9.23804 14C9.23804 19.6701 12.0952 23.3333 13.9999 23.3333Z" fill="#BC0000"/>
<mask id="mask1_0_1031" style="mask-type:luminance" maskUnits="userSpaceOnUse" x="9" y="4" width="10" height="20">
<path fill-rule="evenodd" clip-rule="evenodd" d="M13.9999 23.3333C15.9047 23.3333 18.7618 19.6701 18.7618 14C18.7618 8.32988 15.9047 4.66667 13.9999 4.66667C12.0952 4.66667 9.23804 8.32988 9.23804 14C9.23804 19.6701 12.0952 23.3333 13.9999 23.3333Z" fill="white"/>
</mask>
<g mask="url(#mask1_0_1031)">
<path fill-rule="evenodd" clip-rule="evenodd" d="M6.38092 24.2667C9.01085 24.2667 11.1428 19.6701 11.1428 14C11.1428 8.32988 9.01085 3.73334 6.38092 3.73334C3.751 3.73334 1.61902 8.32988 1.61902 14C1.61902 19.6701 3.751 24.2667 6.38092 24.2667Z" fill="#262626"/>
<path fill-rule="evenodd" clip-rule="evenodd" d="M21.619 24.2667C24.2489 24.2667 26.3809 19.6701 26.3809 14C26.3809 8.32988 24.2489 3.73334 21.619 3.73334C18.989 3.73334 16.8571 8.32988 16.8571 14C16.8571 19.6701 18.989 24.2667 21.619 24.2667Z" fill="#262626"/>
<g filter="url(#filter0_d_0_1031)">
<path fill-rule="evenodd" clip-rule="evenodd" d="M14 11.2C14.526 11.2 14.9524 9.52853 14.9524 7.46667C14.9524 5.40481 14.526 3.73334 14 3.73334C13.474 3.73334 13.0476 5.40481 13.0476 7.46667C13.0476 9.52853 13.474 11.2 14 11.2ZM14 16.8C14.526 16.8 14.9524 15.5464 14.9524 14C14.9524 12.4536 14.526 11.2 14 11.2C13.474 11.2 13.0476 12.4536 13.0476 14C13.0476 15.5464 13.474 16.8 14 16.8ZM14 16.8C13.474 16.8 13.0476 18.4715 13.0476 20.5333C13.0476 22.5952 13.474 24.2667 14 24.2667C14.526 24.2667 14.9524 22.5952 14.9524 20.5333C14.9524 18.4715 14.526 16.8 14 16.8Z" fill="url(#paint0_linear_0_1031)"/>
</g>
</g>
</g>
</g>
<rect x="0.25" y="0.25" width="27.5" height="27.5" rx="13.75" stroke="#AEB2B9" stroke-width="0.5"/>
<defs>
<filter id="filter0_d_0_1031" x="13.0476" y="3.73334" width="1.90479" height="21.5333" filterUnits="userSpaceOnUse" color-interpolation-filters="sRGB">
<feFlood flood-opacity="0" result="BackgroundImageFix"/>
<feColorMatrix in="SourceAlpha" type="matrix" values="0 0 0 0 0 0 0 0 0 0 0 0 0 0 0 0 0 0 127 0" result="hardAlpha"/>
<feOffset dy="1"/>
<feColorMatrix type="matrix" values="0 0 0 0 0 0 0 0 0 0 0 0 0 0 0 0 0 0 0.06 0"/>
<feBlend mode="normal" in2="BackgroundImageFix" result="effect1_dropShadow_0_1031"/>
<feBlend mode="normal" in="SourceGraphic" in2="effect1_dropShadow_0_1031" result="shape"/>
</filter>
<linearGradient id="paint0_linear_0_1031" x1="13.0476" y1="3.73334" x2="13.0476" y2="24.2667" gradientUnits="userSpaceOnUse">
<stop stop-color="white"/>
<stop offset="1" stop-color="#F0F0F0"/>
</linearGradient>
<clipPath id="clip0_0_1031">
<rect width="28" height="28" rx="14" fill="white"/>
</clipPath>
</defs>
</svg>
