<svg width="28" height="28" viewBox="0 0 28 28" fill="none" xmlns="http://www.w3.org/2000/svg">
<g clip-path="url(#clip0_0_1037)">
<rect x="-6" width="40" height="28" rx="2" fill="white"/>
<mask id="mask0_0_1037" style="mask-type:luminance" maskUnits="userSpaceOnUse" x="-6" y="0" width="40" height="28">
<rect x="-6" width="40" height="28" rx="2" fill="white"/>
</mask>
<g mask="url(#mask0_0_1037)">
<rect x="-6" width="40" height="28" fill="#30C6E0"/>
<path fill-rule="evenodd" clip-rule="evenodd" d="M14.0001 19.6C17.156 19.6 19.7143 17.0928 19.7143 14C19.7143 10.9072 17.156 8.40002 14.0001 8.40002C10.8441 8.40002 8.28577 10.9072 8.28577 14C8.28577 17.0928 10.8441 19.6 14.0001 19.6Z" fill="#FFCD4B"/>
<path fill-rule="evenodd" clip-rule="evenodd" d="M11.6688 24.0092L14 20.599L16.3312 24.0092L16.9217 19.9455L20.5318 22.0268L19.2646 18.1144L23.4387 18.4545L20.5649 15.4684L24.4762 14L20.5649 12.5316L23.4387 9.54544L19.2646 9.88554L20.5318 5.97318L16.9217 8.05444L16.3312 3.99072L14 7.40092L11.6688 3.99072L11.0783 8.05444L7.4682 5.97318L8.73535 9.88554L4.56127 9.54544L7.43509 12.5316L3.5238 14L7.43509 15.4684L4.56127 18.4545L8.73535 18.1144L7.4682 22.0268L11.0783 19.9455L11.6688 24.0092ZM20.6667 14C20.6667 17.6082 17.6819 20.5333 14 20.5333C10.3181 20.5333 7.33333 17.6082 7.33333 14C7.33333 10.3917 10.3181 7.46665 14 7.46665C17.6819 7.46665 20.6667 10.3917 20.6667 14Z" fill="#FFCD4B"/>
</g>
</g>
<rect x="0.25" y="0.25" width="27.5" height="27.5" rx="13.75" stroke="#AEB2B9" stroke-width="0.5"/>
<defs>
<clipPath id="clip0_0_1037">
<rect width="28" height="28" rx="14" fill="white"/>
</clipPath>
</defs>
</svg>
