<svg width="28" height="28" viewBox="0 0 28 28" fill="none" xmlns="http://www.w3.org/2000/svg">
<g clip-path="url(#clip0_0_1043)">
<rect x="-5.75" y="0.25" width="39.5" height="27.5" rx="1.75" fill="white" stroke="#F5F5F5" stroke-width="0.5"/>
<mask id="mask0_0_1043" style="mask-type:luminance" maskUnits="userSpaceOnUse" x="-6" y="0" width="40" height="28">
<rect x="-5.75" y="0.25" width="39.5" height="27.5" rx="1.75" fill="white" stroke="white" stroke-width="0.5"/>
</mask>
<g mask="url(#mask0_0_1043)">
<rect x="20.6666" width="13.3333" height="28" fill="#E3283E"/>
<path fill-rule="evenodd" clip-rule="evenodd" d="M-6 28H7.33333V0H-6V28Z" fill="#128A60"/>
<path d="M10.8571 13.0667C10.8571 12.6985 10.5586 12.4 10.1904 12.4C9.82224 12.4 9.52376 12.6985 9.52376 13.0667H10.8571ZM11.7613 16.8776C12.0814 17.0596 12.4884 16.9477 12.6704 16.6276C12.8524 16.3075 12.7404 15.9005 12.4204 15.7185L11.7613 16.8776ZM15.6957 15.6492C15.3837 15.8447 15.2893 16.2561 15.4849 16.5681C15.6804 16.8801 16.0918 16.9745 16.4038 16.7789L15.6957 15.6492ZM18.4761 13.0667C18.4761 12.6985 18.1777 12.4 17.8095 12.4C17.4413 12.4 17.1428 12.6985 17.1428 13.0667H18.4761ZM9.52376 13.0667C9.52376 14.7007 10.4293 16.1201 11.7613 16.8776L12.4204 15.7185C11.4799 15.1837 10.8571 14.1928 10.8571 13.0667H9.52376ZM16.4038 16.7789C17.6448 16.0011 18.4761 14.6321 18.4761 13.0667H17.1428C17.1428 14.1459 16.5711 15.1004 15.6957 15.6492L16.4038 16.7789Z" fill="#8C9157"/>
<path fill-rule="evenodd" clip-rule="evenodd" d="M14 14.9333C15.0519 14.9333 15.9047 13.6797 15.9047 12.1333C15.9047 10.5869 15.0519 9.33331 14 9.33331C12.948 9.33331 12.0952 10.5869 12.0952 12.1333C12.0952 13.6797 12.948 14.9333 14 14.9333Z" fill="#C59262"/>
</g>
</g>
<rect x="0.25" y="0.25" width="27.5" height="27.5" rx="13.75" stroke="#AEB2B9" stroke-width="0.5"/>
<defs>
<clipPath id="clip0_0_1043">
<rect width="28" height="28" rx="14" fill="white"/>
</clipPath>
</defs>
</svg>
