<svg width="28" height="28" viewBox="0 0 28 28" fill="none" xmlns="http://www.w3.org/2000/svg">
<g clip-path="url(#clip0_0_1040)">
<rect x="-6" width="40" height="28" rx="2" fill="white"/>
<mask id="mask0_0_1040" style="mask-type:luminance" maskUnits="userSpaceOnUse" x="-6" y="0" width="40" height="28">
<rect x="-6" width="40" height="28" rx="2" fill="white"/>
</mask>
<g mask="url(#mask0_0_1040)">
<path fill-rule="evenodd" clip-rule="evenodd" d="M34 0H13.0476V1.86667H34V0ZM34 3.73333H13.0476V5.6H34V3.73333ZM13.0476 7.46667H34V9.33333H13.0476V7.46667ZM34 11.2H13.0476V13.0667H34V11.2ZM-6 14.9333H34V16.8H-6V14.9333ZM34 18.6667H-6V20.5333H34V18.6667ZM-6 22.4H34V24.2667H-6V22.4ZM34 26.1333H-6V28H34V26.1333Z" fill="#E1244A"/>
<rect x="-6" width="22.8571" height="14.9333" fill="#0C3F8E"/>
<path fill-rule="evenodd" clip-rule="evenodd" d="M3.52386 13.0666C4.87401 13.0666 6.1148 12.6077 7.09268 11.8404C6.57468 12.0298 6.01398 12.1333 5.42862 12.1333C2.79869 12.1333 0.666713 10.044 0.666713 7.46664C0.666713 4.88931 2.79869 2.79997 5.42862 2.79997C6.01398 2.79997 6.57468 2.90348 7.09268 3.09284C6.1148 2.32553 4.87401 1.86664 3.52386 1.86664C0.367943 1.86664 -2.19043 4.37384 -2.19043 7.46664C-2.19043 10.5594 0.367943 13.0666 3.52386 13.0666ZM7.58525 10.8303L9.23814 8.9973L10.891 10.8303L10.4593 8.42099L12.9522 8.29738L10.7609 7.12603L12.2165 5.13894L9.91583 6.08756L9.23814 3.7333L8.56046 6.08756L6.25974 5.13894L7.7154 7.12603L5.52413 8.29738L8.017 8.42099L7.58525 10.8303Z" fill="#FFD34F"/>
</g>
</g>
<rect x="0.25" y="0.25" width="27.5" height="27.5" rx="13.75" stroke="#AEB2B9" stroke-width="0.5"/>
<defs>
<clipPath id="clip0_0_1040">
<rect width="28" height="28" rx="14" fill="white"/>
</clipPath>
</defs>
</svg>
