<svg width="28" height="28" viewBox="0 0 28 28" fill="none" xmlns="http://www.w3.org/2000/svg">
<g clip-path="url(#clip0_0_1055)">
<rect x="-0.75" y="0.25" width="39.5" height="27.5" rx="1.75" fill="white" stroke="#F5F5F5" stroke-width="0.5"/>
<mask id="mask0_0_1055" style="mask-type:luminance" maskUnits="userSpaceOnUse" x="-1" y="0" width="40" height="28">
<rect x="-0.75" y="0.25" width="39.5" height="27.5" rx="1.75" fill="white" stroke="white" stroke-width="0.5"/>
</mask>
<g mask="url(#mask0_0_1055)">
<path fill-rule="evenodd" clip-rule="evenodd" d="M-1 28L39 28V13.0667H16.7778L18.0476 14L-1 28Z" fill="#DD1C34"/>
<path fill-rule="evenodd" clip-rule="evenodd" d="M39 13.0667H16.7778L-1 0H39V13.0667Z" fill="#0D4BC3"/>
<path fill-rule="evenodd" clip-rule="evenodd" d="M1.85717 5.6C2.38315 5.6 2.80955 5.18214 2.80955 4.66667C2.80955 4.1512 2.38315 3.73334 1.85717 3.73334C1.33118 3.73334 0.904785 4.1512 0.904785 4.66667C0.904785 5.18214 1.33118 5.6 1.85717 5.6ZM13.2857 14.9333C13.8117 14.9333 14.2381 14.5155 14.2381 14C14.2381 13.4845 13.8117 13.0667 13.2857 13.0667C12.7598 13.0667 12.3334 13.4845 12.3334 14C12.3334 14.5155 12.7598 14.9333 13.2857 14.9333ZM2.80955 23.3333C2.80955 23.8488 2.38315 24.2667 1.85717 24.2667C1.33118 24.2667 0.904785 23.8488 0.904785 23.3333C0.904785 22.8179 1.33118 22.4 1.85717 22.4C2.38315 22.4 2.80955 22.8179 2.80955 23.3333ZM5.47442 15.8573L3.84439 18.3114L4.46257 15.4464C4.3631 15.3668 4.27199 15.2775 4.19073 15.18L1.26726 15.7859L3.77151 14.1884C3.76517 14.1265 3.76193 14.0636 3.76193 14C3.76193 13.9364 3.76517 13.8735 3.77151 13.8116L1.26726 12.2141L4.19073 12.82C4.27199 12.7225 4.3631 12.6332 4.46257 12.5536L3.84439 9.68857L5.47442 12.1427C5.53765 12.1365 5.60179 12.1333 5.66669 12.1333C5.73159 12.1333 5.79573 12.1365 5.85896 12.1427L7.48899 9.68857L6.87081 12.5536C6.97028 12.6332 7.06139 12.7225 7.14265 12.82L10.0661 12.2141L7.56187 13.8116C7.56821 13.8735 7.57145 13.9364 7.57145 14C7.57145 14.0636 7.56821 14.1265 7.56187 14.1884L10.0661 15.7859L7.14265 15.18C7.06139 15.2775 6.97028 15.3668 6.87081 15.4464L7.48899 18.3114L5.85896 15.8573C5.79573 15.8635 5.73159 15.8667 5.66669 15.8667C5.60179 15.8667 5.53765 15.8635 5.47442 15.8573Z" fill="#FDD64D"/>
</g>
</g>
<rect x="0.25" y="0.25" width="27.5" height="27.5" rx="13.75" stroke="#AEB2B9" stroke-width="0.5"/>
<defs>
<clipPath id="clip0_0_1055">
<rect width="28" height="28" rx="14" fill="white"/>
</clipPath>
</defs>
</svg>
