<svg width="28" height="28" viewBox="0 0 28 28" fill="none" xmlns="http://www.w3.org/2000/svg">
<g clip-path="url(#clip0_0_1079)">
<rect x="-6" width="40" height="28" rx="2" fill="white"/>
<mask id="mask0_0_1079" style="mask-type:luminance" maskUnits="userSpaceOnUse" x="-6" y="0" width="40" height="28">
<rect x="-6" width="40" height="28" rx="2" fill="white"/>
</mask>
<g mask="url(#mask0_0_1079)">
<path fill-rule="evenodd" clip-rule="evenodd" d="M-6 3.73333H34V0H-6V3.73333Z" fill="#262626"/>
<path fill-rule="evenodd" clip-rule="evenodd" d="M-6 18.6667H34V14.9333H-6V18.6667Z" fill="#262626"/>
<path fill-rule="evenodd" clip-rule="evenodd" d="M-6 14.9333H34V9.33334H-6V14.9333Z" fill="#ED1623"/>
<path fill-rule="evenodd" clip-rule="evenodd" d="M-6 9.33334H34V3.73334H-6V9.33334Z" fill="#FEE044"/>
<path fill-rule="evenodd" clip-rule="evenodd" d="M-6 28H34V24.2667H-6V28Z" fill="#ED1623"/>
<path fill-rule="evenodd" clip-rule="evenodd" d="M-6 24.2667H34V18.6667H-6V24.2667Z" fill="#FEE044"/>
<path fill-rule="evenodd" clip-rule="evenodd" d="M14 20.5333C17.6819 20.5333 20.6667 17.6083 20.6667 14C20.6667 10.3917 17.6819 7.46667 14 7.46667C10.3181 7.46667 7.33337 10.3917 7.33337 14C7.33337 17.6083 10.3181 20.5333 14 20.5333Z" fill="white"/>
<path fill-rule="evenodd" clip-rule="evenodd" d="M12.3381 10.5047C12.2048 10.374 12.2048 10.1593 12.3381 10.0286L13.0282 9.35231C13.0411 9.33968 13.0528 9.32619 13.0638 9.31187C13.1248 9.23238 13.3486 8.95215 13.5732 8.81407C13.7744 8.69034 14.2334 8.6804 14.4396 8.79563C14.5984 8.88439 14.7475 9.05422 14.8435 9.17936C14.9148 9.27236 14.9197 9.39725 14.8665 9.50166L14.0364 11.1286C14.0124 11.1755 14 11.2275 14 11.2801V11.9255C14 12.0527 14.0724 12.1688 14.1866 12.2248L15.8565 13.043C15.8884 13.0587 15.9177 13.0794 15.9431 13.1043L17.6346 14.7619C17.7387 14.8639 17.7644 15.0217 17.6982 15.1515L17.0633 16.3959C16.9611 16.5963 16.6937 16.6399 16.5331 16.4824L16.138 16.0953C16.0084 15.9683 15.801 15.9683 15.6714 16.0953L15.0524 16.702C14.9884 16.7647 14.9523 16.8505 14.9523 16.94V17.5933C14.9523 17.6829 14.9884 17.7687 15.0524 17.8314L15.3217 18.0953C15.5349 18.3043 15.3869 18.6667 15.0884 18.6667H13.864C13.5654 18.6667 13.4174 18.3043 13.6307 18.0953L13.8999 17.8314C13.9639 17.7687 14 17.6829 14 17.5933V17.1333C14 16.9492 13.8507 16.8 13.6666 16.8H13.1837C13.0964 16.8 13.0127 16.8342 12.9504 16.8953L12.3285 17.5047C12.1989 17.6317 11.9915 17.6317 11.8619 17.5047L11.3858 17.0381C11.2524 16.9074 11.2524 16.6926 11.3858 16.5619L11.998 15.9619C12.0603 15.9009 12.1441 15.8667 12.2313 15.8667H13.1836C13.4822 15.8667 13.6302 15.5043 13.4169 15.2953L11.3858 13.3047C11.2524 13.174 11.2524 12.9593 11.3858 12.8286L12.8047 11.4381C12.938 11.3074 12.938 11.0926 12.8047 10.9619L12.3381 10.5047Z" fill="#262626"/>
</g>
</g>
<rect x="0.25" y="0.25" width="27.5" height="27.5" rx="13.75" stroke="#AEB2B9" stroke-width="0.5"/>
<defs>
<clipPath id="clip0_0_1079">
<rect width="28" height="28" rx="14" fill="white"/>
</clipPath>
</defs>
</svg>
