<svg width="28" height="28" viewBox="0 0 28 28" fill="none" xmlns="http://www.w3.org/2000/svg">
<g clip-path="url(#clip0_0_1085)">
<rect x="-5.75" y="0.25" width="39.5" height="27.5" rx="1.75" fill="white" stroke="#F5F5F5" stroke-width="0.5"/>
<mask id="mask0_0_1085" style="mask-type:luminance" maskUnits="userSpaceOnUse" x="-6" y="0" width="40" height="28">
<rect x="-5.75" y="0.25" width="39.5" height="27.5" rx="1.75" fill="white" stroke="white" stroke-width="0.5"/>
</mask>
<g mask="url(#mask0_0_1085)">
<path fill-rule="evenodd" clip-rule="evenodd" d="M34 3.73333H13.0476V7.46667H34V3.73333ZM13.0476 11.2V14.9333H34V11.2H13.0476ZM13.0476 18.6667H-6V22.4H34V18.6667H13.0476ZM-6 28V26.1333H34V28H-6Z" fill="#0E4DC5"/>
<path fill-rule="evenodd" clip-rule="evenodd" d="M3.52386 13.0498L2.25231 14.9099L1.93022 12.6934L-0.0389428 13.8286L0.652232 11.6946L-1.62454 11.8801L-0.0570009 10.2513L-2.19043 9.45034L-0.0570009 8.64938L-1.62454 7.02059L0.652232 7.20609L-0.0389428 5.07208L1.93022 6.20731L2.25231 3.99074L3.52386 5.85085L4.7954 3.99074L5.11749 6.20731L7.08666 5.07208L6.39548 7.20609L8.67225 7.02059L7.10471 8.64938L9.23814 9.45034L7.10471 10.2513L8.67225 11.8801L6.39548 11.6946L7.08666 13.8286L5.11749 12.6934L4.7954 14.9099L3.52386 13.0498ZM3.52386 13.014C5.53216 13.014 7.16022 11.4185 7.16022 9.45034C7.16022 7.48219 5.53216 5.8867 3.52386 5.8867C1.51555 5.8867 -0.112508 7.48219 -0.112508 9.45034C-0.112508 11.4185 1.51555 13.014 3.52386 13.014ZM6.381 9.33333C6.381 10.8797 5.10181 12.1333 3.52386 12.1333C1.9459 12.1333 0.666713 10.8797 0.666713 9.33333C0.666713 7.78694 1.9459 6.53333 3.52386 6.53333C5.10181 6.53333 6.381 7.78694 6.381 9.33333Z" fill="#FED443"/>
</g>
</g>
<rect x="0.25" y="0.25" width="27.5" height="27.5" rx="13.75" stroke="#AEB2B9" stroke-width="0.5"/>
<defs>
<clipPath id="clip0_0_1085">
<rect width="28" height="28" rx="14" fill="white"/>
</clipPath>
</defs>
</svg>
