<svg width="28" height="28" viewBox="0 0 28 28" fill="none" xmlns="http://www.w3.org/2000/svg">
<g clip-path="url(#clip0_0_1088)">
<rect x="-5.75" y="0.25" width="39.5" height="27.5" rx="1.75" fill="white" stroke="#F5F5F5" stroke-width="0.5"/>
<mask id="mask0_0_1088" style="mask-type:luminance" maskUnits="userSpaceOnUse" x="-6" y="0" width="40" height="28">
<rect x="-5.75" y="0.25" width="39.5" height="27.5" rx="1.75" fill="white" stroke="white" stroke-width="0.5"/>
</mask>
<g mask="url(#mask0_0_1088)">
<path fill-rule="evenodd" clip-rule="evenodd" d="M-6 9.33333H34V0H-6V9.33333Z" fill="#04AAC8"/>
<path fill-rule="evenodd" clip-rule="evenodd" d="M-6 28H34V18.6667H-6V28Z" fill="#23C840"/>
<path fill-rule="evenodd" clip-rule="evenodd" d="M0.666713 7.46667C1.25426 7.46667 1.80038 7.29287 2.25446 6.99487C2.20185 6.99827 2.14878 7 2.09528 7C0.780321 7 -0.285668 5.95533 -0.285668 4.66667C-0.285668 3.378 0.780321 2.33333 2.09528 2.33333C2.14878 2.33333 2.20185 2.33506 2.25446 2.33847C1.80038 2.04047 1.25426 1.86667 0.666713 1.86667C-0.911243 1.86667 -2.19043 3.12027 -2.19043 4.66667C-2.19043 6.21306 -0.911243 7.46667 0.666713 7.46667ZM5.42862 6.53333C5.42862 7.0488 5.00222 7.46667 4.47624 7.46667C3.95025 7.46667 3.52386 7.0488 3.52386 6.53333C3.52386 6.01787 3.95025 5.6 4.47624 5.6C5.00222 5.6 5.42862 6.01787 5.42862 6.53333ZM8.28576 3.73333C8.81175 3.73333 9.23814 3.31547 9.23814 2.8C9.23814 2.28453 8.81175 1.86667 8.28576 1.86667C7.75978 1.86667 7.33338 2.28453 7.33338 2.8C7.33338 3.31547 7.75978 3.73333 8.28576 3.73333ZM13.0477 2.8C13.0477 3.31547 12.6213 3.73333 12.0953 3.73333C11.5693 3.73333 11.1429 3.31547 11.1429 2.8C11.1429 2.28453 11.5693 1.86667 12.0953 1.86667C12.6213 1.86667 13.0477 2.28453 13.0477 2.8ZM12.0953 7.46667C12.6213 7.46667 13.0477 7.0488 13.0477 6.53333C13.0477 6.01787 12.6213 5.6 12.0953 5.6C11.5693 5.6 11.1429 6.01787 11.1429 6.53333C11.1429 7.0488 11.5693 7.46667 12.0953 7.46667ZM9.23814 6.53333C9.23814 7.0488 8.81175 7.46667 8.28576 7.46667C7.75978 7.46667 7.33338 7.0488 7.33338 6.53333C7.33338 6.01787 7.75978 5.6 8.28576 5.6C8.81175 5.6 9.23814 6.01787 9.23814 6.53333Z" fill="white"/>
</g>
</g>
<rect x="0.25" y="0.25" width="27.5" height="27.5" rx="13.75" stroke="#AEB2B9" stroke-width="0.5"/>
<defs>
<clipPath id="clip0_0_1088">
<rect width="28" height="28" rx="14" fill="white"/>
</clipPath>
</defs>
</svg>
