<svg width="111" height="28" viewBox="0 0 111 28" fill="none" xmlns="http://www.w3.org/2000/svg">
<g clip-path="url(#clip0_7633_14624)">
<path d="M26.7914 5.30752C26.7716 3.72346 26.2808 2.12948 24.8826 1.23952C23.5217 0.374363 21.712 0.391716 20.6411 1.70805C20.5544 1.81465 20.3684 1.99561 20.423 2.15179C20.4775 2.30796 20.8146 2.27078 20.9559 2.34267C21.1989 2.46414 21.2956 2.70708 21.2881 2.96737C21.2782 3.2698 21.2757 6.15781 21.2633 10.139C17.7605 10.1192 14.2553 10.0969 10.7525 10.0771C10.6856 9.20695 10.6608 8.23023 10.7227 7.16923C10.7798 6.19003 10.9062 5.2158 11.0971 4.25396C11.1814 3.83253 11.278 3.41358 11.3871 2.9996C11.5061 2.54346 11.8358 1.98322 11.8011 1.50477C11.7961 1.44032 11.7813 1.37587 11.7416 1.32629C11.6474 1.20978 11.4664 1.22961 11.3227 1.26679C10.4302 1.49486 9.56259 1.97082 8.87839 2.58809C8.66768 2.77649 8.10495 3.31195 7.59676 4.22421C6.2482 6.63873 6.1416 10.0597 6.1416 10.0597C6.07219 12.271 5.98543 16.7529 8.34293 21.406C8.34293 21.406 9.99393 24.6683 12.3564 25.4715C12.8224 25.6301 12.9489 25.526 12.9885 25.4715C13.172 25.236 12.7778 24.8294 12.6613 24.6485C12.4456 24.3163 12.2622 23.9643 12.1035 23.5999C11.7763 22.8487 11.5582 22.053 11.397 21.2523C10.9037 18.813 10.5839 16.3439 10.6533 13.8525H21.2633V23.2156C21.2633 23.8354 21.5162 24.4328 22.0888 24.7253C22.4334 24.9013 22.8251 24.9633 23.2093 25.0104C23.8811 25.0947 24.5678 25.1393 25.2322 25.0104C25.6214 24.936 26.0106 24.7947 26.3006 24.5245C26.7691 24.0907 26.7766 23.5007 26.7766 22.9082C26.7766 18.2056 26.8212 13.503 26.8138 8.80039C26.8138 7.6328 26.8038 6.46768 26.7914 5.30008V5.30752Z" fill="url(#paint0_linear_7633_14624)"/>
<path d="M12.2523 26.6491C7.97111 25.3972 6.30028 20.8607 5.38554 16.9266C5.18722 16.0688 4.99634 15.2235 4.88231 14.3484C4.54021 11.7034 4.55508 8.79553 5.41281 6.24219C4.75836 6.38845 4.46336 6.95117 4.0816 7.4073C2.68594 9.07317 2.57686 11.0192 2.50993 12.9528C2.35127 17.4942 4.00971 20.7243 4.37907 21.4185C5.21201 22.9777 6.11931 24.004 6.38704 24.299C7.33897 25.3526 8.29585 26.0839 9.02963 26.5698C8.44707 26.426 7.62405 26.1558 6.74402 25.6129C5.92843 25.1097 5.34587 24.5494 4.96411 24.1205C4.4113 23.414 4.0221 22.7918 3.76925 22.3506C3.08753 21.1706 2.23972 19.7005 1.80838 17.7297C1.68691 17.1769 1.6051 16.6142 1.38695 16.5919C1.07212 16.5597 0.717631 17.6802 0.640783 17.9206C0.392886 18.7065 0.328433 19.4254 0.333391 19.8071C0.350743 21.2945 1.46628 24.1875 4.13118 26.1508C4.13118 26.1508 6.46141 27.8663 10.4476 27.9977C10.6112 28.0026 11.5755 27.9803 12.292 27.4672C12.644 27.2143 12.877 26.8276 12.2523 26.6466V26.6491Z" fill="url(#paint1_linear_7633_14624)"/>
<path d="M5.42024 6.22729C5.42024 6.22729 5.41776 6.23721 5.41528 6.24217C5.42024 6.24217 5.4252 6.23969 5.43016 6.23721L5.42024 6.22729Z" fill="url(#paint2_linear_7633_14624)"/>
<path d="M5.41779 6.22718L5.43018 6.2371L5.47976 6.17017L5.41779 6.22718Z" fill="url(#paint3_linear_7633_14624)"/>
<path d="M81.5817 4.75459C81.5991 4.20921 81.5817 3.40107 81.3859 2.42931C81.366 2.32519 81.3412 2.0773 81.2148 1.78974C81.1479 1.63356 80.9595 1.21957 80.5207 0.936969C80.2852 0.78823 80.0224 0.698987 79.7448 0.701466C79.5514 0.701466 79.3581 0.71634 79.1672 0.71634C78.8995 0.71634 78.6317 0.723777 78.364 0.726256C77.8434 0.731214 77.3228 0.718819 76.8047 0.738651C76.3387 0.756004 75.9024 0.914658 75.5702 1.26419C75.176 1.67818 74.8612 2.26818 74.3406 3.53245C74.2539 3.74069 74.1845 3.91917 74.1374 4.04064C73.939 4.46951 71.1403 10.538 70.0818 12.2931C70.0049 12.4245 69.8314 12.7047 69.6182 12.6947C69.4025 12.7047 69.2315 12.4245 69.1546 12.2931C68.0986 10.5356 65.2973 4.46951 65.099 4.04064C65.0519 3.91917 64.9825 3.74317 64.8957 3.53245C64.3752 2.26818 64.0603 1.67818 63.6662 1.26419C63.3365 0.914658 62.9002 0.756004 62.4316 0.738651C61.9111 0.721298 61.3905 0.731214 60.8724 0.726256C60.6046 0.726256 60.3369 0.718819 60.0692 0.71634C59.8758 0.71634 59.6825 0.703945 59.4916 0.701466C59.2139 0.701466 58.9536 0.78823 58.7157 0.936969C58.2769 1.21957 58.0885 1.63356 58.0216 1.78974C57.8951 2.0773 57.8703 2.32519 57.8505 2.42931C57.6571 3.40355 57.6373 4.21169 57.6547 4.75459C57.4514 10.9991 57.2481 17.2387 57.0424 23.4832C57.0498 23.5873 57.0696 23.7311 57.1266 23.8923C57.4464 24.807 58.6066 25.2557 59.499 25.2681C60.4014 25.2805 61.4797 24.8516 61.8615 24.0236C61.8664 24.0137 61.9359 23.8526 61.973 23.6741C62.2383 22.4024 62.392 12.1618 62.449 7.70209C64.8933 12.7096 66.8046 16.4529 67.6895 18.1039C67.868 18.4435 68.2523 19.1252 68.9588 19.3582C69.1621 19.4276 69.3876 19.4648 69.6182 19.4673C69.8487 19.4673 70.0743 19.4276 70.2776 19.3582C70.9841 19.1252 71.3659 18.4435 71.5468 18.1039C72.4293 16.4529 74.3431 12.7096 76.7874 7.70209C76.8444 12.1642 76.9981 22.4024 77.2633 23.6741C77.3005 23.8526 77.3699 24.0137 77.3749 24.0236C77.7567 24.8516 78.835 25.2805 79.7374 25.2681C80.6323 25.2557 81.7899 24.807 82.1097 23.8923C82.1668 23.7311 82.1866 23.5873 82.194 23.4832C81.9907 17.2387 81.7875 10.9991 81.5817 4.75459Z" fill="url(#paint4_linear_7633_14624)"/>
<path d="M38.041 19.5369C38.0956 19.5443 38.1501 19.5542 38.1997 19.5691C38.1997 19.5741 38.1997 19.5765 38.1947 19.5815C38.1526 19.6509 38.0088 19.6112 38.041 19.5369Z" fill="white"/>
<path d="M52.1712 1.44766C51.663 0.80561 50.7953 0.780821 49.9599 0.75851C49.1691 0.736199 48.1627 0.70893 47.533 1.408C47.1835 1.7972 47.0868 2.25581 47.057 2.53345C47.0422 7.14187 47.0273 11.7478 47.0124 16.3562C47.0199 16.8074 46.9752 17.6577 46.5191 18.5922C46.0382 19.5789 45.3565 20.1391 45.1829 20.2755C45.1829 20.2755 44.0228 21.1927 42.5057 21.3142C42.3544 21.3266 42.1933 21.3315 42.1933 21.3315C42.1536 21.3315 42.114 21.3315 42.0743 21.334C42.0347 21.334 41.995 21.334 41.9553 21.3315C41.9553 21.3315 41.7967 21.3266 41.643 21.3142C40.1258 21.1902 38.9657 20.2755 38.9657 20.2755C38.7897 20.1366 38.1104 19.5789 37.6295 18.5922C37.1734 17.6577 37.1288 16.8074 37.1362 16.3562C37.1213 11.7478 37.1065 7.14187 37.0916 2.53345C37.0618 2.25581 36.9676 1.7972 36.6156 1.408C35.986 0.70893 34.9795 0.736199 34.1887 0.75851C33.3558 0.780821 32.4857 0.80561 31.9775 1.44766C31.5783 1.9509 31.6106 2.57312 31.6428 2.84333V17.3106C31.6428 18.6567 32.0295 20.4391 33.3211 22.1322C34.7713 24.0336 36.8313 24.8814 37.4659 25.1169C38.7525 25.5953 40.0192 25.7292 40.406 25.7664C41.0778 25.8333 41.6504 25.8358 42.0743 25.8234C42.4982 25.8358 43.0709 25.8333 43.7427 25.7664C44.1294 25.7267 45.3961 25.5929 46.6827 25.1169C47.3173 24.8814 49.3774 24.0336 50.8276 22.1322C52.1166 20.4391 52.5058 18.6567 52.5058 17.3106V2.84333C52.5381 2.57312 52.5703 1.9509 52.1712 1.44766Z" fill="url(#paint5_linear_7633_14624)"/>
<path d="M39.2235 25.5085C39.2681 25.516 39.3103 25.5284 39.3499 25.5457L39.278 25.5904L39.226 25.5085H39.2235Z" fill="white"/>
<path d="M109.577 8.40868C108.878 6.08588 107.45 4.03825 105.511 2.58061C103.312 0.929615 100.586 0.0644533 97.8463 0C95.107 0.0644533 92.3801 0.929615 90.1813 2.58061C88.2402 4.03825 86.8124 6.08588 86.1158 8.40868C84.1202 15.0771 87.1222 23.585 94.3063 25.4665C95.4664 25.7689 96.6588 25.8978 97.8463 25.8656C99.0362 25.8978 100.229 25.7689 101.386 25.4665C108.57 23.585 111.572 15.0771 109.577 8.40868ZM104.242 15.853C103.491 19.0112 101.394 22.405 97.8438 22.4421C94.2939 22.405 92.1967 19.0112 91.4456 15.853C90.7217 12.8113 90.8556 9.22922 92.5586 6.51474C93.7386 4.6332 95.7466 3.52014 97.8413 3.50527C99.9385 3.52014 101.944 4.63568 103.124 6.51474C104.827 9.22922 104.961 12.8113 104.237 15.853H104.242Z" fill="url(#paint6_linear_7633_14624)"/>
</g>
<defs>
<linearGradient id="paint0_linear_7633_14624" x1="21.712" y1="15.8258" x2="4.71867" y2="2.96489" gradientUnits="userSpaceOnUse">
<stop offset="0.33" stop-color="#9C8837"/>
<stop offset="0.56" stop-color="#F7E59E"/>
<stop offset="0.6" stop-color="#F0DE96"/>
<stop offset="0.67" stop-color="#DECB80"/>
<stop offset="0.75" stop-color="#C0AC5D"/>
<stop offset="0.79" stop-color="#B39F4D"/>
</linearGradient>
<linearGradient id="paint1_linear_7633_14624" x1="15.3634" y1="24.2123" x2="-1.62747" y2="11.3538" gradientUnits="userSpaceOnUse">
<stop offset="0.33" stop-color="#9C8837"/>
<stop offset="0.56" stop-color="#F7E59E"/>
<stop offset="0.6" stop-color="#F0DE96"/>
<stop offset="0.67" stop-color="#DECB80"/>
<stop offset="0.75" stop-color="#C0AC5D"/>
<stop offset="0.79" stop-color="#B39F4D"/>
</linearGradient>
<linearGradient id="paint2_linear_7633_14624" x1="20.3929" y1="17.5683" x2="3.39992" y2="4.70772" gradientUnits="userSpaceOnUse">
<stop offset="0.33" stop-color="#9C8837"/>
<stop offset="0.56" stop-color="#F7E59E"/>
<stop offset="0.6" stop-color="#F0DE96"/>
<stop offset="0.67" stop-color="#DECB80"/>
<stop offset="0.75" stop-color="#C0AC5D"/>
<stop offset="0.79" stop-color="#B39F4D"/>
</linearGradient>
<linearGradient id="paint3_linear_7633_14624" x1="20.4201" y1="17.5289" x2="3.42929" y2="4.67093" gradientUnits="userSpaceOnUse">
<stop offset="0.33" stop-color="#9C8837"/>
<stop offset="0.56" stop-color="#F7E59E"/>
<stop offset="0.6" stop-color="#F0DE96"/>
<stop offset="0.67" stop-color="#DECB80"/>
<stop offset="0.75" stop-color="#C0AC5D"/>
<stop offset="0.79" stop-color="#B39F4D"/>
</linearGradient>
<linearGradient id="paint4_linear_7633_14624" x1="84.6631" y1="21.0712" x2="58.2546" y2="7.06251" gradientUnits="userSpaceOnUse">
<stop offset="0.33" stop-color="#9C8837"/>
<stop offset="0.56" stop-color="#F7E59E"/>
<stop offset="0.6" stop-color="#F0DE96"/>
<stop offset="0.67" stop-color="#DECB80"/>
<stop offset="0.75" stop-color="#C0AC5D"/>
<stop offset="0.79" stop-color="#B39F4D"/>
</linearGradient>
<linearGradient id="paint5_linear_7633_14624" x1="55.0765" y1="19.7722" x2="28.668" y2="3.23997" gradientUnits="userSpaceOnUse">
<stop offset="0.33" stop-color="#9C8837"/>
<stop offset="0.56" stop-color="#F7E59E"/>
<stop offset="0.6" stop-color="#F0DE96"/>
<stop offset="0.67" stop-color="#DECB80"/>
<stop offset="0.75" stop-color="#C0AC5D"/>
<stop offset="0.79" stop-color="#B39F4D"/>
</linearGradient>
<linearGradient id="paint6_linear_7633_14624" x1="116.471" y1="23.8155" x2="83.6343" y2="4.75715" gradientUnits="userSpaceOnUse">
<stop offset="0.33" stop-color="#9C8837"/>
<stop offset="0.56" stop-color="#F7E59E"/>
<stop offset="0.6" stop-color="#F0DE96"/>
<stop offset="0.67" stop-color="#DECB80"/>
<stop offset="0.75" stop-color="#C0AC5D"/>
<stop offset="0.79" stop-color="#B39F4D"/>
</linearGradient>
<clipPath id="clip0_7633_14624">
<rect width="109.846" height="28" fill="white" transform="translate(0.333374)"/>
</clipPath>
</defs>
</svg>
