<svg width="106" height="28" viewBox="0 0 106 28" fill="none" xmlns="http://www.w3.org/2000/svg">
<path d="M99.9986 2.0781L105.976 13.9967L93.4102 25.9211L99.9986 2.0781Z" fill="#008C44"/>
<path d="M95.8584 2.0781L101.827 13.9967L89.2695 25.9211L95.8584 2.0781Z" fill="#F47920"/>
<path d="M0.0234375 21.5845L5.98328 0.0231736H15.5115C18.4894 0.0231736 20.4786 0.496554 21.4906 1.47205C22.4954 2.43971 22.6889 4.01922 22.0833 6.2393C21.717 7.54711 21.1602 8.64487 20.3953 9.51221C19.6367 10.3811 18.6361 11.0682 17.404 11.5735C18.4493 11.8258 19.1143 12.3269 19.4124 13.0782C19.709 13.8296 19.6747 14.9253 19.3146 16.3616L18.5898 19.3733L18.5877 19.4548C18.3785 20.2981 18.4405 20.7495 18.7813 20.7861L18.5617 21.5845H12.1159C12.1377 21.0771 12.1778 20.6236 12.2205 20.2427C12.2673 19.8529 12.325 19.5509 12.3823 19.3435L12.9833 17.1903C13.2861 16.0706 13.3048 15.2894 13.0238 14.8396C12.7403 14.3777 12.1055 14.1504 11.1033 14.1504H8.39448L6.32878 21.5845H0.0234375ZM9.73485 9.29172H12.6362C13.6529 9.29172 14.4032 9.14594 14.8658 8.84446C15.3305 8.54037 15.6754 8.02676 15.8778 7.28377C16.0875 6.52824 16.036 6.00157 15.7353 5.70218C15.435 5.39808 14.7165 5.25022 13.5868 5.25022H10.852L9.73485 9.29172Z" fill="#1B3281"/>
<path d="M39.773 5.67395L35.3794 21.5845H30.0403L30.6964 19.2536C29.7567 20.1805 28.7951 20.8843 27.8257 21.3342C26.8642 21.7919 25.8495 22.0171 24.7813 22.0171C23.8983 22.0171 23.1402 21.8562 22.5298 21.5369C21.9122 21.2187 21.4522 20.7349 21.1426 20.0969C20.8679 19.5384 20.7482 18.8487 20.7951 18.0247C20.8445 17.2138 21.1296 15.8459 21.6583 13.9304L23.9352 5.67395H29.7754L27.5031 13.8918C27.1712 15.0945 27.0921 15.9399 27.2539 16.4003C27.4225 16.8648 27.8726 17.1046 28.6031 17.1046C29.3389 17.1046 29.9575 16.8371 30.4685 16.2911C30.9867 15.7498 31.3869 14.9425 31.6876 13.8683L33.9412 5.67395H39.773Z" fill="#1B3281"/>
<path d="M37.6543 21.5845L43.6079 0.0231736H51.7979C53.605 0.0231736 55.0036 0.130285 56.0011 0.365408C56.9965 0.590603 57.7769 0.95635 58.3571 1.47205C59.084 2.14659 59.5294 2.98154 59.7126 3.98317C59.8848 4.98479 59.7828 6.15152 59.4056 7.52151C58.7385 9.93178 57.5693 11.7788 55.9032 13.0694C54.232 14.3432 52.1642 14.9833 49.6963 14.9833H45.8635L44.0429 21.5845H37.6543ZM47.3147 9.71755H49.3742C50.7057 9.71755 51.6418 9.55245 52.1902 9.23372C52.7209 8.91082 53.0982 8.33712 53.3281 7.52151C53.5581 6.69492 53.4988 6.11704 53.1512 5.79414C52.8167 5.4728 51.9618 5.31031 50.5938 5.31031H48.5385L47.3147 9.71755Z" fill="#1B3281"/>
<path d="M66.2756 21.5846L66.3349 20.0735C65.3931 20.7815 64.4394 21.3165 63.4804 21.6509C62.5256 21.9916 61.5089 22.1646 60.4199 22.1646C58.7657 22.1646 57.6122 21.7131 56.9451 20.8395C56.2864 19.9643 56.1781 18.7077 56.6277 17.1047C57.058 15.5226 57.8234 14.3579 58.9275 13.6134C60.0254 12.86 61.8591 12.3207 64.4316 11.9759C64.7578 11.9226 65.1949 11.8797 65.7423 11.8134C67.6441 11.5924 68.7118 11.0835 68.9418 10.2532C69.0615 9.79865 68.9886 9.46321 68.7076 9.25734C68.4365 9.04364 67.9297 8.93862 67.1982 8.93862C66.5909 8.93862 66.1024 9.06507 65.7017 9.32788C65.3016 9.59331 65.0029 9.981 64.8005 10.5265H59.1065C59.6206 8.73537 60.6712 7.38211 62.2483 6.47715C63.8197 5.55651 65.8916 5.11343 68.4579 5.11343C69.6645 5.11343 70.7452 5.22681 71.7006 5.47291C72.6575 5.70855 73.3568 6.04452 73.8105 6.45102C74.3688 6.95836 74.6992 7.53677 74.7934 8.1763C74.9021 8.81427 74.783 9.72864 74.45 10.9252L72.0008 19.7956C71.9222 20.0861 71.9071 20.3452 71.9498 20.5809C72.0008 20.8055 72.0986 20.9978 72.2714 21.1352L72.1397 21.5846H66.2756ZM67.6951 14.4802C67.0748 14.7305 66.2689 14.9703 65.2672 15.2336C63.6943 15.6574 62.8092 16.2227 62.6177 16.9224C62.485 17.3722 62.5386 17.7186 62.7577 17.982C62.9736 18.2322 63.3488 18.3587 63.8774 18.3587C64.8468 18.3587 65.6252 18.1126 66.2054 17.6267C66.7871 17.1345 67.2221 16.3617 67.5265 15.2958C67.5796 15.0691 67.6264 14.906 67.6566 14.7843L67.6951 14.4802Z" fill="#1B3281"/>
<path d="M72.1855 27.8538L73.4817 23.1446H75.153C75.7113 23.1446 76.1505 23.0338 76.4616 22.8321C76.7774 22.6226 76.9923 22.2694 77.1162 21.7939C77.1781 21.5844 77.2161 21.3639 77.2421 21.1136C77.2588 20.8482 77.2588 20.5676 77.2421 20.2426L76.3503 5.67388H82.2617L82.1701 15.3275L87.3308 5.67388H92.828L83.7046 21.5076C82.6691 23.2773 81.9167 24.4931 81.4391 25.1567C80.9677 25.8119 80.5202 26.3213 80.0857 26.6662C79.5227 27.1432 78.8941 27.4813 78.2156 27.6783C77.5356 27.8794 76.5001 27.9797 75.1082 27.9797C74.7076 27.9797 74.2466 27.9719 73.7481 27.9458C73.2533 27.9264 72.7251 27.8967 72.1855 27.8538Z" fill="#1B3281"/>
</svg>
