<svg width="28" height="28" viewBox="0 0 28 28" fill="none" xmlns="http://www.w3.org/2000/svg">
<g clip-path="url(#clip0_0_1100)">
<rect x="-12" width="40" height="28" rx="2" fill="#009F60"/>
<mask id="mask0_0_1100" style="mask-type:luminance" maskUnits="userSpaceOnUse" x="-12" y="0" width="40" height="28">
<rect x="-12" width="40" height="28" rx="2" fill="white"/>
</mask>
<g mask="url(#mask0_0_1100)">
<rect x="22.2858" y="14.9333" width="5.71429" height="13.0667" fill="#EA8B42"/>
<path fill-rule="evenodd" clip-rule="evenodd" d="M16.5714 28H22.2857V14.9333H16.5714V28Z" fill="#1A1919"/>
<path fill-rule="evenodd" clip-rule="evenodd" d="M10.8572 28H16.5715V14.9333H10.8572V28Z" fill="#DB3C36"/>
<path fill-rule="evenodd" clip-rule="evenodd" d="M18.0202 4.87765C17.8889 4.88126 17.7924 4.83671 17.7579 4.7618C17.972 4.63872 18.1167 4.66618 18.2962 4.82298C18.3307 4.70038 18.2962 4.56381 18.2203 4.48192C18.1444 4.40003 18.0822 4.40003 17.9788 4.39304C17.8752 4.3863 17.7716 4.35908 17.7026 4.35908C17.6014 4.14062 17.348 4.23311 17.1045 4.32271C16.7088 4.46819 16.3532 4.73241 16.1935 4.99615C16.1205 5.11683 16.1117 5.16428 16.0669 5.23268C16.1039 5.2281 16.1014 5.2281 16.1244 5.21437C16.0968 5.51473 16.06 5.7922 16.1151 5.96971C16.0463 6.22912 16.1014 6.3929 16.1842 6.4748C16.2672 6.55669 16.3015 6.59089 16.3155 6.68651C16.3292 6.78189 16.3706 6.87053 16.4396 6.9252C16.5087 6.97988 16.5501 7.06177 16.5569 7.1097C16.5638 7.15739 16.7773 7.36309 16.8675 7.4168C16.902 7.43703 16.9089 7.47822 16.9505 7.53265C16.8606 8.05147 17.2196 8.57028 17.1366 9.08211C17.1988 9.08885 17.2816 9.08211 17.3646 9.06163C17.4334 9.49831 17.4748 9.71003 17.0884 9.83961C16.7019 9.96944 16.4906 10.0971 16.5983 10.2423C16.6742 10.3447 16.8315 10.2556 16.9297 10.1672C17.0056 10.099 17.0952 10.0376 17.1643 10.0171C17.2333 9.99665 17.2473 10.0171 17.2125 10.1058C17.178 10.1946 16.9919 10.3856 16.9848 10.4813C16.9779 10.5769 17.0607 10.645 17.192 10.5699C17.323 10.4948 17.4383 10.2982 17.468 10.1809C17.4885 10.099 17.5233 10.0443 17.5162 10.1809C17.5093 10.3175 17.4266 10.5632 17.6129 10.6041C17.7993 10.645 17.8547 10.4266 17.7924 10.2286C17.7302 10.0309 17.7097 9.9215 17.7371 9.85334C17.7648 9.78494 17.7924 9.74423 17.8613 9.76446C17.9303 9.78494 18.0684 9.75772 18.0616 9.64861C18.0545 9.5395 17.958 9.45062 17.8475 9.51204C17.7371 9.57346 17.6543 9.56431 17.7026 9.43015C17.7371 9.33453 17.7993 9.21843 17.8062 9.14353C17.8821 9.25264 18.3099 9.26637 18.4826 9.164C18.524 9.36873 18.6344 9.55299 18.3929 9.74423C18.1512 9.93523 17.958 10.1195 17.9649 10.2561C17.972 10.3926 18.0271 10.4743 18.1512 10.4061C18.2754 10.338 18.3513 10.2423 18.379 10.1537C18.4067 10.0648 18.462 10.0648 18.4343 10.1742C18.4067 10.2833 18.3584 10.4403 18.379 10.5359C18.3998 10.6313 18.5516 10.6383 18.6136 10.5494C18.6758 10.4608 18.6618 10.3447 18.6481 10.2286C18.6344 10.1125 18.6552 9.98991 18.6827 9.94198C18.7103 9.89429 18.7654 9.82588 18.8208 9.95571C18.8761 10.0853 18.9035 10.1877 19.014 10.2219C19.1244 10.2561 19.2072 10.2081 19.1867 10.0785C19.1658 9.94896 19.0209 9.80541 18.8761 9.6963C18.7311 9.58719 18.7794 9.53252 18.7862 9.43015C18.7931 9.32778 18.7725 9.14353 18.7654 9.06163C18.8967 9.15726 19.0417 9.14353 19.1105 9.14353C19.1795 9.14353 19.2929 9.12257 19.1795 9.02069C18.9518 8.81596 19.0277 8.69288 18.869 8.54282C18.7103 8.39277 18.5653 8.16058 18.5171 7.96283C18.4686 7.76484 18.3623 7.40307 18.1512 7.21881C18.0339 7.11645 17.9994 6.83657 18.0271 6.51574C18.0545 6.19492 18.0616 5.84013 17.7648 5.67634C17.468 5.51256 17.4748 5.37599 17.5715 5.23268C17.668 5.08937 17.7922 4.94919 17.9511 4.93907C17.9869 4.9369 18.0694 4.93016 18.103 4.90607C18.088 4.89475 18.0638 4.87669 18.0202 4.87765" fill="#EA8B42"/>
<path fill-rule="evenodd" clip-rule="evenodd" d="M16.0899 5.61492C16.0825 5.75366 16.0859 5.87577 16.1151 5.96971C16.0463 6.22911 16.1014 6.3929 16.1841 6.47479C16.2672 6.55668 16.3014 6.59089 16.3154 6.68651C16.3291 6.78189 16.3705 6.87052 16.4396 6.9252C16.5086 6.97987 16.55 7.06177 16.5569 7.1097C16.5637 7.15739 16.7773 7.36308 16.8674 7.4168C16.9019 7.43703 16.9088 7.47821 16.9504 7.53265C16.913 7.74822 16.9524 7.96379 17.0063 8.17888C16.5184 8.57919 16.037 8.39035 16.2395 7.98089C15.8344 8.29931 15.1352 8.29039 15.2917 7.98089C14.6567 8.19935 14.4635 8.01726 14.5463 7.8171C14.0126 8.02641 13.7364 7.82626 13.8101 7.68054C13.3683 7.7988 13.083 7.72606 13.037 7.65332C12.9912 7.58058 13.1014 7.41679 13.2028 7.3349C13.0002 7.40764 12.807 7.40764 12.6228 7.38043C12.4389 7.35297 12.485 7.29829 12.5217 7.2164C12.5587 7.13451 12.6069 7.00492 12.7541 6.87751C12.4022 6.94567 11.9604 6.9936 11.6499 6.891C11.5913 6.87173 11.4912 6.85005 11.5531 6.78887C11.6153 6.72745 11.8017 6.57716 12.0294 6.48153C11.5117 6.55668 10.5317 6.61136 10.2557 6.30426C10.5248 6.3587 10.8699 6.24959 11.0908 6.16095C10.2211 6.06533 9.0341 5.47835 9.02014 4.90511C9.26871 5.30084 9.69679 5.43741 10.1246 5.56024C9.54471 5.22569 9.30324 4.82297 9.28267 4.55682C9.61377 4.8709 10.1175 5.22569 10.6147 5.30782C10.2625 5.12357 9.807 4.58428 9.68284 4.20878C9.93826 4.43398 10.5939 4.79575 11.0425 4.91185C10.732 4.67292 10.2282 4.10641 10.2557 3.79257C10.373 3.90867 10.6629 4.12689 11.2563 4.46818C11.8499 4.80948 12.172 4.78443 12.662 4.8868C12.5724 4.76854 12.4918 4.6115 12.485 4.57055C12.6299 4.59102 12.7678 4.6457 13.1819 4.89812C13.5961 5.15078 14.501 5.2281 15.0179 5.45114C15.3973 5.61492 15.938 5.51255 16.0899 5.61492" fill="#EA8B42"/>
<path fill-rule="evenodd" clip-rule="evenodd" d="M19.2135 9.12016C19.2363 9.10233 19.2363 9.0715 19.1794 9.02068C18.9517 8.81595 19.0276 8.69287 18.8689 8.54282C18.7102 8.39276 18.5652 8.16057 18.517 7.96282C18.4685 7.76484 18.3622 7.40307 18.1511 7.21881C18.0338 7.11644 17.9993 6.83656 18.027 6.51574C18.0505 6.24116 18.059 5.94177 17.8749 5.75847C18.2199 5.66285 18.5378 5.64214 18.648 5.75125C19.2208 5.60793 19.718 5.56458 20.2056 5.53303C20.7669 5.49642 21.8251 5.25989 22.5799 4.75938C22.5338 4.94147 22.2762 5.21437 22.046 5.35094C22.8098 5.16885 23.7301 4.83212 24.5123 4.25888C24.503 4.65943 24.1719 4.95954 23.9785 5.12356C24.5123 4.83212 25.2943 4.46818 25.5612 4.0132C25.6786 4.4795 24.8804 5.08936 24.4477 5.42608C24.8895 5.21678 25.4601 5.02337 25.681 4.71386C25.6763 5.09153 25.1748 5.56024 24.6963 5.83314C25.1841 5.65129 25.727 5.46005 26.0398 5.178C26.0765 5.55808 24.5812 6.43168 23.8403 6.67037C24.4847 6.51574 25.322 6.30643 25.6901 6.08797C25.6717 6.16528 25.5216 6.27367 25.4123 6.35267C24.9622 6.6788 24.2719 6.8539 23.8497 6.93435C23.905 7.16196 23.8313 7.28938 23.5737 7.30744C23.316 7.32575 22.6925 7.22796 22.3798 7.07309C22.3337 7.1003 22.2784 7.1097 22.2162 7.11644C22.5199 7.34165 22.6235 7.50543 22.5612 7.60105C22.4993 7.69667 22.2818 7.67933 22.1163 7.64537C22.2473 8.00714 21.8089 7.9833 21.4433 7.77833C21.5883 7.96282 21.6091 8.11962 21.4088 8.16057C21.2087 8.20152 21.0497 8.18803 20.8565 8.06495C20.8428 8.20152 20.7093 8.29256 20.5323 8.24704C21.1396 8.60881 21.1051 8.7408 21.0015 8.87713C20.8981 9.0137 20.5357 8.98648 20.3425 8.86364C20.2597 9.14352 19.9296 9.14448 19.6832 8.92169C19.681 9.03321 19.4459 9.25456 19.2135 9.12016" fill="#EA8B42"/>
<path fill-rule="evenodd" clip-rule="evenodd" d="M16.396 10.4926C16.406 10.4064 16.4144 10.3062 16.4878 10.2423C16.5616 10.1785 16.6076 10.1241 16.672 10.1877C16.7364 10.2515 16.695 10.3107 16.6076 10.338C16.5202 10.3652 16.4604 10.4425 16.4465 10.4926C16.4327 10.5427 16.3867 10.5699 16.396 10.4926" fill="black"/>
<path fill-rule="evenodd" clip-rule="evenodd" d="M16.8972 10.9112C16.8517 10.7681 16.8745 10.5836 16.9249 10.529C16.9756 10.4743 17.04 10.4379 17.0998 10.4926C17.1595 10.5473 17.1826 10.6246 17.0721 10.6701C16.9744 10.7103 16.9663 10.811 16.9619 10.884C16.9572 10.9567 16.9249 10.9977 16.8972 10.9112" fill="black"/>
<path fill-rule="evenodd" clip-rule="evenodd" d="M17.5416 10.5427C17.5061 10.6012 17.5507 10.8385 17.6705 10.8975C17.7552 10.9394 17.7946 10.9295 17.7439 10.8519C17.6935 10.7746 17.7119 10.7019 17.7395 10.6609C17.767 10.62 17.7625 10.5473 17.7025 10.5109C17.6428 10.4743 17.5691 10.4972 17.5416 10.5427" fill="black"/>
<path fill-rule="evenodd" clip-rule="evenodd" d="M18.0615 10.3288C17.9856 10.2724 17.9143 10.3401 17.8866 10.3878C17.8313 10.4834 17.8729 10.62 17.9603 10.6973C18.0478 10.7746 18.0338 10.6701 18.0061 10.6246C17.9787 10.579 17.974 10.488 18.0338 10.4788C18.0936 10.4699 18.1352 10.3832 18.0615 10.3288" fill="black"/>
<path fill-rule="evenodd" clip-rule="evenodd" d="M18.494 10.4834C18.42 10.462 18.3468 10.5381 18.3559 10.6292C18.3627 10.6971 18.3698 10.7838 18.4386 10.8293C18.4849 10.8597 18.517 10.8794 18.494 10.7975C18.471 10.7156 18.5079 10.6472 18.5491 10.6246C18.5905 10.6019 18.5721 10.5063 18.494 10.4834" fill="black"/>
<path fill-rule="evenodd" clip-rule="evenodd" d="M19.106 10.0966C19.0524 10.1337 19.0553 10.2197 19.106 10.2515C19.1565 10.2833 19.2302 10.3288 19.2165 10.4061C19.2025 10.4834 19.2439 10.5109 19.2809 10.4244C19.3176 10.3379 19.3223 10.2105 19.2809 10.1513C19.2392 10.092 19.1518 10.0648 19.106 10.0966" fill="black"/>
<path fill-rule="evenodd" clip-rule="evenodd" d="M17.7718 4.75558C17.8038 4.82502 17.8955 4.86602 18.0197 4.8626L18.0198 4.8626C18.0593 4.86173 18.0831 4.8721 18.1119 4.91823C18.0816 4.94001 18.0244 4.9497 17.9521 4.95409C17.8202 4.96249 17.7049 5.06171 17.5842 5.241C17.4755 5.40205 17.5136 5.52051 17.7722 5.66321C18.0292 5.80503 18.082 6.05206 18.0422 6.51701C18.0131 6.85485 18.0551 7.11485 18.1613 7.20755C18.3371 7.36099 18.4503 7.62611 18.5319 7.95932C18.5785 8.15017 18.7194 8.38055 18.8796 8.53197C18.9172 8.56756 18.9441 8.60343 18.9656 8.64437C18.978 8.66793 18.987 8.68918 19.0016 8.72733C19.0521 8.85902 19.0862 8.91644 19.1898 9.00957C19.2472 9.06118 19.2584 9.10411 19.2229 9.13206C19.1995 9.15049 19.1573 9.15858 19.1104 9.15858L19.0849 9.15892C18.9736 9.16093 18.9018 9.15197 18.8193 9.11169C18.8071 9.10574 18.7952 9.0992 18.7835 9.09203L18.7905 9.16796C18.7936 9.20176 18.796 9.23177 18.7979 9.2603C18.8028 9.33193 18.8043 9.38911 18.8014 9.43114C18.8004 9.44706 18.7986 9.46092 18.7951 9.48277C18.7886 9.52312 18.7874 9.53416 18.7886 9.55172C18.7917 9.59475 18.8176 9.63337 18.8854 9.68435C19.0627 9.81806 19.1824 9.95623 19.2017 10.0762C19.2231 10.2111 19.1368 10.2757 19.0093 10.2362C18.9313 10.2121 18.8911 10.162 18.8448 10.0535C18.8423 10.0475 18.8356 10.0314 18.8284 10.014C18.8199 9.99336 18.8106 9.97098 18.8066 9.96153C18.784 9.90861 18.7636 9.89163 18.7455 9.89674C18.73 9.90113 18.7127 9.92047 18.6959 9.94936C18.6675 9.99901 18.6509 10.122 18.6632 10.2269L18.6634 10.228C18.6843 10.4053 18.6807 10.4802 18.6261 10.5579C18.5569 10.6573 18.3878 10.6483 18.3639 10.5391C18.353 10.4885 18.3591 10.4216 18.3786 10.3329C18.3839 10.3085 18.3901 10.2832 18.3981 10.2521C18.3989 10.2492 18.401 10.241 18.4037 10.2307C18.4092 10.2099 18.4168 10.1807 18.4194 10.1705C18.43 10.1285 18.4271 10.1049 18.4245 10.1044C18.4202 10.1036 18.4044 10.1234 18.3935 10.1581C18.3626 10.2573 18.2789 10.3532 18.1586 10.4193C18.0317 10.4889 17.9579 10.418 17.9495 10.2568C17.943 10.1283 18.0883 9.96558 18.3833 9.73251C18.4405 9.68715 18.479 9.64108 18.5019 9.59283C18.5432 9.50548 18.5372 9.4384 18.4918 9.26702C18.4824 9.23176 18.4766 9.20876 18.4717 9.18705C18.2974 9.27458 17.9325 9.26709 17.8165 9.17582C17.8086 9.21175 17.7916 9.2556 17.7573 9.33582L17.7571 9.33622C17.7356 9.38658 17.7264 9.40905 17.7169 9.43517C17.6964 9.4922 17.7008 9.5223 17.7212 9.53049C17.7434 9.53936 17.787 9.52838 17.8399 9.49894C17.954 9.43551 18.0684 9.51857 18.0768 9.64768C18.0835 9.75457 17.9562 9.80837 17.8568 9.77889C17.8052 9.7637 17.7816 9.78378 17.7513 9.85888C17.7269 9.91949 17.7425 10.019 17.807 10.2242C17.8789 10.4531 17.7971 10.66 17.6095 10.6188C17.4947 10.5936 17.4647 10.5043 17.4807 10.3482C17.4827 10.3289 17.4851 10.3104 17.4891 10.2815C17.4979 10.2184 17.4996 10.204 17.5008 10.1801C17.502 10.1582 17.502 10.1408 17.5011 10.1283C17.4953 10.1418 17.4884 10.162 17.4827 10.1845C17.4473 10.3248 17.3215 10.513 17.1996 10.5829C17.0686 10.6579 16.9609 10.5996 16.9694 10.4802C16.9727 10.4362 17.0047 10.3802 17.0705 10.2895L17.0888 10.2645C17.1723 10.1514 17.1861 10.1315 17.1982 10.1003C17.2285 10.023 17.224 10.0151 17.1686 10.0315C17.1063 10.05 17.0203 10.1061 16.9399 10.1783C16.8035 10.3011 16.6589 10.3497 16.5859 10.2512C16.5281 10.1733 16.552 10.0963 16.6486 10.0233C16.7337 9.95894 16.8769 9.89471 17.0834 9.82536C17.4104 9.71568 17.4355 9.61015 17.3683 9.07623C17.2852 9.09673 17.2003 9.10416 17.1214 9.07973C17.1553 8.87096 17.1287 8.70316 17.0277 8.31975C16.9243 7.92754 16.8971 7.75086 16.9382 7.5417C16.9274 7.52766 16.9184 7.5139 16.9091 7.49792C16.9076 7.49534 16.9042 7.4893 16.9006 7.48289C16.896 7.47477 16.8911 7.46605 16.8892 7.46299C16.8789 7.44569 16.8707 7.43626 16.8595 7.42967C16.7614 7.37122 16.5491 7.16356 16.5417 7.1118C16.5342 7.05956 16.489 6.98371 16.43 6.93693C16.3605 6.88192 16.3151 6.79229 16.3002 6.68865C16.2884 6.60773 16.2709 6.58174 16.1733 6.48541C16.0712 6.38439 16.0374 6.2027 16.1004 5.97411C16.0579 5.83705 16.0619 5.70506 16.1015 5.29326L16.1065 5.24097C16.102 5.24252 16.0971 5.24363 16.0906 5.24467C16.0814 5.24603 16.0814 5.24603 16.0688 5.24761L16.0687 5.24761L16.054 5.22452C16.0631 5.2106 16.071 5.19702 16.0789 5.18214M17.7718 4.75558C17.9676 4.65864 18.1054 4.67654 18.286 4.83423ZM18.286 4.83423L18.3109 4.82699ZM18.3109 4.82699C18.346 4.70234 18.313 4.55966 18.2315 4.47177ZM18.2315 4.47177C18.2121 4.4508 18.193 4.43445 18.1733 4.42185ZM18.1733 4.42185C18.1286 4.39315 18.0916 4.38542 18.0034 4.37958ZM18.0034 4.37958L17.9798 4.37802ZM17.9798 4.37802C17.9424 4.37559 17.9065 4.3709 17.8505 4.36195ZM17.8505 4.36195C17.7526 4.3463 17.7358 4.34402 17.7025 4.34402ZM17.7025 4.34402C17.6271 4.15999 17.4758 4.16997 17.0991 4.30861ZM17.0991 4.30861C16.7016 4.45472 16.3424 4.72062 16.1803 4.98845ZM16.1803 4.98845C16.159 5.02369 16.1419 5.05468 16.1261 5.08596ZM16.1261 5.08596C16.1167 5.10452 16.0893 5.16174 16.092 5.15618ZM18.0936 4.918C18.0695 4.89975 18.0517 4.89201 18.0205 4.8927L18.0206 4.8927C17.8852 4.89642 17.7818 4.85017 17.7501 4.7488C17.9567 4.63003 18.1058 4.64445 18.2871 4.79535C18.2855 4.80328 18.2836 4.81116 18.2814 4.81896L18.3063 4.81172C18.2999 4.80609 18.2935 4.80064 18.2871 4.79535C18.3094 4.68648 18.2781 4.56676 18.2089 4.49206C18.1911 4.47289 18.174 4.45821 18.1566 4.44707C18.1176 4.42202 18.0846 4.41513 18.0013 4.40962L17.9777 4.40806C17.9392 4.40555 17.9025 4.40076 17.8456 4.39167C17.8278 4.38883 17.8128 4.38644 17.7998 4.38438C17.7429 4.37533 17.725 4.37249 17.6886 4.36532C17.6096 4.19479 17.4708 4.20393 17.1098 4.33681C16.7184 4.48068 16.3649 4.74243 16.2066 5.00385C16.1857 5.03842 16.1689 5.06874 16.1535 5.09936C16.1443 5.11758 16.117 5.17454 16.1196 5.16917C16.1163 5.17592 16.1147 5.17929 16.113 5.18265C16.1113 5.18601 16.1095 5.18935 16.1061 5.19605C16.1031 5.20159 16.1002 5.20696 16.0972 5.21226C16.0944 5.21332 16.0911 5.21409 16.0857 5.21496C16.0775 5.21618 16.0775 5.21618 16.0649 5.21774L16.0649 5.21774L16.0797 5.24083C16.0859 5.23131 16.0917 5.22193 16.0972 5.21226C16.0977 5.21204 16.0983 5.21182 16.0988 5.21157C16.102 5.21018 16.1047 5.20856 16.1164 5.2015L16.1396 5.21573L16.132 5.2961C16.0928 5.70272 16.0889 5.83381 16.1299 5.97351C16.0696 6.20076 16.1013 6.37148 16.195 6.46416C16.2969 6.5647 16.3176 6.59541 16.3305 6.6844C16.3444 6.781 16.3863 6.86368 16.4492 6.91348C16.5142 6.96496 16.5634 7.04764 16.572 7.10759C16.5777 7.14744 16.7846 7.34988 16.8752 7.40387C16.8916 7.41347 16.9029 7.42647 16.9156 7.44775C16.9177 7.45117 16.923 7.46054 16.9277 7.4689C16.9311 7.47503 16.9343 7.48062 16.9357 7.48294C16.938 7.48688 16.9402 7.49067 16.9426 7.49457C16.9491 7.50544 16.9561 7.51712 16.9655 7.53518C16.9282 7.75026 16.955 7.92412 17.0573 8.31219C17.1594 8.69967 17.1864 8.87016 17.1382 9.06714C17.1949 9.07329 17.2683 9.06774 17.3566 9.06106C17.3642 9.06049 17.3719 9.05991 17.3797 9.05933C17.4678 9.61851 17.4395 9.73775 17.0932 9.85386C16.8898 9.92221 16.749 9.98532 16.6673 10.0471C16.5825 10.1113 16.564 10.1706 16.6106 10.2335C16.6679 10.3107 16.795 10.268 16.9193 10.1561C17.0028 10.0811 17.0923 10.0227 17.1598 10.0027C17.2445 9.97761 17.265 10.0136 17.2268 10.1111C17.2132 10.1461 17.2 10.1651 17.1136 10.2822L17.0955 10.307C17.0333 10.3926 17.0026 10.4463 17 10.4823C16.9932 10.5767 17.0737 10.6202 17.1842 10.5569C17.2983 10.4914 17.4195 10.3102 17.453 10.1773C17.4646 10.1311 17.4792 10.0961 17.4939 10.0865C17.5119 10.0746 17.5252 10.0878 17.5295 10.1088C17.5325 10.1238 17.5332 10.1479 17.5314 10.1817C17.5302 10.2068 17.5283 10.2214 17.5194 10.2856C17.5154 10.3141 17.5131 10.3323 17.5112 10.3512C17.4965 10.494 17.5216 10.5686 17.6162 10.5894C17.7728 10.6238 17.844 10.4438 17.7777 10.233C17.711 10.0209 17.6948 9.91737 17.7228 9.84777C17.7583 9.76 17.7945 9.72914 17.8656 9.75005C17.9476 9.77435 18.0513 9.7305 18.0462 9.64957C18.0392 9.54067 17.9472 9.4739 17.855 9.52515C17.7946 9.55874 17.7431 9.57173 17.7097 9.55838C17.6696 9.54234 17.6628 9.49536 17.6881 9.42511C17.6978 9.39825 17.7071 9.37546 17.7289 9.32456L17.7291 9.32415C17.7721 9.22339 17.7872 9.18155 17.7908 9.14218L17.8187 9.13502C17.8894 9.23661 18.3085 9.24959 18.4746 9.15111L18.4975 9.16106C18.5032 9.18907 18.5093 9.21379 18.5214 9.25942C18.5686 9.43755 18.5751 9.50953 18.5296 9.60554C18.5047 9.6582 18.4632 9.70785 18.4024 9.75597C18.1164 9.98201 17.9743 10.1412 17.9801 10.2553C17.9875 10.3975 18.0413 10.4492 18.1437 10.393C18.2573 10.3306 18.3357 10.2407 18.3643 10.1493C18.3793 10.1011 18.4042 10.07 18.4302 10.0748C18.4588 10.0801 18.4638 10.1199 18.4491 10.1778C18.4465 10.1882 18.4387 10.2177 18.4333 10.2385C18.4306 10.2486 18.4285 10.2567 18.4278 10.2595C18.4198 10.2903 18.4138 10.3152 18.4085 10.3392C18.3899 10.4241 18.3841 10.4875 18.3939 10.5328C18.4114 10.6133 18.5455 10.6204 18.6009 10.5409C18.6497 10.4714 18.653 10.4013 18.633 10.2315L18.6328 10.2303C18.6198 10.1197 18.6372 9.9905 18.6693 9.93451C18.6899 9.89903 18.7113 9.87509 18.737 9.86781C18.7741 9.85733 18.807 9.88465 18.8348 9.94988C18.8389 9.95955 18.8483 9.98228 18.8569 10.003C18.864 10.0202 18.8706 10.0361 18.8731 10.0419C18.9162 10.143 18.9513 10.1867 19.0185 10.2075C19.1252 10.2405 19.1892 10.1926 19.1715 10.0809C19.1538 9.97091 19.0383 9.83755 18.8667 9.70825C18.7926 9.65248 18.7618 9.60661 18.7581 9.5538C18.7566 9.53307 18.758 9.52097 18.7648 9.4781C18.7682 9.45708 18.7699 9.44397 18.7709 9.42916C18.7736 9.38878 18.7722 9.33271 18.7674 9.26231C18.7654 9.23401 18.763 9.2042 18.76 9.17059L18.7501 9.06291L18.7745 9.04954C18.7931 9.06315 18.8126 9.07483 18.8329 9.08472C18.9098 9.1223 18.9775 9.13075 19.0844 9.12882L19.1104 9.12847C19.1508 9.12847 19.1874 9.12146 19.2038 9.10856C19.2206 9.09534 19.2147 9.07271 19.1691 9.0318C19.0614 8.9349 19.025 8.87368 18.973 8.73796C18.9587 8.70083 18.9501 8.68044 18.9384 8.6582C18.9184 8.62013 18.8935 8.58693 18.8583 8.55367C18.6941 8.39841 18.5501 8.16303 18.5021 7.96635C18.4219 7.63891 18.3106 7.3781 18.141 7.23007C18.025 7.12887 17.9818 6.8613 18.0117 6.51448C18.0505 6.06062 17.9998 5.82335 17.7572 5.68947C17.4838 5.53863 17.4396 5.40084 17.5587 5.22437C17.6843 5.03787 17.8058 4.93323 17.9501 4.92404C17.9709 4.92279 17.9905 4.921 18.0084 4.91938C18.0471 4.91586 18.0777 4.91308 18.0936 4.918Z" fill="black"/>
<path fill-rule="evenodd" clip-rule="evenodd" d="M15.7171 5.54377C15.9531 5.55193 16.0389 5.56229 16.0986 5.60251L16.1052 5.61571C16.097 5.77013 16.1037 5.88126 16.1299 5.97351C16.0696 6.20076 16.1013 6.37149 16.195 6.46417C16.2969 6.5647 16.3176 6.59541 16.3306 6.68441C16.3445 6.781 16.3863 6.86368 16.4492 6.91348C16.5142 6.96497 16.5635 7.04764 16.5721 7.1076C16.5778 7.14744 16.7847 7.34988 16.8753 7.40387C16.8917 7.41348 16.903 7.42647 16.9157 7.44775C16.9177 7.45117 16.923 7.46053 16.9277 7.4689C16.9312 7.47503 16.9344 7.48062 16.9357 7.48294C16.938 7.48688 16.9403 7.49066 16.9426 7.49455C16.9491 7.50543 16.9562 7.51711 16.9656 7.53519C16.9333 7.72084 16.9538 7.9063 17.0161 8.19044C16.7852 8.37991 16.5357 8.45255 16.3594 8.39791C16.1996 8.3484 16.1368 8.20509 16.2031 8.02656C16.0152 8.15665 15.7655 8.23256 15.555 8.23142C15.3382 8.23025 15.2158 8.1453 15.2644 8.00602C14.7405 8.1784 14.4491 8.08077 14.5208 7.84289C14.0872 8.00137 13.728 7.89144 13.7848 7.7027C13.4125 7.79629 13.0885 7.76324 13.024 7.66125C12.9838 7.5974 13.0463 7.46838 13.1413 7.37062C12.9768 7.41795 12.8091 7.42318 12.6206 7.39532C12.5318 7.38206 12.4878 7.36161 12.476 7.32675C12.467 7.30015 12.4698 7.29211 12.5035 7.21958L12.5077 7.2103C12.5076 7.21055 12.5298 7.16031 12.5375 7.1439C12.5509 7.11515 12.564 7.08959 12.5788 7.06414C12.6127 7.00614 12.6535 6.95274 12.7051 6.90209C12.2745 6.98105 11.9072 6.99191 11.645 6.90528L11.6057 6.89287C11.5692 6.88097 11.5467 6.87058 11.5323 6.8559C11.5108 6.83383 11.514 6.8062 11.5423 6.77826C11.6261 6.69558 11.7741 6.58932 11.9315 6.51018C11.1843 6.60669 10.4692 6.56459 10.2442 6.31424L10.2588 6.28952C10.4684 6.33193 10.7381 6.27944 11.0294 6.16873C10.0753 6.04388 9.01778 5.43493 9.00488 4.90547L9.03321 4.8972C9.22674 5.20532 9.48503 5.35193 10.0171 5.51288C9.55649 5.22092 9.29066 4.8582 9.26745 4.55797L9.29334 4.54599C9.66962 4.90293 10.1178 5.18162 10.5294 5.27566C10.1885 5.05833 9.78502 4.56635 9.66832 4.21344L9.6931 4.19758C9.95314 4.42685 10.5564 4.7507 10.9746 4.87708C10.5938 4.56367 10.2172 4.05726 10.2404 3.79129L10.2666 3.78197C10.412 3.92592 10.7459 4.15714 11.2641 4.4552C11.5852 4.6398 11.8298 4.72456 12.1521 4.78291C12.1977 4.79116 12.2418 4.79852 12.3112 4.80967C12.4824 4.83718 12.5456 4.84776 12.6267 4.86414C12.5516 4.75771 12.4776 4.61872 12.4699 4.573L12.4872 4.55566C12.6482 4.57839 12.8021 4.64887 13.19 4.88533C13.377 4.99938 13.6055 5.0664 14.1599 5.19283L14.1855 5.19866C14.6331 5.30072 14.8319 5.35444 15.0241 5.43736C15.1244 5.48065 15.2416 5.50772 15.3813 5.52349C15.4758 5.53416 15.5441 5.53778 15.7171 5.54377ZM16.0742 5.62285C16.0743 5.61996 16.0745 5.61706 16.0746 5.61414L16.0812 5.62734C16.079 5.6258 16.0766 5.6243 16.0742 5.62285ZM10.3011 6.3271C10.5239 6.35662 10.8007 6.29361 11.0966 6.1749L11.0925 6.146C10.1737 6.04497 9.13193 5.47178 9.04168 4.96534C9.25041 5.26614 9.53762 5.40738 10.1204 5.5747L10.1324 5.54727C9.64062 5.26355 9.34797 4.89905 9.3026 4.5963C9.70372 4.96855 10.1812 5.25147 10.6122 5.32268L10.6219 5.29454C10.2905 5.12112 9.8627 4.62611 9.71674 4.25716C10.0167 4.50006 10.637 4.82249 11.0387 4.92641L11.052 4.9C10.6759 4.61064 10.281 4.10302 10.2702 3.82746C10.4291 3.97454 10.7562 4.19797 11.2486 4.48119C11.5729 4.66765 11.8209 4.75357 12.1465 4.81252C12.1924 4.82081 12.2366 4.82821 12.3062 4.83939C12.5029 4.87098 12.5566 4.88016 12.6589 4.90153L12.6743 4.87781C12.6044 4.78557 12.5286 4.6507 12.5062 4.58913C12.6542 4.61477 12.8086 4.68824 13.1739 4.91092C13.3649 5.02746 13.5947 5.09484 14.153 5.22216L14.1786 5.22799C14.6242 5.32959 14.822 5.38305 15.0118 5.46493C15.1153 5.50959 15.2353 5.53732 15.3778 5.5534C15.4734 5.5642 15.5422 5.56784 15.716 5.57385C15.9339 5.58139 16.0211 5.5911 16.0742 5.62285C16.0665 5.77599 16.0736 5.88755 16.1005 5.97411C16.0375 6.20271 16.0712 6.38439 16.1733 6.48541C16.271 6.58175 16.2885 6.60773 16.3003 6.68865C16.3152 6.79229 16.3605 6.88192 16.43 6.93693C16.4891 6.98371 16.5343 7.05956 16.5418 7.1118C16.5492 7.16356 16.7614 7.37122 16.8595 7.42968C16.8708 7.43626 16.879 7.4457 16.8893 7.463C16.8911 7.46605 16.896 7.47477 16.9006 7.48289C16.9042 7.4893 16.9076 7.49534 16.9092 7.49793C16.9185 7.5139 16.9275 7.52767 16.9382 7.54171C16.9022 7.72076 16.9231 7.90983 16.9914 8.18249C16.773 8.35076 16.5338 8.42039 16.3686 8.3692C16.2125 8.3208 16.1609 8.17426 16.2533 7.98748L16.23 7.96914C16.0439 8.11544 15.7765 8.20251 15.5552 8.20131C15.3412 8.20016 15.2389 8.11935 15.3055 7.9876L15.2867 7.96669C14.7395 8.15495 14.465 8.05379 14.5605 7.82278L14.5406 7.80313C14.092 7.97912 13.7361 7.86076 13.8238 7.68725L13.8061 7.66602C13.4334 7.76578 13.1067 7.73492 13.05 7.64537C13.0142 7.58849 13.1012 7.43643 13.2125 7.34654L13.1975 7.32077C13.0166 7.38576 12.8345 7.39648 12.6252 7.36555C12.547 7.35388 12.5119 7.33757 12.505 7.31723C12.4998 7.30195 12.5028 7.29351 12.5313 7.2321L12.5357 7.22248C12.6138 7.04955 12.6428 6.99993 12.7459 6.90514C12.7504 6.90111 12.7526 6.89907 12.7549 6.89705C12.7572 6.89498 12.7595 6.89294 12.7643 6.88882L12.7512 6.86275C12.303 6.94955 11.9211 6.96472 11.6548 6.87673L11.6153 6.86428C11.5835 6.85392 11.5641 6.84495 11.5544 6.83505C11.5455 6.82591 11.5466 6.81673 11.564 6.7995C11.6613 6.70347 11.8495 6.57347 12.0355 6.49539L12.0273 6.46665C11.2912 6.57349 10.5616 6.54736 10.3011 6.3271ZM10.3011 6.3271C10.2887 6.31661 10.2774 6.30568 10.2672 6.2943L10.2526 6.31901C10.2685 6.32222 10.2847 6.32491 10.3011 6.3271ZM12.5062 4.58913C12.5031 4.58062 12.501 4.57351 12.5001 4.56811L12.4828 4.58546C12.4906 4.58656 12.4984 4.58778 12.5062 4.58913ZM10.2702 3.82746C10.2698 3.81584 10.27 3.80463 10.2709 3.79387L10.2448 3.80319C10.2528 3.81103 10.2612 3.81912 10.2702 3.82746ZM9.71674 4.25716C9.70962 4.23917 9.70317 4.22147 9.69743 4.20413L9.67266 4.21999C9.68644 4.23214 9.70115 4.24454 9.71674 4.25716ZM9.3026 4.5963C9.30056 4.58263 9.29901 4.56909 9.29798 4.55569L9.27209 4.56766C9.28221 4.57726 9.29238 4.58681 9.3026 4.5963ZM9.04168 4.96534C9.03806 4.94502 9.03597 4.92482 9.03549 4.90475L9.00716 4.91302C9.01845 4.93099 9.02994 4.94842 9.04168 4.96534Z" fill="black"/>
<path fill-rule="evenodd" clip-rule="evenodd" d="M19.2058 9.13314L19.204 9.10838C19.2207 9.09531 19.2148 9.07259 19.1692 9.0318C19.0614 8.9349 19.0251 8.87368 18.973 8.73796C18.9588 8.70083 18.9501 8.68044 18.9384 8.6582C18.9184 8.62013 18.8935 8.58693 18.8584 8.55367C18.6942 8.39841 18.5502 8.16302 18.5022 7.96635C18.422 7.63891 18.3106 7.3781 18.141 7.23007C18.0251 7.12887 17.9819 6.8613 18.0118 6.51447C18.0154 6.47184 18.0183 6.4313 18.0203 6.39272L18.0301 6.39792L18.03 6.39905L18.0317 6.39871L18.0502 6.40805C18.0482 6.44283 18.0455 6.47912 18.0423 6.51701C18.0131 6.85485 18.0551 7.11484 18.1613 7.20755C18.3371 7.36099 18.4503 7.62611 18.5319 7.95931C18.5785 8.15017 18.7195 8.38055 18.8796 8.53197C18.9172 8.56755 18.9441 8.60342 18.9656 8.64437C18.978 8.66792 18.987 8.68918 19.0017 8.72733C19.0522 8.85902 19.0862 8.91644 19.1898 9.00955C19.2372 9.05194 19.2532 9.08866 19.2375 9.11583C19.2321 9.11316 19.2267 9.11028 19.2213 9.10718L19.2231 9.13194C19.2293 9.12703 19.2342 9.12165 19.2375 9.11583C19.4232 9.20686 19.6652 9.05879 19.668 8.9214L19.6936 8.91061C19.9424 9.13557 20.2516 9.11713 20.3278 8.85944L20.3508 8.851C20.5488 8.97688 20.8965 8.99074 20.9893 8.86812C21.1171 8.69995 21.0419 8.56819 20.5244 8.25992L20.5362 8.23248C20.6979 8.27405 20.828 8.19642 20.8413 8.06347L20.8649 8.05232C21.0433 8.16597 21.1942 8.18912 21.4057 8.14583C21.5791 8.11039 21.5824 7.97995 21.4312 7.78753L21.4509 7.76525C21.6326 7.86707 21.8302 7.92259 21.9646 7.9094C22.1063 7.89548 22.1597 7.81 22.1019 7.65042L22.1195 7.63064C22.3317 7.67418 22.5002 7.66732 22.5484 7.59294C22.6065 7.50358 22.4945 7.34165 22.207 7.12846L22.2146 7.10148C22.2896 7.09334 22.3339 7.08267 22.3867 7.05964C22.6711 7.20045 23.2858 7.31281 23.5726 7.29243C23.8126 7.27561 23.89 7.16476 23.8468 6.91957C24.4623 6.8023 25.0285 6.6121 25.4033 6.34055C25.444 6.31116 25.4622 6.29788 25.4853 6.28044C25.5183 6.25563 25.5463 6.23338 25.5707 6.21227C25.6085 6.17968 25.6368 6.15065 25.6546 6.1256C25.6696 6.11739 25.6841 6.10914 25.698 6.10086L25.6752 6.08455C25.6723 6.0967 25.6654 6.11042 25.6546 6.1256C25.339 6.29842 24.7876 6.45855 23.844 6.68499L23.8356 6.65606C24.6735 6.38609 25.9706 5.56401 26.0235 5.21256C26.0325 5.20481 26.0414 5.19699 26.0502 5.1891L26.0246 5.17942C26.0256 5.18994 26.0252 5.20099 26.0235 5.21256C25.8062 5.39868 25.5 5.54679 24.9886 5.74019C24.9457 5.7564 24.9017 5.77286 24.8444 5.7942L24.7018 5.84722L24.6886 5.82012C25.2041 5.52619 25.6195 5.09478 25.6622 4.76354C25.6732 4.75012 25.6836 4.73646 25.6936 4.72251L25.6658 4.71368C25.6656 4.73002 25.6643 4.74665 25.6622 4.76354C25.5196 4.93739 25.2835 5.07127 24.8295 5.27167L24.8148 5.27812C24.7733 5.29638 24.6563 5.3478 24.6185 5.36464C24.5556 5.39263 24.5031 5.41657 24.4544 5.43965L24.4383 5.41428C24.6651 5.23776 24.7441 5.17496 24.8675 5.06953C25.0999 4.87103 25.2771 4.69081 25.3964 4.52067C25.5181 4.34701 25.5733 4.19104 25.5538 4.05444C25.561 4.04324 25.5679 4.03201 25.5746 4.02072L25.5464 4.01682C25.5496 4.02919 25.552 4.04173 25.5538 4.05444C25.3889 4.3108 25.0699 4.54578 24.5592 4.82882C24.4782 4.87369 24.2753 4.98201 24.1327 5.05818L24.1326 5.05823C24.0604 5.09676 24.0037 5.12705 23.986 5.13673L23.9685 5.11216C24.294 4.83622 24.4774 4.59454 24.4958 4.2897L24.5216 4.27095L24.4971 4.25853C24.4969 4.269 24.4964 4.27938 24.4958 4.2897C23.7993 4.79367 22.9447 5.15219 22.0496 5.36557L22.0414 5.34576L22.0381 5.33805C22.2562 5.20871 22.4848 4.96708 22.5521 4.79564C22.5643 4.78777 22.5765 4.77984 22.5885 4.77187L22.5651 4.75575C22.5618 4.76853 22.5575 4.78186 22.5521 4.79564C21.8963 5.21735 20.9206 5.50148 20.2066 5.54805C19.5607 5.58985 19.1425 5.64309 18.6372 5.76186C18.5409 5.66651 18.257 5.67159 17.9035 5.76631C17.8978 5.76008 17.8919 5.75394 17.8858 5.74789L17.8791 5.77296L17.9035 5.76631C18.0264 5.90047 18.0639 6.07802 18.0526 6.35888L18.0241 6.3644L18.0207 6.3861C18.0359 6.08346 17.9976 5.90195 17.8641 5.76905L17.8708 5.74398C18.2461 5.63997 18.5494 5.6322 18.6443 5.73666C19.1371 5.61337 19.5569 5.55992 20.2046 5.51801C20.9269 5.4709 21.9206 5.17846 22.5714 4.7469L22.5948 4.76302C22.5538 4.92497 22.3462 5.16393 22.1294 5.31508C23.0001 5.09765 23.8282 4.74154 24.5033 4.24681L24.5277 4.25922C24.5208 4.55678 24.3674 4.79238 24.0875 5.04804L24.1184 5.03155L24.1184 5.03152L24.1186 5.03141L24.1187 5.03136L24.1188 5.03132L24.1188 5.03131C24.2615 4.95515 24.4635 4.84725 24.5441 4.80259C25.0726 4.50977 25.3935 4.26911 25.548 4.00568L25.5762 4.00958C25.6152 4.16491 25.5591 4.34154 25.4216 4.53776C25.3006 4.71039 25.1218 4.89224 24.8876 5.09226C24.7845 5.18032 24.7124 5.2387 24.5602 5.35764L24.6058 5.33721C24.6438 5.32029 24.7614 5.2686 24.8026 5.25049L24.8169 5.2442C25.3006 5.03071 25.5341 4.89361 25.6685 4.70521L25.6964 4.71404C25.6924 5.03481 25.3254 5.45378 24.8416 5.76305C24.895 5.74317 24.9368 5.72751 24.9776 5.71209C25.5068 5.51196 25.8145 5.36084 26.0295 5.1669L26.0551 5.17658C26.0859 5.49526 24.9659 6.24382 24.1007 6.59158C24.9228 6.38877 25.4069 6.23849 25.6822 6.07508L25.705 6.09139C25.6954 6.13174 25.6563 6.17856 25.5909 6.23491C25.5659 6.25651 25.5374 6.27916 25.5039 6.30434C25.4806 6.32194 25.4623 6.3353 25.4215 6.3648C25.0421 6.63964 24.4722 6.83107 23.8646 6.93085C23.9241 7.17543 23.834 7.30428 23.5748 7.32246C23.2827 7.34322 22.6624 7.22985 22.3877 7.08599C22.3521 7.10705 22.313 7.11856 22.2552 7.12678C22.5332 7.33843 22.6428 7.50372 22.5742 7.60914C22.5182 7.69565 22.3521 7.70566 22.1391 7.66522C22.1887 7.82796 22.1216 7.92424 21.9676 7.93936C21.8408 7.95181 21.6641 7.90718 21.4944 7.82247C21.616 8.00306 21.5965 8.13759 21.4119 8.17531C21.2008 8.21853 21.0453 8.19741 20.8683 8.09003C20.845 8.20637 20.7396 8.27969 20.6052 8.27339C21.0779 8.56301 21.1499 8.70701 21.0138 8.88612C20.9121 9.02061 20.5632 9.01037 20.3512 8.88661C20.261 9.14412 19.9488 9.1646 19.6949 8.95196C19.6613 9.10526 19.4012 9.24615 19.2058 9.13314ZM18.7297 6.30877C18.7371 6.28916 18.7427 6.26795 18.7462 6.24511L18.7281 6.22807L18.0526 6.35888L18.0517 6.3795L18.0344 6.37014L18.0301 6.39792L18.0317 6.39871L18.0509 6.39487L18.0502 6.40805C18.3127 6.5372 18.6029 6.52972 18.709 6.35184C18.9389 6.47431 19.3023 6.41429 19.4196 6.24266C19.7493 6.35967 20.0575 6.28941 20.1124 5.99288L20.0924 5.97594L19.445 6.19354C19.4542 6.16823 19.4586 6.14109 19.4571 6.11226L18.7297 6.30877ZM18.723 6.32504C18.7254 6.31975 18.7276 6.31432 18.7297 6.30877L18.699 6.31706L18.6957 6.34446L18.709 6.35184L18.7133 6.34427L18.7435 6.33534C18.9601 6.4369 19.2859 6.37922 19.4027 6.23654L19.4196 6.24266C19.4221 6.23899 19.4245 6.23526 19.4268 6.23149L19.4537 6.22244C19.7487 6.31921 20.015 6.25785 20.0768 6.01302L20.1023 6.00443L20.0823 5.98748C20.0807 5.99621 20.0789 6.00472 20.0768 6.01302L19.4537 6.22244C19.4475 6.22043 19.4414 6.21835 19.4352 6.2162C19.4389 6.20882 19.4422 6.20126 19.445 6.19354L19.4272 6.19952C19.4387 6.17705 19.4454 6.15295 19.4462 6.12744L18.7435 6.33534C18.7365 6.33207 18.7297 6.32864 18.723 6.32504ZM19.4208 6.21104C19.4256 6.2128 19.4304 6.21452 19.4352 6.2162C19.4326 6.22138 19.4298 6.22648 19.4268 6.23149L19.4122 6.23637L19.4124 6.22381C19.4154 6.21962 19.4182 6.21536 19.4208 6.21104ZM19.4208 6.21104C19.4181 6.21006 19.4154 6.20907 19.4127 6.20806L19.4124 6.22381C19.4094 6.22812 19.4061 6.23237 19.4027 6.23654L19.4018 6.2362L19.4023 6.20788L19.4272 6.19952C19.4252 6.20341 19.4231 6.20725 19.4208 6.21104ZM18.723 6.32504C18.72 6.33165 18.7168 6.33806 18.7133 6.34427L18.7078 6.3459L18.7112 6.3185L18.723 6.32504ZM18.0731 6.39043L18.0509 6.39487L18.0517 6.3795C18.0588 6.38325 18.0659 6.3869 18.0731 6.39043ZM18.7119 6.26262C18.6591 6.49866 18.3539 6.52914 18.0731 6.39043L18.7119 6.26262ZM18.7119 6.26262C18.7135 6.25546 18.7148 6.24812 18.716 6.24058L18.7341 6.25818L18.7119 6.26262ZM22.0409 5.34591L20.6611 5.78244L20.6683 5.81162C20.8145 5.78761 21.0444 5.72124 21.35 5.61916C21.3922 5.60505 21.4357 5.59031 21.4809 5.57484C21.633 5.52272 22.0662 5.36904 22.0512 5.37428L22.0414 5.34576L22.0409 5.34591ZM22.0409 5.34591L22.0507 5.37442L20.6705 5.8111L20.6633 5.78192C20.8073 5.75826 21.0361 5.69222 21.3401 5.59065C21.3823 5.57657 21.4257 5.56185 21.4708 5.54641C21.6176 5.49611 22.0269 5.35097 22.0409 5.34591ZM18.0207 6.3861L18.0203 6.39272L18.0197 6.39238L18.0207 6.3861ZM12.6426 4.89076C12.7401 5.03015 12.9961 5.23451 13.1573 5.28421C13.1689 5.39485 13.2166 5.50204 13.2968 5.58844L12.5678 5.35924L12.5483 5.37748C12.5653 5.43991 12.5941 5.4949 12.6314 5.54185L12.1293 5.34232C12.1708 5.34309 12.2164 5.34033 12.2661 5.33383L12.2743 5.30773L11.9139 4.98739C11.9775 5.00151 12.0415 5.01245 12.1058 5.02001L12.1146 4.99168L10.7204 4.28644L10.7029 4.31076C11.0363 4.62129 11.4237 4.85854 11.8313 4.96721C11.8054 5.02488 11.7987 5.09821 11.818 5.16239L11.0408 4.89092L11.0259 4.91673C11.1967 5.05495 11.4634 5.13673 11.8327 5.19941C11.8346 5.20337 11.8367 5.20726 11.839 5.21108C11.8721 5.26783 11.9285 5.3077 12.0088 5.32771C11.9947 5.36165 11.9879 5.39431 11.988 5.42496C11.6169 5.3558 11.3821 5.33365 11.2847 5.37569C11.2342 5.39764 11.2007 5.42877 11.1859 5.46464C11.1204 5.43963 11.0585 5.41868 10.9904 5.39812C10.9634 5.38997 10.9352 5.38181 10.9028 5.3727C10.9218 5.37806 10.6956 5.31572 10.6192 5.29343L10.6191 5.2934L10.6191 5.2934L10.6189 5.29335L10.6103 5.32321L11.178 5.49578C11.1724 5.54812 11.203 5.60704 11.2747 5.66107C11.3 5.68008 11.3301 5.69827 11.3644 5.71565C11.2918 5.74976 11.2644 5.80552 11.2798 5.86523L10.1288 5.54576L10.1165 5.57296C10.413 5.75795 10.7841 5.85671 11.2945 5.90202C11.3083 5.92768 11.3297 5.95341 11.3585 5.97785C11.3239 6.01735 11.3105 6.06178 11.3157 6.10702C11.2471 6.10488 11.1491 6.122 11.085 6.14833L11.0931 6.17812L11.3232 6.14165C11.3371 6.18503 11.3674 6.22819 11.4119 6.26753C11.7826 6.59625 12.6977 6.58991 13.5631 6.29463C13.5827 6.33748 13.6332 6.36695 13.7139 6.38909C13.7467 6.39812 13.7799 6.4058 13.8134 6.41218L12.7481 6.86368L12.7563 6.8924C13.0799 6.8458 13.5342 6.63896 13.8699 6.42164C13.9589 6.43458 14.0503 6.43867 14.1422 6.43445C14.1029 6.50632 14.096 6.59839 14.1245 6.67644L12.9976 7.06805L13.007 7.09668C13.3781 6.98951 13.8631 6.8233 14.1368 6.70497C14.1705 6.77167 14.2332 6.82352 14.3272 6.83549L13.1966 7.32111L13.2066 7.34948C13.4708 7.28234 13.9945 7.058 14.3955 6.8415C14.5104 6.84762 14.6373 6.83546 14.7681 6.80902C14.7436 6.85875 14.7291 6.90778 14.7243 6.95439L13.6447 7.45085L13.655 7.47907C13.9821 7.39686 14.2774 7.25198 14.7224 6.99097C14.7228 7.06123 14.7461 7.1245 14.7909 7.17422L13.8032 7.66251L13.8133 7.6907C13.9206 7.66861 14.0486 7.621 14.194 7.55184C14.2737 7.51394 14.3573 7.47017 14.4445 7.42125C14.569 7.3514 14.6669 7.29152 14.8148 7.19761C14.8648 7.24112 14.9346 7.27102 15.023 7.28145C15.0331 7.28264 15.0434 7.28353 15.0539 7.28412L14.2454 7.65558L14.2551 7.68394C14.4346 7.64657 14.6061 7.57768 14.7908 7.478C14.8325 7.45551 14.9175 7.4059 14.9933 7.36167L14.9933 7.36166L14.9933 7.36165C15.0522 7.32725 15.1056 7.2961 15.1287 7.28349C15.2209 7.27718 15.3236 7.25121 15.4322 7.20751C15.3838 7.28205 15.3578 7.34168 15.3538 7.39414L14.5279 7.79906L14.5398 7.82675C14.6849 7.77702 15.1045 7.56709 15.3544 7.42895C15.3586 7.46389 15.3736 7.49615 15.3992 7.52843C15.4248 7.56064 15.4552 7.57812 15.4952 7.58123L14.9287 7.83982L14.9409 7.86744C15.1356 7.7904 15.4009 7.66976 15.6253 7.55675C15.6857 7.53512 15.76 7.49952 15.8532 7.45029C15.9266 7.41164 16.0129 7.35681 16.1119 7.28725C16.1379 7.26897 16.1647 7.24976 16.1924 7.22955C16.1713 7.30467 16.1703 7.36944 16.1869 7.42345L15.2792 7.96343L15.2926 7.99037C15.5357 7.89879 15.986 7.62247 16.1989 7.45451C16.2222 7.50364 16.2622 7.54218 16.3166 7.56972L15.6859 7.96361L15.7001 7.99018C15.9403 7.89036 16.2182 7.7143 16.3524 7.58546L16.3584 7.58772C16.4985 7.63898 16.6396 7.64054 16.7719 7.57229L16.2303 7.97125L16.2473 7.99625C16.5113 7.84256 16.8247 7.61539 16.9276 7.49463L16.9067 7.47291L16.9055 7.47384L16.9012 7.45068L16.2629 7.17732C16.2981 7.15089 16.3347 7.12298 16.3747 7.09211L16.489 7.00345L16.5042 6.9917L16.4919 6.96507L16.0737 7.04104L16.3661 6.82131L16.3483 6.79684C16.2548 6.85852 16.1133 6.95933 15.9809 7.0579L15.6032 7.12651C15.8274 7.005 16.0648 6.81794 16.2786 6.58039L16.265 6.55551L15.7131 6.63273C15.7369 6.61742 15.7614 6.6015 15.7867 6.58491L15.954 6.47505C16.0175 6.43355 16.0682 6.40113 16.1164 6.37146L16.1005 6.34573L16.1001 6.34594L15.5713 6.65257L15.0831 6.72087C15.3837 6.61446 15.6704 6.45019 15.846 6.27547C15.9207 6.26534 15.9977 6.25113 16.0762 6.23252L16.0801 6.23328L16.0801 6.23159L16.0867 6.23L16.0859 6.2006L15.1696 6.02804C15.228 6.02377 15.288 6.01689 15.3493 6.00721L15.3512 5.9779L14.2998 5.67562L14.2802 5.68934C14.2797 5.6997 14.2801 5.70994 14.2814 5.72005L13.1771 5.19168L13.1552 5.20444C13.1546 5.21602 13.1543 5.22761 13.1545 5.23918L12.6645 4.87027L12.6426 4.89076ZM13.1549 5.25172L13.1545 5.23918L13.1844 5.26167L13.1712 5.28817C13.1666 5.28699 13.162 5.28567 13.1573 5.28421L13.1567 5.27874L13.1658 5.28558L13.179 5.25907C13.1713 5.25705 13.1632 5.25459 13.1549 5.25172ZM13.07 5.21345L12.7619 4.98149C12.7235 4.94374 12.6909 4.90671 12.6678 4.87369L12.6459 4.89418L12.7619 4.98149C12.8498 5.06805 12.9677 5.15847 13.07 5.21345ZM13.07 5.21345C13.1 5.22959 13.1287 5.24268 13.1549 5.25172C13.1553 5.26074 13.1559 5.26975 13.1567 5.27874L13.07 5.21345ZM14.3159 5.73655L14.2814 5.72005C14.2823 5.72692 14.2837 5.73373 14.2854 5.74047L14.2647 5.74551L13.1851 5.22896C13.1851 5.22131 13.1853 5.21365 13.1857 5.20599L13.1638 5.21875L13.1851 5.22896C13.1842 5.43984 13.3231 5.64888 13.5753 5.72334C13.7988 5.78936 14.0181 5.79755 14.2034 5.76222C14.1561 5.77612 14.1089 5.79229 14.0628 5.81023C13.9083 5.82028 13.7385 5.80299 13.5665 5.75218C13.4809 5.72692 13.4077 5.6869 13.3478 5.63679L13.3549 5.63121L13.35 5.60516L13.2968 5.58844C13.3057 5.59799 13.3149 5.60729 13.3246 5.61631L13.3125 5.62498L12.5862 5.39664C12.5831 5.38782 12.5804 5.37884 12.5779 5.36968L12.5584 5.38792L12.5862 5.39664C12.6176 5.48818 12.6771 5.5611 12.7515 5.61294L12.6813 5.59553L12.6807 5.59495L12.6873 5.59294L12.6886 5.56459L12.6314 5.54185C12.6393 5.55183 12.6476 5.56144 12.6562 5.57068L12.6363 5.57627L12.0375 5.33833L12.0393 5.33413C12.0668 5.33896 12.0968 5.34172 12.1293 5.34232L12.0352 5.30495L12.0156 5.31252C12.0132 5.31761 12.0109 5.32267 12.0088 5.32771C12.0146 5.32915 12.0206 5.3305 12.0266 5.33174L12.0237 5.33286L12.0375 5.33833C12.0239 5.37091 12.018 5.40219 12.0194 5.4313L12.0124 5.42955L12.0115 5.42937L11.988 5.42496C11.9881 5.43559 11.989 5.44598 11.9907 5.4561C11.6234 5.38736 11.3866 5.36459 11.297 5.40324C11.1846 5.45216 11.1732 5.5466 11.2933 5.63717C11.3243 5.66051 11.363 5.68262 11.4082 5.70346L11.405 5.70268L11.3965 5.70301C11.3849 5.70679 11.3743 5.71102 11.3644 5.71565C11.3753 5.72114 11.3866 5.72654 11.3983 5.73187L11.3976 5.73189L11.3991 5.73227L11.4013 5.73323C11.2807 5.77545 11.2757 5.87581 11.3857 5.9622L11.3826 5.96178L11.3696 5.96608C11.3657 5.96995 11.362 5.97388 11.3585 5.97785C11.366 5.98421 11.374 5.99047 11.3825 5.99663C11.3176 6.07005 11.3403 6.16377 11.4324 6.24515C11.7855 6.55826 12.662 6.55834 13.5029 6.28298L13.5616 6.29103L13.5631 6.29463L13.5737 6.29101L13.5708 6.26189L13.5703 6.26184L13.5724 6.23498L13.5552 6.23076C13.5591 6.20088 13.5721 6.16637 13.5941 6.12631C13.628 6.06488 13.7041 5.9989 13.8028 5.93793C13.8308 5.93332 13.8573 5.92835 13.8824 5.923L13.8829 5.89369L13.881 5.89321C13.9377 5.86309 13.9992 5.83498 14.0628 5.81023C14.114 5.80689 14.1636 5.80056 14.211 5.79144C13.9492 5.86871 13.6891 6.01738 13.6211 6.14066C13.5504 6.26899 13.5805 6.32123 13.7222 6.3601C14.1342 6.47369 14.6249 6.37051 14.9997 6.11303L15.015 6.12064C15.0174 6.12506 15.0201 6.12941 15.023 6.13368C14.8703 6.23961 14.6983 6.32027 14.52 6.37153L14.1674 6.40513L14.1562 6.41165C14.1512 6.41898 14.1465 6.4266 14.1422 6.43445C14.153 6.43396 14.1638 6.43335 14.1746 6.43262L14.1704 6.4351L14.1777 6.4344C14.0949 6.56264 14.1389 6.78172 14.332 6.80573C14.3493 6.80787 14.3669 6.80953 14.3849 6.81071L14.3272 6.83549L14.3281 6.8356L14.3399 6.83698C14.2065 6.90771 14.0614 6.9787 13.9179 7.04414L13.5869 7.18633C13.4341 7.24753 13.2979 7.29518 13.1989 7.32033L13.2089 7.3487L13.5869 7.18633C13.6917 7.14435 13.8043 7.09598 13.9179 7.04414L14.3904 6.84121L14.3955 6.8415L14.418 6.82925L14.4094 6.81202C14.5256 6.81687 14.6543 6.80289 14.7867 6.77438C14.7799 6.78595 14.7737 6.7975 14.7681 6.80902C14.7809 6.80642 14.7938 6.80368 14.8067 6.80081C14.6864 7.01909 14.7714 7.22144 15.0266 7.25155C15.056 7.25502 15.0871 7.25578 15.1196 7.25394L15.0539 7.28412L15.0655 7.28465L14.976 7.33673L14.976 7.33674L14.9759 7.33678C14.93 7.36356 14.8811 7.39212 14.8406 7.41534L14.4206 7.60831C14.3636 7.62705 14.3066 7.64245 14.2487 7.65449L14.2584 7.68286L14.4206 7.60831C14.5373 7.56998 14.6537 7.51768 14.7761 7.45161C14.7921 7.44299 14.8146 7.43027 14.8406 7.41534L15.1274 7.28357L15.1287 7.28349L15.1355 7.27984L15.1224 7.25377C15.2242 7.24755 15.3402 7.21593 15.4633 7.16173C15.4521 7.17761 15.4417 7.19285 15.4322 7.20751C15.4492 7.20064 15.4664 7.19334 15.4838 7.1856C15.373 7.34336 15.3573 7.42669 15.4233 7.50988C15.4588 7.5545 15.5104 7.56265 15.6011 7.53287L15.4952 7.58123C15.499 7.58152 15.5028 7.58168 15.5068 7.58172C15.3088 7.67816 15.0937 7.7745 14.9295 7.83951L14.9416 7.86713L15.6099 7.56204L15.6253 7.55675L15.6598 7.53927L15.648 7.51558C15.6999 7.49458 15.7625 7.46403 15.8387 7.42376C15.9108 7.38581 15.9961 7.33162 16.0941 7.26275C16.1284 7.23868 16.164 7.21297 16.2012 7.18547L16.2087 7.17995C16.2023 7.19695 16.1969 7.21349 16.1924 7.22955L16.2196 7.20954L16.2344 7.19852C16.1662 7.3881 16.2236 7.50666 16.369 7.55949C16.5413 7.62252 16.7132 7.60634 16.8676 7.46915L16.889 7.47829L16.8844 7.45368C16.8789 7.459 16.8733 7.46415 16.8676 7.46915L16.2349 7.19816L16.2629 7.17732L16.2319 7.16406L16.2277 7.16581C16.2679 7.1358 16.3096 7.10409 16.3558 7.06842L16.4367 7.00571L16.4975 6.99468L16.4852 6.96805L16.4699 6.97991L16.4367 7.00571L16.0199 7.08142L16.0737 7.04104L16.0484 7.04564C16.1653 6.95957 16.2839 6.87559 16.3653 6.82185L16.3475 6.79738L16.0072 7.05312L15.9809 7.0579L15.927 7.09831L15.5084 7.17434C15.5397 7.15975 15.5713 7.14379 15.6032 7.12651L15.4992 7.14539C15.7352 7.03441 15.9942 6.84325 16.2277 6.59115L16.2693 6.58532L16.2557 6.56043L16.2277 6.59115L15.6521 6.67168C15.6719 6.65916 15.6922 6.64618 15.7131 6.63273L15.6507 6.64146L16.116 6.37166L16.1001 6.34594C16.0517 6.37578 16.0007 6.40834 15.937 6.44997L15.7698 6.55985C15.7244 6.58955 15.6817 6.61713 15.6411 6.6428L15.5713 6.65257L15.5022 6.69265L14.9077 6.77583C14.9662 6.75991 15.0249 6.74148 15.0831 6.72087L14.9015 6.74629C15.2404 6.65373 15.5863 6.47567 15.7957 6.28173C15.8123 6.27985 15.8291 6.27776 15.846 6.27547L15.85 6.27143L15.8393 6.24934C15.8945 6.24181 15.9511 6.23196 16.0088 6.21965L16.0762 6.23252L16.0801 6.23159L16.0794 6.20345C16.0557 6.20926 16.0321 6.21466 16.0088 6.21965L15.0344 6.03343C15.0783 6.03318 15.1234 6.03142 15.1696 6.02804L15.0384 6.00333C15.1138 6.00272 15.193 5.99759 15.2749 5.98734L15.3426 6.0068L15.3444 5.97749C15.321 5.98118 15.2979 5.98446 15.2749 5.98734L14.3112 5.71025C14.3106 5.70382 14.3105 5.69733 14.3108 5.6908L14.2912 5.70452L14.3112 5.71025C14.3119 5.71912 14.3135 5.72789 14.3159 5.73655ZM14.3181 5.74052L14.3184 5.73771L14.3159 5.73655L14.3169 5.73991L14.3127 5.73781L14.3072 5.73714L14.3072 5.73686L14.3065 5.73706L14.3024 5.73657L14.2854 5.74047L14.286 5.74298L14.269 5.74755L14.2647 5.74551C14.2443 5.75063 14.2239 5.75621 14.2034 5.76222C14.2258 5.75796 14.2476 5.75306 14.269 5.74755L14.2908 5.75802C14.2922 5.76174 14.2937 5.76543 14.2953 5.7691C14.2673 5.77564 14.2392 5.78313 14.211 5.79144C14.2403 5.78581 14.2688 5.77911 14.2963 5.7714C14.3423 5.87237 14.4826 5.95458 14.6806 5.99857L14.0585 6.19911L14.065 6.22938C14.3463 6.19441 14.5069 6.13557 14.7419 6.0112L14.7417 6.01058C14.7655 6.0147 14.79 6.0183 14.8152 6.02135L14.9997 6.11303L15.0084 6.10695C15.0103 6.11159 15.0125 6.11615 15.015 6.12064L15.0223 6.12429L15.0203 6.09865L15.0084 6.10695C15.0047 6.09808 15.002 6.08896 15.0003 6.07959L15.0361 6.09742L15.0382 6.12306L15.023 6.13368C15.0611 6.18909 15.1409 6.23245 15.2503 6.26019L15.1307 6.31331L14.52 6.37153C14.4078 6.40375 14.2931 6.42436 14.179 6.43232L14.1816 6.42858L14.1746 6.43262L14.179 6.43232L14.1777 6.4344L15.044 6.35182L14.5216 6.58391L14.5325 6.61199C14.7421 6.54718 14.9729 6.44651 15.1767 6.33917L15.6688 6.29227C15.71 6.2901 15.7524 6.28661 15.7957 6.28173L15.7975 6.28L15.8406 6.27589L15.8284 6.25081L15.8393 6.24934L15.8376 6.24592L15.604 6.26819C15.2488 6.27545 15.0032 6.17742 15.0313 6.03345L15.0344 6.03343L15.0314 6.03287C15.0323 6.02851 15.0334 6.02412 15.0348 6.01968L15.0173 6.03017L15.0314 6.03287L15.0313 6.03345L15.0001 6.03332C15.0013 6.02593 15.0031 6.01841 15.0055 6.01078L15.0181 6.00339L15.0384 6.00333L15.023 6.00044L15.0181 6.00339C14.9501 6.00322 14.8854 5.99937 14.8247 5.9923L14.3181 5.74052ZM14.3179 5.74316L14.3181 5.74052L14.3169 5.73991L14.3179 5.74316ZM14.3377 5.784C14.3291 5.77073 14.3225 5.7571 14.3179 5.74316L14.3162 5.76564L14.3066 5.76849L14.3038 5.76713L14.3092 5.76593L14.2989 5.76468L14.3038 5.76713L14.2953 5.7691L14.2963 5.7714L14.3066 5.76849L14.3377 5.784ZM14.7273 5.97766C14.7585 5.98347 14.791 5.98838 14.8247 5.9923L14.899 6.02926C14.8704 6.02729 14.8424 6.02464 14.8152 6.02135L14.7273 5.97766ZM14.3377 5.784L14.7273 5.97766C14.5345 5.94161 14.394 5.8707 14.3377 5.784ZM14.899 6.02926L15.0003 6.07959C14.9976 6.06477 14.9975 6.04933 15.0001 6.03332C14.9656 6.03289 14.9318 6.03152 14.899 6.02926ZM15.8276 6.2509L15.8282 6.25038L15.8284 6.25081L15.8276 6.2509ZM15.8276 6.2509C15.7496 6.26114 15.6747 6.26675 15.604 6.26819L15.4067 6.28701C15.3692 6.28314 15.3336 6.27791 15.3003 6.27138L15.3039 6.26934L15.2899 6.24261L15.2503 6.26019L15.2561 6.26164C15.2273 6.27777 15.1978 6.29385 15.1676 6.30979L15.1307 6.31331L15.044 6.35182L15.0958 6.34688C14.9107 6.44032 14.7084 6.52601 14.5233 6.58327L14.5342 6.61135L15.1387 6.34279L15.1767 6.33917C15.1998 6.32699 15.2226 6.31473 15.245 6.30242L15.4067 6.28701C15.4862 6.29521 15.5745 6.29722 15.6688 6.29227L15.7975 6.28C15.8079 6.27033 15.8179 6.26063 15.8276 6.2509ZM15.2254 6.30428L15.245 6.30242C15.2637 6.29209 15.2822 6.28174 15.3003 6.27138L15.2997 6.27126L15.3025 6.27005L15.2885 6.24332L15.2561 6.26164C15.2702 6.26511 15.2847 6.26832 15.2997 6.27126L15.2254 6.30428ZM15.2254 6.30428L15.1676 6.30979C15.144 6.32226 15.1201 6.33464 15.0958 6.34688L15.1387 6.34279L15.2254 6.30428ZM14.7386 6.01005L14.7417 6.01058L14.7302 5.98258L14.6806 5.99857L14.6937 6.0014C14.6343 6.03213 14.5794 6.05846 14.5255 6.08118L14.2737 6.16235C14.2096 6.17693 14.1403 6.18864 14.0612 6.19846L14.0677 6.22873L14.2737 6.16235C14.3638 6.14186 14.4435 6.1157 14.5255 6.08118L14.7395 6.0122L14.7386 6.01005ZM14.7386 6.01005C14.7234 6.00738 14.7084 6.00449 14.6937 6.0014L14.7278 5.98357L14.7386 6.01005ZM14.2908 5.75802C14.289 5.75305 14.2874 5.74803 14.286 5.74298L14.3065 5.73706L14.3072 5.73714L14.305 5.76478L14.2908 5.75802ZM14.8134 6.78902L14.8067 6.80081C14.8402 6.79336 14.8739 6.78501 14.9077 6.77583L14.8134 6.78902ZM14.8134 6.78902L14.8171 6.7828L14.8061 6.79005L14.8134 6.78902ZM15.5785 6.68197L15.5022 6.69265L15.0998 6.92596L15.113 6.95303C15.279 6.89189 15.4346 6.8091 15.6521 6.67168L15.5816 6.68154L15.6507 6.64146L15.6411 6.6428C15.6197 6.65638 15.5988 6.66943 15.5785 6.68197ZM15.5361 6.70795L15.5785 6.68197L15.5816 6.68154L15.5361 6.70795ZM15.5361 6.70795C15.488 6.73707 15.4428 6.76329 15.3996 6.78707L15.5361 6.70795ZM15.3996 6.78707C15.2938 6.84531 15.1997 6.88893 15.1022 6.92483L15.1154 6.9519L15.3996 6.78707ZM15.4893 7.17782L15.4838 7.1856L15.5084 7.17434L15.4893 7.17782ZM15.4893 7.17782L15.4928 7.1728L15.4831 7.17894L15.4893 7.17782ZM15.9534 7.0935L15.927 7.09831C15.8055 7.18995 15.6991 7.27452 15.6558 7.3173L15.676 7.33988L16.0199 7.08142L15.9936 7.08621L16.0484 7.04564L16.0072 7.05312L15.9534 7.0935ZM15.9534 7.0935L15.6574 7.31596L15.6775 7.33854C15.7255 7.2912 15.8538 7.19041 15.9936 7.08621L15.9534 7.0935ZM16.2346 7.19803L16.2344 7.19852L16.2349 7.19816L16.2346 7.19803ZM16.2346 7.19803L16.2401 7.18322L16.2197 7.19166L16.2346 7.19803ZM16.2277 7.16581L16.2087 7.17995L16.2115 7.1725L16.2277 7.16581ZM15.6473 7.51583L15.648 7.51558L15.6463 7.51225L15.6011 7.53287L15.6148 7.5282C15.5797 7.54591 15.5435 7.56382 15.5068 7.58172C15.5358 7.58199 15.5696 7.57539 15.6099 7.56204L15.6592 7.53956L15.6473 7.51583ZM15.6473 7.51583L15.6457 7.51254L15.6148 7.5282C15.6252 7.52453 15.636 7.52041 15.6473 7.51583ZM15.4992 7.14539C15.4872 7.15105 15.4752 7.15649 15.4633 7.16173L15.4678 7.15546L15.4775 7.14933L15.4992 7.14539ZM15.1216 7.25382L15.1349 7.28014L15.1274 7.28357C15.1062 7.28498 15.0855 7.28535 15.0655 7.28465C15.0906 7.27015 15.11 7.25908 15.1198 7.25392L15.1216 7.25382ZM15.1216 7.25382L15.1224 7.25377L15.1219 7.25286L15.1196 7.25394L15.1198 7.25392L15.1213 7.25316L15.1216 7.25382ZM14.9015 6.74629C14.8631 6.75679 14.8247 6.76619 14.7867 6.77438L14.7907 6.76749L14.8018 6.76024L14.9015 6.74629ZM14.4077 6.81193L14.4167 6.82989L14.3904 6.84121C14.3733 6.84021 14.3564 6.83881 14.3399 6.83698L14.3885 6.81091L14.4077 6.81193ZM14.4077 6.81193L14.4094 6.81202L14.4045 6.8023L14.3849 6.81071L14.3885 6.81091L14.4032 6.80293L14.4077 6.81193ZM13.8759 5.89591L13.881 5.89321L13.1769 5.71849C13.2381 5.70297 13.2963 5.67598 13.3478 5.63679L13.3399 5.63014L13.3357 5.60779L13.3246 5.61631C13.3296 5.621 13.3347 5.62561 13.3399 5.63014L13.3406 5.63384L13.3125 5.62498C13.2507 5.66747 13.1796 5.69235 13.1062 5.70095L12.7515 5.61294C12.7871 5.63779 12.8261 5.65779 12.8671 5.67268L12.7383 5.64072C12.7182 5.62707 12.6992 5.61199 12.6813 5.59553L12.6799 5.59518L12.6807 5.59495L12.6772 5.59168L12.6784 5.56416L12.6562 5.57068C12.663 5.5779 12.67 5.5849 12.6772 5.59168L12.6771 5.59251L12.6363 5.57627L12.6206 5.58047L12.0194 5.4313C12.02 5.44238 12.0216 5.45315 12.0243 5.46356L12.0053 5.45885L12.0058 5.45893L12.0049 5.45875L12.0053 5.45885L11.9907 5.4561C12.0177 5.61521 12.2483 5.70664 12.6207 5.61154L12.7383 5.64072C12.844 5.71271 12.9768 5.74498 13.104 5.73148L13.8089 5.90637C13.4128 5.97399 12.7228 5.96492 12.1528 5.88634L11.4082 5.70346C11.5813 5.7833 11.8502 5.84462 12.1528 5.88634L12.3909 5.94482C12.3078 5.9365 12.2258 5.9268 12.1462 5.91574L11.402 5.73297L11.4062 5.73156L11.3983 5.73187L11.3991 5.73227L11.402 5.73297L11.4013 5.73323C11.5776 5.81286 11.8456 5.874 12.1462 5.91574L13.4733 6.24169L13.4372 6.24358L11.3857 5.9622C11.4025 5.97543 11.422 5.98833 11.4443 6.00064L11.3861 5.99267L11.3913 5.98731L11.3784 5.9916L11.3861 5.99267L11.3825 5.99663C11.4176 6.02207 11.4612 6.04562 11.513 6.06562C11.8703 6.20336 12.859 6.30039 13.4358 6.27378L13.5029 6.28298C13.5197 6.27747 13.5366 6.27184 13.5534 6.2661L13.5549 6.26596C13.5561 6.27479 13.5583 6.28313 13.5616 6.29103L13.5665 6.29171L13.5639 6.26515L13.5701 6.26457L13.5703 6.26184L13.5652 6.26113L13.5672 6.2346L13.5546 6.23576L13.5552 6.23076L12.3909 5.94482C12.9016 5.99592 13.4571 5.99494 13.8028 5.93793C13.8155 5.93007 13.8286 5.92229 13.8421 5.91461L13.8754 5.92288L13.8759 5.89591ZM13.8759 5.89591C13.8644 5.90207 13.8531 5.9083 13.8421 5.91461L13.8089 5.90637C13.8323 5.90237 13.8547 5.89811 13.8759 5.89358L13.8759 5.89591ZM13.5542 6.25963C13.5536 6.25203 13.5537 6.24408 13.5546 6.23576C13.5287 6.23807 13.5016 6.24004 13.4733 6.24169L13.5364 6.25718L13.4372 6.24358C13.3782 6.24635 13.3148 6.24781 13.2481 6.24804L11.4443 6.00064C11.4679 6.01372 11.4945 6.02614 11.5242 6.03759C11.841 6.15976 12.6681 6.2501 13.2481 6.24804L13.4358 6.27378C13.4772 6.27187 13.5166 6.26932 13.5534 6.2661L13.5549 6.26559L13.5549 6.26596L13.5639 6.26515L13.5637 6.26389L13.5649 6.26419L13.5652 6.26113L13.5542 6.25963ZM13.5544 6.26161L13.5542 6.25963L13.5364 6.25718L13.5544 6.26161ZM13.5614 6.26333L13.5549 6.26559L13.5544 6.26161L13.5614 6.26333ZM13.5614 6.26333L13.5637 6.26389L13.5636 6.26259L13.5614 6.26333ZM12.9746 5.69935L12.8671 5.67268C12.9018 5.6853 12.9379 5.69425 12.9746 5.69935ZM12.9746 5.69935L13.104 5.73148C13.1286 5.72887 13.1529 5.72456 13.1769 5.71849L13.1062 5.70095C13.0626 5.70606 13.0182 5.70544 12.9746 5.69935ZM12.5569 5.59572C12.5776 5.59126 12.5988 5.58619 12.6206 5.58047L12.6799 5.59518C12.6598 5.60115 12.64 5.60659 12.6207 5.61154L12.5569 5.59572ZM12.5569 5.59572L12.0243 5.46356C12.0569 5.59004 12.2451 5.66291 12.5569 5.59572ZM12.0266 5.33174L12.0393 5.33413L12.0433 5.32529L12.0266 5.33174ZM16.9049 7.47607L16.9058 7.47529L16.9055 7.47384L16.7719 7.57229C16.8146 7.55021 16.8565 7.52083 16.897 7.48347C16.7899 7.60297 16.487 7.82173 16.2317 7.97034L16.2487 7.99535L16.9251 7.49701L16.9049 7.47607ZM16.9049 7.47607L16.897 7.48347L16.9042 7.47529L16.9049 7.47607ZM16.3499 7.58455L16.3524 7.58546L16.3606 7.57746L16.3415 7.55414L16.3166 7.56972L16.322 7.57241C16.2689 7.62189 16.1949 7.67814 16.1106 7.73402L15.9873 7.81106C15.8896 7.86859 15.7857 7.92193 15.6882 7.96245L15.7023 7.98902L15.9873 7.81106C16.0299 7.78594 16.0714 7.76002 16.1106 7.73402L16.3499 7.58455ZM16.3499 7.58455L16.3579 7.57956L16.3389 7.55624C16.3335 7.56154 16.3279 7.56693 16.322 7.57241C16.3309 7.57674 16.3403 7.58079 16.3499 7.58455ZM16.1978 7.45214L16.1989 7.45451L16.2147 7.44191L16.1971 7.4174L16.1869 7.42345L16.1874 7.425C16.1016 7.49345 15.9733 7.5816 15.8351 7.6679L15.6209 7.79534C15.4941 7.8669 15.3728 7.92791 15.2816 7.96226L15.295 7.98919L15.6209 7.79534C15.692 7.75523 15.7648 7.71181 15.8351 7.6679L16.1978 7.45214ZM16.1978 7.45214C16.1938 7.44342 16.1903 7.43437 16.1874 7.425L16.1953 7.41866L16.2129 7.44316L16.1978 7.45214ZM15.3543 7.42755L15.3544 7.42895L15.3774 7.41616L15.363 7.38959L15.3538 7.39414L15.3537 7.39477C15.1074 7.53178 14.6754 7.74842 14.5297 7.79831L14.5416 7.826L15.3543 7.42755ZM15.3543 7.42755C15.3531 7.4169 15.3529 7.406 15.3537 7.39477L15.3623 7.38998L15.3767 7.41654L15.3543 7.42755ZM14.8137 7.19667L14.8148 7.19761L14.8259 7.19051L14.8108 7.16441L14.7909 7.17422L14.7925 7.17592C14.6918 7.23982 14.6143 7.28785 14.5352 7.33436L13.9693 7.61411C13.9107 7.63521 13.8564 7.65105 13.807 7.66123L13.817 7.68941L13.9693 7.61411C14.0345 7.59063 14.1052 7.56065 14.1807 7.52474C14.2597 7.48716 14.3427 7.4437 14.4293 7.3951C14.4663 7.37436 14.5009 7.3545 14.5352 7.33436L14.8137 7.19667ZM14.8137 7.19667C14.8062 7.19005 14.7991 7.18313 14.7925 7.17592L14.8093 7.16522L14.8245 7.19131L14.8137 7.19667ZM14.7224 6.98847L14.7224 6.99097L14.7427 6.97906L14.7284 6.95251L14.7243 6.95439L14.7242 6.95485C14.617 7.01794 14.5184 7.07432 14.4262 7.12472L13.8515 7.38898C13.7837 7.41247 13.7162 7.4326 13.6474 7.4499L13.6577 7.47812L13.8515 7.38898C14.03 7.32718 14.2111 7.24219 14.4262 7.12472L14.7224 6.98847ZM14.7224 6.98847L14.7413 6.97978L14.727 6.95323L14.7242 6.95485C14.7231 6.96621 14.7225 6.97743 14.7224 6.98847ZM14.1365 6.70422L14.1368 6.70497L14.1477 6.70027L14.1364 6.67231L14.1245 6.67644L14.1248 6.67729C13.8525 6.79502 13.3685 6.96092 12.9984 7.0678L13.0078 7.09643L14.1365 6.70422ZM14.1365 6.70422C14.1321 6.69547 14.1282 6.68648 14.1248 6.67729L14.1353 6.67275L14.1466 6.7007L14.1365 6.70422ZM13.8688 6.42149L13.8699 6.42164L13.8737 6.41919L13.8592 6.3928L13.8134 6.41218L13.8251 6.41435C13.7786 6.44381 13.73 6.47301 13.6799 6.50155L12.8972 6.83326C12.8465 6.84606 12.7978 6.856 12.7519 6.86262L12.7602 6.89134L12.8972 6.83326C13.1398 6.77199 13.4282 6.64502 13.6799 6.50155L13.8688 6.42149ZM13.8688 6.42149C13.8542 6.41935 13.8396 6.41697 13.8251 6.41435L13.8568 6.39407L13.8713 6.42045L13.8688 6.42149ZM11.3222 6.13838L11.3232 6.14165L11.338 6.1393L11.3373 6.10846C11.3305 6.10773 11.3233 6.10726 11.3157 6.10702L11.3162 6.11121L11.0884 6.14733L11.0965 6.17712C11.1592 6.15138 11.2583 6.13474 11.3222 6.13838ZM11.3222 6.13838C11.3195 6.12932 11.3175 6.12026 11.3162 6.11121L11.3333 6.1085L11.3341 6.13934L11.3222 6.13838ZM11.2936 5.90033L11.2945 5.90202L11.3035 5.90281L11.309 5.87333L11.2798 5.86523L11.2813 5.8706C11.2287 5.86579 11.1777 5.8604 11.1281 5.8544L10.2363 5.60688C10.2008 5.58817 10.1663 5.56841 10.1329 5.54753L10.1205 5.57473L10.2363 5.60688C10.4749 5.73247 10.7624 5.81014 11.1281 5.8544L11.2936 5.90033ZM11.2936 5.90033C11.2883 5.89038 11.2842 5.88044 11.2813 5.8706L11.3062 5.87282L11.3007 5.9023L11.2936 5.90033ZM11.1781 5.49488L11.178 5.49578L11.19 5.49942L11.1998 5.46999L11.1859 5.46464L11.1855 5.4656L10.6192 5.29343L10.6191 5.2934L10.6105 5.32326C10.6869 5.34556 10.9139 5.4081 10.8946 5.40269C10.9269 5.41174 10.9548 5.41985 10.9816 5.42794C11.0501 5.44861 11.1122 5.46964 11.1781 5.49488ZM11.1781 5.49488L11.1889 5.49905L11.1988 5.46961L11.1855 5.4656C11.1818 5.47506 11.1793 5.48485 11.1781 5.49488ZM11.8316 5.19724L11.8327 5.19941L11.8336 5.19958L11.8414 5.17056L11.818 5.16239L11.8193 5.16656C11.7559 5.15558 11.6956 5.144 11.6385 5.13164L11.1365 4.95631C11.1034 4.93675 11.073 4.91586 11.0454 4.89348L11.0306 4.91929L11.1365 4.95631C11.2633 5.03116 11.4303 5.08662 11.6385 5.13164L11.8311 5.19893L11.8316 5.19724ZM11.8316 5.19724C11.8267 5.18735 11.8227 5.17708 11.8193 5.16656L11.8388 5.16991L11.8316 5.19724ZM11.8625 4.94417L11.8412 4.94765C11.8377 4.95393 11.8344 4.96046 11.8313 4.96721L11.8515 4.97247L11.8593 4.97944C11.8302 5.04416 11.8283 5.13224 11.8655 5.1961C11.9168 5.28398 12.0347 5.32727 12.2288 5.30783L12.2538 5.33007L12.2621 5.30398C12.2507 5.30546 12.2396 5.30675 12.2288 5.30783L11.8593 4.97944L11.8614 4.97498C11.8789 4.97936 11.8964 4.98349 11.9139 4.98739L11.8664 4.94515C11.917 4.9579 11.9679 4.96863 12.0191 4.97721L12.1006 5.01845L12.1094 4.99012C12.0792 4.98657 12.0491 4.98226 12.0191 4.97721L10.808 4.36461C10.7796 4.33991 10.7516 4.31465 10.7239 4.28889L10.7064 4.31321L10.808 4.36461C11.1248 4.64032 11.4856 4.84842 11.8625 4.94417ZM11.8625 4.94417L11.8649 4.94379L11.8664 4.94515L11.8625 4.94417ZM11.8614 4.97498L11.8515 4.97247L11.8443 4.96613L11.868 4.96228C11.8657 4.96639 11.8635 4.97063 11.8614 4.97498ZM16.9174 7.70115C16.8542 7.7843 16.6952 7.96855 16.5939 8.0754L16.6168 8.09541L16.9413 7.71991L16.9174 7.70115ZM16.918 7.70041L16.9419 7.71917C16.878 7.80326 16.7183 7.98833 16.6163 8.09593L16.5935 8.07592L16.918 7.70041Z" fill="black"/>
<path fill-rule="evenodd" clip-rule="evenodd" d="M16.1294 5.22888C16.1756 5.20485 16.1986 5.19806 16.2504 5.18836C16.2633 5.18595 16.2711 5.18425 16.2796 5.18185C16.3123 5.17253 16.3405 5.1546 16.3781 5.11701C16.4 5.09507 16.4231 5.07289 16.4471 5.05064L17.3099 4.56659C17.3515 4.60567 17.399 4.6161 17.471 4.58968C17.522 4.57084 17.5477 4.53445 17.5577 4.48205C17.5606 4.46711 17.5616 4.45753 17.5637 4.42996L17.5642 4.42397L17.6512 4.37516C17.6688 4.374 17.6869 4.37366 17.7059 4.37412L17.7066 4.34402L17.6512 4.37516C17.6257 4.37682 17.6012 4.3802 17.5764 4.38533L17.5751 4.3856L17.5724 4.3554L17.5372 4.3928C17.541 4.37338 17.5472 4.36284 17.5595 4.35814L17.5701 4.35587L17.5723 4.35541C17.5674 4.35585 17.5632 4.35674 17.5595 4.35814C17.5215 4.36667 17.4817 4.37921 17.4305 4.39825C17.3966 4.41081 17.2505 4.4685 17.252 4.46792C17.0233 4.55684 16.6148 4.83819 16.3605 5.09163L16.2488 5.15801L16.2447 5.15879C16.1901 5.16899 16.1645 5.17657 16.1151 5.20227L16.1294 5.22888ZM16.2598 5.15576L16.2488 5.15801L16.1294 5.22888L16.2598 5.15576ZM16.342 5.10963C16.3466 5.10544 16.3513 5.10088 16.3562 5.09592L16.3605 5.09163L16.4802 5.02059C16.469 5.03061 16.458 5.04063 16.4471 5.05064L16.342 5.10963ZM17.24 4.50535C17.0404 4.58977 16.72 4.80576 16.4802 5.02059L17.2869 4.54148L17.2917 4.54726L17.2918 4.54726L17.2945 4.55048C17.2995 4.55629 17.3047 4.56167 17.3099 4.56659L17.3384 4.5506C17.3699 4.57631 17.4049 4.58091 17.4605 4.56049C17.5004 4.54579 17.5195 4.51864 17.5277 4.47612C17.5297 4.46558 17.5307 4.4578 17.532 4.44201L17.5642 4.42397C17.5667 4.39454 17.5696 4.38683 17.5751 4.38633L17.5751 4.3856C17.5655 4.38755 17.5586 4.38878 17.5527 4.38982L17.5411 4.39197L17.5372 4.3928C17.5149 4.39787 17.4862 4.40907 17.3293 4.47017L17.3293 4.47017L17.3293 4.47018L17.3293 4.47018L17.2807 4.48913C17.2647 4.47604 17.2483 4.47254 17.2293 4.48117L17.24 4.50535ZM17.3137 4.52554L17.2869 4.54148C17.2798 4.533 17.2697 4.52115 17.2663 4.51772C17.2562 4.50758 17.2503 4.50565 17.2418 4.5095L17.24 4.50535C17.2479 4.502 17.2557 4.49885 17.2632 4.49591L17.2807 4.48913C17.2831 4.49107 17.2854 4.49323 17.2878 4.4956C17.2928 4.50058 17.307 4.5175 17.3137 4.52554ZM17.3137 4.52554L17.5372 4.3928C17.5354 4.4022 17.5342 4.41367 17.5331 4.42756L17.532 4.44201L17.3384 4.5506C17.3313 4.54476 17.3243 4.53783 17.3173 4.52986L17.3166 4.529L17.3137 4.52554ZM16.342 5.10963L16.2598 5.15576C16.2639 5.15485 16.2674 5.15395 16.271 5.15293C16.2944 5.14629 16.3152 5.13427 16.342 5.10963ZM22.7468 5.94227L22.7325 5.94746L22.7219 5.91921L22.7465 5.91027C22.7473 5.92057 22.7474 5.93124 22.7468 5.94227ZM22.63 6.20952C22.6766 6.15383 22.7196 6.07419 22.7375 6.00171C22.7426 5.98097 22.7457 5.9611 22.7468 5.94227C23.4147 5.69979 23.7874 5.54385 24.2355 5.28984C24.4671 5.15857 24.6823 5.01679 24.8808 4.86223L24.8617 4.83863C24.6645 4.99223 24.4505 5.1332 24.2202 5.26376C23.7764 5.51537 23.4064 5.67049 22.7465 5.91027C22.7417 5.84916 22.7117 5.80156 22.654 5.77382C23.2384 5.58725 23.7847 5.33614 23.994 5.13431L23.9725 5.11282C23.7628 5.31512 23.2012 5.57066 22.6067 5.75712L22.6067 5.75712L22.6067 5.75712C22.4322 5.81187 22.2549 5.86065 22.0828 5.90039C22.0427 5.88149 21.9941 5.86548 21.9369 5.85266C21.5712 5.77081 21.0207 5.85744 20.6841 6.048C20.6388 6.03679 20.5939 6.02649 20.5498 6.01726C20.652 5.92781 20.7057 5.813 20.664 5.70519L20.6354 5.71589C20.7199 5.93446 20.3456 6.19872 20.0246 6.13917L20.0189 6.16876C20.1961 6.20162 20.3887 6.14153 20.5197 6.04182C20.6818 6.07461 20.8591 6.123 21.0178 6.17755L21.0181 6.17952L21.0217 6.17891C21.2082 6.24323 21.3684 6.31597 21.4472 6.38174C21.5383 6.45752 21.5863 6.52491 21.5834 6.57639C21.5802 6.63288 21.5137 6.67637 21.3717 6.70107C21.1949 6.73197 21.0815 6.73976 20.924 6.72293C20.8934 6.71708 20.8627 6.71133 20.832 6.70567L20.831 6.711C20.7725 6.70242 20.707 6.69114 20.6308 6.6771C20.4137 6.52673 20.0807 6.37884 19.7368 6.26257L19.7268 6.29104C20.0657 6.40558 20.3947 6.5516 20.6086 6.69859L20.6077 6.70347L20.6185 6.70548C20.6796 6.74818 20.7308 6.79092 20.7696 6.83295C20.8637 6.93499 20.8518 7.00271 20.7486 7.04176C20.6469 7.08028 20.4661 7.08463 20.2587 7.05387C19.8689 6.99583 19.2216 6.67029 18.893 6.38167L18.8726 6.40413C19.0711 6.5785 19.3835 6.76564 19.6873 6.9008L19.6864 6.9016C19.7613 6.9758 19.831 7.08392 19.8622 7.18233C19.8914 7.27457 19.8537 7.31962 19.7676 7.31291C19.652 7.30424 19.5667 7.28454 19.4553 7.23243L19.4508 7.24168C19.3975 7.18174 19.3257 7.1246 19.2351 7.07601C18.9879 6.94315 18.6657 6.664 18.5158 6.45925L18.491 6.47684C18.6435 6.68526 18.9692 6.96742 19.2205 7.10244C19.5048 7.255 19.5918 7.48919 19.5052 7.61299C19.4286 7.7225 19.1731 7.73686 18.9182 7.58811C18.6137 7.41011 18.2619 6.84437 18.2147 6.44583L18.1843 6.44931C18.2326 6.8569 18.5896 7.43104 18.9026 7.61399C18.9535 7.64372 19.0047 7.66723 19.0547 7.68494C19.0778 7.74772 19.0874 7.82602 19.0815 7.94839C19.0742 8.10179 18.9594 8.20542 18.8193 8.15347C18.6811 8.10226 18.5745 7.98837 18.5032 7.84679L18.4757 7.86016C18.5502 8.00796 18.6619 8.12733 18.8085 8.18164C18.847 8.19591 18.8839 8.20003 18.9178 8.19571C19.0006 8.36829 19.046 8.4949 19.0402 8.54097C19.0315 8.6104 19.0131 8.63156 18.9484 8.61679L18.9415 8.64612C19.0282 8.66593 19.06 8.62944 19.0706 8.54466C19.0773 8.49109 19.0324 8.36472 18.9485 8.18929C18.9657 8.18426 18.9819 8.17695 18.9969 8.16765C19.1134 8.319 19.1988 8.42682 19.304 8.55151C19.3355 8.5889 19.3662 8.62451 19.3959 8.65815C19.5063 8.78303 19.6004 8.8772 19.6739 8.93357L19.6927 8.90981C19.6211 8.85493 19.5283 8.76192 19.419 8.63839C19.3895 8.60494 19.3589 8.56951 19.3275 8.53229C19.2228 8.40812 19.1377 8.30064 19.0216 8.14977C19.0742 8.10549 19.1081 8.03381 19.1121 7.9498C19.1156 7.87585 19.1136 7.81699 19.1064 7.76747C19.41 8.11205 20.1228 8.75872 20.3351 8.87675L20.3501 8.85054C20.133 8.7298 19.3722 8.03646 19.0949 7.70754L19.0942 7.70808L19.0909 7.69682C19.2688 7.75053 19.4282 7.73059 19.5069 7.65702C19.6847 7.88537 20.239 8.20596 20.5249 8.25966L20.5306 8.23009C20.2498 8.17734 19.6958 7.85601 19.5276 7.63399L19.5304 7.63005C19.5823 7.55585 19.5803 7.44972 19.5223 7.34246C19.7244 7.50858 20.0642 7.75352 20.3787 7.96821L20.3961 7.94347C20.0599 7.71399 19.6942 7.44941 19.501 7.28515C19.5896 7.32036 19.6672 7.33557 19.7652 7.34293C19.8106 7.34647 19.8466 7.33687 19.8702 7.31609C20.0841 7.5347 20.6339 7.97489 20.8523 8.08086L20.8659 8.05386C20.6501 7.94921 20.0987 7.50741 19.8894 7.29225C19.9054 7.26329 19.9071 7.22294 19.8914 7.17339C19.8651 7.0902 19.813 7.00121 19.7529 6.92924C19.9353 7.00616 20.1114 7.06238 20.2541 7.08364C20.297 7.09 20.3389 7.0949 20.3792 7.09832L20.3773 7.1005C20.6462 7.33459 21.1444 7.65497 21.4368 7.79192L21.45 7.76473C21.1699 7.63353 20.6973 7.33134 20.4252 7.10162C20.5065 7.10638 20.5805 7.10474 20.6435 7.09671C20.7268 7.16289 20.8814 7.25563 21.1031 7.37629C21.1318 7.39188 21.1616 7.40793 21.1927 7.42457C21.2685 7.46511 21.4508 7.56061 21.5637 7.61978L21.5638 7.61982L21.657 7.66873L21.6716 7.64224L21.5779 7.5931L21.5777 7.59301L21.5775 7.59288C21.4645 7.53368 21.2828 7.43852 21.2073 7.39812C21.1763 7.38152 21.1466 7.3655 21.118 7.34994C20.9163 7.24022 20.7705 7.15368 20.6848 7.0902C20.7127 7.08491 20.7378 7.07813 20.7596 7.06985C20.7823 7.06126 20.8014 7.05113 20.8168 7.0396C21.3834 7.39061 21.7441 7.57588 22.1129 7.66004L22.1199 7.63071C21.7569 7.5479 21.3996 7.36476 20.8398 7.01823C20.8673 6.98563 20.8716 6.94485 20.8512 6.89794C20.9155 6.92322 20.9913 6.95428 21.0875 6.99461C21.1307 7.0127 21.2528 7.06427 21.3327 7.09801L21.4031 7.12772L21.4647 7.15362C21.818 7.30159 22.0398 7.38599 22.1919 7.42439L22.1995 7.39523C22.0494 7.35735 21.8285 7.27325 21.4767 7.12592L21.4151 7.10005L21.345 7.07046L21.3444 7.07018C21.2645 7.03644 21.1427 6.98498 21.0995 6.96691C20.9853 6.91905 20.8998 6.8842 20.8279 6.85651L20.8278 6.85672C20.818 6.84248 20.8062 6.8278 20.7923 6.81272C20.7633 6.78127 20.7277 6.74954 20.6866 6.71781C20.7772 6.73388 20.8521 6.74548 20.9193 6.75271C21.504 6.86459 22.0684 7.0116 22.2063 7.12787L22.2263 7.10501C22.0978 6.99676 21.6351 6.86804 21.1163 6.76109C21.1958 6.75851 21.2764 6.7483 21.377 6.73071C21.4612 6.71607 21.5228 6.69419 21.5621 6.66522L21.5623 6.66728C21.5857 6.66493 21.6086 6.66231 21.6313 6.65943C21.896 6.77168 22.3209 6.80242 22.526 6.70575C22.5906 6.83213 22.4905 7.02251 22.3752 7.05875L22.3846 7.08743C22.4481 7.06745 22.5066 7.00858 22.542 6.93682C22.8433 7.00584 23.5201 7.01915 23.8483 6.94835L23.8419 6.91791C23.5203 6.9873 22.8546 6.9747 22.5548 6.90783C22.5679 6.8741 22.5758 6.83844 22.5768 6.80324C23.0268 6.84322 23.5685 6.80993 23.8447 6.68037L23.8319 6.65212C23.5611 6.7791 23.0216 6.81196 22.5759 6.77193C22.5733 6.74394 22.566 6.71672 22.5529 6.69152L22.5629 6.68535C22.5978 6.66279 22.6263 6.63763 22.6488 6.61091C23.2026 6.53288 23.611 6.40672 23.9837 6.2236C24.0644 6.18396 24.2331 6.09065 24.3695 6.01522C24.4603 5.96504 24.5367 5.92279 24.5634 5.90952C24.6119 5.88532 24.6574 5.8648 24.7021 5.8471L24.6907 5.81917C24.6451 5.83721 24.5989 5.85809 24.5495 5.88266C24.5223 5.89622 24.4448 5.93908 24.3531 5.98974L24.3531 5.98975C24.217 6.06503 24.0497 6.15753 23.97 6.19666C23.6068 6.37513 23.2093 6.49908 22.6736 6.57694C22.6985 6.5371 22.7109 6.49491 22.7115 6.45335C23.6427 6.22399 24.4492 5.88185 24.9914 5.44447L24.972 5.42119C24.435 5.85441 23.6345 6.19438 22.7097 6.42276C22.7011 6.35688 22.6619 6.29454 22.594 6.24803C23.086 6.14484 23.4092 6.00327 24.0319 5.66244L24.0726 5.64017C24.2494 5.5434 24.3447 5.49241 24.4548 5.43708L24.4409 5.41027C24.3304 5.46581 24.2348 5.51693 24.0577 5.61386L24.017 5.63613C23.4149 5.9657 23.0949 6.10781 22.63 6.20952ZM22.5933 6.24755C22.6055 6.23685 22.6179 6.22399 22.63 6.20952L22.5859 6.21897L22.5918 6.24653C22.5869 6.24319 22.5817 6.23992 22.5765 6.23675L22.5605 6.26242L22.5686 6.26747C22.304 6.47462 22.0428 6.5971 21.6922 6.65088C21.6752 6.64473 21.6586 6.63827 21.6427 6.6315L21.6306 6.65914L21.6313 6.65943C21.6519 6.6568 21.6722 6.65396 21.6922 6.65088C21.968 6.75028 22.3802 6.76766 22.5461 6.6602C22.7223 6.54608 22.7215 6.36566 22.5686 6.26747L22.585 6.25455L22.5923 6.2484L22.594 6.24803L22.5933 6.24755ZM22.5933 6.24755L22.5918 6.24653L22.5922 6.24841L22.5923 6.2484L22.5933 6.24755ZM22.7097 6.42276L22.6867 6.42839L22.6941 6.45761L22.7115 6.45335C22.7116 6.4431 22.711 6.43289 22.7097 6.42276ZM22.6736 6.57694L22.6329 6.58272L22.6372 6.61253L22.6488 6.61091C22.6581 6.59984 22.6664 6.58849 22.6736 6.57694ZM22.5759 6.77193C22.5769 6.78228 22.5772 6.79274 22.5768 6.80324L22.56 6.8017L22.5628 6.77072L22.5759 6.77193ZM22.5548 6.90783L22.5375 6.90381L22.5304 6.93408L22.542 6.93682C22.5467 6.92736 22.551 6.91768 22.5548 6.90783ZM22.5529 6.69152C22.5444 6.69654 22.5354 6.70128 22.526 6.70575C22.5243 6.70254 22.5226 6.69938 22.5207 6.69627L22.5472 6.68108C22.5492 6.68452 22.5511 6.688 22.5529 6.69152ZM21.5941 6.63358L21.5592 6.63733L21.5621 6.66522C21.5753 6.65547 21.586 6.64492 21.5941 6.63358ZM21.5248 6.41127C21.5853 6.47217 21.6167 6.52818 21.614 6.57804C21.6128 6.59828 21.6062 6.6168 21.5941 6.63358C21.9948 6.5879 22.2765 6.46122 22.5657 6.23115C22.6219 6.18629 22.6857 6.08397 22.7077 5.99461C22.7337 5.88947 22.7038 5.81585 22.6075 5.78851L22.654 5.77382C22.6399 5.76703 22.6242 5.76144 22.6067 5.75712L22.6067 5.75712L22.5993 5.78632L22.6075 5.78851C22.4462 5.8389 22.2826 5.88418 22.1229 5.92196C22.1106 5.91441 22.0972 5.90721 22.0828 5.90039L22.0818 5.90062L22.0888 5.92993L22.1229 5.92196C22.1793 5.95667 22.2126 5.999 22.2235 6.04752C22.2398 6.11958 22.2036 6.19898 22.1372 6.26054C22.0235 6.36591 21.7785 6.42771 21.5248 6.41127ZM21.4897 6.37825L21.4863 6.37792L21.4833 6.40788C21.4971 6.40924 21.511 6.41037 21.5248 6.41127C21.514 6.40041 21.5023 6.38941 21.4897 6.37825ZM21.0841 6.16894C21.2513 6.22974 21.3927 6.29678 21.467 6.35876C21.4749 6.36531 21.4824 6.3718 21.4897 6.37825C21.7486 6.40304 22.0041 6.34248 22.1162 6.23863C22.1755 6.18365 22.2072 6.11412 22.1937 6.05406C22.1767 5.97921 22.0925 5.9184 21.9301 5.88202C21.5818 5.80408 21.059 5.88269 20.7271 6.05889L20.6841 6.048L20.6765 6.05234L20.692 6.07832C20.7034 6.07172 20.7151 6.06524 20.7271 6.05889C20.8273 6.08483 20.928 6.11489 21.0225 6.14724L21.013 6.14884L21.0178 6.17755L21.0217 6.17891C21.0413 6.17559 21.0621 6.17226 21.0841 6.16894ZM21.0841 6.16894C21.3308 6.13155 21.7141 6.09511 21.9126 6.09511V6.064C21.6964 6.064 21.2647 6.10668 21.0225 6.14724C21.0434 6.15437 21.0639 6.16161 21.0841 6.16894ZM21.1163 6.76109C21.0531 6.76315 20.9906 6.76039 20.9193 6.75271C20.8883 6.74679 20.8574 6.74097 20.8264 6.73526L20.831 6.711C20.864 6.71583 20.8947 6.7198 20.924 6.72293C20.9886 6.73527 21.0528 6.74802 21.1163 6.76109ZM20.8278 6.85672L20.8168 6.88454L20.8512 6.89794C20.8454 6.88468 20.8376 6.87092 20.8278 6.85672ZM20.8398 7.01823C20.8334 7.0258 20.8257 7.03293 20.8168 7.0396L20.8071 7.03355L20.8234 7.00809L20.8398 7.01823ZM20.6848 7.0902C20.6757 7.0834 20.6672 7.07686 20.6594 7.07059L20.64 7.09389L20.6435 7.09671C20.6579 7.09487 20.6717 7.0927 20.6848 7.0902ZM20.4252 7.10162C20.4101 7.10074 20.3948 7.09964 20.3792 7.09832L20.3976 7.07795L20.4252 7.10162ZM19.8894 7.29225L19.8811 7.28364L19.8588 7.30427L19.8702 7.31609C19.878 7.30931 19.8844 7.30134 19.8894 7.29225ZM19.4793 7.27624L19.501 7.28515C19.4859 7.27234 19.4719 7.26014 19.459 7.24862L19.4579 7.24981L19.4508 7.24168L19.4421 7.25962L19.4468 7.2618L19.4384 7.27089C19.4626 7.29255 19.4908 7.31655 19.5223 7.34246C19.5104 7.32035 19.496 7.29818 19.4793 7.27624ZM19.4793 7.27624C19.4687 7.27172 19.4579 7.26691 19.4468 7.2618L19.4579 7.24981C19.4654 7.25857 19.4726 7.26739 19.4793 7.27624ZM19.5276 7.63399C19.5215 7.64216 19.5146 7.64984 19.5069 7.65702C19.5022 7.65103 19.4978 7.64511 19.4937 7.63926L19.5188 7.62209L19.5276 7.63399ZM19.0942 7.70808C19.0992 7.72644 19.1033 7.74609 19.1064 7.76747C19.094 7.75337 19.0823 7.73978 19.0713 7.72676L19.0942 7.70808ZM19.0216 8.14977L19.0125 8.138L18.9881 8.15616L18.9969 8.16765C19.0055 8.16233 19.0138 8.15635 19.0216 8.14977ZM18.9485 8.18929L18.9382 8.16782L18.9106 8.18078L18.9178 8.19571C18.9283 8.19437 18.9386 8.19222 18.9485 8.18929ZM19.0909 7.69682C19.0881 7.68756 19.0851 7.67862 19.0817 7.66994L19.0531 7.68054L19.0547 7.68494C19.0669 7.68924 19.079 7.6932 19.0909 7.69682ZM19.7529 6.92924C19.7311 6.92005 19.7092 6.91056 19.6873 6.9008L19.7082 6.88039C19.7234 6.89547 19.7384 6.91186 19.7529 6.92924ZM20.6866 6.71781C20.669 6.70423 20.6503 6.69066 20.6308 6.6771L20.6134 6.67388L20.6086 6.69859L20.6185 6.70548L20.6866 6.71781ZM20.5197 6.04182C20.5302 6.03388 20.5402 6.02568 20.5498 6.01726L20.5124 6.00962L20.5063 6.03914L20.5197 6.04182ZM18.6512 5.73673C18.5229 5.77249 18.4509 5.80865 18.3158 5.89382L18.332 5.92026C18.4648 5.83653 18.5344 5.80154 18.6593 5.76673L18.6512 5.73673ZM19.248 6.35831C19.6004 6.5543 20.0741 6.77458 20.403 6.89166L20.4134 6.86335C20.0863 6.74689 19.6141 6.52731 19.263 6.3321L19.248 6.35831ZM20.5293 6.37531C20.275 6.32388 20.0555 6.29021 19.8341 6.27133L19.8367 6.24133C20.0594 6.26032 20.2801 6.29417 20.5355 6.34582C20.6379 6.36654 20.7437 6.38956 20.8792 6.4203L21.0073 6.44959L21.2328 6.50106L21.2259 6.53041L21.0004 6.47891L20.8723 6.44963C20.737 6.41895 20.6315 6.39597 20.5293 6.37531ZM18.3368 6.47954C18.399 6.66357 18.8395 7.20549 19.0473 7.33392L19.0636 7.30843C18.8617 7.18366 18.4258 6.64735 18.3659 6.47004L18.3368 6.47954ZM18.7236 7.78404C18.6549 7.6195 18.229 6.99615 18.001 6.70239L18.0253 6.68411C18.255 6.98007 18.6819 7.60472 18.7519 7.77261L18.7236 7.78404ZM18.6161 6.43706C18.7583 6.59554 19.224 6.94403 19.4361 7.02804L19.4476 7.00011C19.2402 6.918 18.7783 6.57233 18.6391 6.41714L18.6161 6.43706ZM17.7511 4.74833C17.6654 4.792 17.6029 4.85584 17.5513 4.94474L17.5777 4.96054C17.6264 4.87651 17.6848 4.81693 17.7648 4.77615L17.7511 4.74833ZM16.3279 5.73187C16.3195 5.61855 16.3314 5.47101 16.3628 5.36503L16.3921 5.37345C16.3619 5.4757 16.3502 5.61971 16.3584 5.72967L16.3279 5.73187ZM16.3488 5.91857C16.3237 6.02363 16.3423 6.26809 16.3766 6.40329L16.4063 6.396C16.373 6.26504 16.3549 6.02502 16.3786 5.92546L16.3488 5.91857ZM16.4571 6.72714C16.4429 6.70497 16.4322 6.68409 16.4253 6.66447L16.4541 6.65396C16.4601 6.67106 16.4698 6.68987 16.4828 6.71016C16.4991 6.73557 16.5201 6.76263 16.5454 6.79156C16.5664 6.81546 16.5834 6.83344 16.6161 6.86677L16.5944 6.88871C16.5613 6.85499 16.544 6.83671 16.5226 6.81224C16.4963 6.78224 16.4744 6.75402 16.4571 6.72714ZM16.5762 6.09834C16.5622 6.273 16.66 6.60447 16.7595 6.71686C16.7813 6.90278 16.9128 7.16887 17.0984 7.35227L17.1201 7.33103C16.9392 7.15236 16.8108 6.89238 16.7862 6.70505C16.6888 6.59113 16.5933 6.26766 16.6068 6.10072L16.5762 6.09834ZM16.535 5.90365C16.5191 5.79327 16.5153 5.68259 16.5282 5.61226L16.5583 5.61758C16.5462 5.68411 16.5498 5.79196 16.5653 5.89944L16.535 5.90365ZM16.7982 4.92676C16.7372 5.07762 16.7031 5.39684 16.7213 5.52144C16.7247 5.54531 16.7243 5.55134 16.7135 5.65157C16.694 5.83436 16.7017 5.97298 16.7634 6.15205L16.7924 6.14239C16.7324 5.9681 16.7248 5.83356 16.744 5.65473C16.7552 5.54996 16.7556 5.54489 16.7516 5.5172C16.7342 5.39764 16.7676 5.08372 16.8266 4.93789L16.7982 4.92676ZM17.0118 6.08337C16.9465 5.8684 16.9441 5.35219 17.0116 5.07906L17.0413 5.08617C16.9751 5.35431 16.9774 5.86512 17.0411 6.07475L17.0118 6.08337ZM16.9285 6.16437C16.8916 6.32472 16.8955 6.51036 16.9429 6.65008L16.9719 6.64056C16.9264 6.50637 16.9226 6.32626 16.9583 6.17102L16.9285 6.16437ZM17.4843 5.91835C17.3008 5.71752 17.1897 5.41806 17.1973 5.18426L17.2279 5.18522C17.2205 5.41127 17.3288 5.70317 17.507 5.89822L17.4843 5.91835ZM17.1491 5.93454C17.1279 6.19396 17.1431 6.43223 17.1912 6.56838C17.2037 6.60351 17.2124 6.6462 17.2247 6.72443L17.2366 6.8006C17.2414 6.83061 17.2458 6.85588 17.2505 6.8801C17.2736 6.99821 17.304 7.08513 17.3521 7.15233L17.3772 7.13499C17.3321 7.07203 17.303 6.9887 17.2806 6.87441C17.2759 6.85056 17.2716 6.8256 17.2668 6.7959L17.2549 6.71983C17.2423 6.63981 17.2334 6.59593 17.2202 6.55849C17.1736 6.42706 17.1587 6.19256 17.1796 5.93695L17.1491 5.93454ZM17.3956 6.35752L17.3841 6.31487L17.4137 6.30714L17.4252 6.34997C17.4411 6.41031 17.4505 6.45581 17.4549 6.50124C17.4612 6.56681 17.4552 6.6234 17.4338 6.6718L17.4057 6.65979C17.4248 6.61667 17.4302 6.56498 17.4244 6.50406C17.4203 6.46057 17.4111 6.41644 17.3956 6.35752ZM17.5638 6.11741C17.6147 6.28138 17.6464 6.48198 17.6391 6.56918L17.6696 6.57165C17.6773 6.48008 17.645 6.27592 17.5931 6.10862L17.5638 6.11741ZM17.7792 7.44449C17.7161 7.33584 17.659 7.16227 17.646 7.02219L17.6765 7.01945C17.6891 7.15516 17.7448 7.32458 17.8058 7.42957L17.7792 7.44449ZM17.4189 7.43504C17.4767 7.60579 17.576 7.78208 17.6657 7.85157L17.6846 7.82792C17.6007 7.76295 17.504 7.59117 17.448 7.42553L17.4189 7.43504ZM18.268 7.91288C18.2067 7.73095 18.1665 7.64255 18.0697 7.50736L18.0947 7.49002C18.1936 7.62811 18.2349 7.71892 18.297 7.90341L18.268 7.91288Z" fill="black"/>
<path fill-rule="evenodd" clip-rule="evenodd" d="M16.9489 7.54762C16.9679 7.54962 16.9798 7.55037 17.0127 7.55198C17.0889 7.55571 17.1157 7.56333 17.15 7.59898C17.1727 7.62249 17.1952 7.65801 17.2194 7.70973C17.3042 7.89027 17.5357 8.16628 17.671 8.25226L17.6709 8.25233C17.8501 8.56141 17.9297 8.96938 17.8741 9.18836C17.8581 9.09203 17.8024 9.01789 17.7165 8.95717C17.6832 8.93358 17.6619 8.92157 17.6039 8.8913C17.5273 8.95703 17.4154 9.03268 17.359 9.0445L17.3653 9.07395C17.4291 9.06061 17.5459 8.98156 17.6081 8.91475C17.6363 8.93894 17.6549 8.95159 17.6755 8.96562C17.6828 8.97058 17.6903 8.97573 17.6987 8.98162C17.7787 9.03815 17.8295 9.10599 17.8439 9.19362L17.874 9.18885L17.8719 9.19644L17.9015 9.2043C17.961 8.98827 17.889 8.59109 17.7197 8.27722C17.9284 8.37141 18.0618 8.47755 18.0879 8.62726L18.1169 8.63087L18.1319 8.59791C18.2015 8.44429 18.2279 8.33871 18.2014 8.22969L18.2041 8.23279L18.2285 8.26169L18.2285 8.2617C18.3053 8.35231 18.3618 8.41899 18.4037 8.46939L18.4008 8.46979C18.4049 8.49846 18.4088 8.54213 18.4134 8.60872C18.4142 8.62061 18.4164 8.65504 18.4189 8.69416C18.4224 8.74732 18.4264 8.80915 18.4281 8.8349C18.4391 8.99307 18.4501 9.09843 18.4651 9.16716L18.4951 9.16084C18.4805 9.09402 18.4696 8.98955 18.4587 8.83285C18.4569 8.8072 18.4529 8.74554 18.4495 8.69242C18.447 8.6532 18.4447 8.61864 18.4439 8.60669C18.4411 8.56641 18.4386 8.53442 18.4361 8.50887C18.5015 8.58918 18.5184 8.61723 18.5273 8.64765C18.5299 8.65672 18.5318 8.666 18.5341 8.67694L18.5366 8.68923C18.5622 8.80893 18.6603 8.97309 18.7588 9.07856L18.7813 9.0582C18.6863 8.95639 18.5908 8.79678 18.5666 8.68304L18.5633 8.66727L18.5633 8.66727L18.5633 8.66726C18.5609 8.65541 18.5589 8.64542 18.5561 8.63566C18.5408 8.58325 18.5022 8.53763 18.2559 8.247L18.2276 8.21352C18.2067 8.18884 18.1878 8.16623 18.17 8.14441L18.1442 8.16012C18.205 8.29025 18.1879 8.39839 18.1073 8.57822C18.0619 8.43481 17.9224 8.3334 17.7159 8.24246C17.5966 8.19003 17.3364 7.88704 17.2472 7.69712C17.2217 7.64267 17.1975 7.6045 17.1723 7.57827C17.1311 7.5355 17.0977 7.526 17.0142 7.5219C16.9819 7.52032 16.9704 7.5196 16.9521 7.51768L16.9489 7.54762ZM18.4361 8.50887C18.4345 8.49171 18.4328 8.47746 18.4311 8.46556L18.4037 8.46939C18.4156 8.48382 18.4264 8.49692 18.4361 8.50887ZM17.874 9.18885L17.8742 9.18881L17.8741 9.18836L17.874 9.18885ZM17.7197 8.27722L17.7034 8.26994C17.6934 8.26555 17.6826 8.2596 17.671 8.25226L17.6975 8.23742C17.7051 8.25052 17.7125 8.2638 17.7197 8.27722ZM17.1635 8.00395C17.2171 8.16281 17.2597 8.35354 17.2641 8.46392L17.2947 8.46276C17.2902 8.34909 17.247 8.15577 17.1925 7.99445L17.1635 8.00395ZM17.6275 8.78713C17.6227 8.69802 17.5657 8.46468 17.5089 8.30922L17.5377 8.29904C17.5954 8.45703 17.6531 8.69305 17.6581 8.78554L17.6275 8.78713ZM18.1623 8.73285C18.2067 8.83814 18.2348 9.00436 18.2258 9.10341L18.2563 9.10609C18.2658 9.00206 18.2368 8.83098 18.1906 8.72131L18.1623 8.73285Z" fill="black"/>
</g>
</g>
<rect x="0.25" y="0.25" width="27.5" height="27.5" rx="13.75" stroke="#AEB2B9" stroke-width="0.5"/>
<defs>
<clipPath id="clip0_0_1100">
<rect width="28" height="28" rx="14" fill="white"/>
</clipPath>
</defs>
</svg>
