<svg width="64" height="64" viewBox="0 0 64 64" fill="none" xmlns="http://www.w3.org/2000/svg">
<path fill-rule="evenodd" clip-rule="evenodd" d="M14 8C11.7909 8 10 9.79086 10 12V18H54V12C54 9.79086 52.2091 8 50 8H14ZM14 12C14.5523 12 15 11.5523 15 11C15 10.4477 14.5523 10 14 10C13.4477 10 13 10.4477 13 11C13 11.5523 13.4477 12 14 12ZM18 12C18.5523 12 19 11.5523 19 11C19 10.4477 18.5523 10 18 10C17.4477 10 17 10.4477 17 11C17 11.5523 17.4477 12 18 12ZM23 11C23 11.5523 22.5523 12 22 12C21.4477 12 21 11.5523 21 11C21 10.4477 21.4477 10 22 10C22.5523 10 23 10.4477 23 11Z" fill="url(#paint0_linear_36_314)"/>
<g filter="url(#filter0_b_36_314)">
<mask id="path-2-inside-1_36_314" fill="white">
<path fill-rule="evenodd" clip-rule="evenodd" d="M10 14H54V52C54 54.2091 52.2091 56 50 56H14C11.7909 56 10 54.2091 10 52V14ZM17 23C17 21.8954 17.8954 21 19 21H45C46.1046 21 47 21.8954 47 23V25C47 26.1046 46.1046 27 45 27H19C17.8954 27 17 26.1046 17 25V23ZM19 31C17.8954 31 17 31.8954 17 33C17 34.1046 17.8954 35 19 35H45C46.1046 35 47 34.1046 47 33C47 31.8954 46.1046 31 45 31H19ZM17 41C17 39.8954 17.8954 39 19 39H29C30.1046 39 31 39.8954 31 41C31 42.1046 30.1046 43 29 43H19C17.8954 43 17 42.1046 17 41ZM35 39C33.8954 39 33 39.8954 33 41C33 42.1046 33.8954 43 35 43H45C46.1046 43 47 42.1046 47 41C47 39.8954 46.1046 39 45 39H35Z"/>
</mask>
<path fill-rule="evenodd" clip-rule="evenodd" d="M10 14H54V52C54 54.2091 52.2091 56 50 56H14C11.7909 56 10 54.2091 10 52V14ZM17 23C17 21.8954 17.8954 21 19 21H45C46.1046 21 47 21.8954 47 23V25C47 26.1046 46.1046 27 45 27H19C17.8954 27 17 26.1046 17 25V23ZM19 31C17.8954 31 17 31.8954 17 33C17 34.1046 17.8954 35 19 35H45C46.1046 35 47 34.1046 47 33C47 31.8954 46.1046 31 45 31H19ZM17 41C17 39.8954 17.8954 39 19 39H29C30.1046 39 31 39.8954 31 41C31 42.1046 30.1046 43 29 43H19C17.8954 43 17 42.1046 17 41ZM35 39C33.8954 39 33 39.8954 33 41C33 42.1046 33.8954 43 35 43H45C46.1046 43 47 42.1046 47 41C47 39.8954 46.1046 39 45 39H35Z" fill="#72DC60" fill-opacity="0.35"/>
<path d="M54 14H54.5V13.5H54V14ZM10 14V13.5H9.5V14H10ZM54 13.5H10V14.5H54V13.5ZM54.5 52V14H53.5V52H54.5ZM50 56.5C52.4853 56.5 54.5 54.4853 54.5 52H53.5C53.5 53.933 51.933 55.5 50 55.5V56.5ZM14 56.5H50V55.5H14V56.5ZM9.5 52C9.5 54.4853 11.5147 56.5 14 56.5V55.5C12.067 55.5 10.5 53.933 10.5 52H9.5ZM9.5 14V52H10.5V14H9.5ZM19 20.5C17.6193 20.5 16.5 21.6193 16.5 23H17.5C17.5 22.1716 18.1716 21.5 19 21.5V20.5ZM45 20.5H19V21.5H45V20.5ZM47.5 23C47.5 21.6193 46.3807 20.5 45 20.5V21.5C45.8284 21.5 46.5 22.1716 46.5 23H47.5ZM47.5 25V23H46.5V25H47.5ZM45 27.5C46.3807 27.5 47.5 26.3807 47.5 25H46.5C46.5 25.8284 45.8284 26.5 45 26.5V27.5ZM19 27.5H45V26.5H19V27.5ZM16.5 25C16.5 26.3807 17.6193 27.5 19 27.5V26.5C18.1716 26.5 17.5 25.8284 17.5 25H16.5ZM16.5 23V25H17.5V23H16.5ZM17.5 33C17.5 32.1716 18.1716 31.5 19 31.5V30.5C17.6193 30.5 16.5 31.6193 16.5 33H17.5ZM19 34.5C18.1716 34.5 17.5 33.8284 17.5 33H16.5C16.5 34.3807 17.6193 35.5 19 35.5V34.5ZM45 34.5H19V35.5H45V34.5ZM46.5 33C46.5 33.8284 45.8284 34.5 45 34.5V35.5C46.3807 35.5 47.5 34.3807 47.5 33H46.5ZM45 31.5C45.8284 31.5 46.5 32.1716 46.5 33H47.5C47.5 31.6193 46.3807 30.5 45 30.5V31.5ZM19 31.5H45V30.5H19V31.5ZM19 38.5C17.6193 38.5 16.5 39.6193 16.5 41H17.5C17.5 40.1716 18.1716 39.5 19 39.5V38.5ZM29 38.5H19V39.5H29V38.5ZM31.5 41C31.5 39.6193 30.3807 38.5 29 38.5V39.5C29.8284 39.5 30.5 40.1716 30.5 41H31.5ZM29 43.5C30.3807 43.5 31.5 42.3807 31.5 41H30.5C30.5 41.8284 29.8284 42.5 29 42.5V43.5ZM19 43.5H29V42.5H19V43.5ZM16.5 41C16.5 42.3807 17.6193 43.5 19 43.5V42.5C18.1716 42.5 17.5 41.8284 17.5 41H16.5ZM33.5 41C33.5 40.1716 34.1716 39.5 35 39.5V38.5C33.6193 38.5 32.5 39.6193 32.5 41H33.5ZM35 42.5C34.1716 42.5 33.5 41.8284 33.5 41H32.5C32.5 42.3807 33.6193 43.5 35 43.5V42.5ZM45 42.5H35V43.5H45V42.5ZM46.5 41C46.5 41.8284 45.8284 42.5 45 42.5V43.5C46.3807 43.5 47.5 42.3807 47.5 41H46.5ZM45 39.5C45.8284 39.5 46.5 40.1716 46.5 41H47.5C47.5 39.6193 46.3807 38.5 45 38.5V39.5ZM35 39.5H45V38.5H35V39.5Z" fill="url(#paint1_linear_36_314)" mask="url(#path-2-inside-1_36_314)"/>
</g>
<rect x="17" y="47" width="30" height="4" rx="2" fill="url(#paint2_linear_36_314)"/>
<defs>
<filter id="filter0_b_36_314" x="6" y="10" width="52" height="50" filterUnits="userSpaceOnUse" color-interpolation-filters="sRGB">
<feFlood flood-opacity="0" result="BackgroundImageFix"/>
<feGaussianBlur in="BackgroundImageFix" stdDeviation="2"/>
<feComposite in2="SourceAlpha" operator="in" result="effect1_backgroundBlur_36_314"/>
<feBlend mode="normal" in="SourceGraphic" in2="effect1_backgroundBlur_36_314" result="shape"/>
</filter>
<linearGradient id="paint0_linear_36_314" x1="54" y1="8" x2="51.3269" y2="21.7557" gradientUnits="userSpaceOnUse">
<stop stop-color="#6EE396"/>
<stop offset="1" stop-color="#2CA656"/>
</linearGradient>
<linearGradient id="paint1_linear_36_314" x1="17.0041" y1="18.8931" x2="43.507" y2="53.2807" gradientUnits="userSpaceOnUse">
<stop stop-color="white" stop-opacity="0.25"/>
<stop offset="1" stop-color="white" stop-opacity="0"/>
</linearGradient>
<linearGradient id="paint2_linear_36_314" x1="47" y1="47" x2="46.3574" y2="52.6368" gradientUnits="userSpaceOnUse">
<stop stop-color="#6EE396"/>
<stop offset="1" stop-color="#2CA656"/>
</linearGradient>
</defs>
</svg>
