<svg width="64" height="64" viewBox="0 0 64 64" fill="none" xmlns="http://www.w3.org/2000/svg">
<circle cx="47" cy="19" r="12" fill="url(#paint0_linear_5266_48224)"/>
<circle cx="16" cy="48" r="8" fill="url(#paint1_linear_5266_48224)"/>
<g filter="url(#filter0_b_5266_48224)">
<mask id="path-3-inside-1_5266_48224" fill="white">
<path fill-rule="evenodd" clip-rule="evenodd" d="M37.2111 8.09734C35.8858 2.63422 28.1142 2.63422 26.7889 8.09734C25.9302 11.6284 21.8982 13.3022 18.7871 11.4107C13.9836 8.48623 8.48934 13.9836 11.4138 18.784C11.8534 19.505 12.1165 20.3196 12.1818 21.1616C12.2471 22.0035 12.1127 22.8489 11.7894 23.6291C11.4662 24.4092 10.9634 25.1021 10.3218 25.6511C9.6802 26.2002 8.91805 26.59 8.09734 26.7889C2.63422 28.1142 2.63422 35.8858 8.09734 37.2111C8.91731 37.4105 9.67867 37.8006 10.3195 38.3496C10.9604 38.8987 11.4626 39.5912 11.7855 40.3708C12.1083 41.1505 12.2426 41.9954 12.1775 42.8367C12.1124 43.6781 11.8497 44.4922 11.4107 45.2129C8.48623 50.0165 13.9836 55.5107 18.784 52.5863C19.505 52.1466 20.3196 51.8835 21.1616 51.8182C22.0035 51.7529 22.8489 51.8874 23.6291 52.2106C24.4092 52.5338 25.1021 53.0367 25.6511 53.6783C26.2002 54.3198 26.59 55.082 26.7889 55.9027C28.1142 61.3658 35.8858 61.3658 37.2111 55.9027C37.4105 55.0827 37.8006 54.3214 38.3496 53.6805C38.8987 53.0397 39.5912 52.5374 40.3708 52.2146C41.1505 51.8917 41.9954 51.7574 42.8367 51.8225C43.6781 51.8876 44.4922 52.1504 45.2129 52.5894C50.0165 55.5138 55.5107 50.0165 52.5863 45.216C52.1466 44.495 51.8835 43.6804 51.8182 42.8385C51.7529 41.9965 51.8874 41.1511 52.2106 40.3709C52.5338 39.5908 53.0367 38.898 53.6783 38.3489C54.3198 37.7998 55.082 37.41 55.9027 37.2111C61.3658 35.8858 61.3658 28.1142 55.9027 26.7889C55.0827 26.5895 54.3214 26.1994 53.6805 25.6504C53.0397 25.1014 52.5374 24.4089 52.2146 23.6292C51.8917 22.8495 51.7574 22.0047 51.8225 21.1633C51.8876 20.3219 52.1504 19.5078 52.5894 18.7871C55.5138 13.9836 50.0165 8.48934 45.216 11.4138C44.495 11.8534 43.6804 12.1165 42.8385 12.1818C41.9965 12.2471 41.1511 12.1127 40.3709 11.7894C39.5908 11.4662 38.898 10.9634 38.3489 10.3218C37.7998 9.6802 37.41 8.91805 37.2111 8.09734ZM32 40C36.4183 40 40 36.4183 40 32C40 27.5817 36.4183 24 32 24C27.5817 24 24 27.5817 24 32C24 36.4183 27.5817 40 32 40Z"/>
</mask>
<path fill-rule="evenodd" clip-rule="evenodd" d="M37.2111 8.09734C35.8858 2.63422 28.1142 2.63422 26.7889 8.09734C25.9302 11.6284 21.8982 13.3022 18.7871 11.4107C13.9836 8.48623 8.48934 13.9836 11.4138 18.784C11.8534 19.505 12.1165 20.3196 12.1818 21.1616C12.2471 22.0035 12.1127 22.8489 11.7894 23.6291C11.4662 24.4092 10.9634 25.1021 10.3218 25.6511C9.6802 26.2002 8.91805 26.59 8.09734 26.7889C2.63422 28.1142 2.63422 35.8858 8.09734 37.2111C8.91731 37.4105 9.67867 37.8006 10.3195 38.3496C10.9604 38.8987 11.4626 39.5912 11.7855 40.3708C12.1083 41.1505 12.2426 41.9954 12.1775 42.8367C12.1124 43.6781 11.8497 44.4922 11.4107 45.2129C8.48623 50.0165 13.9836 55.5107 18.784 52.5863C19.505 52.1466 20.3196 51.8835 21.1616 51.8182C22.0035 51.7529 22.8489 51.8874 23.6291 52.2106C24.4092 52.5338 25.1021 53.0367 25.6511 53.6783C26.2002 54.3198 26.59 55.082 26.7889 55.9027C28.1142 61.3658 35.8858 61.3658 37.2111 55.9027C37.4105 55.0827 37.8006 54.3214 38.3496 53.6805C38.8987 53.0397 39.5912 52.5374 40.3708 52.2146C41.1505 51.8917 41.9954 51.7574 42.8367 51.8225C43.6781 51.8876 44.4922 52.1504 45.2129 52.5894C50.0165 55.5138 55.5107 50.0165 52.5863 45.216C52.1466 44.495 51.8835 43.6804 51.8182 42.8385C51.7529 41.9965 51.8874 41.1511 52.2106 40.3709C52.5338 39.5908 53.0367 38.898 53.6783 38.3489C54.3198 37.7998 55.082 37.41 55.9027 37.2111C61.3658 35.8858 61.3658 28.1142 55.9027 26.7889C55.0827 26.5895 54.3214 26.1994 53.6805 25.6504C53.0397 25.1014 52.5374 24.4089 52.2146 23.6292C51.8917 22.8495 51.7574 22.0047 51.8225 21.1633C51.8876 20.3219 52.1504 19.5078 52.5894 18.7871C55.5138 13.9836 50.0165 8.48934 45.216 11.4138C44.495 11.8534 43.6804 12.1165 42.8385 12.1818C41.9965 12.2471 41.1511 12.1127 40.3709 11.7894C39.5908 11.4662 38.898 10.9634 38.3489 10.3218C37.7998 9.6802 37.41 8.91805 37.2111 8.09734ZM32 40C36.4183 40 40 36.4183 40 32C40 27.5817 36.4183 24 32 24C27.5817 24 24 27.5817 24 32C24 36.4183 27.5817 40 32 40Z" fill="#72DC60" fill-opacity="0.35"/>
<path d="M26.7889 8.09734L27.2747 8.21548L27.2748 8.21522L26.7889 8.09734ZM37.2111 8.09734L37.6971 7.97959L37.697 7.97946L37.2111 8.09734ZM18.7871 11.4107L18.5271 11.8377L18.5274 11.8379L18.7871 11.4107ZM11.4138 18.784L10.9868 19.0441L10.9869 19.0443L11.4138 18.784ZM12.1818 21.1616L12.6803 21.1229L12.1818 21.1616ZM11.7894 23.6291L12.2514 23.8205V23.8205L11.7894 23.6291ZM10.3218 25.6511L9.99667 25.2713H9.99667L10.3218 25.6511ZM8.09734 26.7889L7.97959 26.303L7.97946 26.303L8.09734 26.7889ZM8.09734 37.2111L8.21549 36.7253L8.21522 36.7252L8.09734 37.2111ZM10.3195 38.3496L10.6448 37.9699H10.6448L10.3195 38.3496ZM11.7855 40.3708L12.2474 40.1796L11.7855 40.3708ZM11.4107 45.2129L10.9836 44.9528L10.9836 44.9529L11.4107 45.2129ZM18.784 52.5863L19.0441 53.0133L19.0443 53.0132L18.784 52.5863ZM21.1616 51.8182L21.1229 51.3197L21.1616 51.8182ZM25.6511 53.6783L26.031 53.3531L25.6511 53.6783ZM26.7889 55.9027L26.303 56.0204L26.303 56.0206L26.7889 55.9027ZM37.2111 55.9027L36.7253 55.7846L36.7252 55.7848L37.2111 55.9027ZM38.3496 53.6805L37.9699 53.3552V53.3552L38.3496 53.6805ZM42.8367 51.8225L42.8753 51.324H42.8753L42.8367 51.8225ZM45.2129 52.5894L44.9528 53.0164L44.9529 53.0164L45.2129 52.5894ZM52.5863 45.216L53.0133 44.9559L53.0132 44.9557L52.5863 45.216ZM51.8182 42.8385L51.3197 42.8771L51.8182 42.8385ZM53.6783 38.3489L54.0034 38.7288L53.6783 38.3489ZM55.9027 37.2111L56.0204 37.6971L56.0206 37.697L55.9027 37.2111ZM55.9027 26.7889L55.7846 27.2747L55.7848 27.2748L55.9027 26.7889ZM53.6805 25.6504L53.3552 26.0301H53.3552L53.6805 25.6504ZM52.2146 23.6292L51.7526 23.8205V23.8205L52.2146 23.6292ZM51.8225 21.1633L51.324 21.1247V21.1247L51.8225 21.1633ZM52.5894 18.7871L53.0164 19.0472L53.0164 19.0471L52.5894 18.7871ZM45.216 11.4138L44.9559 10.9868L44.9557 10.9869L45.216 11.4138ZM42.8385 12.1818L42.8771 12.6803L42.8385 12.1818ZM40.3709 11.7894L40.1796 12.2514L40.3709 11.7894ZM38.3489 10.3218L38.7288 9.99667V9.99667L38.3489 10.3218ZM27.2748 8.21522C28.4765 3.26159 35.5235 3.2616 36.7252 8.21522L37.697 7.97946C36.2481 2.00685 27.7519 2.00685 26.303 7.97946L27.2748 8.21522ZM18.5274 11.8379C21.9275 13.9052 26.3361 12.0755 27.2747 8.21548L26.3031 7.97919C25.5244 11.1814 21.869 12.6993 19.0469 10.9834L18.5274 11.8379ZM11.8408 18.5239C9.18902 14.171 14.1711 9.18579 18.5271 11.8377L19.0471 10.9836C13.796 7.78666 7.78965 13.7961 10.9868 19.0441L11.8408 18.5239ZM12.6803 21.1229C12.609 20.2025 12.3213 19.3119 11.8407 18.5237L10.9869 19.0443C11.3855 19.6981 11.6241 20.4368 11.6833 21.2002L12.6803 21.1229ZM12.2514 23.8205C12.6047 22.9676 12.7517 22.0433 12.6803 21.1229L11.6833 21.2002C11.7425 21.9637 11.6206 22.7303 11.3275 23.4377L12.2514 23.8205ZM10.6469 26.031C11.3483 25.4307 11.898 24.6733 12.2514 23.8205L11.3275 23.4377C11.0344 24.1451 10.5784 24.7734 9.99667 25.2713L10.6469 26.031ZM8.21508 27.2748C9.11229 27.0574 9.9455 26.6313 10.6469 26.031L9.99667 25.2713C9.41491 25.7692 8.7238 26.1226 7.97959 26.303L8.21508 27.2748ZM8.21522 36.7252C3.2616 35.5235 3.26159 28.4765 8.21522 27.2748L7.97946 26.303C2.00685 27.7519 2.00685 36.2481 7.97946 37.697L8.21522 36.7252ZM10.6448 37.9699C9.94423 37.3697 9.1119 36.9433 8.21549 36.7253L7.97919 37.697C8.72273 37.8778 9.41311 38.2315 9.99422 38.7293L10.6448 37.9699ZM12.2474 40.1796C11.8945 39.3272 11.3454 38.5701 10.6448 37.9699L9.99421 38.7293C10.5753 39.2272 11.0308 39.8551 11.3235 40.5621L12.2474 40.1796ZM12.676 42.8753C12.7472 41.9555 12.6004 41.0319 12.2474 40.1796L11.3235 40.5621C11.6163 41.2691 11.7381 42.0352 11.679 42.7981L12.676 42.8753ZM11.8377 45.473C12.3176 44.6851 12.6048 43.7951 12.676 42.8753L11.679 42.7981C11.6199 43.5611 11.3817 44.2993 10.9836 44.9528L11.8377 45.473ZM18.5239 52.1593C14.171 54.811 9.18579 49.8289 11.8377 45.4729L10.9836 44.9529C7.78666 50.204 13.7961 56.2104 19.0441 53.0133L18.5239 52.1593ZM21.1229 51.3197C20.2025 51.3911 19.3119 51.6788 18.5237 52.1593L19.0443 53.0132C19.6981 52.6145 20.4368 52.3759 21.2002 52.3167L21.1229 51.3197ZM23.8205 51.7487C22.9676 51.3953 22.0433 51.2483 21.1229 51.3197L21.2002 52.3167C21.9637 52.2575 22.7303 52.3794 23.4377 52.6725L23.8205 51.7487ZM26.031 53.3531C25.4307 52.6518 24.6733 52.102 23.8205 51.7487L23.4377 52.6725C24.1451 52.9656 24.7734 53.4216 25.2713 54.0034L26.031 53.3531ZM27.2748 55.785C27.0574 54.8877 26.6313 54.0545 26.031 53.3531L25.2713 54.0034C25.7692 54.5851 26.1226 55.2762 26.303 56.0204L27.2748 55.785ZM36.7252 55.7848C35.5235 60.7384 28.4765 60.7384 27.2748 55.7848L26.303 56.0206C27.7519 61.9932 36.2481 61.9932 37.697 56.0206L36.7252 55.7848ZM37.9699 53.3552C37.3697 54.0558 36.9433 54.8881 36.7253 55.7846L37.697 56.0209C37.8778 55.2773 38.2315 54.5869 38.7293 54.0058L37.9699 53.3552ZM40.1796 51.7526C39.3272 52.1055 38.5701 52.6546 37.9699 53.3552L38.7293 54.0058C39.2272 53.4247 39.8551 52.9693 40.5621 52.6765L40.1796 51.7526ZM42.8753 51.324C41.9555 51.2528 41.0319 51.3997 40.1796 51.7526L40.5621 52.6765C41.2691 52.3838 42.0352 52.262 42.7981 52.321L42.8753 51.324ZM45.473 52.1623C44.6851 51.6824 43.7951 51.3952 42.8753 51.324L42.7981 52.321C43.5611 52.3801 44.2993 52.6183 44.9528 53.0164L45.473 52.1623ZM52.1593 45.4762C54.811 49.829 49.8289 54.8142 45.4729 52.1623L44.9529 53.0164C50.204 56.2134 56.2104 50.204 53.0133 44.9559L52.1593 45.4762ZM51.3197 42.8771C51.3911 43.7975 51.6788 44.6881 52.1593 45.4763L53.0132 44.9557C52.6145 44.3019 52.3759 43.5633 52.3167 42.7998L51.3197 42.8771ZM51.7487 40.1796C51.3953 41.0324 51.2483 41.9567 51.3197 42.8771L52.3167 42.7998C52.2575 42.0364 52.3794 41.2697 52.6725 40.5623L51.7487 40.1796ZM53.3531 37.969C52.6518 38.5693 52.102 39.3267 51.7487 40.1796L52.6725 40.5623C52.9656 39.8549 53.4216 39.2267 54.0034 38.7288L53.3531 37.969ZM55.785 36.7252C54.8877 36.9426 54.0545 37.3688 53.3531 37.969L54.0034 38.7288C54.5851 38.2309 55.2762 37.8774 56.0204 37.6971L55.785 36.7252ZM55.7848 27.2748C60.7384 28.4765 60.7384 35.5235 55.7848 36.7252L56.0206 37.697C61.9932 36.2481 61.9932 27.7519 56.0206 26.303L55.7848 27.2748ZM53.3552 26.0301C54.0558 26.6303 54.8881 27.0568 55.7846 27.2747L56.0209 26.3031C55.2773 26.1222 54.5869 25.7685 54.0058 25.2707L53.3552 26.0301ZM51.7526 23.8205C52.1055 24.6728 52.6546 25.4299 53.3552 26.0301L54.0058 25.2707C53.4247 24.7728 52.9693 24.1449 52.6765 23.4379L51.7526 23.8205ZM51.324 21.1247C51.2528 22.0445 51.3997 22.9681 51.7526 23.8205L52.6765 23.4379C52.3838 22.7309 52.262 21.9648 52.321 21.2019L51.324 21.1247ZM52.1623 18.527C51.6824 19.3149 51.3952 20.2049 51.324 21.1247L52.321 21.2019C52.3801 20.439 52.6183 19.7007 53.0164 19.0472L52.1623 18.527ZM45.4762 11.8408C49.829 9.18902 54.8142 14.1711 52.1623 18.5271L53.0164 19.0471C56.2134 13.796 50.2039 7.78965 44.9559 10.9868L45.4762 11.8408ZM42.8771 12.6803C43.7975 12.609 44.6881 12.3213 45.4763 11.8407L44.9557 10.9869C44.3019 11.3855 43.5633 11.6241 42.7998 11.6833L42.8771 12.6803ZM40.1796 12.2514C41.0324 12.6047 41.9567 12.7517 42.8771 12.6803L42.7998 11.6833C42.0364 11.7425 41.2697 11.6206 40.5623 11.3275L40.1796 12.2514ZM37.969 10.6469C38.5693 11.3483 39.3267 11.898 40.1796 12.2514L40.5623 11.3275C39.8549 11.0344 39.2267 10.5784 38.7288 9.99667L37.969 10.6469ZM36.7252 8.21508C36.9426 9.11229 37.3688 9.9455 37.969 10.6469L38.7288 9.99667C38.2309 9.41491 37.8774 8.7238 37.6971 7.97959L36.7252 8.21508ZM39.5 32C39.5 36.1421 36.1421 39.5 32 39.5V40.5C36.6944 40.5 40.5 36.6944 40.5 32H39.5ZM32 24.5C36.1421 24.5 39.5 27.8579 39.5 32H40.5C40.5 27.3056 36.6944 23.5 32 23.5V24.5ZM24.5 32C24.5 27.8579 27.8579 24.5 32 24.5V23.5C27.3056 23.5 23.5 27.3056 23.5 32H24.5ZM32 39.5C27.8579 39.5 24.5 36.1421 24.5 32H23.5C23.5 36.6944 27.3056 40.5 32 40.5V39.5Z" fill="url(#paint2_linear_5266_48224)" mask="url(#path-3-inside-1_5266_48224)"/>
</g>
<defs>
<filter id="filter0_b_5266_48224" x="0" y="0" width="64" height="64" filterUnits="userSpaceOnUse" color-interpolation-filters="sRGB">
<feFlood flood-opacity="0" result="BackgroundImageFix"/>
<feGaussianBlur in="BackgroundImage" stdDeviation="2"/>
<feComposite in2="SourceAlpha" operator="in" result="effect1_backgroundBlur_5266_48224"/>
<feBlend mode="normal" in="SourceGraphic" in2="effect1_backgroundBlur_5266_48224" result="shape"/>
</filter>
<linearGradient id="paint0_linear_5266_48224" x1="59" y1="7" x2="42.0778" y2="26.7914" gradientUnits="userSpaceOnUse">
<stop stop-color="#6EE396"/>
<stop offset="1" stop-color="#2CA656"/>
</linearGradient>
<linearGradient id="paint1_linear_5266_48224" x1="24" y1="40" x2="12.7185" y2="53.1942" gradientUnits="userSpaceOnUse">
<stop stop-color="#6EE396"/>
<stop offset="1" stop-color="#2CA656"/>
</linearGradient>
<linearGradient id="paint2_linear_5266_48224" x1="12.9143" y1="10.5241" x2="48.6364" y2="54.7667" gradientUnits="userSpaceOnUse">
<stop stop-color="white" stop-opacity="0.25"/>
<stop offset="1" stop-color="white" stop-opacity="0"/>
</linearGradient>
</defs>
</svg>
