<svg width="78" height="32" viewBox="0 0 78 32" fill="none" xmlns="http://www.w3.org/2000/svg">
<path d="M14.2977 4.11738C13.3599 5.2009 11.917 6.06772 10.4742 5.92325C10.2577 4.47856 10.9792 2.88939 11.8449 1.95034C12.7827 0.866818 14.3699 0.0722348 15.6685 0C15.8127 1.51693 15.2356 2.96163 14.2977 4.11738ZM15.5963 6.21219C13.5042 6.06772 11.7006 7.44018 10.6906 7.44018C9.68059 7.44018 8.16559 6.28442 6.43415 6.35666C4.26987 6.35666 2.24986 7.65688 1.09557 9.60722C-1.213 13.5079 0.518427 19.3589 2.68272 22.5372C3.76486 24.1264 5.06344 25.86 6.79487 25.7878C8.38202 25.7156 9.0313 24.7043 10.9792 24.7043C12.927 24.7043 13.5042 25.7878 15.2356 25.7156C16.967 25.7156 18.1213 24.1264 19.2035 22.5372C20.4299 20.7314 20.9349 18.9977 20.9349 18.9255C20.9349 18.9255 17.5442 17.6253 17.472 13.7246C17.472 10.474 20.1413 8.88488 20.2856 8.81264C18.8427 6.50113 16.462 6.28442 15.5963 6.21219ZM27.8606 1.80587V25.5711H31.5399V17.4086H36.6621C41.3514 17.4086 44.5978 14.2302 44.5978 9.60722C44.5978 4.9842 41.3514 1.80587 36.7342 1.80587H27.8606ZM31.5399 4.91196H35.7964C38.9706 4.91196 40.8464 6.6456 40.8464 9.60722C40.8464 12.5688 39.0428 14.3025 35.7964 14.3025H31.5399V4.91196ZM51.3071 25.7156C53.6157 25.7156 55.78 24.5598 56.7178 22.6817H56.79V25.4989H60.1807V13.7246C60.1807 10.3296 57.4392 8.09029 53.255 8.09029C49.3592 8.09029 46.4735 10.3296 46.3292 13.4357H49.6478C49.9364 11.991 51.3071 10.9797 53.1107 10.9797C55.3471 10.9797 56.6457 12.0632 56.6457 13.9413V15.2415L52.0285 15.5305C47.7721 15.8194 45.4635 17.553 45.4635 20.5869C45.4635 23.693 47.8442 25.7156 51.3071 25.7156ZM52.2449 22.8984C50.2971 22.8984 49.0707 21.9594 49.0707 20.5147C49.0707 18.9977 50.2971 18.1309 52.6057 17.9865L56.7178 17.6975V19.07C56.6457 21.3093 54.77 22.8984 52.2449 22.8984ZM64.7257 32C68.3328 32 69.9921 30.6275 71.5071 26.4379L78 8.307H74.2486L69.92 22.3205H69.8478L65.5193 8.307H61.6957L67.9 25.5711L67.5393 26.6546C66.9621 28.4605 66.0964 29.1106 64.4371 29.1106C64.1485 29.1106 63.5714 29.1106 63.355 29.0384V31.8555C63.5714 31.9278 64.4371 32 64.7257 32Z" fill="black"/>
</svg>
