<svg width="82" height="32" viewBox="0 0 82 32" fill="none" xmlns="http://www.w3.org/2000/svg">
<path d="M38.7485 15.6166V25.0284H35.7507V1.81273H43.6984C45.5807 1.74301 47.4631 2.5099 48.7877 3.83451C50.182 5.08942 50.9489 6.83234 50.9489 8.71469C51.0186 10.597 50.182 12.4097 48.7877 13.6646C47.3934 14.9892 45.7202 15.6166 43.6984 15.6166H38.7485ZM38.7485 4.67112V12.7583H43.7681C44.8836 12.7583 45.9293 12.34 46.6962 11.5731C48.23 10.0393 48.2997 7.5295 46.7659 5.99573L46.6962 5.92602C45.9293 5.08942 44.8836 4.67112 43.7681 4.67112H38.7485Z" fill="#5F6368"/>
<path d="M57.7818 8.64502C60.0128 8.64502 61.686 9.20275 63.0106 10.3879C64.2655 11.5731 64.8929 13.1766 64.8929 15.1984V24.9587H62.0346V22.7278H61.8951C60.6402 24.5404 59.0367 25.4468 56.9452 25.4468C55.2023 25.4468 53.7383 24.9587 52.5531 23.913C51.4376 22.937 50.7404 21.5426 50.8101 20.0089C50.8101 18.3357 51.4376 17.0808 52.6925 16.1047C53.9474 15.1287 55.6206 14.6407 57.6424 14.6407C59.3853 14.6407 60.8494 14.9892 62.0346 15.6167V14.9195C62.0346 13.8738 61.6162 12.9675 60.7796 12.2703C60.0128 11.5731 58.967 11.1548 57.9213 11.1548C56.2481 11.1548 54.9234 11.852 53.9474 13.2463L51.2982 11.5731C52.8319 9.62106 54.9234 8.64502 57.7818 8.64502ZM53.9474 20.1483C53.9474 20.9152 54.296 21.6123 54.9234 22.1004C55.5509 22.5884 56.3875 22.8672 57.2241 22.8672C58.479 22.8672 59.6642 22.3792 60.5705 21.4729C61.5465 20.5666 62.0346 19.4511 62.0346 18.1962C61.1282 17.4293 59.8036 17.0807 58.1304 17.0807C56.9452 17.0807 55.8995 17.3596 55.1326 17.9871C54.3657 18.5448 53.9474 19.242 53.9474 20.1483Z" fill="#5F6368"/>
<path d="M81.2066 9.13281L71.2371 31.9999H68.1696L71.8646 23.9825L65.3112 9.13281H68.5182L73.2589 20.4966H73.3286L77.93 9.13281H81.2066Z" fill="#5F6368"/>
<path d="M26.7588 13.5947C26.7588 12.6884 26.6891 11.7821 26.5497 10.8757H14.0007V16.0348H21.1815C20.9026 17.708 19.9266 19.172 18.5323 20.0783V23.4248H22.8547C25.2948 21.0544 26.7588 17.6383 26.7588 13.5947Z" fill="#4285F4"/>
<path d="M13.9306 26.562C17.5559 26.562 20.5537 25.3768 22.7847 23.355L18.4622 20.0086C17.2771 20.8452 15.7433 21.2635 13.9306 21.2635C10.4448 21.2635 7.5167 18.8931 6.47095 15.7559H2.0788V19.172C4.30973 23.7733 8.91104 26.562 13.9306 26.562Z" fill="#34A853"/>
<path d="M6.47061 15.8258C5.91287 14.1526 5.91287 12.4096 6.47061 10.7364V7.32031H2.07845C0.196099 11.085 0.196099 15.4772 2.07845 19.2419L6.47061 15.8258Z" fill="#FBBC04"/>
<path d="M13.9295 5.22876C15.8118 5.22876 17.6942 5.92592 19.0188 7.25054L22.7835 3.48584C20.3434 1.2549 17.2061 0 13.8597 0C8.84013 0 4.23883 2.85839 1.93817 7.32026L6.33033 10.7364C7.51552 7.59913 10.5133 5.22876 13.9295 5.22876Z" fill="#EA4335"/>
</svg>
