<svg width="99" height="32" viewBox="0 0 99 32" fill="none" xmlns="http://www.w3.org/2000/svg">
<g clip-path="url(#clip0_8591_71983)">
<path d="M29.0865 7.73089H26.5508V5.77637H29.0865V7.73089ZM29.0865 20.2097H26.5508V10.1364H29.0865V20.2097Z" fill="#151920"/>
<path d="M32.8351 10.1366L32.9455 11.5424C33.1935 11.0757 33.5458 10.6737 33.9747 10.3681C34.3749 10.0915 34.8498 9.94557 35.335 9.95018C35.722 9.93641 36.1062 10.0209 36.4523 10.1959C36.7984 10.3708 37.0954 10.6307 37.3159 10.9515C37.7952 11.611 38.0348 12.6559 38.0348 14.0862V20.2099H35.4991V14.1178C35.4991 13.3651 35.4111 12.8323 35.2351 12.5196C35.1596 12.3732 35.0444 12.2515 34.9028 12.1687C34.7612 12.0859 34.5992 12.0454 34.4356 12.052C34.1701 12.0484 33.9088 12.1192 33.6809 12.2565C33.4493 12.4002 33.2546 12.597 33.1126 12.8308V20.1979H30.4277V10.1366H32.8351Z" fill="#151920"/>
<path d="M42.3605 7.73096V10.2869H43.703V12.091H42.3605V17.1878C42.3605 17.6148 42.4207 17.9155 42.541 18.0899C42.5928 18.1743 42.6657 18.2436 42.7523 18.2908C42.8389 18.338 42.9363 18.3615 43.0347 18.359C43.1347 18.3611 43.2347 18.3531 43.333 18.335C43.4304 18.3143 43.5265 18.2882 43.6209 18.2568L43.8193 20.1828C43.5952 20.2653 43.3647 20.3291 43.1302 20.3737C42.8838 20.4158 42.6343 20.4359 42.3844 20.4338C41.5571 20.4338 40.9231 20.1742 40.4826 19.655C40.0421 19.1358 39.8229 18.3184 39.8248 17.2029V12.091H38.4824V10.2869H39.8248V7.73096H42.3605Z" fill="#151920"/>
<path d="M48.4355 20.4577C47.1239 20.4577 46.1071 20.0006 45.3852 19.0865C44.6632 18.1724 44.3018 16.9962 44.3008 15.5579V15.179C44.3008 13.6655 44.6488 12.4331 45.3449 11.4819C46.041 10.5307 47.0194 10.0556 48.2803 10.0566C49.4497 10.0566 50.3472 10.4611 50.9726 11.2699C51.5981 12.0788 51.9099 13.1779 51.9079 14.5671V15.9999H46.8917C46.9349 16.7396 47.102 17.3305 47.3928 17.768C47.6837 18.2055 48.1312 18.4265 48.7353 18.4265C49.1722 18.4379 49.6081 18.3769 50.0255 18.2461C50.4187 18.1008 50.7937 17.9096 51.1427 17.6763L51.8154 19.3075C51.3938 19.6738 50.9054 19.9536 50.3775 20.1314C49.7543 20.3549 49.0968 20.4653 48.4355 20.4577ZM48.2788 12.0217C48.0792 12.0146 47.8818 12.0654 47.71 12.168C47.5381 12.2705 47.3991 12.4207 47.3093 12.6005C47.0935 12.9874 46.9603 13.5191 46.9096 14.1957H49.3722V13.9642C49.3722 13.3523 49.2871 12.8772 49.1201 12.5374C49.048 12.3758 48.929 12.24 48.7789 12.148C48.6287 12.0559 48.4543 12.0119 48.2788 12.0217V12.0217Z" fill="#151920"/>
<path d="M57.3506 12.4023L56.484 12.3738C56.228 12.3652 55.9771 12.4477 55.7755 12.6068C55.5738 12.7797 55.4227 13.0048 55.3384 13.2578V20.2099H52.8027V10.1366H55.1758L55.2758 11.5604C55.4231 11.1155 55.6683 10.7099 55.9932 10.3742C56.1635 10.2027 56.3737 10.0771 56.6046 10.0088C56.8354 9.94054 57.0796 9.93175 57.3148 9.98325C57.4102 10.0043 57.5102 10.0314 57.6131 10.0614L57.3506 12.4023Z" fill="#151920"/>
<path d="M62.0705 16H61.6021V20.2097H59.0664V5.77637H61.6021V14.0455H62.0197L63.8096 10.2868H66.8226L64.1482 14.7611L67.2254 20.2097H64.2511L62.0705 16Z" fill="#2CA656"/>
<path d="M72.4299 20.2099C72.328 19.9775 72.2466 19.7365 72.1868 19.4897C72.1207 19.229 72.0709 18.9644 72.0376 18.6974C71.8403 19.164 71.5458 19.5824 71.174 19.9242C70.8121 20.2453 70.3433 20.4166 69.8614 20.4038C68.9595 20.4038 68.2659 20.1377 67.7806 19.6055C67.2954 19.0733 67.0527 18.3436 67.0527 17.4164C67.0527 16.4452 67.3714 15.6904 68.0088 15.1522C68.6463 14.6139 69.6014 14.3453 70.8742 14.3463H72.0436V13.4593C72.0436 12.9311 71.9536 12.5256 71.7736 12.243C71.6905 12.1062 71.5724 11.9946 71.4318 11.9197C71.2911 11.8448 71.133 11.8095 70.9741 11.8175C70.8369 11.8097 70.6999 11.8369 70.5758 11.8966C70.4517 11.9562 70.3445 12.0464 70.2641 12.1588C70.0845 12.4518 69.9995 12.7938 70.021 13.1375L67.5748 13.127L67.5569 13.0684C67.5322 12.6336 67.6041 12.1987 67.7675 11.7955C67.9308 11.3924 68.1815 11.031 68.5011 10.738C69.1663 10.0995 70.0444 9.78027 71.1352 9.78027C72.1594 9.78027 72.9897 10.0995 73.6262 10.738C74.2626 11.3765 74.5803 12.2901 74.5793 13.4788V17.6224C74.5773 18.0669 74.6107 18.5109 74.6792 18.95C74.7486 19.3759 74.8528 19.7953 74.991 20.2039L72.4299 20.2099ZM71.4872 18.0719C71.6744 17.8935 71.8144 17.6708 71.8944 17.4239V15.8498H70.7638C70.3297 15.8498 70.018 15.9911 69.8137 16.2753C69.6045 16.593 69.5001 16.9692 69.5153 17.3503C69.5018 17.6512 69.5895 17.9479 69.7644 18.1922C70.0011 18.5029 70.3531 18.5901 70.8205 18.4538C71.0707 18.381 71.2995 18.2478 71.4872 18.0659V18.0719Z" fill="#2CA656"/>
<path d="M80.0978 17.5696C80.0992 17.4243 80.0692 17.2805 80.01 17.1481C79.9508 17.0157 79.8636 16.8979 79.7547 16.8028C79.527 16.5913 79.085 16.3327 78.4287 16.027C77.4085 15.6411 76.6413 15.2076 76.1272 14.7265C75.8743 14.4921 75.6746 14.2053 75.5417 13.8859C75.4089 13.5665 75.3461 13.2219 75.3575 12.8757C75.3552 12.4737 75.4419 12.0761 75.6111 11.712C75.7804 11.3479 76.028 11.0264 76.336 10.7709C76.9893 10.1905 77.8539 9.90086 78.9299 9.90186C80.0545 9.90186 80.9529 10.2026 81.6252 10.8039C81.9486 11.0829 82.2036 11.4336 82.37 11.8285C82.5364 12.2235 82.6097 12.6519 82.5842 13.0802L82.5663 13.1373H80.0351C80.0529 12.7748 79.9551 12.416 79.7562 12.1135C79.6588 11.9828 79.5306 11.8787 79.3832 11.8107C79.2357 11.7427 79.0737 11.7129 78.912 11.7241C78.7711 11.721 78.6309 11.7459 78.4996 11.7975C78.3683 11.8491 78.2484 11.9264 78.1468 12.0248C78.0469 12.1177 77.9677 12.2308 77.9142 12.3567C77.8608 12.4826 77.8343 12.6185 77.8365 12.7555C77.8304 12.8909 77.854 13.0261 77.9055 13.1513C77.9571 13.2766 78.0354 13.3888 78.1349 13.4801C78.3387 13.6636 78.7862 13.9176 79.4773 14.2424C80.5353 14.6092 81.3224 15.0407 81.8384 15.5369C82.0949 15.7861 82.2963 16.0869 82.4297 16.4197C82.5631 16.7526 82.6254 17.1101 82.6126 17.4689C82.62 17.8772 82.5311 18.2815 82.3532 18.6485C82.1753 19.0155 81.9135 19.3346 81.5894 19.5797C80.9062 20.128 80.0048 20.4026 78.8851 20.4036C77.7157 20.4036 76.7909 20.0669 76.1108 19.3933C75.4306 18.7198 75.1059 17.956 75.1368 17.102L75.1651 17.0464H77.5397C77.5516 17.5956 77.6814 17.9901 77.929 18.2296C78.2085 18.4808 78.5754 18.6101 78.9493 18.5889C79.2572 18.6105 79.5615 18.512 79.7995 18.3138C79.8988 18.2182 79.9767 18.1024 80.0282 17.9741C80.0796 17.8458 80.1033 17.7079 80.0978 17.5696V17.5696Z" fill="#2CA656"/>
<path d="M87.92 17.5696C87.9211 17.4242 87.8908 17.2804 87.8314 17.148C87.7719 17.0156 87.6845 16.8978 87.5754 16.8028C87.3477 16.5913 86.9057 16.3327 86.2494 16.027C85.2291 15.6411 84.462 15.2076 83.9479 14.7265C83.6949 14.4921 83.4952 14.2053 83.3624 13.8859C83.2296 13.5665 83.1667 13.2219 83.1782 12.8757C83.1759 12.4737 83.2626 12.0761 83.4318 11.712C83.6011 11.3479 83.8487 11.0264 84.1567 10.7709C84.81 10.1905 85.6746 9.90086 86.7505 9.90186C87.8762 9.90186 88.7746 10.2026 89.4458 10.8039C89.7692 11.083 90.0242 11.4337 90.1908 11.8286C90.3575 12.2235 90.4313 12.6518 90.4064 13.0802L90.39 13.1434H87.8633C87.8807 12.7811 87.7836 12.4225 87.5858 12.1195C87.4883 11.989 87.36 11.885 87.2126 11.8171C87.0652 11.7491 86.9033 11.7192 86.7416 11.7301C86.6004 11.7268 86.4601 11.7517 86.3285 11.8033C86.1969 11.8549 86.0767 11.9322 85.9749 12.0308C85.8753 12.1239 85.7962 12.237 85.7428 12.3629C85.6893 12.4888 85.6627 12.6246 85.6647 12.7615C85.659 12.8969 85.6827 13.0319 85.7342 13.1571C85.7858 13.2823 85.8638 13.3946 85.963 13.4861C86.1668 13.6696 86.6143 13.9237 87.3054 14.2484C88.3674 14.6143 89.155 15.0432 89.6681 15.5354C89.9248 15.7844 90.1265 16.0852 90.2601 16.4181C90.3938 16.7509 90.4563 17.1085 90.4437 17.4674C90.4509 17.8762 90.3616 18.2809 90.1832 18.6482C90.0047 19.0155 89.7423 19.3347 89.4175 19.5797C88.7344 20.128 87.8329 20.4026 86.7133 20.4036C85.5438 20.4036 84.6191 20.0669 83.9389 19.3933C83.2587 18.7198 82.9341 17.956 82.9649 17.102L82.9932 17.0464H85.3678C85.3798 17.5956 85.5095 17.9901 85.7572 18.2296C86.0371 18.4811 86.4045 18.6103 86.7789 18.5889C87.0863 18.6103 87.3901 18.5118 87.6276 18.3138C87.7258 18.2177 87.8027 18.1017 87.8531 17.9734C87.9035 17.8451 87.9263 17.7074 87.92 17.5696Z" fill="#2CA656"/>
<path d="M96.1467 20.2099C96.0447 19.9775 95.9634 19.7365 95.9036 19.4897C95.8375 19.229 95.7877 18.9644 95.7544 18.6974C95.5571 19.164 95.2626 19.5824 94.8908 19.9242C94.5289 20.2453 94.0601 20.4166 93.5782 20.4038C92.6763 20.4038 91.9827 20.1377 91.4974 19.6055C91.0122 19.0733 90.7695 18.3436 90.7695 17.4164C90.7695 16.4452 91.0882 15.6904 91.7256 15.1522C92.363 14.6139 93.3182 14.3453 94.591 14.3463H95.7604V13.4593C95.7604 12.9311 95.6704 12.5256 95.4904 12.243C95.4073 12.1062 95.2892 11.9946 95.1485 11.9197C95.0079 11.8448 94.8498 11.8095 94.6909 11.8175C94.5537 11.8097 94.4167 11.8369 94.2926 11.8966C94.1685 11.9562 94.0613 12.0464 93.9809 12.1588C93.8013 12.4518 93.7163 12.7938 93.7378 13.1375L91.2916 13.127L91.2737 13.0684C91.249 12.6336 91.3209 12.1987 91.4843 11.7955C91.6476 11.3924 91.8983 11.031 92.2179 10.738C92.8831 10.0995 93.7612 9.78027 94.852 9.78027C95.8762 9.78027 96.7065 10.0995 97.3429 10.738C97.9794 11.3765 98.2971 12.2901 98.2961 13.4788V17.6224C98.2941 18.0669 98.3275 18.5109 98.396 18.95C98.4654 19.3759 98.5696 19.7953 98.7077 20.2039L96.1467 20.2099ZM95.3532 18.0719C95.5404 17.8935 95.6804 17.6708 95.7604 17.4239V15.8498H94.6298C94.1957 15.8498 93.884 15.9911 93.6796 16.2753C93.4704 16.593 93.366 16.9692 93.3813 17.3503C93.3677 17.6512 93.4555 17.9479 93.6304 18.1922C93.8676 18.5034 94.227 18.5906 94.6879 18.4538C94.9375 18.3806 95.1658 18.2475 95.3532 18.0659V18.0719Z" fill="#2CA656"/>
<path d="M29.0858 25.1713C29.088 25.3984 29.0583 25.6246 28.9978 25.8433C28.9475 26.0352 28.8609 26.2154 28.7428 26.3741C28.6335 26.5177 28.4932 26.6344 28.3326 26.7153C28.1595 26.7989 27.9695 26.8406 27.7777 26.8371C27.5594 26.8422 27.3427 26.7996 27.1423 26.7123C26.9681 26.6343 26.8148 26.5158 26.6948 26.3665V28.0204H26.3965V23.5175H26.6694L26.6993 23.9685C26.8135 23.8075 26.9644 23.6766 27.1393 23.5866C27.3369 23.4895 27.5549 23.4421 27.7747 23.4483C27.968 23.4449 28.1596 23.485 28.3355 23.5656C28.4973 23.6427 28.6388 23.757 28.7487 23.8993C28.8664 24.0555 28.953 24.2332 29.0038 24.4225C29.0648 24.6458 29.0944 24.8766 29.0918 25.1081L29.0858 25.1713ZM28.6383 25.1006C28.6397 24.918 28.6197 24.7358 28.5787 24.5579C28.5441 24.4016 28.4831 24.2526 28.3982 24.1173C28.3195 23.997 28.2137 23.897 28.0894 23.8257C27.9549 23.7524 27.8038 23.7156 27.6509 23.7189C27.531 23.7172 27.4117 23.735 27.2974 23.7715C27.201 23.8039 27.1104 23.8517 27.0289 23.9129C26.9537 23.971 26.8878 24.0405 26.8335 24.1188C26.7797 24.1946 26.7346 24.2763 26.6993 24.3624V25.9666C26.7387 26.0514 26.7889 26.1308 26.8484 26.2027C26.9072 26.2751 26.9766 26.338 27.0543 26.3891C27.1366 26.4444 27.2273 26.4861 27.3228 26.5124C27.4324 26.5438 27.5459 26.559 27.6599 26.5575C27.8119 26.5619 27.9623 26.525 28.0954 26.4507C28.2189 26.3787 28.3237 26.2783 28.4012 26.1576C28.4858 26.0221 28.5468 25.8732 28.5817 25.717C28.6216 25.538 28.6407 25.3548 28.6383 25.1713V25.1006Z" fill="#868B95"/>
<path d="M31.7251 26.8252C31.7057 26.7154 31.6893 26.6462 31.6789 26.5651C31.6668 26.4829 31.6594 26.4 31.6565 26.317C31.6015 26.3869 31.5401 26.4513 31.473 26.5094C31.3963 26.5728 31.3127 26.6273 31.2239 26.6718C31.0194 26.7732 30.7941 26.8247 30.5661 26.8222C30.4205 26.8243 30.2757 26.8009 30.138 26.753C30.0167 26.7106 29.9047 26.6447 29.8084 26.559C29.7199 26.4762 29.6484 26.3766 29.5981 26.2659C29.5446 26.1391 29.5193 26.0021 29.524 25.8645C29.5286 25.7268 29.5631 25.5918 29.6249 25.469C29.6971 25.3378 29.7994 25.226 29.9233 25.1428C30.0645 25.0472 30.2216 24.978 30.3871 24.9383C30.5903 24.9004 30.7955 24.8748 31.0017 24.8616H31.6222V24.4963C31.6401 24.3968 31.6328 24.2943 31.601 24.1984C31.5692 24.1025 31.5139 24.0162 31.4402 23.9475C31.2654 23.803 31.0423 23.7314 30.8167 23.7475C30.6991 23.7464 30.5819 23.7631 30.4692 23.7972C30.3705 23.8282 30.2781 23.8765 30.1962 23.94C30.1222 23.9957 30.0611 24.067 30.0172 24.149C29.9737 24.2291 29.9516 24.3193 29.9531 24.4106H29.5936C29.5927 24.2832 29.6235 24.1576 29.6831 24.0452C29.747 23.9291 29.8332 23.8269 29.9367 23.7445C30.0536 23.6506 30.1858 23.5778 30.3275 23.5295C30.4907 23.4737 30.6622 23.4462 30.8346 23.4484C30.9946 23.4469 31.1539 23.4692 31.3075 23.5145C31.4438 23.5544 31.5707 23.6219 31.6803 23.713C31.7847 23.8039 31.8673 23.9175 31.922 24.0452C31.9527 24.198 31.9527 24.3555 31.922 24.5083V26.087C31.9648 26.138 31.9968 26.1974 32.016 26.2614C32.016 26.323 32.0264 26.3801 32.0353 26.4373C32.0443 26.4944 32.0547 26.547 32.0667 26.5981C32.0786 26.6493 32.0935 26.6944 32.0667 26.7319V26.8222L31.7251 26.8252ZM30.5781 26.5245C30.6996 26.5256 30.8207 26.5089 30.9375 26.4749C31.043 26.4439 31.1434 26.3978 31.2359 26.338C31.3233 26.2822 31.4022 26.2139 31.47 26.1351C31.5343 26.0593 31.5875 25.9748 31.6281 25.884V25.1713H31.0151C30.8502 25.1694 30.6856 25.186 30.5244 25.221C30.395 25.2475 30.2709 25.2958 30.1574 25.3638C30.064 25.4194 29.9856 25.4974 29.9292 25.5908C29.876 25.6818 29.8487 25.7859 29.8502 25.8915C29.8493 25.9763 29.8663 26.0604 29.9 26.1381C29.9337 26.2158 29.9833 26.2855 30.0456 26.3425C30.1122 26.4021 30.1897 26.448 30.2738 26.4779C30.3717 26.5114 30.4747 26.5271 30.5781 26.5245V26.5245Z" fill="#868B95"/>
<path d="M33.736 26.2524L34.6801 23.5176H35.065L33.6957 27.2973C33.6688 27.3725 33.633 27.4477 33.5898 27.5484C33.5465 27.6421 33.4903 27.7292 33.4227 27.807C33.3507 27.8904 33.2636 27.9592 33.1662 28.01C33.0496 28.0685 32.9205 28.0969 32.7903 28.0927H32.7217L32.6441 28.0821C32.6195 28.0793 32.5951 28.0748 32.571 28.0686L32.5158 28.0551V27.7544C32.5397 27.7544 32.5725 27.7619 32.6128 27.7664C32.6421 27.7679 32.6715 27.7679 32.7008 27.7664C32.7873 27.768 32.8735 27.7553 32.9559 27.7288C33.0267 27.7051 33.0922 27.6672 33.1483 27.6176C33.2073 27.5642 33.2576 27.5018 33.2974 27.4326C33.3422 27.3502 33.3801 27.2642 33.4108 27.1755L33.56 26.7455L32.3398 23.5176H32.7306L33.736 26.2524Z" fill="#868B95"/>
<path d="M35.9881 23.5176L36 24.0558C36.0523 23.9669 36.1143 23.8842 36.1849 23.8092C36.2532 23.7347 36.3322 23.6709 36.4191 23.6198C36.5073 23.5661 36.6028 23.5256 36.7025 23.4995C36.8099 23.4699 36.9208 23.4553 37.0322 23.4559C37.241 23.4497 37.4474 23.5018 37.6288 23.6063C37.8039 23.7186 37.9311 23.8929 37.9853 24.0949C38.0371 24.0029 38.0991 23.9171 38.1702 23.8393C38.2421 23.7606 38.3244 23.6922 38.4149 23.6363C38.5076 23.5779 38.608 23.5329 38.7132 23.5025C38.829 23.4687 38.9491 23.452 39.0697 23.4529C39.2217 23.4497 39.3731 23.4731 39.5171 23.5221C39.6431 23.5648 39.756 23.6394 39.8453 23.7386C39.9402 23.8479 40.0104 23.9766 40.0511 24.116C40.101 24.2949 40.1247 24.4803 40.1212 24.6662V26.8252H39.8229V24.6918C39.8268 24.5462 39.8071 24.401 39.7648 24.2618C39.7312 24.1595 39.674 24.0667 39.5977 23.9912C39.525 23.923 39.4361 23.8749 39.3396 23.8513C39.2323 23.8246 39.1221 23.8115 39.0115 23.8123C38.8706 23.811 38.7309 23.8391 38.6013 23.8949C38.4906 23.9433 38.3895 24.0116 38.303 24.0964C38.2238 24.1752 38.1596 24.2679 38.1136 24.37C38.0702 24.4618 38.0429 24.5605 38.033 24.6617V26.8252H37.7347V24.6647C37.7383 24.5266 37.7186 24.3888 37.6765 24.2573C37.6423 24.1576 37.5845 24.0677 37.508 23.9957C37.4342 23.9287 37.3458 23.8803 37.2499 23.8543C37.1415 23.8249 37.0296 23.8107 36.9173 23.8123C36.7905 23.8096 36.6645 23.8316 36.5459 23.8769C36.443 23.9173 36.348 23.9759 36.2655 24.0498C36.187 24.1212 36.1205 24.205 36.0686 24.2979C36.0176 24.3885 35.9761 24.4842 35.9448 24.5835V26.8252H35.6465V23.5176H35.9881Z" fill="#868B95"/>
<path d="M42.1916 26.8253C41.9911 26.8278 41.7923 26.7873 41.6084 26.7065C41.4342 26.6296 41.2777 26.5169 41.149 26.3757C41.0178 26.2286 40.9165 26.0569 40.8507 25.8706C40.7912 25.6602 40.7478 25.4456 40.7209 25.2286V25.1053C40.7174 24.8727 40.7558 24.6415 40.8343 24.4227C40.9023 24.2307 41.0061 24.0537 41.1401 23.901C41.2646 23.76 41.417 23.6468 41.5875 23.5687C41.7536 23.4901 41.9351 23.45 42.1185 23.4515C42.3084 23.4474 42.4967 23.4854 42.6704 23.5627C42.8272 23.6337 42.9659 23.7396 43.0761 23.8724C43.1893 24.012 43.2735 24.173 43.3237 24.346C43.3824 24.5409 43.4111 24.7438 43.4088 24.9474V25.1714H41.0177V25.2346C41.0794 25.4001 41.1327 25.5687 41.1773 25.7398C41.2268 25.89 41.3042 26.0293 41.4056 26.1502C41.5012 26.2662 41.6202 26.3605 41.7546 26.4268C41.8941 26.4947 42.0472 26.5292 42.2021 26.5276C42.3763 26.5314 42.5492 26.4954 42.7077 26.4223C42.8659 26.3393 43.0024 26.2198 43.106 26.0735L43.3297 26.2464C43.2743 26.3261 43.2119 26.4006 43.1433 26.4689C43.0693 26.541 42.986 26.6027 42.8956 26.6524C42.7961 26.7074 42.6898 26.7489 42.5794 26.7756C42.4527 26.808 42.3224 26.8247 42.1916 26.8253V26.8253ZM42.1827 23.7642C42.0529 23.7635 41.9243 23.7902 41.8053 23.8424C41.6921 23.8964 41.5908 23.9726 41.507 24.0664C41.4145 24.1682 41.3407 24.2858 41.2892 24.4137C41.2302 24.558 41.191 24.7097 41.1729 24.8647H43.1119V24.8256C43.1083 24.6909 43.0862 24.5573 43.0463 24.4287C43.0088 24.3063 42.9497 24.1917 42.8718 24.0904C42.7941 23.9917 42.6965 23.9107 42.5854 23.8529C42.4603 23.7908 42.3221 23.7604 42.1827 23.7642Z" fill="#868B95"/>
<path d="M44.3347 23.5173L44.3466 24.0827C44.4007 23.9906 44.4642 23.9044 44.536 23.8256C44.6065 23.749 44.6867 23.6823 44.7747 23.6271C44.8625 23.5711 44.958 23.5286 45.0581 23.5008C45.1628 23.4703 45.2713 23.4551 45.3803 23.4557C45.5243 23.4536 45.6676 23.4765 45.8039 23.5234C45.9257 23.5669 46.0349 23.6403 46.1216 23.7368C46.2142 23.8466 46.2819 23.9754 46.32 24.1142C46.3694 24.2958 46.3925 24.4837 46.3886 24.672V26.825H46.0903V24.6946C46.0942 24.5522 46.0755 24.4101 46.0351 24.2736C46.0037 24.1719 45.9496 24.0788 45.877 24.0015C45.8077 23.9311 45.7221 23.8794 45.6279 23.8511C45.5216 23.8212 45.4116 23.8066 45.3012 23.8075C45.1784 23.8055 45.0563 23.8275 44.9418 23.8722C44.8378 23.9132 44.7415 23.9717 44.6569 24.0451C44.5742 24.1168 44.5023 24.2004 44.4436 24.2931C44.3823 24.3828 44.3322 24.4798 44.2944 24.5818V26.825H43.9961V23.5173H44.3347Z" fill="#868B95"/>
<path d="M47.88 22.6152V23.5173H48.4766V23.818H47.88V25.9785C47.876 26.072 47.8876 26.1655 47.9143 26.2552C47.932 26.3159 47.9637 26.3715 48.0068 26.4175C48.0439 26.4551 48.0902 26.482 48.141 26.4957C48.1932 26.5091 48.2468 26.5157 48.3006 26.5153C48.3505 26.5153 48.4004 26.5118 48.4498 26.5047L48.584 26.4852L48.5989 26.7859C48.5434 26.805 48.4858 26.8176 48.4274 26.8235C48.3577 26.8325 48.2874 26.837 48.2171 26.837C48.1216 26.8379 48.0266 26.8242 47.9352 26.7964C47.8497 26.7705 47.7725 26.7222 47.7115 26.6566C47.6427 26.5813 47.5917 26.4914 47.5623 26.3935C47.5462 26.2574 47.5492 26.1197 47.5712 25.9845V23.818H46.9746V23.5173H47.5712V22.6152H47.88Z" fill="#868B95"/>
<path d="M53.2486 25.1713C53.2511 25.398 53.2235 25.624 53.1665 25.8433C53.1194 26.0305 53.0385 26.2074 52.9279 26.365C52.8268 26.5071 52.6946 26.6239 52.5416 26.7063C52.3813 26.7898 52.2029 26.8317 52.0225 26.8281C51.8168 26.8332 51.6126 26.7905 51.4259 26.7033C51.2624 26.6228 51.1203 26.5043 51.0112 26.3575V28.0113H50.7129V23.5175H50.9873L51.0112 23.9685C51.1165 23.8096 51.2582 23.6786 51.4244 23.5866C51.6082 23.4897 51.8137 23.4421 52.021 23.4483C52.2028 23.4449 52.3827 23.4851 52.546 23.5656C52.7002 23.6442 52.8336 23.7586 52.9353 23.8993C53.0465 24.0572 53.1275 24.2347 53.174 24.4225C53.2314 24.6464 53.259 24.8769 53.256 25.1081L53.2486 25.1713ZM52.9503 25.1006C52.9516 24.9175 52.9315 24.7348 52.8906 24.5564C52.8558 24.4007 52.7947 24.2522 52.7101 24.1173C52.6318 23.9966 52.5259 23.8966 52.4014 23.8257C52.2668 23.7524 52.1157 23.7156 51.9628 23.7189C51.843 23.7172 51.7236 23.735 51.6093 23.7715C51.4209 23.8324 51.2577 23.9546 51.1454 24.1188C51.0913 24.1944 51.0462 24.2761 51.0112 24.3624V25.9666C51.0507 26.0514 51.1008 26.1307 51.1604 26.2027C51.2191 26.2751 51.2885 26.3379 51.3662 26.3891C51.4488 26.4443 51.5394 26.4864 51.6347 26.5139C51.7444 26.5448 51.8579 26.5595 51.9718 26.5575C52.1236 26.5616 52.2739 26.5253 52.4073 26.4522C52.5312 26.3775 52.6359 26.2745 52.7131 26.1515C52.7977 26.0161 52.8587 25.8671 52.8936 25.711C52.9331 25.5339 52.9521 25.3528 52.9503 25.1713V25.1006Z" fill="#868B95"/>
<path d="M55.4698 23.8182C55.39 23.8046 55.3091 23.7981 55.2281 23.7987C55.116 23.7971 55.0044 23.8154 54.8985 23.8528C54.8065 23.8916 54.7198 23.9422 54.6405 24.0032C54.5061 24.1122 54.3894 24.2415 54.2944 24.3866V26.8252H53.9961V23.5175H54.2944V24.0302C54.3987 23.8657 54.5322 23.722 54.6882 23.6062C54.8536 23.5002 55.0472 23.4478 55.2431 23.4559C55.2881 23.4563 55.3329 23.4603 55.3773 23.4679C55.4121 23.4724 55.4463 23.4815 55.4787 23.495L55.4698 23.8182Z" fill="#868B95"/>
<path d="M55.7852 25.0885C55.7833 24.8693 55.8176 24.6513 55.8867 24.4435C55.948 24.2563 56.0454 24.0831 56.173 23.9338C56.296 23.7903 56.4488 23.6759 56.6205 23.5985C56.8027 23.5154 57.0008 23.4739 57.2007 23.4767C57.4031 23.4735 57.6037 23.5151 57.7884 23.5985C57.9603 23.6756 58.1131 23.7901 58.2359 23.9338C58.3635 24.0829 58.4604 24.2562 58.5208 24.4435C58.5894 24.6514 58.6232 24.8694 58.6207 25.0885V25.1862C58.6231 25.4048 58.5893 25.6222 58.5208 25.8297C58.4604 26.0174 58.3635 26.1912 58.2359 26.3409C58.1129 26.4839 57.9601 26.5979 57.7884 26.6746C57.6038 26.753 57.4055 26.7934 57.2052 26.7934C57.0049 26.7934 56.8066 26.753 56.622 26.6746C56.4507 26.5973 56.298 26.4834 56.1745 26.3409C56.0461 26.1912 55.9483 26.0175 55.8867 25.8297C55.8177 25.6223 55.7834 25.4049 55.7852 25.1862V25.0885ZM56.0836 25.1877C56.0824 25.3657 56.107 25.543 56.1566 25.7139C56.2025 25.8715 56.2757 26.0196 56.3729 26.1514C56.4668 26.2761 56.5864 26.3787 56.7234 26.4521C56.8722 26.5281 57.037 26.5663 57.2037 26.5634C57.37 26.5665 57.5344 26.5283 57.6825 26.4521C57.8192 26.3787 57.9383 26.276 58.0316 26.1514C58.1294 26.02 58.2027 25.8718 58.2478 25.7139C58.2975 25.543 58.3221 25.3657 58.3209 25.1877V25.0855C58.3219 24.9099 58.2972 24.7351 58.2478 24.5668C58.2023 24.4086 58.1291 24.2599 58.0316 24.1277C57.9372 24.003 57.8171 23.9004 57.6796 23.827C57.5307 23.7498 57.3651 23.7111 57.1978 23.7143C57.0323 23.7111 56.8687 23.7499 56.722 23.827C56.5855 23.9009 56.4665 24.0034 56.3729 24.1277C56.276 24.2602 56.2028 24.4088 56.1566 24.5668C56.1072 24.7351 56.0826 24.9099 56.0836 25.0855V25.1877Z" fill="#868B95"/>
<path d="M60.4373 26.5243C60.548 26.5247 60.6582 26.5079 60.7639 26.4747C60.8654 26.4415 60.9603 26.3906 61.0443 26.3243C61.1264 26.2587 61.1948 26.1775 61.2457 26.0852C61.2994 25.9867 61.3305 25.8773 61.3367 25.765H61.6798C61.6726 25.9117 61.6334 26.0549 61.5649 26.1845C61.4971 26.314 61.4049 26.4289 61.2934 26.5228C61.1778 26.6192 61.0459 26.6941 60.9041 26.7438C60.5561 26.8639 60.176 26.8478 59.8391 26.6987C59.6714 26.6183 59.524 26.5006 59.4081 26.3544C59.2875 26.2009 59.1978 26.0252 59.1441 25.8372C59.0828 25.6296 59.0566 25.4131 59.0665 25.1967V25.0704C59.0566 24.854 59.0828 24.6375 59.1441 24.4299C59.1977 24.243 59.2869 24.0684 59.4066 23.9157C59.5225 23.7691 59.6699 23.6509 59.8377 23.5699C60.0244 23.4827 60.2285 23.4395 60.4343 23.4436C60.5984 23.4421 60.7614 23.4695 60.9161 23.5248C61.059 23.5766 61.1907 23.6557 61.3039 23.7579C61.4159 23.8606 61.5057 23.9855 61.5679 24.1247C61.6308 24.2631 61.6682 24.4118 61.6783 24.5637H61.3352C61.3249 24.4549 61.2961 24.3486 61.2502 24.2495C61.2035 24.1484 61.1376 24.0575 61.0563 23.9819C60.9741 23.907 60.8784 23.8488 60.7744 23.8105C60.6648 23.7709 60.5492 23.751 60.4328 23.7518C60.2689 23.7464 60.1064 23.7842 59.9615 23.8616C59.8347 23.9318 59.7267 24.0318 59.6467 24.1533C59.5618 24.2816 59.5016 24.4249 59.4692 24.5758C59.4319 24.7261 59.414 24.899 59.3633 25.0719V25.1982C59.414 25.3726 59.4319 25.541 59.4692 25.7004C59.5014 25.8505 59.5611 25.9933 59.6452 26.1213C59.7257 26.2429 59.8342 26.343 59.9615 26.413C60.1082 26.4901 60.2719 26.5284 60.4373 26.5243V26.5243Z" fill="#868B95"/>
<path d="M63.5724 26.8252C63.3724 26.8276 63.1741 26.7871 62.9907 26.7065C62.8165 26.6295 62.66 26.5169 62.5313 26.3757C62.4001 26.2285 62.2988 26.0569 62.233 25.8705C62.1896 25.6595 62.1786 25.443 62.2002 25.2285V25.1053C62.197 24.8732 62.2334 24.6424 62.3076 24.4227C62.3706 24.2323 62.4682 24.0554 62.5954 23.901C62.7111 23.7618 62.8544 23.6486 63.0161 23.5687C63.1716 23.4904 63.3434 23.4502 63.5172 23.4514C63.6974 23.4476 63.8761 23.4857 64.0393 23.5627C64.1885 23.635 64.3191 23.741 64.4211 23.8724C64.5288 24.0138 64.6088 24.1745 64.6568 24.346C64.7112 24.5417 64.7379 24.7442 64.7359 24.9474V25.1714H62.497V25.2346C62.4811 25.4055 62.5025 25.578 62.5596 25.7397C62.6091 25.89 62.6865 26.0293 62.7879 26.1502C62.8835 26.2662 63.0025 26.3605 63.1369 26.4268C63.2764 26.4947 63.4295 26.5292 63.5844 26.5276C63.7586 26.5313 63.9315 26.4954 64.09 26.4223C64.2476 26.3425 64.3845 26.2267 64.4898 26.084L64.7135 26.2569C64.6581 26.3366 64.5957 26.4111 64.527 26.4794C64.4531 26.5515 64.3698 26.6132 64.2794 26.6629C64.1799 26.7179 64.0736 26.7594 63.9632 26.7861C63.835 26.8152 63.7038 26.8283 63.5724 26.8252V26.8252ZM63.5128 23.7642C63.383 23.7635 63.2544 23.7901 63.1354 23.8423C63.0222 23.8964 62.9209 23.9725 62.8371 24.0664C62.7446 24.1682 62.6708 24.2858 62.6193 24.4137C62.5601 24.5578 62.5214 24.7097 62.5045 24.8647H64.4435V24.8256C64.4399 24.6909 64.4178 24.5573 64.3779 24.4287C64.3404 24.3063 64.2813 24.1917 64.2034 24.0904C64.1257 23.9916 64.0281 23.9106 63.917 23.8529C63.7914 23.7906 63.6527 23.7601 63.5128 23.7642V23.7642Z" fill="#868B95"/>
<path d="M67.3462 26.004C67.3459 25.9333 67.3338 25.8631 67.3104 25.7965C67.2812 25.721 67.2347 25.6535 67.1747 25.5995C67.093 25.5262 66.9998 25.4673 66.8987 25.4251C66.7516 25.3618 66.5981 25.3149 66.4408 25.2853C66.2704 25.2498 66.1025 25.2031 65.9382 25.1455C65.8048 25.1006 65.6787 25.0363 65.5638 24.9545C65.4676 24.8852 65.3889 24.794 65.3341 24.6884C65.28 24.575 65.2535 24.4503 65.2565 24.3246C65.256 24.1995 65.284 24.0761 65.3385 23.9637C65.3948 23.8468 65.4763 23.744 65.5772 23.6631C65.6891 23.5735 65.8166 23.5057 65.9531 23.4631C66.1135 23.4112 66.2813 23.3859 66.4498 23.3879C66.6288 23.385 66.8071 23.4114 66.9778 23.4661C67.1219 23.5111 67.2561 23.5836 67.3731 23.6796C67.478 23.7681 67.5621 23.879 67.6192 24.0043C67.6754 24.1316 67.7039 24.2695 67.7027 24.4088H67.3268C67.3266 24.3188 67.3067 24.23 67.2687 24.1487C67.2286 24.0634 67.1712 23.9876 67.1001 23.9262C67.0173 23.8606 66.924 23.8097 66.8242 23.7758C66.7037 23.7345 66.5771 23.7141 66.4498 23.7157C66.3229 23.7127 66.1964 23.731 66.0754 23.7698C65.9827 23.7996 65.8967 23.847 65.8218 23.9096C65.7577 23.9604 65.7066 24.0258 65.6727 24.1006C65.6436 24.1674 65.6284 24.2396 65.6279 24.3126C65.6264 24.3833 65.638 24.4536 65.6622 24.52C65.6902 24.5891 65.736 24.6493 65.795 24.6944C65.8789 24.7583 65.9719 24.809 66.0709 24.8448C66.222 24.8998 66.3765 24.945 66.5333 24.9801C66.7133 25.0211 66.8903 25.0748 67.0628 25.141C67.1955 25.1912 67.3198 25.2617 67.4312 25.35C67.5231 25.4251 67.597 25.5202 67.6475 25.6281C67.6959 25.7426 67.7198 25.866 67.7176 25.9904C67.7189 26.1244 67.6888 26.2568 67.6296 26.3768C67.5702 26.4952 67.4844 26.5981 67.379 26.6775C67.2598 26.7655 67.126 26.8311 66.9838 26.8715C66.627 26.9681 66.2507 26.9634 65.8964 26.8579C65.745 26.8088 65.6039 26.7318 65.4802 26.6309C65.3719 26.5429 65.2847 26.4314 65.2252 26.3047C65.1681 26.1851 65.1385 26.054 65.1387 25.9213H65.5146C65.5187 26.0403 65.5542 26.156 65.6175 26.2566C65.6757 26.3447 65.7533 26.4183 65.8442 26.4715C65.9364 26.5269 66.0373 26.566 66.1425 26.5873C66.2495 26.6098 66.3584 26.6214 66.4677 26.6219C66.5948 26.6242 66.7216 26.6069 66.8436 26.5708C66.9423 26.5426 67.0353 26.4968 67.118 26.4355C67.1874 26.3836 67.2444 26.3168 67.2851 26.24C67.3244 26.1676 67.3454 26.0865 67.3462 26.004V26.004Z" fill="#868B95"/>
<path d="M70.3359 26.004C70.3356 25.9333 70.3235 25.8631 70.3001 25.7965C70.2708 25.721 70.2243 25.6535 70.1644 25.5995C70.0827 25.5262 69.9894 25.4673 69.8884 25.4251C69.7413 25.3618 69.5877 25.3149 69.4305 25.2853C69.2596 25.2498 69.0912 25.203 68.9263 25.1455C68.7935 25.1003 68.6679 25.036 68.5534 24.9545C68.4572 24.8852 68.3786 24.794 68.3237 24.6884C68.2697 24.575 68.2431 24.4503 68.2462 24.3246C68.2456 24.1995 68.2737 24.0761 68.3282 23.9637C68.3845 23.8468 68.466 23.744 68.5669 23.6631C68.6788 23.5735 68.8063 23.5057 68.9427 23.4631C69.1032 23.4112 69.2709 23.3859 69.4394 23.3879C69.6185 23.385 69.7968 23.4114 69.9675 23.4661C70.1116 23.5111 70.2457 23.5836 70.3627 23.6796C70.4677 23.7681 70.5517 23.879 70.6088 24.0043C70.6651 24.1316 70.6935 24.2695 70.6924 24.4088H70.3165C70.3163 24.3188 70.2964 24.23 70.2583 24.1487C70.2183 24.0634 70.1609 23.9876 70.0898 23.9262C70.007 23.8606 69.9136 23.8097 69.8138 23.7758C69.6933 23.7345 69.5667 23.7141 69.4394 23.7157C69.3125 23.7127 69.186 23.731 69.0651 23.7698C68.9724 23.7996 68.8863 23.847 68.8115 23.9096C68.7474 23.9604 68.6962 24.0258 68.6623 24.1006C68.6328 24.1673 68.6171 24.2395 68.6161 24.3126C68.6151 24.3834 68.6272 24.4537 68.6519 24.52C68.6798 24.5891 68.7257 24.6493 68.7846 24.6944C68.8686 24.7583 68.9616 24.809 69.0606 24.8448C69.2117 24.8998 69.3661 24.945 69.523 24.9801C69.703 25.0211 69.88 25.0748 70.0525 25.141C70.1852 25.1912 70.3094 25.2617 70.4209 25.35C70.5137 25.4229 70.5891 25.5159 70.6417 25.6221C70.69 25.7366 70.7139 25.86 70.7118 25.9844C70.7131 26.1184 70.6829 26.2508 70.6238 26.3708C70.5643 26.4892 70.4786 26.5921 70.3732 26.6715C70.254 26.7594 70.1201 26.8251 69.9779 26.8655C69.6211 26.9621 69.2448 26.9574 68.8905 26.8519C68.7391 26.8028 68.598 26.7258 68.4744 26.6249C68.3661 26.5369 68.2789 26.4254 68.2193 26.2986C68.1622 26.179 68.1327 26.048 68.1328 25.9153H68.5087C68.5129 26.0342 68.5484 26.15 68.6116 26.2505C68.6699 26.3387 68.7474 26.4123 68.8383 26.4655C68.9305 26.5209 69.0314 26.56 69.1366 26.5813C69.2436 26.6038 69.3525 26.6154 69.4618 26.6159C69.589 26.6182 69.7157 26.6009 69.8377 26.5648C69.9361 26.5369 70.0287 26.491 70.1107 26.4295C70.1808 26.378 70.2384 26.3112 70.2792 26.234C70.316 26.163 70.3355 26.0841 70.3359 26.004V26.004Z" fill="#868B95"/>
<path d="M71.3068 22.5628C71.3057 22.5311 71.311 22.4994 71.3223 22.4697C71.3335 22.44 71.3506 22.4129 71.3725 22.3899C71.3954 22.3658 71.4233 22.3469 71.4542 22.3347C71.4851 22.3225 71.5183 22.3172 71.5515 22.3193C71.5848 22.3174 71.6181 22.3227 71.6493 22.3349C71.6804 22.3471 71.7086 22.3659 71.7319 22.3899C71.7663 22.4244 71.7896 22.4686 71.7986 22.5166C71.8076 22.5647 71.802 22.6143 71.7824 22.6591C71.7629 22.7038 71.7304 22.7416 71.6891 22.7673C71.6479 22.7931 71.5999 22.8057 71.5515 22.8034C71.5193 22.8055 71.487 22.8008 71.4568 22.7896C71.4266 22.7783 71.399 22.7608 71.3759 22.7381C71.3529 22.7154 71.3348 22.6881 71.3229 22.6579C71.311 22.6277 71.3055 22.5953 71.3068 22.5628ZM71.7454 26.8252H71.447V23.5176H71.7454V26.8252Z" fill="#868B95"/>
<path d="M72.9744 23.5174L72.9848 24.0827C73.0389 23.9906 73.1024 23.9044 73.1743 23.8256C73.245 23.7494 73.3252 23.6827 73.4129 23.6271C73.5008 23.5714 73.5963 23.5289 73.6963 23.5008C73.801 23.4703 73.9095 23.4551 74.0185 23.4557C74.1625 23.4535 74.3058 23.4764 74.4421 23.5234C74.5641 23.5665 74.6734 23.6399 74.7598 23.7369C74.8524 23.8466 74.9201 23.9754 74.9582 24.1142C75.0076 24.2959 75.0307 24.4837 75.0268 24.672V26.825H74.7285V24.6946C74.7324 24.5522 74.7138 24.4101 74.6733 24.2736C74.6419 24.1719 74.5878 24.0788 74.5152 24.0015C74.4459 23.9312 74.3603 23.8795 74.2661 23.8511C74.1598 23.8212 74.0498 23.8066 73.9394 23.8075C73.8166 23.8055 73.6945 23.8275 73.58 23.8722C73.476 23.9133 73.3797 23.9717 73.2951 24.0451C73.2123 24.1172 73.14 24.2007 73.0803 24.2932C73.0195 24.3832 72.9695 24.48 72.9311 24.5818V26.825H72.6328V23.5174H72.9744Z" fill="#868B95"/>
<path d="M75.7718 25.1111C75.769 24.8797 75.7976 24.6491 75.8568 24.4255C75.9058 24.2372 75.9893 24.0597 76.1029 23.9023C76.2055 23.7618 76.3394 23.6475 76.4937 23.5685C76.6566 23.4884 76.836 23.4482 77.0173 23.4513C77.2248 23.4448 77.4305 23.4929 77.6139 23.5911C77.78 23.6848 77.9204 23.8186 78.0226 23.9805L78.0405 23.5114H78.3075V26.7078C78.3176 26.9011 78.2887 27.0944 78.2225 27.2761C78.1667 27.4352 78.0777 27.5803 77.9614 27.7016C77.846 27.8199 77.7066 27.9117 77.5528 27.9707C77.382 28.0348 77.2009 28.0664 77.0188 28.0639C76.9139 28.0633 76.8095 28.0518 76.707 28.0294C76.6044 28.0047 76.5045 27.97 76.4087 27.9256C76.3097 27.8785 76.2162 27.8205 76.1298 27.7527C76.0412 27.6823 75.9634 27.5992 75.8986 27.5061L76.0999 27.2896C76.2128 27.4367 76.3551 27.5581 76.5176 27.646C76.668 27.7218 76.8342 27.7605 77.0024 27.7587C77.1413 27.7618 77.2796 27.7379 77.4096 27.6881C77.5234 27.6441 77.6255 27.5741 77.7079 27.4836C77.7914 27.3893 77.8549 27.2788 77.8943 27.1588C77.9376 27.031 78.0137 26.7228 78.0137 26.7228V26.3485C77.9081 26.4985 77.7678 26.6203 77.605 26.7033C77.4191 26.7935 77.2145 26.8373 77.0083 26.8311C76.828 26.834 76.6498 26.7921 76.4892 26.7093C76.3356 26.6266 76.2025 26.5099 76.0999 26.368C75.9869 26.2108 75.9035 26.0339 75.8538 25.8463C75.7958 25.6262 75.7682 25.399 75.7718 25.1712V25.1111ZM76.0701 25.1697C76.0687 25.3538 76.0883 25.5374 76.1283 25.717C76.1618 25.8728 76.2224 26.0215 76.3073 26.156C76.3821 26.2759 76.4844 26.376 76.6056 26.4477C76.739 26.521 76.8893 26.5573 77.0411 26.5529C77.1572 26.5548 77.2728 26.5391 77.3842 26.5063C77.4803 26.4782 77.5713 26.4351 77.6542 26.3785C77.7305 26.3238 77.7988 26.2585 77.857 26.1846C77.9161 26.1091 77.9662 26.0268 78.0062 25.9395V24.3789C77.9712 24.2903 77.9262 24.206 77.872 24.1278C77.8171 24.0482 77.7507 23.9772 77.6751 23.9173C77.5943 23.8528 77.5036 23.802 77.4066 23.767C77.2911 23.7289 77.1701 23.7107 77.0486 23.7129C76.8927 23.7077 76.7382 23.7446 76.6011 23.8196C76.4806 23.8929 76.3785 23.9932 76.3028 24.1128C76.2181 24.248 76.1575 24.3971 76.1238 24.5533C76.084 24.7324 76.0645 24.9155 76.0656 25.0991L76.0701 25.1697Z" fill="#868B95"/>
<path d="M82.5997 26.004C82.5994 25.9333 82.5873 25.8631 82.5639 25.7965C82.5357 25.7208 82.4897 25.6531 82.4296 25.5995C82.3477 25.5266 82.2545 25.4677 82.1537 25.4251C82.006 25.3618 81.852 25.3149 81.6943 25.2853C81.5239 25.2496 81.356 25.2029 81.1916 25.1455C81.0587 25.1006 80.933 25.0363 80.8187 24.9545C80.7225 24.8848 80.6434 24.7938 80.5875 24.6884C80.5345 24.5751 80.507 24.4514 80.507 24.3261C80.507 24.2008 80.5345 24.0771 80.5875 23.9637C80.6437 23.8472 80.7247 23.7445 80.8247 23.6631C80.9371 23.5743 81.0644 23.5065 81.2005 23.4631C81.361 23.4112 81.5287 23.3859 81.6972 23.3879C81.8763 23.385 82.0546 23.4114 82.2253 23.4661C82.3696 23.5104 82.5039 23.583 82.6205 23.6796C82.7255 23.7681 82.8095 23.879 82.8666 24.0043C82.924 24.1312 82.9531 24.2693 82.9517 24.4088H82.5758C82.5755 24.3188 82.5557 24.23 82.5176 24.1487C82.4775 24.063 82.4195 23.9871 82.3476 23.9262C82.2651 23.8601 82.1717 23.8092 82.0716 23.7758C81.9511 23.7344 81.8245 23.714 81.6972 23.7157C81.5703 23.7128 81.4438 23.7311 81.3228 23.7698C81.2304 23.7999 81.1443 23.8473 81.0693 23.9096C81.0107 23.959 80.9635 24.0206 80.9308 24.0902C80.8981 24.1597 80.8807 24.2356 80.8798 24.3126C80.8791 24.3832 80.8907 24.4534 80.9141 24.52C80.9427 24.5888 80.9884 24.6489 81.0469 24.6944C81.131 24.758 81.224 24.8087 81.3228 24.8448C81.474 24.8996 81.6284 24.9448 81.7852 24.9801C81.9653 25.0209 82.1423 25.0746 82.3148 25.141C82.4476 25.1909 82.5719 25.2614 82.6832 25.35C82.7751 25.4251 82.849 25.5202 82.8995 25.6281C82.9485 25.7424 82.9724 25.866 82.9696 25.9904C82.9716 26.1245 82.9414 26.2571 82.8816 26.3768C82.8221 26.4952 82.7364 26.5981 82.631 26.6775C82.5123 26.7655 82.3789 26.8312 82.2372 26.8715C82.0689 26.9196 81.8945 26.9429 81.7196 26.9406C81.5265 26.9442 81.3341 26.9163 81.1498 26.8579C80.9978 26.8091 80.8562 26.7321 80.7322 26.6309C80.6247 26.5421 80.5377 26.4308 80.4771 26.3047C80.4223 26.185 80.3948 26.0545 80.3966 25.9228H80.7724C80.7763 26.042 80.8124 26.158 80.8769 26.2581C80.9346 26.3462 81.0116 26.4197 81.1021 26.4731C81.1943 26.5285 81.2952 26.5676 81.4004 26.5888C81.5069 26.6113 81.6153 26.6229 81.7241 26.6234C81.8512 26.6257 81.978 26.6085 82.1 26.5723C82.1987 26.5441 82.2917 26.4983 82.3744 26.437C82.4442 26.3855 82.5013 26.3187 82.5415 26.2415C82.5807 26.1687 82.6008 26.0869 82.5997 26.004V26.004Z" fill="#868B95"/>
<path d="M84.5992 26.2524L85.5434 23.5176H85.9283L84.559 27.2973C84.5321 27.3725 84.4963 27.4477 84.4531 27.5484C84.4098 27.6421 84.3536 27.7292 84.286 27.807C84.214 27.8904 84.1269 27.9592 84.0295 28.01C83.9129 28.0685 83.7837 28.0969 83.6536 28.0927H83.585L83.5074 28.0821C83.4828 28.0793 83.4583 28.0748 83.4343 28.0686L83.3791 28.0551V27.7544C83.403 27.7544 83.4358 27.7619 83.4761 27.7664C83.5054 27.7679 83.5348 27.7679 83.5641 27.7664C83.6506 27.768 83.7367 27.7553 83.8192 27.7288C83.89 27.7051 83.9554 27.6672 84.0116 27.6176C84.0706 27.5642 84.1209 27.5018 84.1607 27.4326C84.2054 27.3502 84.2434 27.2642 84.2741 27.1755L84.4232 26.7455L83.2031 23.5176H83.5939L84.5992 26.2524Z" fill="#868B95"/>
<path d="M88.302 26.0039C88.3018 25.9331 88.2892 25.8629 88.2647 25.7964C88.2366 25.7207 88.1905 25.6531 88.1305 25.5995C88.0486 25.5265 87.9554 25.4676 87.8545 25.4251C87.7069 25.3618 87.5529 25.3149 87.3951 25.2853C87.2248 25.2495 87.0569 25.2028 86.8925 25.1454C86.7595 25.1006 86.6339 25.0362 86.5196 24.9545C86.4234 24.8852 86.3447 24.794 86.2899 24.6884C86.2353 24.5751 86.2082 24.4504 86.2108 24.3245C86.2108 24.1994 86.2394 24.0759 86.2943 23.9637C86.3506 23.8468 86.4321 23.744 86.533 23.663C86.6449 23.5735 86.7724 23.5057 86.9089 23.4631C87.0693 23.4111 87.2371 23.3857 87.4056 23.3879C87.5846 23.3852 87.7629 23.4116 87.9336 23.4661C88.0774 23.5107 88.2112 23.5832 88.3274 23.6796C88.4328 23.7676 88.5169 23.8787 88.5735 24.0043C88.6309 24.1312 88.6599 24.2693 88.6585 24.4087H88.2826C88.2824 24.3188 88.2625 24.23 88.2245 24.1486C88.1844 24.0633 88.127 23.9875 88.0559 23.9261C87.9731 23.8605 87.8798 23.8097 87.78 23.7758C87.6594 23.7346 87.5328 23.7142 87.4056 23.7156C87.2787 23.7127 87.1522 23.731 87.0312 23.7698C86.9382 23.7999 86.8517 23.8473 86.7761 23.9096C86.7119 23.9602 86.6607 24.0257 86.627 24.1005C86.5975 24.1673 86.5817 24.2394 86.5807 24.3125C86.5797 24.3833 86.5918 24.4537 86.6165 24.52C86.6445 24.5891 86.6903 24.6493 86.7493 24.6944C86.8332 24.7582 86.9262 24.8089 87.0252 24.8447C87.1763 24.8998 87.3308 24.945 87.4876 24.9801C87.6677 25.0211 87.8446 25.0748 88.0171 25.1409C88.1497 25.1915 88.2739 25.262 88.3856 25.3499C88.4774 25.4248 88.5509 25.5199 88.6003 25.6281C88.6499 25.7422 88.6743 25.8658 88.6719 25.9904C88.6779 26.1221 88.6534 26.2533 88.6003 26.3738C88.5409 26.4921 88.4551 26.595 88.3498 26.6745C88.2305 26.7624 88.0967 26.8281 87.9545 26.8684C87.5977 26.9651 87.2214 26.9604 86.8671 26.8549C86.7154 26.8064 86.5742 26.7294 86.451 26.6279C86.3426 26.5395 86.255 26.4281 86.1944 26.3016C86.1385 26.1817 86.1094 26.0508 86.1094 25.9182H86.4853C86.488 26.0375 86.5236 26.1536 86.5882 26.2535C86.6463 26.3413 86.7233 26.4148 86.8134 26.4685C86.9057 26.5237 87.0066 26.5628 87.1117 26.5843C87.2182 26.6067 87.3266 26.6183 87.4354 26.6188C87.563 26.6212 87.6903 26.604 87.8128 26.5677C87.9111 26.5396 88.0036 26.4937 88.0857 26.4324C88.1559 26.381 88.2135 26.3141 88.2543 26.237C88.2885 26.1643 88.3049 26.0843 88.302 26.0039Z" fill="#868B95"/>
<path d="M89.9429 22.6152V23.5173H90.5395V23.818H89.9429V25.9785C89.9385 26.0719 89.9496 26.1654 89.9757 26.2552C89.9934 26.3159 90.0251 26.3715 90.0682 26.4175C90.1053 26.4551 90.1516 26.482 90.2024 26.4957C90.2545 26.5091 90.3082 26.5157 90.362 26.5153C90.4144 26.5156 90.4667 26.5121 90.5186 26.5047L90.6529 26.4852L90.6678 26.7859C90.6121 26.8047 90.5546 26.8173 90.4962 26.8235C90.426 26.8324 90.3552 26.8369 90.2844 26.837C90.189 26.8379 90.0939 26.8242 90.0025 26.7964C89.9175 26.7704 89.8408 26.7222 89.7803 26.6566C89.7116 26.5813 89.6606 26.4914 89.6311 26.3935C89.6153 26.2574 89.6188 26.1197 89.6416 25.9845V23.818H89.0449V23.5173H89.6416V22.6152H89.9429Z" fill="#868B95"/>
<path d="M92.403 26.8253C92.2024 26.8278 92.0036 26.7873 91.8198 26.7065C91.646 26.6295 91.49 26.5169 91.3619 26.3757C91.2304 26.2288 91.129 26.0571 91.0635 25.8706C91.0135 25.6603 90.989 25.4448 90.9905 25.2286V25.1053C90.987 24.8727 91.0254 24.6415 91.1038 24.4227C91.1696 24.2313 91.2708 24.0543 91.4021 23.901C91.5267 23.76 91.6791 23.6468 91.8496 23.5687C92.0157 23.4901 92.1971 23.45 92.3806 23.4515C92.5704 23.4474 92.7588 23.4854 92.9325 23.5627C93.0892 23.6337 93.228 23.7396 93.3382 23.8724C93.4513 24.0122 93.536 24.1732 93.5873 24.346C93.6447 24.5412 93.6729 24.7439 93.6708 24.9474V25.1714H91.2858V25.2346C91.3027 25.4062 91.3377 25.5756 91.3902 25.7398C91.4391 25.8899 91.5161 26.0292 91.6169 26.1502C91.7126 26.2662 91.8315 26.3605 91.9659 26.4268C92.1054 26.4947 92.2585 26.5292 92.4134 26.5276C92.5877 26.5314 92.7605 26.4954 92.9191 26.4223C93.0769 26.3429 93.2139 26.227 93.3188 26.0841L93.5425 26.257C93.4871 26.3366 93.4247 26.4111 93.3561 26.4795C93.2827 26.5516 93.1999 26.6133 93.11 26.6629C93.0098 26.7177 92.903 26.7591 92.7923 26.7862C92.6646 26.8152 92.5338 26.8283 92.403 26.8253V26.8253ZM92.3015 23.7642C92.1717 23.7635 92.0432 23.7902 91.9242 23.8424C91.811 23.8964 91.7096 23.9726 91.6259 24.0664C91.5334 24.1682 91.4596 24.2858 91.4081 24.4137C91.3489 24.5578 91.3102 24.7097 91.2932 24.8647H93.2323V24.8256C93.2287 24.6909 93.2066 24.5574 93.1667 24.4287C93.1292 24.3063 93.07 24.1917 92.9921 24.0904C92.9145 23.9917 92.8169 23.9107 92.7058 23.8529C92.5802 23.7906 92.4414 23.7601 92.3015 23.7642V23.7642Z" fill="#868B95"/>
<path d="M94.6072 23.5176L94.6191 24.0558C94.6714 23.9669 94.7335 23.8842 94.8041 23.8092C94.8724 23.7347 94.9513 23.6709 95.0383 23.6198C95.1265 23.5661 95.2219 23.5256 95.3217 23.4995C95.4291 23.4699 95.54 23.4553 95.6513 23.4559C95.8601 23.4497 96.0666 23.5018 96.2479 23.6063C96.4231 23.7186 96.5502 23.8929 96.6044 24.0949C96.6562 24.0029 96.7183 23.9171 96.7894 23.8393C96.8612 23.7606 96.9435 23.6922 97.034 23.6363C97.1267 23.5779 97.2272 23.5329 97.3323 23.5025C97.4481 23.4687 97.5682 23.452 97.6888 23.4529C97.8408 23.4497 97.9922 23.4731 98.1363 23.5221C98.2622 23.5648 98.3752 23.6394 98.4644 23.7386C98.5594 23.8476 98.6292 23.9765 98.6688 24.116C98.7199 24.2947 98.7441 24.4802 98.7404 24.6662V26.8252H98.4421V24.6918C98.4459 24.5462 98.4263 24.401 98.3839 24.2618C98.3504 24.1595 98.2931 24.0667 98.2168 23.9912C98.1441 23.923 98.0553 23.8749 97.9588 23.8513C97.8514 23.8246 97.7412 23.8115 97.6306 23.8123C97.4897 23.811 97.35 23.8391 97.2204 23.8949C97.1097 23.9433 97.0086 24.0116 96.9221 24.0964C96.771 24.2485 96.6758 24.4478 96.6522 24.6617V26.8252H96.3538V24.6647C96.3574 24.5266 96.3378 24.3888 96.2957 24.2573C96.2615 24.1576 96.2036 24.0677 96.1271 23.9957C96.0534 23.9287 95.9649 23.8803 95.8691 23.8543C95.7606 23.825 95.6487 23.8108 95.5365 23.8123C95.4097 23.8096 95.2836 23.8316 95.1651 23.8769C95.0621 23.9173 94.9672 23.9759 94.8846 24.0498C94.8057 24.1209 94.7392 24.2047 94.6877 24.2979C94.6368 24.3885 94.5953 24.4842 94.5639 24.5835V26.8252H94.2656V23.5176H94.6072Z" fill="#868B95"/>
<path d="M22.0754 11.1256C22.0762 8.5815 21.2118 6.11396 19.6264 4.13431C18.0411 2.15465 15.8305 0.78248 13.3631 0.246491C6.46751 -1.24345 0 4.20364 0 11.3121V22.0559C1.68927 23.0116 3.49417 23.7429 5.3697 24.2315L5.45472 24.2525V24.2269C5.45472 20.7359 7.95313 17.9123 11.0362 17.9123C14.1193 17.9123 16.6177 20.7404 16.6177 24.2269V24.2525L16.7028 24.2315C18.5783 23.7429 20.3832 23.0116 22.0725 22.0559V11.1256H22.0754ZM10.9825 17.2764C10.1665 17.2764 9.36888 17.0325 8.6904 16.5755C8.01193 16.1186 7.48313 15.4691 7.17086 14.7092C6.8586 13.9493 6.77689 13.1131 6.93609 12.3064C7.09528 11.4998 7.48822 10.7588 8.06521 10.1772C8.6422 9.59557 9.37733 9.1995 10.1776 9.03904C10.978 8.87858 11.8075 8.96094 12.5614 9.27569C13.3153 9.59045 13.9596 10.1235 14.4129 10.8073C14.8663 11.4912 15.1083 12.2953 15.1083 13.1178C15.1083 14.2207 14.6736 15.2784 13.8999 16.0583C13.1261 16.8382 12.0767 17.2764 10.9825 17.2764V17.2764Z" fill="#2CA656"/>
<path d="M15.3454 26.6353C12.5086 27.2743 9.56684 27.2743 6.73003 26.6353C6.24825 26.5256 5.75006 26.3993 5.23844 26.249C3.41327 25.7146 1.65546 24.9694 0 24.0283V27.1255C0.581718 27.793 4.52397 31.9998 11.0377 31.9998C17.5515 31.9998 21.4937 27.79 22.0754 27.1255V24.0283C20.4195 24.9695 18.6612 25.7147 16.8355 26.249C16.3254 26.3993 15.8272 26.5241 15.3454 26.6353Z" fill="#76B437"/>
</g>
<defs>
<clipPath id="clip0_8591_71983">
<rect width="98.7429" height="32" fill="white"/>
</clipPath>
</defs>
</svg>
