<svg width="105" height="20" viewBox="0 0 105 20" fill="none" xmlns="http://www.w3.org/2000/svg">
<path d="M77.8786 4.05692V19.1917H74.3095V4.04193H70.347V0.823374H81.8702V4.05692H77.8786Z" fill="#1A468E"/>
<path d="M14.639 0.808458V19.1917H11.0699V4.04193H3.91707V19.1917H0.333374V0.808458H14.639Z" fill="#1A468E"/>
<path d="M21.7628 9.29643H23.103C23.7731 9.29643 24.6326 9.29645 25.3756 8.71262C26.0166 8.18866 26.3371 7.36533 26.3371 6.55694C26.3371 5.53898 25.8563 4.85036 25.3465 4.46114C24.6181 3.93719 23.7149 3.87732 22.8845 3.87732H21.7628V9.29643ZM23.3798 0.808458C25.3902 0.808458 26.7887 1.033 28.0998 2.21563C29.542 3.53299 29.9208 5.32941 29.9208 6.64678C29.9208 7.36534 29.8188 9.34137 28.4494 10.7486C27.4588 11.7665 25.9875 12.3803 23.9188 12.3803H21.7482V19.1917H18.1791V0.808458H23.3798Z" fill="#1A468E"/>
<path d="M66.7783 18.5328C65.7003 19.1166 64.2872 19.6106 62.3497 19.6106C59.2176 19.6106 57.3092 18.5029 55.8087 17.0508C53.7401 15.0149 52.9388 12.7244 52.9388 10.0298C52.9388 6.69145 54.2791 4.29624 55.8087 2.84414C57.6006 1.10762 59.8294 0.419041 62.3788 0.419041C63.6462 0.419041 65.1467 0.643591 66.7783 1.54179V5.73341C65.1467 3.80227 63.1072 3.6675 62.4662 3.6675C58.868 3.6675 56.5371 6.6915 56.5371 10.0897C56.5371 14.1616 59.5964 16.3771 62.5973 16.3771C64.2581 16.3771 65.7294 15.6286 66.7783 14.3711V18.5328Z" fill="#1A468E"/>
<path d="M85.4388 19.1917H89.008V0.808458H85.4388V19.1917Z" fill="#1A468E"/>
<path d="M96.1623 9.29643H97.5025C98.1726 9.29643 99.0321 9.29645 99.7751 8.71262C100.416 8.18866 100.737 7.36533 100.737 6.55694C100.737 5.53898 100.256 4.85036 99.746 4.46114C99.0176 3.93719 98.1144 3.87732 97.284 3.87732H96.1623V9.29643ZM97.7939 0.808458C99.8042 0.808458 101.203 1.033 102.514 2.21563C103.956 3.53299 104.335 5.32941 104.335 6.64678C104.335 7.36534 104.233 9.34137 102.863 10.7486C101.873 11.7665 100.402 12.3803 98.3329 12.3803H96.1623V19.1917H92.5931V0.808458H97.7939Z" fill="#1A468E"/>
<path d="M39.6382 10.0298C39.6382 10.0148 39.6382 10.0149 39.6382 9.99988C39.6382 8.96695 40.454 8.14361 41.4446 8.14361C42.4498 8.14361 43.251 8.98192 43.251 9.99988C43.251 11.0178 42.4498 11.8562 41.4592 11.8562V14.3711C43.8046 14.3711 45.6984 12.4101 45.6984 9.99988C45.6984 7.58971 43.79 5.6286 41.4446 5.6286C39.0992 5.6286 37.1908 7.58971 37.1908 9.99988C37.1908 10.0149 37.1908 10.0148 37.1908 10.0298H39.6382Z" fill="#FBC709"/>
<path d="M47.7069 6.84134C48.1585 7.79942 48.4207 8.86231 48.4207 10C48.4207 13.9671 45.2886 17.1707 41.4427 17.1707C37.5822 17.1707 34.4647 13.9521 34.4647 10C34.4647 6.18267 37.3783 3.05395 41.0348 2.8294L42.783 0.0898342C42.3459 0.0299549 41.9089 0 41.4573 0C36.0817 0 31.726 4.47609 31.726 10C31.726 15.524 36.0817 20 41.4573 20C46.8328 20 51.1886 15.524 51.1886 10C51.1886 7.84435 50.5185 5.85332 49.3968 4.22158L47.7069 6.84134Z" fill="#1A468E"/>
</svg>
