<svg width="64" height="40" viewBox="0 0 64 40" fill="none" xmlns="http://www.w3.org/2000/svg">
<path d="M12.5104 0.000488281H28.455C30.6807 0.000488281 32.0651 1.81465 31.5458 4.04776L24.1225 35.9192C23.5986 38.1445 21.3701 39.9602 19.1428 39.9602H3.19976C0.977135 39.9602 -0.410302 38.1445 0.108918 35.9192L7.5354 4.04776C8.05462 1.81465 10.2819 0.000488281 12.5104 0.000488281Z" fill="#E21836"/>
<path d="M27.1285 0H45.4644C47.6898 0 46.6863 1.81416 46.1628 4.04727L38.7406 35.9187C38.2198 38.144 38.3823 39.9597 36.1523 39.9597H17.8163C15.5863 39.9597 14.2063 38.144 14.7302 35.9187L22.152 4.04727C22.679 1.81416 24.9016 0 27.1285 0Z" fill="#00447C"/>
<path d="M44.7371 0H60.6818C62.9106 0 64.2949 1.81416 63.7714 4.04727L56.3492 35.9187C55.8253 38.144 53.5953 39.9597 51.3669 39.9597H35.4296C33.1996 39.9597 31.8165 38.144 32.3388 35.9187L39.7622 4.04727C40.2814 1.81416 42.5071 0 44.7371 0Z" fill="#007B84"/>
<path d="M16.6749 10.214C15.0352 10.2307 14.551 10.214 14.3963 10.1775C14.3368 10.46 13.2304 15.564 13.2273 15.5683C12.989 16.6009 12.8157 17.3369 12.2269 17.8122C11.8927 18.0886 11.5025 18.2219 11.0501 18.2219C10.323 18.2219 9.89936 17.8608 9.82824 17.176L9.81464 16.9409C9.81464 16.9409 10.0362 15.5578 10.0362 15.55C10.0362 15.55 11.1974 10.8988 11.4053 10.2839C11.4162 10.249 11.4193 10.2307 11.422 10.214C9.16173 10.2338 8.76105 10.214 8.73345 10.1775C8.71829 10.2276 8.66233 10.516 8.66233 10.516L7.4766 15.7583L7.37477 16.2029L7.17773 17.6572C7.17773 18.0886 7.26246 18.4407 7.43113 18.7384C7.97133 19.6824 9.51228 19.8238 10.384 19.8238C11.5072 19.8238 12.5608 19.5852 13.2727 19.1496C14.5086 18.4193 14.832 17.2779 15.1203 16.2635L15.254 15.7431C15.254 15.7431 16.4502 10.9124 16.6535 10.2839C16.6613 10.249 16.6644 10.2307 16.6749 10.214ZM20.745 14.111C20.4566 14.111 19.9296 14.181 19.4562 14.413C19.2845 14.5012 19.122 14.603 18.9506 14.7045L19.1053 14.146L19.0206 14.0519C18.0167 14.2552 17.7921 14.2824 16.8648 14.413L16.7871 14.4647C16.6794 15.3574 16.5838 16.0286 16.1847 17.7833C16.0327 18.4299 15.8749 19.0829 15.7168 19.728L15.7595 19.81C16.7097 19.7599 16.9981 19.7599 17.824 19.7735L17.8908 19.7008C17.9957 19.1633 18.0093 19.0374 18.2417 17.9488C18.351 17.4327 18.5787 16.2987 18.691 15.8949C18.8974 15.7993 19.101 15.7052 19.2953 15.7052C19.7582 15.7052 19.7019 16.109 19.684 16.2699C19.6642 16.54 19.4955 17.4222 19.3226 18.1797L19.2071 18.6686C19.1267 19.0296 19.0385 19.3806 18.958 19.7385L18.993 19.81C19.9296 19.7599 20.2153 19.7599 21.0151 19.7735L21.1091 19.7008C21.2537 18.8613 21.2961 18.6367 21.5526 17.4144L21.6816 16.8529C21.9323 15.7538 22.0582 15.1965 21.8685 14.7426C21.668 14.2338 21.1868 14.111 20.745 14.111ZM25.2917 15.2617C24.7939 15.3573 24.4764 15.4211 24.1608 15.4623C23.8479 15.5124 23.5428 15.5579 23.0617 15.6247L23.0236 15.6593L22.9886 15.6869C22.9385 16.0452 22.9035 16.355 22.8371 16.7191C22.7807 17.0957 22.6941 17.5236 22.553 18.1384C22.4438 18.6091 22.3874 18.7731 22.3252 18.9386C22.2646 19.1042 22.1978 19.2651 22.075 19.728L22.1037 19.7707L22.1278 19.81C22.5775 19.7886 22.8717 19.7734 23.174 19.7707C23.476 19.7598 23.7889 19.7707 24.2731 19.7734L24.3155 19.7388L24.3609 19.7008C24.4309 19.2834 24.4414 19.171 24.4841 18.9674C24.5265 18.749 24.5996 18.4466 24.7787 17.639C24.8634 17.2597 24.9579 16.8816 25.0457 16.4945C25.137 16.109 25.2326 15.7293 25.3236 15.35L25.31 15.3041L25.2917 15.2617ZM25.3023 13.7102C24.85 13.4432 24.056 13.5279 23.5216 13.8968C22.9888 14.2582 22.9281 14.7712 23.379 15.0417C23.8236 15.3013 24.6207 15.224 25.1504 14.852C25.682 14.4828 25.7485 13.9745 25.3023 13.7102ZM28.0381 19.8936C28.9534 19.8936 29.8916 19.6414 30.5977 18.8929C31.141 18.2858 31.3901 17.3826 31.4764 17.0107C31.7574 15.778 31.5386 15.2024 31.2638 14.8518C30.8464 14.3175 30.1088 14.1461 29.3436 14.1461C28.8834 14.1461 27.7875 14.1915 26.9313 14.9809C26.3165 15.5502 26.0324 16.3228 25.861 17.0636C25.688 17.8183 25.4891 19.177 26.7385 19.6826C27.1241 19.8482 27.6798 19.8936 28.0381 19.8936ZM27.9666 17.1199C28.1777 16.1864 28.4268 15.4029 29.0626 15.4029C29.5608 15.4029 29.597 15.9859 29.3754 16.9225C29.3358 17.1304 29.1539 17.9034 28.9079 18.2326C28.7361 18.4755 28.5329 18.6228 28.3082 18.6228C28.2414 18.6228 27.8438 18.6228 27.8376 18.0325C27.8345 17.741 27.894 17.4433 27.9666 17.1199ZM33.7643 19.7736L33.8358 19.7009C33.9373 19.1634 33.954 19.0371 34.1786 17.9489C34.2909 17.4328 34.5233 16.2988 34.6325 15.895C34.8393 15.799 35.0395 15.7049 35.24 15.7049C35.6997 15.7049 35.6438 16.1087 35.6255 16.2696C35.6088 16.5401 35.4401 17.4219 35.2641 18.1794L35.1549 18.6683C35.0713 19.0297 34.9804 19.3803 34.8999 19.7386L34.9349 19.8101C35.8746 19.76 36.1494 19.76 36.9539 19.7736L37.051 19.7009C37.1921 18.8611 37.2302 18.6364 37.4945 17.4146L37.6204 16.8526C37.8722 15.7535 37.9997 15.1966 37.8132 14.7427C37.6068 14.2339 37.1226 14.1111 36.6869 14.1111C36.3981 14.1111 35.8684 14.1807 35.3978 14.4131C35.2295 14.5013 35.0608 14.6028 34.8953 14.7046L35.0395 14.1461L34.9621 14.0517C33.9587 14.2553 33.7294 14.2825 32.8032 14.4131L32.7321 14.4648C32.6198 15.3575 32.5285 16.0283 32.1293 17.7834C31.9774 18.4301 31.8196 19.083 31.6618 19.7281L31.7042 19.8101C32.6559 19.76 32.94 19.76 33.7643 19.7736ZM40.6687 19.8099C40.7278 19.5216 41.0787 17.8123 41.0818 17.8123C41.0818 17.8123 41.3807 16.5582 41.3989 16.5127C41.3989 16.5127 41.493 16.3821 41.587 16.3304H41.7254C43.0308 16.3304 44.5049 16.3304 45.6603 15.4805C46.4466 14.8975 46.984 14.0367 47.2238 12.9905C47.286 12.734 47.3319 12.4289 47.3319 12.1238C47.3319 11.7231 47.2514 11.3267 47.019 11.017C46.4298 10.1927 45.2565 10.1775 43.9021 10.1713C43.8979 10.1713 43.2345 10.1775 43.2345 10.1775C41.5008 10.1989 40.8055 10.1927 40.5198 10.1577C40.4957 10.284 40.4503 10.5087 40.4503 10.5087C40.4503 10.5087 39.8292 13.3869 39.8292 13.3916C39.8292 13.3916 38.3431 19.5111 38.2731 19.7994C39.7869 19.7812 40.4075 19.7812 40.6687 19.8099ZM41.8194 14.697C41.8194 14.697 42.4797 11.8246 42.4766 11.8355L42.498 11.6882L42.5073 11.5759L42.7712 11.6031C42.7712 11.6031 44.133 11.72 44.1649 11.7231C44.7023 11.9311 44.9239 12.467 44.7692 13.1665C44.6281 13.8059 44.2134 14.3433 43.6806 14.603C43.2418 14.8229 42.7044 14.8412 42.1506 14.8412H41.7922L41.8194 14.697ZM45.9306 17.1731C45.7561 17.917 45.5556 19.2757 46.7988 19.7599C47.1952 19.9286 47.5504 19.9787 47.9115 19.9604C48.2927 19.9398 48.646 19.7486 48.9732 19.4735C48.9437 19.5866 48.9142 19.6997 48.8846 19.8131L48.941 19.8858C49.8352 19.8481 50.1127 19.8481 51.0816 19.8555L51.1694 19.7887C51.3109 18.957 51.4442 18.1494 51.8119 16.5583C51.991 15.7962 52.1698 15.0415 52.3536 14.2824L52.3249 14.1989C51.3245 14.3843 51.0571 14.4239 50.0949 14.5603L50.0218 14.6198C50.0121 14.6971 50.002 14.7714 49.9926 14.8456C49.843 14.6038 49.6262 14.3975 49.2915 14.2688C48.8637 14.1006 47.8586 14.3174 46.9947 15.104C46.3876 15.6656 46.0962 16.4351 45.9306 17.1731ZM48.0316 17.2186C48.2457 16.3018 48.4917 15.5261 49.1291 15.5261C49.5321 15.5261 49.7443 15.898 49.7012 16.5323C49.667 16.6904 49.63 16.8572 49.5861 17.0457C49.5224 17.3181 49.4532 17.5882 49.386 17.8587C49.3176 18.0437 49.2379 18.2182 49.1505 18.3344C48.9865 18.5668 48.5963 18.711 48.3716 18.711C48.3079 18.711 47.9146 18.711 47.901 18.1311C47.8979 17.8424 47.9573 17.5451 48.0316 17.2186ZM59.003 14.1915L58.9257 14.1032C57.9358 14.3038 57.7567 14.3356 56.8472 14.4585L56.7804 14.5253C56.7773 14.5362 56.7746 14.5529 56.7699 14.5681L56.7668 14.5529C56.0898 16.1148 56.1096 15.7779 55.5585 17.0075C55.5554 16.9516 55.5554 16.9166 55.5523 16.8571L55.4143 14.1915L55.3277 14.1032C54.2908 14.3038 54.2663 14.3356 53.3087 14.4585L53.2341 14.5253C53.2236 14.5572 53.2236 14.5922 53.2174 14.6302L53.2236 14.6438C53.3433 15.2556 53.3145 15.1191 53.4346 16.0845C53.4906 16.5583 53.5652 17.0347 53.6212 17.5027C53.7156 18.2858 53.7685 18.6713 53.8839 19.8664C53.2372 20.9336 53.0841 21.3373 52.4615 22.274L52.4657 22.2833L52.0274 22.9766C51.9772 23.0497 51.9318 23.0998 51.868 23.1212C51.7981 23.1558 51.7071 23.162 51.5808 23.162H51.3379L50.9769 24.3629L52.2155 24.3843C52.9426 24.3812 53.3996 24.0411 53.6456 23.5841L54.4245 22.2495H54.412L54.494 22.1554C55.0179 21.0276 59.003 14.1915 59.003 14.1915ZM45.9306 29.9634H45.4051L47.3499 23.531H47.995L48.1998 22.8684L48.2196 23.6052C48.1955 24.0607 48.5539 24.4645 49.4952 24.3977H50.5837L50.9584 23.1591H50.5487C50.3132 23.1591 50.204 23.0996 50.2176 22.9722L50.1978 22.2225H48.1819V22.2264C47.5302 22.24 45.5839 22.2889 45.1898 22.3939C44.713 22.5167 44.2105 22.8781 44.2105 22.8781L44.4079 22.2147H42.5222L42.1293 23.531L40.1585 30.0617H39.7761L39.4011 31.2913H43.1569L43.0309 31.7013H44.8816L45.0044 31.2913H45.5237L45.9306 29.9634ZM44.3896 24.838C44.0876 24.9216 43.5257 25.175 43.5257 25.175L44.0255 23.531H45.5237L45.1622 24.7288C45.1622 24.7288 44.6994 24.756 44.3896 24.838ZM44.4184 27.1865C44.4184 27.1865 43.9477 27.2456 43.638 27.3156C43.3329 27.4081 42.7608 27.6995 42.7608 27.6995L43.2769 25.9888H44.7829L44.4184 27.1865ZM43.5789 29.9785H42.0761L42.5117 28.5347H44.0099L43.5789 29.9785ZM47.1981 25.9888H49.3644L49.0531 26.9969H46.8581L46.5285 28.0991H48.4492L46.9949 30.1468C46.8931 30.2972 46.8017 30.3504 46.7003 30.3928C46.5985 30.4445 46.4648 30.5051 46.3101 30.5051H45.7773L45.4112 31.7122H46.8048C47.5293 31.7122 47.9572 31.3827 48.2731 30.9501L49.2704 29.5852L49.4845 30.9711C49.53 31.2307 49.7165 31.3827 49.8428 31.4417C49.9823 31.5117 50.1265 31.6318 50.3302 31.6497C50.5486 31.659 50.7064 31.6664 50.8113 31.6664H51.4961L51.9073 30.3155H51.6372C51.4821 30.3155 51.2151 30.2894 51.1696 30.2408C51.1242 30.1818 51.1242 30.0908 51.0997 29.9525L50.8824 28.5635H49.9928L50.383 28.0991H52.5738L52.9107 26.9969H50.8824L51.1984 25.9888H53.2205L53.5955 24.7455H47.567L47.1981 25.9888ZM28.9018 30.2592L29.4074 28.5772H31.4854L31.8651 27.3262H29.7851L30.1027 26.2908H32.1352L32.5118 25.0795H27.4261L27.0573 26.2908H28.2127L27.9045 27.3262H26.746L26.362 28.5986H27.5171L26.8432 30.8239C26.7522 31.1185 26.8859 31.2308 26.9706 31.3676C27.0573 31.5009 27.1451 31.5891 27.3426 31.6393C27.5462 31.6848 27.6857 31.712 27.8754 31.712H30.2181L30.6355 30.3261L29.597 30.4687C29.3965 30.4687 28.8411 30.4446 28.9018 30.2592ZM29.1401 22.2071L28.6135 23.1589C28.5008 23.3668 28.3994 23.4958 28.3081 23.5553C28.2276 23.6054 28.0683 23.6264 27.8374 23.6264H27.5626L27.1954 24.844H28.1079C28.5467 24.844 28.8836 24.6831 29.0445 24.6027C29.2175 24.5102 29.2629 24.563 29.3966 24.434L29.7048 24.167H32.5543L32.9325 22.8993H30.8466L31.2108 22.2071H29.1401ZM33.3469 30.2837C33.2983 30.2137 33.3333 30.0905 33.4075 29.834L34.1864 27.2562H36.957C37.3607 27.2504 37.6522 27.2457 37.8419 27.2321C38.0455 27.2107 38.2671 27.138 38.5084 27.0075C38.7575 26.8707 38.885 26.7265 38.9926 26.5609C39.1127 26.3957 39.3055 26.0343 39.4711 25.477L40.45 22.2148L37.5749 22.2315C37.5749 22.2315 36.6896 22.3621 36.2998 22.5063C35.9065 22.6672 35.3445 23.1164 35.3445 23.1164L35.6041 22.2222H33.828L31.3415 30.4687C31.2533 30.7889 31.1942 31.0213 31.1806 31.1608C31.176 31.3112 31.3703 31.4601 31.4962 31.5724C31.6451 31.6847 31.865 31.6664 32.0761 31.6847C32.298 31.7014 32.6135 31.7119 33.0492 31.7119H34.4141L34.833 30.2973L33.6112 30.4127C33.4806 30.4127 33.3861 30.3427 33.3469 30.2837ZM34.6889 25.5151H37.599L37.414 26.0949C37.388 26.1085 37.3258 26.0662 37.0296 26.1012H34.5097L34.6889 25.5151ZM35.2718 23.5703H38.2064L37.9954 24.2687C37.9954 24.2687 36.6122 24.2551 36.3907 24.2959C35.416 24.4646 34.8467 24.9854 34.8467 24.9854L35.2718 23.5703ZM37.4791 28.0367C37.455 28.1234 37.4169 28.1762 37.3637 28.2159C37.3046 28.2539 37.209 28.2675 37.0664 28.2675H36.6517L36.6762 27.5614H34.9514L34.8815 31.0137C34.8788 31.2628 34.9028 31.407 35.0851 31.5224C35.2674 31.6666 35.829 31.6848 36.5849 31.6848H37.6657L38.0559 30.3926L37.115 30.4443L36.8021 30.4626C36.7594 30.4443 36.7186 30.4276 36.6731 30.3821C36.6335 30.3429 36.5666 30.367 36.5775 30.1178L36.5849 29.2329L37.5716 29.1921C38.1044 29.1921 38.3322 29.0188 38.5265 28.8536C38.7119 28.6954 38.7725 28.5135 38.8425 28.2675L39.008 27.484H37.6521L37.4791 28.0367Z" fill="#FEFEFE"/>
</svg>
