<svg width="36" height="48" viewBox="0 0 36 48" fill="none" xmlns="http://www.w3.org/2000/svg">
<path fill-rule="evenodd" clip-rule="evenodd" d="M33.473 20.0693C33.473 25.9903 32.1126 30.4023 29.3941 33.2772C26.6759 36.1521 22.4756 37.589 16.813 37.589C11.5226 37.589 7.50869 36.1519 4.77173 33.2772C2.03471 30.4029 0.666376 26.0676 0.666687 20.2718V0.826164C0.667308 0.607341 0.754979 0.397637 0.910527 0.242851C1.06605 0.0880657 1.27685 0.000762352 1.49689 0H11.0898C11.31 0.000621176 11.5209 0.0878673 11.6765 0.242681C11.8321 0.397467 11.9199 0.607256 11.9204 0.826164V20.6967C11.9204 23.0634 12.3606 24.8846 13.2565 26.1696C13.701 26.7557 14.2741 27.2332 14.9326 27.5658C15.5907 27.8981 16.3167 28.0766 17.0547 28.0876C17.7931 28.0986 18.5241 27.9419 19.1919 27.6293C19.8599 27.3168 20.4475 26.8565 20.9094 26.2839C21.785 25.0783 22.2215 23.3014 22.2187 20.9537V17.2325H33.473V20.0693Z" fill="#1C4583"/>
<path fill-rule="evenodd" clip-rule="evenodd" d="M32.6027 15.059H22.2195V0.865185C22.22 0.635915 22.3118 0.416216 22.475 0.254118C22.6379 0.0919909 22.8587 0.000621176 23.0894 0H24.6435C24.6452 2.32743 25.5758 4.55887 27.2312 6.20413C28.8864 7.84912 31.1308 8.77326 33.471 8.77326H33.4732V15.059H32.6027Z" fill="#1C4583"/>
<path fill-rule="evenodd" clip-rule="evenodd" d="M26.856 0H32.6042C32.8346 0.000621176 33.0556 0.0919909 33.2186 0.254118C33.3815 0.416217 33.4735 0.635915 33.4741 0.865185V6.58955C31.719 6.58955 30.0356 5.89581 28.7944 4.66136C27.5531 3.4272 26.856 1.75285 26.856 0.00714326V0Z" fill="#F4821F"/>
<path fill-rule="evenodd" clip-rule="evenodd" d="M35.3961 42.7301V42.7403C35.3961 42.8931 35.3506 43.0427 35.2653 43.1698C35.1798 43.2968 35.0586 43.3962 34.9166 43.4547C34.7746 43.5131 34.6185 43.5286 34.4674 43.4987C34.3166 43.4691 34.1783 43.3954 34.0696 43.2875C33.9609 43.1794 33.8866 43.0416 33.8567 42.8916C33.8267 42.7417 33.842 42.5864 33.9007 42.445C33.9597 42.3038 34.0591 42.1832 34.187 42.0982C34.3149 42.0132 34.4651 41.9678 34.6187 41.9678H35.3955L35.3961 42.7301Z" fill="#1C4583"/>
<path fill-rule="evenodd" clip-rule="evenodd" d="M2.55195 47.0335C3.82189 47.0335 4.43533 46.3299 4.43533 45.2973V42.8084H3.52618V45.2725C3.52618 45.5308 3.42301 45.7787 3.23937 45.9611C3.05573 46.1438 2.80666 46.2466 2.54693 46.2466C2.28722 46.2466 2.03816 46.1438 1.85451 45.9611C1.67087 45.7787 1.5677 45.5308 1.5677 45.2725V42.8084H0.666687V45.305C0.666687 46.3254 1.27965 47.0349 2.55006 47.0349L2.55195 47.0335ZM9.92078 46.9587V46.1811H7.9062L9.8773 43.516V42.8064H6.74262V43.5846H8.71344L6.74262 46.2415V46.9553L9.92078 46.9587ZM14.1671 47.0335C14.5245 47.0417 14.8775 46.9505 15.1858 46.7701C15.4941 46.59 15.746 46.3274 15.9126 46.0125L15.1468 45.6458C15.0537 45.8256 14.913 45.9767 14.74 46.0831C14.5669 46.1896 14.3681 46.2469 14.1645 46.2492C13.813 46.2319 13.4812 46.0806 13.2387 45.827C12.9959 45.5735 12.8606 45.2366 12.8606 44.8865C12.8606 44.5361 12.9959 44.1993 13.2387 43.9457C13.4812 43.6922 13.813 43.5408 14.1645 43.5236C14.3678 43.5273 14.566 43.5851 14.7391 43.6913C14.9119 43.7975 15.0528 43.948 15.1468 44.127L15.9126 43.7534C15.746 43.4389 15.4941 43.1771 15.1855 42.9979C14.8772 42.8188 14.5242 42.7291 14.1671 42.7392C13.8782 42.7307 13.5905 42.7799 13.3211 42.8841C13.0518 42.988 12.8059 43.1447 12.5986 43.3449C12.3914 43.5451 12.2265 43.7848 12.1138 44.0493C12.0011 44.3142 11.9433 44.5988 11.9433 44.8862C11.9433 45.1737 12.0011 45.458 12.1138 45.7228C12.2265 45.9874 12.3914 46.2271 12.5986 46.4273C12.8059 46.6275 13.0518 46.7842 13.3211 46.8884C13.5905 46.9923 13.8782 47.0414 14.1671 47.033V47.0335ZM21.9292 46.9587L20.3215 42.8084H19.2079L17.5934 46.9587H18.6071L18.8696 46.2554H20.6592L20.9156 46.9587H21.9292ZM20.4152 45.4778H19.1136L19.7644 43.6916L20.4152 45.4778ZM27.9275 48L26.3963 45.3792C26.6699 45.3134 26.9116 45.1539 27.0788 44.9286C27.2459 44.7033 27.3278 44.4266 27.3097 44.147C27.3168 43.9646 27.2849 43.7828 27.2163 43.6137C27.1474 43.4445 27.0435 43.2915 26.911 43.1653C26.7786 43.0388 26.6208 42.9417 26.448 42.8804C26.2752 42.8191 26.0911 42.7948 25.9084 42.8092H23.9557V46.9596H24.8442V45.4843H25.4948L26.9074 47.9989L27.9275 48ZM25.7768 44.7072H24.8445V43.5874H25.7737C25.8528 43.5792 25.9324 43.5874 26.0081 43.6117C26.0835 43.6363 26.1529 43.6761 26.2119 43.7289C26.2707 43.7817 26.3178 43.8463 26.3503 43.9183C26.3825 43.9903 26.3991 44.0683 26.3991 44.1473C26.3991 44.2261 26.3825 44.3043 26.3503 44.3763C26.3178 44.4483 26.2707 44.513 26.2119 44.5658C26.1529 44.6186 26.0835 44.6584 26.0081 44.6827C25.9324 44.7072 25.8528 44.7154 25.7737 44.7072H25.7768ZM31.2618 46.9596C32.5694 46.9596 33.4766 46.1382 33.4766 44.8876C33.4766 43.6368 32.5674 42.8092 31.2618 42.8092H29.6163V46.9596H31.2618ZM31.2618 46.182H30.5048V43.5874H31.2618C31.4366 43.5744 31.6125 43.5993 31.7768 43.6603C31.9414 43.721 32.0908 43.8164 32.215 43.9398C32.339 44.0632 32.435 44.2117 32.496 44.3752C32.5572 44.5387 32.5824 44.7134 32.5694 44.8876C32.5767 45.0602 32.5479 45.2324 32.4844 45.3933C32.4211 45.5543 32.3246 45.7003 32.2015 45.822C32.0781 45.9436 31.9307 46.0385 31.7683 46.1004C31.6063 46.1622 31.4329 46.1896 31.2593 46.1811L31.2618 46.182Z" fill="#1C4583"/>
</svg>
